<?xml version="1.0" standalone="no"?>
<!DOCTYPE svg PUBLIC "-//W3C//DTD SVG 1.1//EN" "http://www.w3.org/Graphics/SVG/1.1/DTD/svg11.dtd" >
<svg xmlns="http://www.w3.org/2000/svg" xmlns:xlink="http://www.w3.org/1999/xlink" version="1.1">
<metadata>
Created by FontForge 20150824 at Fri May 27 22:46:37 2016
 By Everything Fonts
Copyright (c) TR &#38; Dara, 2006. All rights reserved.
</metadata>
<defs>
<font id="KhmerMEF1" horiz-adv-x="0" >
  <font-face 
    font-family="Khmer MEF1"
    font-weight="400"
    font-stretch="normal"
    units-per-em="2048"
    panose-1="2 0 5 6 0 0 0 2 0 4"
    ascent="1638"
    descent="-410"
    x-height="1117"
    cap-height="1489"
    bbox="-1811 -1504 3800 2882"
    underline-thickness="130"
    underline-position="-235"
    unicode-range="U+0020-25CC"
  />
<missing-glyph horiz-adv-x="2048" 
d="M256 0v1536h1536v-1536h-1536zM384 128h1280v1280h-1280v-1280z" />
    <glyph glyph-name=".notdef" horiz-adv-x="2048" 
d="M256 0v1536h1536v-1536h-1536zM384 128h1280v1280h-1280v-1280z" />
    <glyph glyph-name=".null" 
 />
    <glyph glyph-name="nonmarkingreturn" horiz-adv-x="640" 
 />
    <glyph glyph-name="space" unicode=" " horiz-adv-x="640" 
 />
    <glyph glyph-name="exclam" unicode="!" horiz-adv-x="680" 
d="M452 1489l-28 -1079h-166l-30 1079h224zM442 0h-204v211h204v-211z" />
    <glyph glyph-name="quotedbl" unicode="&#x22;" horiz-adv-x="822" 
d="M708 1556l-43 -579h-132l-43 579h218zM332 1556l-43 -579h-132l-43 579h218z" />
    <glyph glyph-name="numbersign" unicode="#" horiz-adv-x="1490" 
d="M1348 932h-293l-92 -376h268v-135h-303l-105 -421h-129l105 421h-270l-105 -421h-129l105 421h-258v135h293l92 376h-268v135h303l105 422h129l-105 -422h270l105 422h129l-105 -422h258v-135zM929 934h-274l-94 -380h274z" />
    <glyph glyph-name="dollar" unicode="$" horiz-adv-x="1118" 
d="M1024 380q0 -147 -112.5 -252.5t-283.5 -126.5v-362h-114v357q-108 1 -217.5 25t-190.5 64v202h15q79 -59 178 -96t215 -47v432q-25 6 -61 14.5t-61 16.5q-150 41 -214.5 124t-64.5 204q0 142 111 247t290 122v272h114v-270q91 -3 188.5 -25.5t159.5 -49.5v-198h-15
q-70 48 -153.5 84t-179.5 44v-430q33 -7 61.5 -14.5t49.5 -12.5q136 -32 210.5 -111t74.5 -213zM514 746v414q-90 -8 -151 -58.5t-61 -140.5q0 -89 44.5 -137.5t167.5 -77.5zM835 354q0 94 -48 139t-159 68v-415q102 12 154.5 61.5t52.5 146.5z" />
    <glyph glyph-name="percent" unicode="%" horiz-adv-x="2000" 
d="M807 1076q0 -225 -90.5 -333.5t-261.5 -108.5q-174 0 -263.5 110t-89.5 331q0 224 91 333t262 109q174 0 263 -110t89 -331zM1473 1489l-780 -1489h-165l780 1489h165zM1897 413q0 -225 -90.5 -333.5t-261.5 -108.5q-174 0 -263.5 110t-89.5 331q0 224 91 333t262 109
q174 0 263 -110t89 -331zM629 1076q0 152 -35.5 230t-138.5 78t-139 -79t-36 -230q0 -150 34 -229t141 -79q103 0 138.5 79t35.5 230zM1719 413q0 152 -35.5 230t-138.5 78t-139 -79t-36 -230q0 -150 34 -229t141 -79q103 0 138.5 79t35.5 230z" />
    <glyph glyph-name="ampersand" unicode="&#x26;" horiz-adv-x="1380" 
d="M1445 0h-256l-204 213q-102 -130 -209.5 -187t-243.5 -57q-202 0 -333.5 121.5t-131.5 318.5q0 86 24 153t64 121q39 52 90 91.5t98 68.5q-101 68 -151 143t-50 189q0 71 28.5 131.5t74.5 106.5q48 47 124.5 77t167.5 30q166 0 271 -87.5t105 -221.5q0 -49 -12.5 -101.5
t-45.5 -101.5t-86.5 -92t-142.5 -75l352 -362q14 82 17 178.5t3 251.5h195v-96q0 -96 -24.5 -216.5t-80.5 -228.5zM898 301l-460 471q-25 -16 -50 -38t-55 -66q-24 -35 -42.5 -91.5t-18.5 -119.5q0 -142 84.5 -233.5t228.5 -91.5q96 0 173 40.5t140 128.5zM532 912
q56 19 92.5 51t56.5 70q18 35 27 74t9 84q0 97 -56.5 150t-131.5 53q-89 0 -140 -60t-51 -150q0 -40 7.5 -68.5t31.5 -66.5q21 -31 58.5 -66t96.5 -71z" />
    <glyph glyph-name="quotesingle" unicode="'" horiz-adv-x="432" 
d="M327 1556l-43 -579h-136l-43 579h222z" />
    <glyph glyph-name="parenleft" unicode="(" horiz-adv-x="784" 
d="M710 -412h-229q-174 207 -273.5 438t-99.5 546q0 308 98.5 542.5t274.5 441.5h229v-10q-81 -73 -154.5 -168.5t-136.5 -222.5q-60 -123 -97.5 -271t-37.5 -312q0 -171 36.5 -313t98.5 -270q60 -123 137 -222.5t154 -168.5v-10z" />
    <glyph glyph-name="parenright" unicode=")" horiz-adv-x="784" 
d="M676 572q0 -309 -99 -543t-274 -441h-229v10q77 69 155 169.5t136 221.5q62 129 98.5 272.5t36.5 310.5q0 165 -37 312t-98 271t-138 223t-153 168v10h229q174 -207 273.5 -440t99.5 -544z" />
    <glyph glyph-name="asterisk" unicode="*" horiz-adv-x="1118" 
d="M1007 887l-65 -110l-327 217l7 -364h-125l6 364l-325 -218l-66 110l354 207l-354 207l66 110l326 -219l-7 365h125l-8 -365l328 218l65 -110l-354 -205z" />
    <glyph glyph-name="plus" unicode="+" horiz-adv-x="1490" 
d="M1333 572h-505v-505h-166v505h-505v160h505v505h166v-505h505v-160z" />
    <glyph glyph-name="comma" unicode="," horiz-adv-x="620" 
d="M500 285l-280 -655h-146l176 655h250z" />
    <glyph glyph-name="hyphen" unicode="-" horiz-adv-x="744" 
d="M654 561h-564v181h564v-181z" />
    <glyph glyph-name="period" unicode="." horiz-adv-x="620" 
d="M429 0h-239v285h239v-285z" />
    <glyph glyph-name="slash" unicode="/" horiz-adv-x="783" 
d="M728 1556l-583 -1880h-169l580 1880h172z" />
    <glyph glyph-name="zero" unicode="0" horiz-adv-x="1118" 
d="M1035 745q0 -401 -116.5 -588.5t-359.5 -187.5q-246 0 -361 191t-115 583q0 403 116.5 589.5t359.5 186.5q246 0 361 -193t115 -581zM779 291q29 74 41 187t12 267q0 153 -12 266t-42 188q-30 76 -82.5 115.5t-136.5 39.5q-83 0 -136.5 -39.5t-84.5 -117.5
q-30 -76 -41 -192t-11 -262q0 -156 9.5 -261t41.5 -188q29 -77 82.5 -118.5t139.5 -41.5q83 0 136.5 39.5t83.5 117.5z" />
    <glyph glyph-name="one" unicode="1" horiz-adv-x="1118" 
d="M952 0h-726v152h270v998h-270v136q153 0 225.5 43.5t81.5 164.5h155v-1342h264v-152z" />
    <glyph glyph-name="two" unicode="2" horiz-adv-x="1118" 
d="M1028 0h-919v209q99 94 187 180t172 179q170 187 232 299.5t62 232.5q0 62 -19.5 109t-53.5 78q-35 30 -81 45t-101 15q-53 0 -107.5 -13.5t-104.5 -33.5q-42 -17 -81 -41t-63 -41h-11v212q62 31 172.5 60.5t209.5 29.5q208 0 326 -110.5t118 -299.5q0 -87 -20.5 -161
t-56.5 -137q-37 -65 -89 -129t-110 -126q-94 -102 -209.5 -212t-184.5 -174h732v-171z" />
    <glyph glyph-name="three" unicode="3" horiz-adv-x="1118" 
d="M511 1347q-54 0 -108 -13t-106 -34q-48 -20 -83.5 -42t-63.5 -41h-12v211q65 35 176.5 63.5t212.5 28.5t176.5 -20.5t136.5 -63.5q66 -48 99.5 -116t33.5 -159q0 -123 -81 -216t-194 -118v-14q47 -9 100.5 -31t99.5 -65t75 -110.5t29 -164.5q0 -101 -34.5 -185.5
t-97.5 -149.5q-65 -68 -157 -103t-209 -35q-112 0 -222 27t-185 65v211h14q63 -46 169 -88t212 -42q61 0 122.5 19.5t102.5 63.5q40 44 61 97t21 134t-23.5 133t-65.5 82t-99.5 41.5t-124.5 11.5h-85v166h66q135 0 219.5 64t84.5 186q0 56 -22 96.5t-56 64.5q-38 26 -84 36
t-98 10z" />
    <glyph glyph-name="four" unicode="4" horiz-adv-x="1118" 
d="M1067 512h-177v-512h-192v512h-658v210l666 767h184v-817h177v-160zM698 672v582l-502 -582h502z" />
    <glyph glyph-name="five" unicode="5" horiz-adv-x="1118" 
d="M1011 474q0 -108 -34.5 -200t-96.5 -159q-63 -68 -156.5 -107t-209.5 -39q-107 0 -210.5 23.5t-179.5 61.5v211h14q23 -17 66 -38.5t95 -40.5q59 -21 108 -32.5t110 -11.5q60 0 117 21.5t98 69.5q37 44 56.5 103t19.5 139q0 79 -21.5 130t-62.5 84q-43 38 -105.5 53.5
t-139.5 15.5q-81 0 -163 -12.5t-131 -23.5v767h817v-175h-624v-396q36 4 71 6t64 2q114 0 193 -19t152 -74q74 -56 113.5 -140t39.5 -219z" />
    <glyph glyph-name="six" unicode="6" horiz-adv-x="1118" 
d="M1051 483q0 -115 -38 -212t-102 -162q-67 -69 -150 -104.5t-183 -35.5q-101 0 -183.5 34t-145.5 101q-77 81 -120.5 216.5t-43.5 333.5q0 194 40 350.5t123 272.5q81 113 209 176.5t296 63.5q50 0 93 -5t76 -16v-191h-9q-27 15 -78 27.5t-109 12.5q-186 0 -300.5 -125.5
t-135.5 -372.5q71 50 146 77t164 27q87 0 152.5 -17.5t136.5 -70.5q82 -62 122 -157t40 -223zM848 475q0 92 -24 154t-78 106q-39 32 -88.5 42t-101.5 10q-70 0 -136 -21t-130 -61q-2 -22 -3 -42.5t-1 -51.5q0 -155 30.5 -250t75.5 -144q43 -47 88.5 -66t98.5 -19
q120 0 194.5 86t74.5 257z" />
    <glyph glyph-name="seven" unicode="7" horiz-adv-x="1118" 
d="M1044 1266l-644 -1266h-213l682 1314h-770v175h945v-223z" />
    <glyph glyph-name="eight" unicode="8" horiz-adv-x="1118" 
d="M811 1142q0 100 -67 167t-186 67q-109 0 -178.5 -60t-69.5 -162q0 -74 35.5 -125t106.5 -92q31 -17 94.5 -47t115.5 -47q87 67 118 137.5t31 161.5zM839 396q0 92 -36 146t-139 110q-34 19 -90.5 41t-127.5 52q-83 -55 -127 -135.5t-44 -183.5q0 -135 81.5 -223
t204.5 -88q126 0 202 75.5t76 205.5zM559 -34q-111 0 -202 33t-155 95q-63 60 -95.5 142.5t-32.5 174.5q0 121 64.5 222.5t187.5 161.5v6q-110 64 -163 140t-53 190q0 168 127 280t322 112q203 0 325.5 -106.5t122.5 -272.5q0 -100 -58.5 -198t-168.5 -153v-6
q130 -61 197 -148t67 -224q0 -191 -138.5 -320t-346.5 -129z" />
    <glyph glyph-name="nine" unicode="9" horiz-adv-x="1118" 
d="M832 877q0 152 -28 247.5t-77 147.5q-44 48 -89 66t-99 18q-123 0 -196 -88t-73 -255q0 -94 24 -155t78 -105q38 -31 86 -41.5t103 -10.5q64 0 138 22.5t129 59.5q1 15 2.5 39.5t1.5 54.5zM67 1005q0 115 37.5 210t102.5 164q62 66 151.5 103t181.5 37q103 0 186.5 -34.5
t144.5 -99.5q77 -82 119.5 -215t42.5 -336q0 -185 -41.5 -350.5t-122.5 -274.5q-86 -116 -206.5 -177t-297.5 -61q-40 0 -85 4.5t-84 16.5v191h10q25 -14 78 -27t108 -13q196 0 308 129t127 369q-80 -54 -152.5 -79t-157.5 -25q-83 0 -151 18t-137 70q-80 61 -121 154.5
t-41 225.5z" />
    <glyph glyph-name="colon" unicode=":" horiz-adv-x="724" 
d="M482 832h-239v285h239v-285zM482 0h-239v285h239v-285z" />
    <glyph glyph-name="semicolon" unicode=";" horiz-adv-x="724" 
d="M482 832h-239v285h239v-285zM548 285l-280 -655h-146l176 655h250z" />
    <glyph glyph-name="less" unicode="&#x3c;" horiz-adv-x="1490" 
d="M1275 79l-1074 513v120l1074 513v-178l-833 -395l833 -395v-178z" />
    <glyph glyph-name="equal" unicode="=" horiz-adv-x="1490" 
d="M1298 782h-1106v160h1106v-160zM1298 362h-1106v160h1106v-160z" />
    <glyph glyph-name="greater" unicode="&#x3e;" horiz-adv-x="1490" 
d="M1289 592l-1074 -513v178l833 395l-833 395v178l1074 -513v-120z" />
    <glyph glyph-name="question" unicode="?" horiz-adv-x="970" 
d="M912 1139q0 -98 -32.5 -174.5t-86.5 -134.5t-122.5 -107t-144.5 -95v-228h-179v305q56 34 130.5 81.5t116.5 88.5q54 51 84 111.5t30 137.5q0 113 -71 168.5t-185 55.5q-100 0 -188.5 -33.5t-143.5 -69.5h-11v204q67 27 169 48.5t193 21.5q205 0 323 -104.5t118 -275.5z
M542 0h-204v211h204v-211z" />
    <glyph glyph-name="at" unicode="@" horiz-adv-x="1862" 
d="M1739 663q0 -139 -38 -268.5t-109 -237.5h-421l-25 116q-67 -57 -123.5 -90.5t-153.5 -33.5q-154 0 -252 123.5t-98 358.5t120.5 366t275.5 131q72 0 124 -18t105 -48v48h159v-842h227q38 71 54.5 184t16.5 205q0 327 -166.5 526.5t-478.5 199.5q-296 0 -488.5 -215.5
t-192.5 -522.5q0 -330 187 -534.5t489 -204.5q81 0 170.5 11t169.5 35v-142q-84 -20 -170.5 -28t-170.5 -8q-354 0 -586 243t-232 630q0 367 239.5 619t583.5 252q368 0 576 -237.5t208 -617.5zM1142 408v518q-56 29 -103 41.5t-98 12.5q-113 0 -182 -84.5t-69 -261.5
q0 -160 52 -245t166 -85q61 0 120.5 29t113.5 75z" />
    <glyph glyph-name="A" unicode="A" horiz-adv-x="1228" 
d="M-10 0l502 1489h244l502 -1489h-209l-135 416h-569l-135 -416h-200zM839 585l-230 702l-229 -702h459z" />
    <glyph glyph-name="B" unicode="B" horiz-adv-x="1207" 
d="M1161 457q0 -111 -42 -196t-113 -140q-84 -66 -180 -93.5t-248 -27.5h-427v1489h395q159 0 238.5 -10.5t152.5 -49.5q80 -43 117 -112.5t37 -163.5q0 -105 -55.5 -188t-153.5 -130v-8q133 -36 206 -131.5t73 -238.5zM885 1125q0 54 -18 93.5t-58 62.5q-48 27 -107 33
t-163 6h-190v-436h225q93 0 137 9.5t91 39.5q45 29 64 76t19 116zM955 449q0 84 -24 138.5t-97 92.5q-47 25 -102.5 32t-157.5 7h-225v-550h161q130 0 205 12t132 51q56 39 82 88.5t26 128.5z" />
    <glyph glyph-name="C" unicode="C" horiz-adv-x="1230" 
d="M733 -27q-146 0 -268.5 49t-211.5 146t-138 242t-49 333q0 187 47.5 326t138.5 242q89 100 211 152.5t273 52.5q75 0 140.5 -11t121.5 -28q48 -15 98.5 -37.5t99.5 -49.5v-239h-16q-26 24 -67 58t-100 67q-57 31 -124 51t-155 20q-95 0 -180 -39t-149 -115
q-63 -76 -98 -191t-35 -259q0 -153 37 -263.5t101 -186.5q62 -74 146 -111.5t178 -37.5q86 0 159 21t130 53q55 31 95 63.5t63 55.5h15v-236q-49 -23 -92.5 -44t-105.5 -41q-65 -21 -120.5 -32t-144.5 -11z" />
    <glyph glyph-name="D" unicode="D" horiz-adv-x="1389" 
d="M1325 743q0 -204 -82.5 -368t-221.5 -256q-113 -71 -229.5 -95t-297.5 -24h-343v1489h339q210 0 329.5 -31.5t203.5 -86.5q144 -95 223 -252.5t79 -375.5zM1119 746q0 172 -57 293.5t-169 189.5q-79 48 -169 69t-224 21h-151v-1149h151q132 0 231 21t181 78
q103 70 155 186.5t52 290.5z" />
    <glyph glyph-name="E" unicode="E" horiz-adv-x="1149" 
d="M151 0v1489h931v-176h-733v-408h683v-176h-683v-553h733v-176h-931z" />
    <glyph glyph-name="F" unicode="F" horiz-adv-x="1068" 
d="M1042 1313h-693v-420h664v-176h-664v-717h-198v1489h891v-176z" />
    <glyph glyph-name="G" unicode="G" horiz-adv-x="1367" 
d="M774 -29q-158 0 -289 48t-225 146q-94 99 -144 245t-50 336q0 180 50.5 322.5t144.5 243.5q91 98 224 151t291 53q75 0 144 -11t132 -30q50 -15 111.5 -41.5t99.5 -45.5v-239h-17q-37 33 -76.5 62.5t-111.5 63.5q-60 30 -138 50t-168 20q-215 0 -347.5 -162t-132.5 -431
q0 -150 35 -262t101 -190q64 -77 154.5 -117.5t203.5 -40.5q84 0 167 12t140 36v385h-344v174h540v-650q-38 -17 -101.5 -43t-118.5 -41q-73 -22 -132 -33t-143 -11z" />
    <glyph glyph-name="H" unicode="H" horiz-adv-x="1383" 
d="M1232 0h-198v729h-685v-729h-198v1489h198v-584h685v584h198v-1489z" />
    <glyph glyph-name="I" unicode="I" horiz-adv-x="764" 
d="M671 0h-578v152h190v1185h-190v152h578v-152h-190v-1185h190v-152z" />
    <glyph glyph-name="J" unicode="J" horiz-adv-x="853" 
d="M712 387q0 -196 -119.5 -302t-320.5 -106q-48 0 -128.5 8.5t-134.5 20.5v189h11q41 -14 101.5 -31t123.5 -17q92 0 146.5 21t80.5 60q27 40 34.5 98t7.5 134v869h-315v158h513v-1102z" />
    <glyph glyph-name="K" unicode="K" horiz-adv-x="1204" 
d="M1236 0h-257l-543 693l-87 -98v-595h-198v1489h198v-685l610 685h241l-616 -665z" />
    <glyph glyph-name="L" unicode="L" horiz-adv-x="1019" 
d="M1014 0h-863v1489h198v-1313h665v-176z" />
    <glyph glyph-name="M" unicode="M" horiz-adv-x="1578" 
d="M1427 0h-198v1283l-388 -873h-120l-385 873v-1283h-185v1489h270l372 -829l359 829h275v-1489z" />
    <glyph glyph-name="N" unicode="N" horiz-adv-x="1367" 
d="M1216 0h-222l-658 1284v-1284h-185v1489h281l599 -1179v1179h185v-1489z" />
    <glyph glyph-name="O" unicode="O" horiz-adv-x="1449" 
d="M1204 1318q85 -98 132 -243t47 -331q0 -181 -46 -327t-133 -245q-91 -104 -212.5 -153.5t-267.5 -49.5q-151 0 -272 51t-208 152q-86 99 -132 244t-46 328q0 188 46.5 330t132.5 244q86 99 207.5 150.5t271.5 51.5q152 0 274 -53t206 -149zM1177 744q0 148 -32 262
t-90 189q-59 77 -142.5 115.5t-187.5 38.5q-108 0 -188.5 -37.5t-142.5 -116.5q-59 -76 -90.5 -191t-31.5 -260q0 -293 123 -448.5t330 -155.5t329.5 155.5t122.5 448.5z" />
    <glyph glyph-name="P" unicode="P" horiz-adv-x="1129" 
d="M1091 1040q0 -97 -34.5 -183.5t-95.5 -147.5q-77 -76 -181 -115t-263 -39h-168v-555h-198v1489h374q132 0 225 -22t164 -71q83 -57 130 -144.5t47 -211.5zM885 1035q0 77 -26.5 134t-80.5 93q-47 31 -109.5 44t-155.5 13h-164v-595h135q120 0 194 19.5t123 69.5
q44 45 64 98t20 124z" />
    <glyph glyph-name="Q" unicode="Q" horiz-adv-x="1449" 
d="M1388 -364q-54 -14 -113.5 -21t-118.5 -7q-167 0 -271.5 94t-114.5 268h-25h-21q-151 0 -272.5 51.5t-207.5 150.5t-132 244t-46 328q0 188 46.5 330t132.5 244q86 99 207.5 150.5t271.5 51.5q152 0 274 -53t206 -149q85 -98 132 -243t47 -331q0 -289 -113 -477
t-309 -255q5 -56 19.5 -100.5t37.5 -70.5q27 -31 65.5 -45.5t105.5 -14.5q40 0 94 12.5t78 22.5h27v-180zM1177 744q0 148 -32 262t-90 189q-59 77 -142.5 115.5t-187.5 38.5q-108 0 -188.5 -37.5t-142.5 -116.5q-59 -76 -90.5 -191t-31.5 -260q0 -293 123 -449t330 -156
t329.5 156t122.5 449z" />
    <glyph glyph-name="R" unicode="R" horiz-adv-x="1271" 
d="M1304 0h-257l-472 592h-226v-592h-198v1489h384q128 0 214.5 -14t164.5 -65q78 -50 123.5 -129t45.5 -196q0 -164 -83 -274t-226 -163zM876 1070q0 65 -23 115.5t-71 82.5q-42 28 -98 39.5t-139 11.5h-196v-562h174q85 0 153 15t116 62q43 42 63.5 100t20.5 136z" />
    <glyph glyph-name="S" unicode="S" horiz-adv-x="1141" 
d="M566 -27q-162 0 -275.5 33.5t-213.5 82.5v248h14q98 -92 222 -142.5t239 -50.5q164 0 248 68.5t84 180.5q0 89 -44 145t-140 83q-69 20 -126 33t-143 35q-77 20 -138 51t-108 81q-46 49 -71.5 115.5t-25.5 153.5q0 181 141 303.5t360 122.5q125 0 236.5 -25t206.5 -71
v-237h-15q-71 65 -182 113.5t-233 48.5q-138 0 -223 -64.5t-85 -169.5q0 -95 50 -151t145 -82q63 -17 154 -38.5t151 -39.5q154 -47 225 -142t71 -234q0 -87 -35.5 -172t-99.5 -144q-72 -65 -162.5 -100t-226.5 -35z" />
    <glyph glyph-name="T" unicode="T" horiz-adv-x="1196" 
d="M499 0v1313h-500v176h1198v-176h-500v-1313h-198z" />
    <glyph glyph-name="U" unicode="U" horiz-adv-x="1343" 
d="M671 -31q-131 0 -229 34.5t-167 102.5q-78 78 -110 186.5t-32 267.5v929h198v-929q0 -103 13 -173.5t51 -126.5q40 -60 108.5 -91t167.5 -31q93 0 165 31t112 91q37 57 50.5 126t13.5 169v934h198v-929q0 -155 -31.5 -266t-110.5 -188q-71 -69 -165.5 -103t-231.5 -34z
" />
    <glyph glyph-name="V" unicode="V" horiz-adv-x="1222" 
d="M1230 1489l-512 -1489h-214l-512 1489h212l412 -1236l412 1236h202z" />
    <glyph glyph-name="W" unicode="W" horiz-adv-x="1847" 
d="M1821 1489l-374 -1489h-223l-303 1236l-296 -1236h-218l-381 1489h203l300 -1238l298 1238h201l301 -1250l298 1250h194z" />
    <glyph glyph-name="X" unicode="X" horiz-adv-x="1189" 
d="M1181 0h-227l-363 596l-369 -596h-214l473 745l-459 744h226l356 -585l361 585h215l-466 -734z" />
    <glyph glyph-name="Y" unicode="Y" horiz-adv-x="1180" 
d="M1193 1489l-503 -830v-659h-198v638l-503 851h220l384 -657l390 657h210z" />
    <glyph glyph-name="Z" unicode="Z" horiz-adv-x="1145" 
d="M1100 0h-1040v184l797 1129h-761v176h984v-179l-806 -1134h826v-176z" />
    <glyph glyph-name="bracketleft" unicode="[" horiz-adv-x="784" 
d="M686 -392h-520v1948h520v-143h-345v-1662h345v-143z" />
    <glyph glyph-name="backslash" unicode="\" horiz-adv-x="783" 
d="M804 -324h-169l-583 1880h172z" />
    <glyph glyph-name="bracketright" unicode="]" horiz-adv-x="784" 
d="M618 -392h-520v143h345v1662h-345v143h520v-1948z" />
    <glyph glyph-name="asciicircum" unicode="^" horiz-adv-x="1490" 
d="M1357 684h-198l-415 625l-414 -627h-197l549 807h126z" />
    <glyph glyph-name="underscore" unicode="_" horiz-adv-x="1118" 
d="M1134 -300h-1150v130h1150v-130z" />
    <glyph glyph-name="grave" unicode="`" horiz-adv-x="1118" 
d="M670 1302h-149l-273 374h243z" />
    <glyph glyph-name="a" unicode="a" horiz-adv-x="1075" 
d="M760 275v310q-67 -6 -169.5 -16.5t-165.5 -29.5q-75 -23 -124 -70.5t-49 -132.5q0 -96 54 -145t158 -49q89 0 161 38.5t135 94.5zM760 119q-23 -17 -61.5 -47.5t-74.5 -48.5q-50 -26 -96.5 -40t-130.5 -14q-69 0 -131 26t-109 73q-45 46 -72 113.5t-27 142.5
q0 116 49 197.5t155 129.5q94 43 222 59.5t276 24.5v36q0 66 -20 106.5t-56 62.5q-36 23 -88 30.5t-107 7.5q-65 0 -153 -19.5t-176 -56.5h-11v191q52 15 149 33t192 18q115 0 194 -18t142 -65q61 -46 91 -119t30 -178v-764h-187v119z" />
    <glyph glyph-name="b" unicode="b" horiz-adv-x="1132" 
d="M879 562q0 200 -61 303.5t-196 103.5q-77 0 -155.5 -36t-142.5 -91v-640q71 -35 126 -49.5t121 -14.5q144 0 226 102t82 322zM1073 577q0 -274 -133 -441t-333 -167q-91 0 -155.5 22.5t-127.5 60.5l-12 -52h-176v1556h188v-556q71 64 154 106t188 42q189 0 298 -151.5
t109 -419.5z" />
    <glyph glyph-name="c" unicode="c" horiz-adv-x="945" 
d="M580 -25q-115 0 -211 35.5t-165 107.5t-107 181.5t-38 257.5q0 147 39.5 254t105.5 180t164.5 112.5t211.5 39.5q92 0 177.5 -26t152.5 -60v-211h-11q-20 17 -51.5 39t-76.5 45q-39 20 -92 35t-102 15q-146 0 -234.5 -110.5t-88.5 -312.5q0 -198 85.5 -308.5
t237.5 -110.5q92 0 175 38t147 98h11v-211q-28 -13 -70 -31.5t-76 -27.5q-48 -14 -86 -21.5t-98 -7.5z" />
    <glyph glyph-name="d" unicode="d" horiz-adv-x="1132" 
d="M996 0h-188v114q-44 -37 -76 -61t-75 -44q-40 -19 -83 -29.5t-100 -10.5q-91 0 -168.5 38t-131.5 111q-55 74 -85 182.5t-30 249.5q0 147 38 254.5t105 187.5q61 73 147.5 114.5t181.5 41.5q84 0 146 -18.5t131 -57.5v484h188v-1556zM808 272v644q-70 34 -125.5 47
t-120.5 13q-145 0 -227 -108.5t-82 -313.5q0 -197 63 -301.5t202 -104.5q74 0 149 33.5t141 90.5z" />
    <glyph glyph-name="e" unicode="e" horiz-adv-x="1078" 
d="M621 -26q-267 0 -414.5 150.5t-147.5 427.5q0 273 143 434.5t374 161.5q104 0 184 -30t140 -94t92 -156.5t32 -226.5v-102h-774q0 -195 98 -298t271 -103q62 0 121.5 14t107.5 36q51 23 86 44.5t58 40.5h11v-205q-33 -13 -82 -32.5t-88 -30.5q-55 -15 -99.5 -23
t-112.5 -8zM841 683q-2 76 -18 131t-46 93q-33 42 -84.5 64t-127.5 22q-75 0 -127.5 -22.5t-95.5 -65.5q-42 -44 -64 -97.5t-28 -124.5h591z" />
    <glyph glyph-name="f" unicode="f" horiz-adv-x="652" 
d="M724 1376h-10q-25 9 -72 17.5t-84 8.5q-119 0 -169.5 -53.5t-50.5 -193.5v-38h311v-156h-305v-961h-188v961h-127v156h127v37q0 202 97 307t278 105q52 0 102 -5.5t91 -12.5v-172z" />
    <glyph glyph-name="g" unicode="g" horiz-adv-x="1132" 
d="M808 303v613q-70 34 -129.5 48.5t-118.5 14.5q-143 0 -225 -105t-82 -301q0 -186 62.5 -283t202.5 -97q73 0 150.5 29t139.5 81zM176 -179q19 -8 56 -21.5t84 -25.5q52 -13 96 -21t96 -8q87 0 147.5 23t94.5 64q32 41 45 95t13 123v98q-76 -66 -149 -97.5t-183 -31.5
q-191 0 -304 142t-113 408q0 139 39 246.5t105 182.5q63 72 149 111t178 39q87 0 150.5 -20.5t127.5 -58.5l11 48h177v-990q0 -284 -124 -417t-379 -133q-82 0 -167.5 13t-159.5 35v196h10z" />
    <glyph glyph-name="h" unicode="h" horiz-adv-x="1142" 
d="M1014 0h-188v636q0 77 -7.5 143.5t-28.5 106.5q-23 42 -64 62.5t-112 20.5q-70 0 -144.5 -37.5t-145.5 -97.5v-834h-188v1556h188v-563q84 75 166 115t173 40q165 0 258 -108.5t93 -314.5v-725z" />
    <glyph glyph-name="i" unicode="i" horiz-adv-x="468" 
d="M328 0h-188v1117h188v-1117zM341 1304h-214v195h214v-195z" />
    <glyph glyph-name="j" unicode="j" horiz-adv-x="577" 
d="M441 -32q0 -191 -102.5 -291t-282.5 -100q-31 0 -69.5 3t-76.5 9v168h11q22 -5 48.5 -9.5t50.5 -4.5q75 0 123.5 18.5t72.5 58.5q22 36 29.5 91t7.5 134v916h-202v156h390v-1149zM442 1304h-214v195h214v-195z" />
    <glyph glyph-name="k" unicode="k" horiz-adv-x="1020" 
d="M1062 0h-247l-417 539l-74 -72v-467h-188v1556h188v-911l442 472h234l-459 -467z" />
    <glyph glyph-name="l" unicode="l" horiz-adv-x="468" 
d="M328 0h-188v1556h188v-1556z" />
    <glyph glyph-name="m" unicode="m" horiz-adv-x="1720" 
d="M1404 0v646q0 77 -6 142.5t-25 102.5q-20 40 -57 59t-100 19q-58 0 -124.5 -35.5t-137.5 -102.5q1 -17 2.5 -40.5t1.5 -55.5v-735h-188v646q0 77 -6 142.5t-25 102.5q-20 40 -57 59t-100 19q-61 0 -128 -38t-130 -97v-834h-188v1117h188v-124q74 74 146.5 114.5
t159.5 40.5q99 0 175.5 -45t116.5 -148q85 95 166 144t176 49q72 0 131 -22.5t103 -72.5q45 -51 69.5 -127t24.5 -191v-735h-188z" />
    <glyph glyph-name="n" unicode="n" horiz-adv-x="1142" 
d="M1014 0h-188v636q0 77 -7.5 143.5t-28.5 106.5q-23 42 -64 62.5t-112 20.5q-70 0 -144.5 -37.5t-145.5 -97.5v-834h-188v1117h188v-124q84 75 166 115t173 40q165 0 258 -108.5t93 -314.5v-725z" />
    <glyph glyph-name="o" unicode="o" horiz-adv-x="1112" 
d="M1055 558q0 -282 -136 -435.5t-362 -153.5q-233 0 -366.5 158.5t-133.5 430.5q0 280 137.5 435t362.5 155q226 0 362 -154.5t136 -435.5zM861 558q0 217 -79 322.5t-225 105.5q-147 0 -226.5 -105.5t-79.5 -322.5q0 -210 79.5 -318.5t226.5 -108.5q145 0 224.5 106.5
t79.5 320.5z" />
    <glyph glyph-name="p" unicode="p" horiz-adv-x="1132" 
d="M1073 588q0 -279 -133.5 -444.5t-337.5 -165.5q-83 0 -147 19t-131 59v-468h-188v1529h188v-117q70 63 155.5 105.5t186.5 42.5q192 0 299.5 -152t107.5 -408zM879 567q0 191 -61 296.5t-198 105.5q-80 0 -154.5 -35.5t-141.5 -91.5v-633q74 -36 126.5 -49t120.5 -13
q146 0 227 107t81 313z" />
    <glyph glyph-name="q" unicode="q" horiz-adv-x="1132" 
d="M996 -412h-188v534q-82 -75 -160 -109.5t-173 -34.5q-190 0 -303 152.5t-113 424.5q0 144 39.5 254.5t104.5 185.5q62 73 148 113t179 40q86 0 149 -20t129 -59l12 48h176v-1529zM808 280v636q-71 35 -127 49t-120 14q-148 0 -228 -107t-80 -308q0 -196 64 -301.5
t199 -105.5q79 0 154 34t138 89z" />
    <glyph glyph-name="r" unicode="r" horiz-adv-x="738" 
d="M728 915h-10q-21 6 -44.5 7.5t-56.5 1.5q-76 0 -151 -33t-142 -98v-793h-188v1117h188v-166q103 91 179.5 128.5t148.5 37.5q29 0 43.5 -1.5t32.5 -4.5v-196z" />
    <glyph glyph-name="s" unicode="s" horiz-adv-x="914" 
d="M438 -27q-112 0 -209.5 30t-161.5 64v211h10q24 -19 56.5 -42t86.5 -48q48 -22 105.5 -39t119.5 -17q45 0 96 10.5t76 26.5q35 23 50.5 49t15.5 78q0 67 -36.5 101t-129.5 57q-36 9 -94 21t-107 26q-128 37 -186 114.5t-58 187.5q0 151 114 246t303 95q93 0 187 -23
t158 -58v-201h-10q-72 57 -160.5 90t-178.5 33q-93 0 -157 -39t-64 -118q0 -70 38 -104.5t122 -56.5q42 -11 93.5 -21.5t108.5 -24.5q124 -31 186.5 -103t62.5 -196q0 -72 -28.5 -136.5t-83.5 -110.5q-60 -50 -135.5 -76t-189.5 -26z" />
    <glyph glyph-name="t" unicode="t" horiz-adv-x="685" 
d="M474 -22q-154 0 -240 87.5t-86 276.5v619h-127v156h127v321h188v-321h346v-156h-346v-531q0 -85 3 -131t23 -86q17 -35 55 -52.5t103 -17.5q46 0 89 13.5t62 22.5h11v-169q-53 -15 -107.5 -23.5t-100.5 -8.5z" />
    <glyph glyph-name="u" unicode="u" horiz-adv-x="1142" 
d="M1006 0h-188v124q-87 -76 -165 -115.5t-174 -39.5q-73 0 -137.5 24t-112.5 76t-74.5 131t-26.5 192v725h188v-636q0 -89 6.5 -147.5t29.5 -102.5q23 -43 62.5 -63t113.5 -20q69 0 147 39t143 96v834h188v-1117z" />
    <glyph glyph-name="v" unicode="v" horiz-adv-x="1020" 
d="M1014 1117l-421 -1117h-169l-418 1117h203l306 -862l303 862h196z" />
    <glyph glyph-name="w" unicode="w" horiz-adv-x="1520" 
d="M1490 1117l-283 -1117h-174l-273 861l-271 -861h-173l-286 1117h196l197 -865l265 865h155l272 -865l186 865h189z" />
    <glyph glyph-name="x" unicode="x" horiz-adv-x="1014" 
d="M1004 0h-231l-271 422l-279 -422h-213l388 554l-384 563h231l269 -418l276 418h214l-386 -550z" />
    <glyph glyph-name="y" unicode="y" horiz-adv-x="1020" 
d="M1014 1117l-601 -1529h-201l200 466l-406 1063h203l305 -827l304 827h196z" />
    <glyph glyph-name="z" unicode="z" horiz-adv-x="910" 
d="M870 0h-821v139l584 823h-560v155h786v-134l-587 -826h598v-157z" />
    <glyph glyph-name="braceleft" unicode="{" horiz-adv-x="984" 
d="M886 -392h-116q-179 0 -280.5 98.5t-101.5 288.5v149q0 69 -13 139t-50 120t-96.5 75.5t-147.5 25.5h-21v156h21q88 0 147.5 25.5t96.5 75.5t50 120t13 139v149q0 190 101.5 288.5t280.5 98.5h116v-138h-80q-59 0 -102 -12t-74 -41q-32 -30 -47.5 -83t-15.5 -130v-175
q0 -82 -19 -138t-56 -105q-33 -44 -86 -80.5t-110 -59.5v-24q57 -23 109.5 -59.5t86.5 -80.5q37 -49 56 -105t19 -138v-175q0 -77 15.5 -130t47.5 -83q30 -29 73.5 -41t102.5 -12h80v-138z" />
    <glyph glyph-name="bar" unicode="|" horiz-adv-x="783" 
d="M475 -392h-167v1948h167v-1948z" />
    <glyph glyph-name="braceright" unicode="}" horiz-adv-x="984" 
d="M924 504h-21q-88 0 -147.5 -25.5t-96.5 -75.5t-50 -120t-13 -139v-149q0 -190 -101.5 -288.5t-280.5 -98.5h-116v138h80q59 0 102 12t74 41q32 30 47.5 83t15.5 130v175q0 82 19 138t56 105q33 44 86 80.5t110 59.5v24q-57 23 -110 59.5t-86 80.5q-37 49 -56 105t-19 138
v175q0 77 -15.5 130t-47.5 83q-31 29 -74 41t-102 12h-80v138h116q179 0 280.5 -98.5t101.5 -288.5v-149q0 -69 13 -139t50 -120t96.5 -75.5t147.5 -25.5h21v-156z" />
    <glyph glyph-name="asciitilde" unicode="~" horiz-adv-x="1490" 
d="M1356 927q-2 -102 -21 -196.5t-60 -169.5q-41 -73 -102 -119t-159 -46q-57 0 -102.5 15.5t-80.5 40.5t-67 60t-57 65q-27 33 -53 67t-51 60q-27 28 -56 45t-66 17q-50 0 -83 -26.5t-55 -78.5q-21 -50 -29.5 -120t-11.5 -146h-168q2 104 21.5 199t58.5 167
q40 76 106 120.5t156 44.5q60 0 105.5 -16t80.5 -41t64.5 -57t57.5 -67q22 -27 52.5 -66t51.5 -61q29 -30 58.5 -46t62.5 -16q50 0 84.5 28t53.5 76q20 50 29.5 117.5t11.5 149.5h168z" />
    <glyph glyph-name="Adieresis" unicode="&#x201a;" horiz-adv-x="1228" 
d="M-10 0l502 1489h244l502 -1489h-209l-135 416h-569l-135 -416h-200zM839 585l-230 702l-229 -702h459zM913 1657h-201v195h201v-195zM500 1657h-201v195h201v-195z" />
    <glyph glyph-name="Aring" unicode="&#x192;" horiz-adv-x="1228" 
d="M874.5 1532q-45.5 -69 -116.5 -107l480 -1425h-209l-135 416h-569l-135 -416h-200l479 1422q-72 40 -116.5 108.5t-44.5 154.5q0 128 89 214.5t217 86.5q129 0 217.5 -86t88.5 -215q0 -84 -45.5 -153zM839 584l-230 705l-229 -705h459zM773 1683q0 73 -44 121.5
t-115 48.5q-70 0 -114.5 -48.5t-44.5 -121.5q0 -74 45 -122.5t114 -48.5t114 48.5t45 122.5z" />
    <glyph glyph-name="Ccedilla" unicode="&#x201e;" horiz-adv-x="1230" 
d="M733 -27q-146 0 -268.5 49t-211.5 146t-138 242t-49 333q0 187 47.5 326t138.5 242q89 100 211 152.5t273 52.5q75 0 140.5 -11t121.5 -28q48 -15 98.5 -37.5t99.5 -49.5v-239h-16q-26 24 -67 58t-100 67q-57 31 -124 51t-155 20q-95 0 -180 -39t-149 -115
q-63 -76 -98 -191t-35 -259q0 -153 37 -263.5t101 -186.5q62 -74 146 -111.5t178 -37.5q86 0 159 21t130 53q55 31 95 63.5t63 55.5h15v-236q-49 -23 -92.5 -44t-105.5 -41q-8 -3 -23 -7.5t-21 -5.5q1 -15 3 -39t2 -53q0 -149 -82 -241.5t-227 -92.5q-37 0 -87 6t-90 18v160
h9q24 -11 63 -22.5t79 -11.5q94 0 138 39.5t44 126.5q0 18 -0.5 38t-1.5 45q-18 -1 -33.5 -2t-37.5 -1z" />
    <glyph glyph-name="Eacute" unicode="&#x2026;" horiz-adv-x="1149" 
d="M151 0v1489h931v-176h-733v-408h683v-176h-683v-553h733v-176h-931zM920 2049l-273 -374h-149l179 374h243z" />
    <glyph glyph-name="Ntilde" unicode="&#x2020;" horiz-adv-x="1367" 
d="M1216 0h-222l-658 1284v-1284h-185v1489h281l599 -1179v1179h185v-1489zM1110 1985q-10 -156 -74.5 -234t-171.5 -78q-52 0 -96 19t-86 59q-44 41 -76 62.5t-63 21.5q-49 0 -68.5 -45t-23.5 -121h-140q7 154 76 232.5t169 78.5q51 0 94 -19.5t86 -57.5q43 -39 77.5 -59.5
t63.5 -20.5q47 0 68.5 45t24.5 117h140z" />
    <glyph glyph-name="Odieresis" unicode="&#x2021;" horiz-adv-x="1449" 
d="M1204 1318q85 -98 132 -243t47 -331q0 -181 -46 -327t-133 -245q-91 -104 -212.5 -153.5t-267.5 -49.5q-151 0 -272 51t-208 152q-86 99 -132 244t-46 328q0 188 46.5 330t132.5 244q86 99 207.5 150.5t271.5 51.5q152 0 274 -53t206 -149zM1177 744q0 148 -32 262
t-90 189q-59 77 -142.5 115.5t-187.5 38.5q-108 0 -188.5 -37.5t-142.5 -116.5q-59 -76 -90.5 -191t-31.5 -260q0 -293 123 -448.5t330 -155.5t329.5 155.5t122.5 448.5zM1027 1677h-201v195h201v-195zM614 1677h-201v195h201v-195z" />
    <glyph glyph-name="Udieresis" unicode="&#x2030;" horiz-adv-x="1343" 
d="M671 -31q-131 0 -229 34.5t-167 102.5q-78 78 -110 186.5t-32 267.5v929h198v-929q0 -103 13 -173.5t51 -126.5q40 -60 108.5 -91t167.5 -31q93 0 165 31t112 91q37 57 50.5 126t13.5 169v934h198v-929q0 -155 -31.5 -266t-110.5 -188q-71 -69 -165.5 -103t-231.5 -34z
M1004 1677h-201v195h201v-195zM591 1677h-201v195h201v-195z" />
    <glyph glyph-name="aacute" unicode="&#x2039;" horiz-adv-x="1174" 
d="M1043 541l-488 419v85l488 418v-188l-317 -273l317 -273v-188zM613 512l-510 446v89l510 445v-196l-331 -294l331 -294v-196z" />
    <glyph glyph-name="agrave" unicode="&#x152;" horiz-adv-x="1075" 
d="M760 275v310q-67 -6 -169.5 -16.5t-165.5 -29.5q-75 -23 -124 -70.5t-49 -132.5q0 -96 54 -145t158 -49q89 0 161 38.5t135 94.5zM760 119q-23 -17 -61.5 -47.5t-74.5 -48.5q-50 -26 -96.5 -40t-130.5 -14q-69 0 -131 26t-109 73q-45 46 -72 113.5t-27 142.5
q0 116 49 197.5t155 129.5q94 43 222 59.5t276 24.5v36q0 66 -20 106.5t-56 62.5q-36 23 -88 30.5t-107 7.5q-65 0 -153 -19.5t-176 -56.5h-11v191q52 15 149 33t192 18q115 0 194 -18t142 -65q61 -46 91 -119t30 -178v-764h-187v119zM670 1302h-149l-273 374h243z" />
    <glyph glyph-name="acircumflex" unicode="&#x2018;" horiz-adv-x="499" 
d="M385 1444q-35 -12 -64.5 -33.5t-49 -47.5t-31 -53.5t-11.5 -54.5q0 -43 31 -76.5t94 -39.5q17 -9 23 -24t6 -30q0 -38 -29.5 -62t-68.5 -24q-37 0 -69 17.5t-53.5 46.5t-33.5 63.5t-12 69.5q0 53 19.5 100t54 85t79.5 68t95 48z" />
    <glyph glyph-name="adieresis" unicode="&#x2019;" horiz-adv-x="858" 
d="M362 993q-49 19 -94 48.5t-78.5 68.5t-54 85t-20.5 99q0 35 12 71t33.5 63.5t53.5 46t71 18.5q37 0 66.5 -23.5t29.5 -64.5q0 -14 -6 -29.5t-23 -23.5q-63 -6 -88.5 -40t-25.5 -75q0 -53 36.5 -108.5t108.5 -81.5zM725 993q-51 19 -95 48.5t-78 68.5t-54.5 85t-20.5 99
q0 35 11.5 71t34 63.5t53 46t69.5 18.5t68.5 -23.5t29.5 -64.5q0 -14 -7 -29.5t-21 -23.5q-64 -6 -94.5 -40t-30.5 -75q0 -27 11 -54.5t30.5 -53t48.5 -47t65 -35.5z" />
    <glyph glyph-name="atilde" unicode="&#x201c;" horiz-adv-x="858" 
d="M745 1444q-36 -12 -65 -33.5t-48.5 -47.5t-30.5 -53.5t-11 -54.5q0 -43 30.5 -76.5t94.5 -39.5q14 -9 21 -24t7 -30q0 -38 -29.5 -62t-68.5 -24t-69.5 17.5t-53 46.5t-34 63.5t-11.5 69.5q0 53 19.5 100t54.5 85t79 68t95 48zM385 1444q-35 -12 -64.5 -33.5t-49 -47.5
t-31 -53.5t-11.5 -54.5q0 -43 31 -76.5t94 -39.5q17 -9 23 -24t6 -30q0 -38 -29.5 -62t-68.5 -24q-37 0 -69 17.5t-53.5 46.5t-33.5 63.5t-12 69.5q0 53 19.5 100t54 85t79.5 68t95 48z" />
    <glyph glyph-name="aring" unicode="&#x201d;" horiz-adv-x="858" 
d="M477 1047q72 26 109 81.5t37 108.5q0 41 -26 75t-89 40q-16 8 -22.5 23.5t-6.5 29.5q0 41 30 64.5t66 23.5q39 0 71 -18.5t53.5 -46t33.5 -63.5t12 -71q0 -53 -20 -99t-54 -85t-79 -68.5t-94 -48.5zM115 1047q37 14 65.5 35.5t48 47t30.5 53t11 54.5q0 41 -30.5 75
t-94.5 40q-14 8 -21 23.5t-7 29.5q0 41 29.5 64.5t68.5 23.5t69.5 -18.5t53 -46t34 -63.5t11.5 -71q0 -53 -20.5 -99t-54.5 -85t-78 -68.5t-95 -48.5z" />
    <glyph glyph-name="ccedilla" unicode="&#x2022;" horiz-adv-x="945" 
d="M580 -25q-115 0 -211 35.5t-165 107.5t-107 181.5t-38 257.5q0 147 39.5 254t105.5 180t164.5 112.5t211.5 39.5q92 0 177.5 -26t152.5 -60v-211h-11q-20 17 -51.5 39t-76.5 45q-39 20 -92 35t-102 15q-146 0 -234.5 -110.5t-88.5 -312.5q0 -198 85.5 -308.5
t237.5 -110.5q92 0 175 38t147 98h11v-211q-28 -13 -65 -29t-68 -26q1 -16 3 -42t2 -55q0 -149 -82 -241.5t-227 -92.5q-37 0 -87 6t-90 18v160h9q24 -11 63 -22.5t79 -11.5q94 0 138 39.5t44 126.5q0 18 -0.5 38.5t-1.5 45.5q-13 0 -22.5 -1t-24.5 -1z" />
    <glyph glyph-name="eacute" unicode="&#x2013;" horiz-adv-x="1078" 
d="M621 -26q-267 0 -414.5 150.5t-147.5 427.5q0 273 143 434.5t374 161.5q104 0 184 -30t140 -94t92 -156.5t32 -226.5v-102h-774q0 -195 98 -298t271 -103q62 0 121.5 14t107.5 36q51 23 86 44.5t58 40.5h11v-205q-33 -13 -82 -32.5t-88 -30.5q-55 -15 -99.5 -23
t-112.5 -8zM841 683q-2 76 -18 131t-46 93q-33 42 -84.5 64t-127.5 22q-75 0 -127.5 -22.5t-95.5 -65.5q-42 -44 -64 -97.5t-28 -124.5h591zM889 1676l-273 -374h-149l179 374h243z" />
    <glyph glyph-name="egrave" unicode="&#x2014;" horiz-adv-x="1078" 
d="M621 -26q-267 0 -414.5 150.5t-147.5 427.5q0 273 143 434.5t374 161.5q104 0 184 -30t140 -94t92 -156.5t32 -226.5v-102h-774q0 -195 98 -298t271 -103q62 0 121.5 14t107.5 36q51 23 86 44.5t58 40.5h11v-205q-33 -13 -82 -32.5t-88 -30.5q-55 -15 -99.5 -23
t-112.5 -8zM841 683q-2 76 -18 131t-46 93q-33 42 -84.5 64t-127.5 22q-75 0 -127.5 -22.5t-95.5 -65.5q-42 -44 -64 -97.5t-28 -124.5h591zM685 1302h-149l-273 374h243z" />
    <glyph glyph-name="ecircumflex" unicode="&#x2122;" horiz-adv-x="1078" 
d="M621 -26q-267 0 -414.5 150.5t-147.5 427.5q0 273 143 434.5t374 161.5q104 0 184 -30t140 -94t92 -156.5t32 -226.5v-102h-774q0 -195 98 -298t271 -103q62 0 121.5 14t107.5 36q51 23 86 44.5t58 40.5h11v-205q-33 -13 -82 -32.5t-88 -30.5q-55 -15 -99.5 -23
t-112.5 -8zM841 683q-2 76 -18 131t-46 93q-33 42 -84.5 64t-127.5 22q-75 0 -127.5 -22.5t-95.5 -65.5q-42 -44 -64 -97.5t-28 -124.5h591zM915 1297h-159l-185 256l-184 -256h-155l228 379h227z" />
    <glyph glyph-name="edieresis" unicode="&#x203a;" horiz-adv-x="1174" 
d="M1071 958l-510 -446v196l331 294l-331 294v196l510 -445v-89zM619 960l-488 -419v188l317 273l-317 273v188l488 -418v-85z" />
    <glyph glyph-name="iacute" unicode="&#x153;" horiz-adv-x="468" 
d="M328 0h-188v1117h188v-1117zM547 1676l-273 -374h-149l179 374h243z" />
    <glyph glyph-name="igrave" unicode="&#x178;" horiz-adv-x="468" 
d="M328 0h-188v1117h188v-1117zM426 1302h-149l-273 374h243z" />
    <glyph glyph-name="icircumflex" unicode="&#xa0;" horiz-adv-x="468" 
d="M328 0h-188v1117h188v-1117zM521 1297h-151l-139 263l-138 -263h-147l174 379h227z" />
    <glyph glyph-name="idieresis" unicode="&#xa1;" horiz-adv-x="468" 
d="M328 0h-188v1117h188v-1117zM506 1304h-189v195h189v-195zM151 1304h-189v195h189v-195z" />
    <glyph glyph-name="ntilde" unicode="&#xa2;" horiz-adv-x="1142" 
d="M1014 0h-188v636q0 77 -7.5 143.5t-28.5 106.5q-23 42 -64 62.5t-112 20.5q-70 0 -144.5 -37.5t-145.5 -97.5v-834h-188v1117h188v-124q84 75 166 115t173 40q165 0 258 -108.5t93 -314.5v-725zM978 1632q-10 -156 -74.5 -234t-171.5 -78q-52 0 -96 19t-86 59
q-44 41 -76 62.5t-63 21.5q-49 0 -68.5 -45t-23.5 -121h-140q7 154 76 232.5t169 78.5q51 0 94 -19.5t86 -57.5q43 -39 77.5 -59.5t63.5 -20.5q47 0 68.5 45t24.5 117h140z" />
    <glyph glyph-name="oacute" unicode="&#xa3;" horiz-adv-x="1112" 
d="M1055 558q0 -282 -136 -435.5t-362 -153.5q-233 0 -366.5 158.5t-133.5 430.5q0 280 137.5 435t362.5 155q226 0 362 -154.5t136 -435.5zM861 558q0 217 -79 322.5t-225 105.5q-147 0 -226.5 -105.5t-79.5 -322.5q0 -210 79.5 -318.5t226.5 -108.5q145 0 224.5 106.5
t79.5 320.5zM871 1676l-273 -374h-149l179 374h243z" />
    <glyph glyph-name="ograve" unicode="&#xa4;" horiz-adv-x="1112" 
d="M1055 558q0 -282 -136 -435.5t-362 -153.5q-233 0 -366.5 158.5t-133.5 430.5q0 280 137.5 435t362.5 155q226 0 362 -154.5t136 -435.5zM861 558q0 217 -79 322.5t-225 105.5q-147 0 -226.5 -105.5t-79.5 -322.5q0 -210 79.5 -318.5t226.5 -108.5q145 0 224.5 106.5
t79.5 320.5zM670 1302h-149l-273 374h243z" />
    <glyph glyph-name="ocircumflex" unicode="&#xa5;" horiz-adv-x="1112" 
d="M1055 558q0 -282 -136 -435.5t-362 -153.5q-233 0 -366.5 158.5t-133.5 430.5q0 280 137.5 435t362.5 155q226 0 362 -154.5t136 -435.5zM861 558q0 217 -79 322.5t-225 105.5q-147 0 -226.5 -105.5t-79.5 -322.5q0 -210 79.5 -318.5t226.5 -108.5q145 0 224.5 106.5
t79.5 320.5zM901 1297h-159l-185 256l-184 -256h-155l228 379h227z" />
    <glyph glyph-name="odieresis" unicode="&#xa7;" horiz-adv-x="1112" 
d="M1055 558q0 -282 -136 -435.5t-362 -153.5q-233 0 -366.5 158.5t-133.5 430.5q0 280 137.5 435t362.5 155q226 0 362 -154.5t136 -435.5zM861 558q0 217 -79 322.5t-225 105.5q-147 0 -226.5 -105.5t-79.5 -322.5q0 -210 79.5 -318.5t226.5 -108.5q145 0 224.5 106.5
t79.5 320.5zM867 1304h-201v195h201v-195zM454 1304h-201v195h201v-195z" />
    <glyph glyph-name="otilde" unicode="&#xa8;" horiz-adv-x="1112" 
d="M1055 558q0 -282 -136 -435.5t-362 -153.5q-233 0 -366.5 158.5t-133.5 430.5q0 280 137.5 435t362.5 155q226 0 362 -154.5t136 -435.5zM861 558q0 217 -79 322.5t-225 105.5q-147 0 -226.5 -105.5t-79.5 -322.5q0 -210 79.5 -318.5t226.5 -108.5q145 0 224.5 106.5
t79.5 320.5zM960 1632q-10 -156 -74.5 -234t-171.5 -78q-52 0 -96 19t-86 59q-44 41 -76 62.5t-63 21.5q-49 0 -68.5 -45t-23.5 -121h-140q7 154 76 232.5t169 78.5q51 0 94 -19.5t86 -57.5q43 -39 77.5 -59.5t63.5 -20.5q47 0 68.5 45t24.5 117h140z" />
    <glyph glyph-name="uacute" unicode="&#xa9;" horiz-adv-x="1142" 
d="M1006 0h-188v124q-87 -76 -165 -115.5t-174 -39.5q-73 0 -137.5 24t-112.5 76t-74.5 131t-26.5 192v725h188v-636q0 -89 6.5 -147.5t29.5 -102.5q23 -43 62.5 -63t113.5 -20q69 0 147 39t143 96v834h188v-1117zM871 1676l-273 -374h-149l179 374h243z" />
    <glyph glyph-name="ugrave" unicode="&#xaa;" horiz-adv-x="1142" 
d="M1006 0h-188v124q-87 -76 -165 -115.5t-174 -39.5q-73 0 -137.5 24t-112.5 76t-74.5 131t-26.5 192v725h188v-636q0 -89 6.5 -147.5t29.5 -102.5q23 -43 62.5 -63t113.5 -20q69 0 147 39t143 96v834h188v-1117zM687 1302h-149l-273 374h243z" />
    <glyph glyph-name="ucircumflex" unicode="&#xab;" horiz-adv-x="1142" 
d="M1006 0h-188v124q-87 -76 -165 -115.5t-174 -39.5q-73 0 -137.5 24t-112.5 76t-74.5 131t-26.5 192v725h188v-636q0 -89 6.5 -147.5t29.5 -102.5q23 -43 62.5 -63t113.5 -20q69 0 147 39t143 96v834h188v-1117zM908 1297h-159l-185 256l-184 -256h-155l228 379h227z" />
    <glyph glyph-name="udieresis" unicode="&#xac;" horiz-adv-x="1142" 
d="M1006 0h-188v124q-87 -76 -165 -115.5t-174 -39.5q-73 0 -137.5 24t-112.5 76t-74.5 131t-26.5 192v725h188v-636q0 -89 6.5 -147.5t29.5 -102.5q23 -43 62.5 -63t113.5 -20q69 0 147 39t143 96v834h188v-1117zM879 1304h-201v195h201v-195zM466 1304h-201v195h201v-195z
" />
    <glyph glyph-name="dagger" unicode="&#xae;" horiz-adv-x="1118" 
d="M983 1034l-363 5l5 -904h-132l5 904l-363 -5v129l363 -5l-5 398h132l-5 -398l363 5v-129z" />
    <glyph glyph-name="degree" unicode="&#xaf;" horiz-adv-x="964" 
d="M863 1135q0 -160 -110 -270t-271 -110q-159 0 -270 109t-111 271q0 160 110 270t271 110t271 -110t110 -270zM706 1135q0 96 -64 162t-160 66t-160 -66t-64 -162q0 -98 65.5 -163t158.5 -65q96 0 160 66.5t64 161.5z" />
    <glyph glyph-name="cent" unicode="&#xb0;" horiz-adv-x="1118" 
d="M557 2q-215 25 -329 169t-114 386q0 238 118 386t325 172v360h114v-359q87 -3 167.5 -26.5t136.5 -52.5v-200h-10q-62 51 -132 89t-162 51v-836q49 5 98.5 23t83.5 38q36 21 64 41.5t48 37.5h10v-198q-65 -30 -135.5 -53.5t-168.5 -28.5v-362h-114v363zM557 146v825
q-116 -21 -183 -125.5t-67 -288.5q0 -188 68.5 -289.5t181.5 -121.5z" />
    <glyph glyph-name="sterling" unicode="&#xb1;" horiz-adv-x="1118" 
d="M1031 0h-942v207q111 33 156.5 128t45.5 278h-161v138h161v320q0 201 116 324t301 123q97 0 166 -15.5t127 -32.5v-206h-10q-58 41 -129 64t-135 23q-123 0 -183.5 -77t-60.5 -222v-301h364v-138h-364v-61q0 -117 -58.5 -212.5t-163.5 -157.5v-11h770v-171z" />
    <glyph glyph-name="section" unicode="&#xb4;" horiz-adv-x="1118" 
d="M759 401q24 35 37.5 67.5t13.5 86.5q0 49 -14.5 85t-39.5 59q-24 23 -56 38.5t-74 28.5q-33 10 -77 22.5t-99 30.5q-20 -12 -41.5 -30t-47.5 -51q-20 -26 -36.5 -70t-16.5 -89q0 -81 38 -129t146 -81q34 -10 77.5 -23.5t97.5 -30.5q19 12 44 33t48 53zM182 -133
q26 -13 64.5 -29t74.5 -28q47 -15 87 -22.5t101 -7.5q114 0 190.5 46.5t76.5 137.5q0 54 -18.5 87.5t-59.5 59.5q-42 25 -103.5 42.5t-134.5 38.5q-88 25 -146.5 51t-105.5 69q-45 41 -67 95t-22 126q0 94 49 178.5t150 146.5v7q-91 50 -130.5 121t-39.5 161q0 168 128 270
t352 102q85 0 157 -13t161 -44v-194h-10q-90 45 -167.5 66t-161.5 21q-112 0 -189.5 -45.5t-77.5 -133.5q0 -57 20.5 -93t59.5 -59q39 -24 99.5 -43t137.5 -39q184 -50 262.5 -128.5t78.5 -212.5q0 -108 -54.5 -189t-144.5 -135v-7q87 -46 128.5 -116t41.5 -164
q0 -74 -31.5 -145t-89.5 -119q-62 -53 -148.5 -82t-209.5 -29q-79 0 -157 14t-161 44v194h10z" />
    <glyph glyph-name="bullet" unicode="&#xb5;" horiz-adv-x="931" 
d="M817 662q0 -145 -103.5 -248t-248.5 -103t-248 103t-103 248t103 248t248 103t248.5 -103t103.5 -248z" />
    <glyph glyph-name="paragraph" unicode="&#xb6;" horiz-adv-x="1118" 
d="M982 -363h-140v1722h-187v-1722h-140v956q-206 5 -332 129t-126 328q0 207 130 323t373 116h422v-1852z" />
    <glyph glyph-name="germandbls" unicode="&#xb7;" horiz-adv-x="1123" 
d="M1068 481q0 -218 -135 -361.5t-351 -143.5q-25 0 -62.5 3t-59.5 7v166h10q28 -8 59 -12.5t61 -4.5q77 0 131.5 27.5t87.5 74.5q35 51 49.5 111t14.5 141q0 169 -103 248.5t-304 79.5v157q152 0 233.5 57.5t81.5 190.5q0 33 -10 68.5t-34 63.5q-24 29 -62 46.5t-97 17.5
q-53 0 -96 -14.5t-81 -54.5q-36 -37 -56.5 -103t-20.5 -160v-1086h-188v1080q0 130 34 218t95 150q60 60 142.5 89t174.5 29q168 0 279.5 -85t111.5 -240q0 -112 -71 -201t-184 -121v-9q164 -37 257 -147t93 -282z" />
    <glyph glyph-name="registered" unicode="&#xb8;" horiz-adv-x="1902" 
d="M1816 655q0 -358 -253.5 -611.5t-611.5 -253.5t-611.5 253.5t-253.5 611.5t253.5 611t611.5 253t611.5 -253t253.5 -611zM1701 655q0 313 -219.5 533.5t-529.5 220.5t-529.5 -220.5t-219.5 -533.5t219.5 -534t529.5 -221t529.5 221t219.5 534zM1448 215h-227l-283 355
h-123v-355h-165v915h279q94 0 148.5 -7t110.5 -39q60 -34 87 -82t27 -123q0 -100 -55.5 -164t-144.5 -100zM1120 868q0 37 -12 64t-42 46q-25 16 -56 21.5t-80 5.5h-115v-309h98q48 0 90 9.5t68 32.5t37.5 53t11.5 77z" />
    <glyph glyph-name="copyright" unicode="&#xba;" horiz-adv-x="1902" 
d="M1816 655q0 -358 -253.5 -611.5t-611.5 -253.5t-611.5 253.5t-253.5 611.5t253.5 611t611.5 253t611.5 -253t253.5 -611zM1701 655q0 313 -219.5 533.5t-529.5 220.5t-529.5 -220.5t-219.5 -533.5t219.5 -534t529.5 -221t529.5 221t219.5 534zM1274 255
q-67 -30 -134 -52.5t-158 -22.5q-209 0 -330 123.5t-121 356.5q0 230 125 356.5t326 126.5q83 0 159 -22t133 -51v-181h-16q-43 38 -119 72.5t-153 34.5q-123 0 -196.5 -82t-73.5 -254q0 -162 70 -247.5t200 -85.5q84 0 159 36.5t113 70.5h16v-179z" />
    <glyph glyph-name="trademark" unicode="&#xbb;" horiz-adv-x="1794" 
d="M1634 785h-124v616h-20l-204 -453h-85l-206 460h-25v-623h-123v704h238l161 -382l161 382h227v-704zM692 1372h-229v-587h-127v587h-229v117h585v-117z" />
    <glyph glyph-name="acute" unicode="&#xbf;" horiz-adv-x="1118" 
d="M871 1676l-273 -374h-149l179 374h243z" />
    <glyph glyph-name="dieresis" unicode="&#xc0;" horiz-adv-x="1118" 
d="M867 1304h-201v195h201v-195zM454 1304h-201v195h201v-195z" />
    <glyph glyph-name="notequal" unicode="&#xc1;" horiz-adv-x="1490" 
d="M1298 362h-568l-105 -335h-153l105 335h-385v156h434l84 268h-518v156h566l105 335h153l-105 -335h387v-156h-436l-83 -268h519v-156z" />
    <glyph glyph-name="AE" unicode="&#xc2;" horiz-adv-x="1870" 
d="M1802 0h-912v557h-505l-217 -557h-207l603 1489h1238v-176h-716v-408h666v-176h-666v-553h716v-176zM890 723v601h-194l-245 -601h439z" />
    <glyph glyph-name="Oslash" unicode="&#xc3;" horiz-adv-x="1449" 
d="M1383 744q0 -368 -180 -571.5t-479 -203.5q-110 0 -204.5 29t-171.5 82l-132 -196h-148l189 278q-90 99 -140.5 245t-50.5 337q0 368 180.5 572t477.5 204q114 0 203.5 -27.5t169.5 -82.5l115 171h148l-171 -251q91 -100 142.5 -243.5t51.5 -342.5zM995 1260
q-52 44 -120 66.5t-150 22.5q-208 0 -331.5 -154t-123.5 -451q0 -135 26 -239.5t73 -180.5zM1179 744q0 138 -27.5 246t-73.5 179l-628 -937q57 -46 120.5 -69t154.5 -23q206 0 330 155.5t124 448.5z" />
    <glyph glyph-name="infinity" unicode="&#xc4;" horiz-adv-x="1862" 
d="M1752 663q0 -229 -113.5 -367.5t-316.5 -138.5q-127 0 -234 80.5t-168 218.5q-77 -153 -176.5 -226t-236.5 -73q-182 0 -289.5 137t-107.5 348q0 236 117.5 371t312.5 135q127 0 234 -80.5t168 -218.5q75 150 177 224.5t236 74.5q182 0 289.5 -137t107.5 -348zM873 729
q-60 117 -144.5 175.5t-174.5 58.5q-131 0 -202.5 -82t-71.5 -239q0 -142 62.5 -220.5t167.5 -78.5q85 0 143 37.5t124 153.5q25 44 49.5 92t46.5 103zM1582 663q0 144 -63 221.5t-167 77.5q-88 0 -145 -39t-123 -152q-33 -55 -52.5 -97.5t-42.5 -97.5q58 -116 143.5 -175
t175.5 -59q131 0 202.5 81.5t71.5 239.5z" />
    <glyph glyph-name="plusminus" unicode="&#xc5;" horiz-adv-x="1490" 
d="M1328 159h-1166v158h500v422h-500v158h500v505h166v-505h500v-158h-500v-422h500v-158z" />
    <glyph glyph-name="lessequal" unicode="&#xc6;" horiz-adv-x="1490" 
d="M1275 305l-1074 483v120l1074 483v-181l-812 -362l812 -362v-181zM1275 0h-1074v160h1074v-160z" />
    <glyph glyph-name="greaterequal" unicode="&#xc7;" horiz-adv-x="1490" 
d="M1289 788l-1074 -483v181l812 362l-812 362v181l1074 -483v-120zM1289 0h-1074v160h1074v-160z" />
    <glyph glyph-name="yen" unicode="&#xc8;" horiz-adv-x="1118" 
d="M1059 1489l-408 -811v-100h342v-138h-340v-440h-188v440h-340v138h342v79l-411 832h210l294 -639l298 639h201z" />
    <glyph glyph-name="mu1" unicode="&#xc9;" horiz-adv-x="1163" 
d="M1027 0h-172v116h-6q-60 -63 -120.5 -98t-150.5 -35q-92 0 -145 35t-109 97v-527h-188v1529h188v-842q42 -50 105 -80.5t149 -30.5q90 0 151.5 29t109.5 82v842h188v-1117z" />
    <glyph glyph-name="partialdiff" unicode="&#xca;" horiz-adv-x="1118" 
d="M1033 837q0 -68 -7.5 -153.5t-25.5 -170.5t-48 -170t-74 -153q-82 -123 -178.5 -172t-205.5 -49q-190 0 -308.5 123.5t-118.5 331.5q0 228 130.5 372.5t326.5 144.5q87 0 163 -26t151 -91q2 26 2.5 53t0.5 58q0 216 -75 317.5t-221 101.5q-79 0 -165 -31t-162 -87h-13
v194q79 44 179.5 66.5t187.5 22.5q140 0 236.5 -56t155.5 -177q41 -86 55 -191t14 -258zM832 678q-56 46 -129 73.5t-143 27.5q-134 0 -213.5 -89t-79.5 -263q0 -146 63.5 -222t169.5 -76q143 0 230 143t102 406z" />
    <glyph glyph-name="summation" unicode="&#xcb;" horiz-adv-x="1303" 
d="M1228 -189h-1102v191l626 668l-616 631v188h1053v-176h-807l601 -598v-72l-628 -656h873v-176z" />
    <glyph glyph-name="product" unicode="&#xcc;" horiz-adv-x="1393" 
d="M1237 1489v-1678h-198v1502h-685v-1502h-198v1678h1081z" />
    <glyph glyph-name="pi1" unicode="&#xcd;" horiz-adv-x="1154" 
d="M1018 0h-188v955h-506v-955h-188v1117h882v-1117z" />
    <glyph glyph-name="integral" unicode="&#xce;" horiz-adv-x="1118" 
d="M1048 1369h-10q-29 10 -80.5 18.5t-80.5 8.5q-127 0 -175.5 -59.5t-48.5 -211.5v-1123q0 -210 -105.5 -317.5t-283.5 -107.5q-48 0 -94 4.5t-96 14.5v178h10q38 -11 82 -19t75 -8q127 0 175.5 59.5t48.5 211.5v1123q0 210 105 317.5t284 107.5q58 0 105 -5.5t89 -13.5
v-178z" />
    <glyph glyph-name="ordfeminine" unicode="&#xcf;" horiz-adv-x="1010" 
d="M874 566h-166v91q-19 -15 -51 -38.5t-63 -37.5q-41 -19 -80.5 -29.5t-109.5 -10.5q-124 0 -207 83.5t-83 214.5q0 104 43 169.5t123 103.5q75 36 189 51t239 21v19q0 52 -16.5 84t-48.5 50q-29 17 -72 22.5t-89 5.5q-78 0 -158.5 -23.5t-119.5 -37.5h-15v170
q44 13 131.5 29t162.5 16q192 0 291.5 -76.5t99.5 -248.5v-628zM708 802v243q-65 -4 -151 -12t-137 -23q-60 -17 -97 -55.5t-37 -105.5q0 -75 44 -114t131 -39q76 0 136.5 33t110.5 73z" />
    <glyph glyph-name="ordmasculine" unicode="&#xd1;" horiz-adv-x="1010" 
d="M926 1030q0 -234 -117 -362t-303 -128q-193 0 -307 131.5t-114 358.5q0 233 117 361.5t304 128.5t303.5 -127t116.5 -363zM746 1030q0 173 -64.5 256.5t-175.5 83.5t-176 -82.5t-65 -257.5q0 -169 64 -254.5t177 -85.5q111 0 175.5 85.5t64.5 254.5z" />
    <glyph glyph-name="Ohm" unicode="&#xd2;" horiz-adv-x="1438" 
d="M1403 0h-559v387q61 38 120.5 83.5t99.5 101.5q45 62 68.5 133t23.5 188q0 95 -26.5 179t-80.5 145q-53 61 -136 96.5t-190 35.5q-109 0 -191 -35t-140 -98q-53 -58 -81.5 -144.5t-28.5 -178.5q0 -109 26.5 -187.5t70.5 -134.5q45 -57 104 -101.5t119 -82.5v-387h-559
v174h393v124q-73 42 -138 101.5t-115 134.5q-50 76 -78.5 166.5t-28.5 192.5q0 139 43.5 250t128.5 198q81 83 204 131t271 48t268 -46.5t203 -131.5q82 -84 125 -198.5t43 -250.5q0 -103 -27.5 -193.5t-74.5 -164.5t-111 -134t-139 -103v-124h393v-174z" />
    <glyph glyph-name="ae" unicode="&#xd3;" horiz-adv-x="1802" 
d="M817 298q-19 54 -29 119.5t-10 140.5q-95 -3 -189.5 -8.5t-169.5 -26.5q-74 -20 -121 -66t-47 -127q0 -95 56 -141.5t167 -46.5q91 0 184 44t159 112zM1340 138q65 0 125.5 14.5t106.5 35.5q51 23 86 44.5t58 40.5h11v-205l-82.5 -32.5t-88.5 -30.5q-55 -15 -99.5 -23
t-114.5 -8q-161 0 -276 52t-189 155q-21 -19 -64.5 -59.5t-91.5 -68.5q-65 -38 -134.5 -60t-179.5 -22q-146 0 -247.5 97t-101.5 249q0 129 53 204t150 117q92 39 231.5 52t293.5 16v58q0 65 -21.5 108t-60.5 67q-36 22 -87.5 31.5t-116.5 9.5q-81 0 -176.5 -26.5
t-152.5 -51.5h-15v191q49 14 151.5 33.5t193.5 19.5q160 0 260 -48t153 -136q66 81 165 133.5t217 52.5q224 0 338.5 -134.5t114.5 -372.5v-82h-788q0 -114 30 -195.5t83 -132.5q53 -50 120 -71.5t146 -21.5zM1567 703q-5 59 -20.5 112.5t-47.5 92.5q-31 38 -85 61.5
t-127 23.5q-78 0 -129.5 -21.5t-94.5 -62.5q-40 -38 -64.5 -92.5t-34.5 -113.5h603z" />
    <glyph glyph-name="oslash" unicode="&#xd4;" horiz-adv-x="1112" 
d="M1055 558q0 -282 -136 -435t-362 -153q-79 0 -145 20.5t-124 56.5l-123 -194h-124l168 261q-72 76 -112 187t-40 257q0 280 137.5 434.5t362.5 154.5q75 0 142 -20t124 -57l108 170h125l-152 -236q71 -77 111 -186t40 -260zM735 932q-34 26 -78 40t-100 14
q-147 0 -228 -107.5t-81 -320.5q0 -97 14.5 -169.5t43.5 -126.5zM864 558q0 99 -14.5 173t-42.5 125l-429 -669q38 -29 79.5 -42.5t99.5 -13.5q145 0 226 106.5t81 320.5z" />
    <glyph glyph-name="questiondown" unicode="&#xd5;" horiz-adv-x="970" 
d="M632 1278h-204v211h204v-211zM861 40q-79 -30 -167 -50t-195 -20q-205 0 -323 104.5t-118 275.5q0 94 30 168t89 141q53 59 122.5 106.5t144.5 95.5v228h179v-305q-71 -43 -131.5 -81t-115.5 -89q-51 -48 -82.5 -109t-31.5 -140q0 -113 71 -168.5t185 -55.5
q99 0 191 34.5t141 68.5h11v-204z" />
    <glyph glyph-name="exclamdown" unicode="&#xd6;" horiz-adv-x="680" 
d="M442 1278h-204v211h204v-211zM452 0h-224l28 1079h166z" />
    <glyph glyph-name="logicalnot" unicode="&#xd8;" horiz-adv-x="1490" 
d="M1323 57h-171v545h-995v160h1166v-705z" />
    <glyph glyph-name="radical" unicode="&#xd9;" horiz-adv-x="1490" 
d="M1554 1789l-790 -1940h-104l-342 993h-237v139h393l265 -797l653 1605h162z" />
    <glyph glyph-name="florin" unicode="&#xda;" horiz-adv-x="1118" 
d="M1087 1320h-10q-27 10 -78.5 23.5t-89.5 13.5q-112 0 -162 -60.5t-72 -213.5l-29 -199h292v-138h-310l-70 -511q-32 -231 -137 -334t-286 -103q-39 0 -86.5 4.5t-97.5 13.5v181h10q28 -10 77.5 -23.5t90.5 -13.5q112 0 163 61t71 213l72 512h-178v138h196l27 198
q17 123 54 206.5t92 136.5q52 49 125.5 71.5t151.5 22.5q50 0 91 -4.5t93 -13.5v-181z" />
    <glyph glyph-name="approxequal" unicode="&#xdb;" horiz-adv-x="1490" 
d="M1298 1104q-19 -195 -100.5 -293.5t-235.5 -98.5q-69 0 -136.5 37t-120.5 83q-28 24 -90.5 65t-105.5 41q-72 0 -105 -47t-59 -172h-155q21 181 104 279t233 98q66 0 134.5 -36.5t122.5 -82.5q36 -30 94.5 -68.5t101.5 -38.5q69 0 106 53.5t55 180.5h157zM1299 588
q-23 -185 -102.5 -282t-235.5 -97q-66 0 -134.5 37t-122.5 83q-37 31 -95 68.5t-101 37.5q-72 0 -107.5 -55.5t-53.5 -177.5h-157q17 192 102 291.5t234 99.5q71 0 138.5 -37.5t118.5 -81.5q31 -26 90 -66.5t106 -40.5q70 0 104 50t59 171h157z" />
    <glyph glyph-name="Delta" unicode="&#xdc;" horiz-adv-x="1268" 
d="M1278 0h-1288l522 1489h244zM1010 172l-381 1120l-380 -1120h761z" />
    <glyph glyph-name="guillemotleft" unicode="&#xdf;" horiz-adv-x="1174" 
d="M1043 191l-488 419v85l488 418v-188l-317 -273l317 -273v-188zM613 162l-510 446v89l510 445v-196l-331 -294l331 -294v-196z" />
    <glyph glyph-name="guillemotright" unicode="&#xe0;" horiz-adv-x="1174" 
d="M1071 608l-510 -446v196l331 294l-331 294v196l510 -445v-89zM619 610l-488 -419v188l317 273l-317 273v188l488 -418v-85z" />
    <glyph glyph-name="ellipsis" unicode="&#xe1;" horiz-adv-x="1674" 
d="M1497 0h-204v223h204v-223zM939 0h-204v223h204v-223zM381 0h-204v223h204v-223z" />
    <glyph glyph-name="Agrave" unicode="&#xe2;" horiz-adv-x="1228" 
d="M-10 0l502 1489h244l502 -1489h-209l-135 416h-569l-135 -416h-200zM839 585l-230 702l-229 -702h459zM769 1675h-149l-273 374h243z" />
    <glyph glyph-name="Atilde" unicode="&#xe3;" horiz-adv-x="1228" 
d="M-10 0l502 1489h244l502 -1489h-209l-135 416h-569l-135 -416h-200zM839 585l-230 702l-229 -702h459zM1010 1965q-10 -156 -74.5 -234t-171.5 -78q-52 0 -96 19t-86 59q-44 41 -76 62.5t-63 21.5q-49 0 -68.5 -45t-23.5 -121h-140q7 154 76 232.5t169 78.5
q51 0 94 -19.5t86 -57.5q43 -39 77.5 -59.5t63.5 -20.5q47 0 68.5 45t24.5 117h140z" />
    <glyph glyph-name="Otilde" unicode="&#xe4;" horiz-adv-x="1449" 
d="M1204 1318q85 -98 132 -243t47 -331q0 -181 -46 -327t-133 -245q-91 -104 -212.5 -153.5t-267.5 -49.5q-151 0 -272 51t-208 152q-86 99 -132 244t-46 328q0 188 46.5 330t132.5 244q86 99 207.5 150.5t271.5 51.5q152 0 274 -53t206 -149zM1177 744q0 148 -32 262
t-90 189q-59 77 -142.5 115.5t-187.5 38.5q-108 0 -188.5 -37.5t-142.5 -116.5q-59 -76 -90.5 -191t-31.5 -260q0 -293 123 -448.5t330 -155.5t329.5 155.5t122.5 448.5zM1110 1985q-10 -156 -74.5 -234t-171.5 -78q-52 0 -96 19t-86 59q-44 41 -76 62.5t-63 21.5
q-49 0 -68.5 -45t-23.5 -121h-140q7 154 76 232.5t169 78.5q51 0 94 -19.5t86 -57.5q43 -39 77.5 -59.5t63.5 -20.5q47 0 68.5 45t24.5 117h140z" />
    <glyph glyph-name="OE" unicode="&#xe5;" horiz-adv-x="2000" 
d="M1932 0h-1031q-184 0 -308 26t-225 92q-144 95 -223 253.5t-79 374.5q0 209 84.5 370.5t220.5 252.5q89 60 209.5 90t318.5 30h1033v-176h-723v-408h673v-176h-673v-553h723v-176zM1012 171v1147h-119q-148 0 -241.5 -22.5t-172.5 -75.5q-103 -68 -155 -188t-52 -289
q0 -172 57 -293.5t169 -189.5q83 -50 173.5 -69.5t219.5 -19.5h121z" />
    <glyph glyph-name="oe" unicode="&#xe6;" horiz-adv-x="1861" 
d="M1625 683q-4 157 -71 233.5t-202 76.5q-128 0 -214.5 -82t-98.5 -228h586zM856 558q0 217 -78.5 322.5t-223.5 105.5q-148 0 -225.5 -110.5t-77.5 -317.5q0 -210 78.5 -318.5t224.5 -108.5q144 0 223 107.5t79 319.5zM1403 138q62 0 121.5 14t107.5 36q51 23 86 44.5
t58 40.5h11v-205q-33 -13 -82 -32.5t-88 -30.5q-55 -15 -99.5 -23t-112.5 -8q-147 0 -264.5 52.5t-188.5 152.5q-67 -103 -164.5 -156.5t-233.5 -53.5q-231 0 -364 158t-133 431q0 278 135 434t362 156q131 0 234.5 -55t167.5 -156q67 101 172.5 156t234.5 55
q215 0 330 -133t115 -374v-102h-769q0 -193 97 -297t267 -104z" />
    <glyph glyph-name="endash" unicode="&#xe7;" horiz-adv-x="1118" 
d="M1122 572h-1126v160h1126v-160z" />
    <glyph glyph-name="emdash" unicode="&#xe8;" horiz-adv-x="1862" 
d="M1866 572h-1870v160h1870v-160z" />
    <glyph glyph-name="quotedblleft" unicode="&#xe9;" horiz-adv-x="822" 
d="M725 997h-134l-261 559h238zM331 997h-134l-261 559h238z" />
    <glyph glyph-name="quotedblright" unicode="&#xea;" horiz-adv-x="822" 
d="M896 1556l-261 -559h-134l157 559h238zM502 1556l-261 -559h-134l157 559h238z" />
    <glyph glyph-name="quoteleft" unicode="&#xeb;" horiz-adv-x="432" 
d="M335 997h-138l-261 559h242z" />
    <glyph glyph-name="quoteright" unicode="&#xec;" horiz-adv-x="432" 
d="M496 1556l-261 -559h-138l157 559h242z" />
    <glyph glyph-name="divide" unicode="&#xed;" horiz-adv-x="1490" 
d="M864 1012h-238v275h238v-275zM1333 572h-1176v160h1176v-160zM864 17h-238v275h238v-275z" />
    <glyph glyph-name="lozenge" unicode="&#xee;" horiz-adv-x="1490" 
d="M1371 654l-626 -710l-626 710l626 710zM1153 654l-408 476l-408 -476l408 -474z" />
    <glyph glyph-name="ydieresis" unicode="&#xef;" horiz-adv-x="1020" 
d="M1014 1117l-601 -1529h-201l200 466l-406 1063h203l305 -827l304 827h196zM834 1304h-201v195h201v-195zM421 1304h-201v195h201v-195z" />
    <glyph glyph-name="Ydieresis" unicode="&#xf1;" horiz-adv-x="1180" 
d="M1193 1489l-503 -830v-659h-198v638l-503 851h220l384 -657l390 657h210zM900 1677h-201v195h201v-195zM487 1677h-201v195h201v-195z" />
    <glyph glyph-name="fraction" unicode="&#xf2;" horiz-adv-x="886" 
d="M916 1489l-780 -1489h-165l780 1489h165z" />
    <glyph glyph-name="Euro" unicode="&#xf3;" horiz-adv-x="1118" 
d="M945 662l-27 -138h-620q44 -170 146 -268q116 -112 290 -112q187 0 324 92h14v-193q-170 -70 -339 -70q-274 0 -444 158q-154 143 -203 393h-114l28 138h69q-3 40 -3 81q0 29 1 57h-95l28 138h83q46 262 207 414q174 164 446 164q178 0 336 -71v-195h-16q-141 97 -322 97
q-184 0 -302 -123q-101 -106 -140 -286h709l-27 -138h-700q-2 -28 -2 -57q0 -41 3 -81h670z" />
    <glyph glyph-name="guilsinglleft" unicode="&#xf4;" horiz-adv-x="784" 
d="M633 172l-510 436v89l510 435v-199l-331 -281l331 -281v-199z" />
    <glyph glyph-name="guilsinglright" unicode="&#xf5;" horiz-adv-x="784" 
d="M661 608l-510 -436v199l331 281l-331 281v199l510 -435v-89z" />
    <glyph glyph-name="fi" unicode="&#xf6;" horiz-adv-x="1092" 
d="M954 0h-188v964h-422v-964h-188v961h-127v156h127v57q0 182 97 287t250 105q52 0 94.5 -5.5t70.5 -9.5v-172h-10q-16 6 -53 14.5t-79 8.5q-105 0 -146.5 -54.5t-41.5 -172.5v-58h616v-1117zM954 1304h-202v195h202v-195z" />
    <glyph glyph-name="fl" unicode="&#xf7;" horiz-adv-x="1086" 
d="M948 0h-188v1404q-27 3 -66.5 5t-63.5 2q-162 0 -227 -53.5t-65 -193.5v-47h243v-156h-237v-961h-188v961h-127v156h127v49q0 103 32 177t90 125q55 48 142.5 73t187.5 25q60 0 131 -7t111 -11l98 8v-1556z" />
    <glyph glyph-name="daggerdbl" unicode="&#xf8;" horiz-adv-x="1118" 
d="M983 507l-363 5l5 -388h-132l5 388l-363 -5v129l363 -5v418l-363 -5v129l363 -5l-5 388h132l-5 -388l363 5v-129l-363 5v-418l363 5v-129z" />
    <glyph glyph-name="glyph194" unicode="&#xf9;" horiz-adv-x="620" 
d="M429 516h-239v273h239v-273z" />
    <glyph glyph-name="quotesinglbase" unicode="&#xfa;" horiz-adv-x="432" 
d="M386 283l-261 -559h-138l157 559h242z" />
    <glyph glyph-name="quotedblbase" unicode="&#xfb;" horiz-adv-x="814" 
d="M781 283l-261 -559h-134l157 559h238zM387 283l-261 -559h-134l157 559h238z" />
    <glyph glyph-name="perthousand" unicode="&#xfc;" horiz-adv-x="2848" 
d="M807 1076q0 -225 -90.5 -333.5t-261.5 -108.5q-174 0 -263.5 110t-89.5 331q0 224 91 333t262 109q174 0 263 -110t89 -331zM1473 1489l-780 -1489h-165l780 1489h165zM1897 413q0 -225 -90.5 -333.5t-261.5 -108.5q-174 0 -263.5 110t-89.5 331q0 224 91 333t262 109
q174 0 263 -110t89 -331zM629 1076q0 152 -35.5 230t-138.5 78t-139 -79t-36 -230q0 -150 34 -229t141 -79q103 0 138.5 79t35.5 230zM1719 413q0 152 -35.5 230t-138.5 78t-139 -79t-36 -230q0 -150 34 -229t141 -79q103 0 138.5 79t35.5 230zM2741 413
q0 -225 -90.5 -333.5t-261.5 -108.5q-174 0 -263.5 110t-89.5 331q0 224 91 333t262 109q174 0 263 -110t89 -331zM2563 413q0 152 -35.5 230t-138.5 78t-139 -79t-36 -230q0 -150 34 -229t141 -79q103 0 138.5 79t35.5 230z" />
    <glyph glyph-name="Acircumflex" unicode="&#xff;" horiz-adv-x="1228" 
d="M-10 0l502 1489h244l502 -1489h-209l-135 416h-569l-135 -416h-200zM839 585l-230 702l-229 -702h459zM940 1650h-159l-185 256l-184 -256h-155l228 379h227z" />
    <glyph glyph-name="Ecircumflex" unicode="&#x2260;" horiz-adv-x="1149" 
d="M151 0v1489h931v-176h-733v-408h683v-176h-683v-553h733v-176h-931zM961 1670h-159l-185 256l-184 -256h-155l228 379h227z" />
    <glyph glyph-name="Aacute" unicode="&#x20a0;" horiz-adv-x="1228" 
d="M-10 0l502 1489h244l502 -1489h-209l-135 416h-569l-135 -416h-200zM839 585l-230 702l-229 -702h459zM867 2049l-273 -374h-149l179 374h243z" />
    <glyph glyph-name="Edieresis" unicode="&#x160;" horiz-adv-x="1149" 
d="M151 0v1489h931v-176h-733v-408h683v-176h-683v-553h733v-176h-931zM966 1677h-201v195h201v-195zM553 1677h-201v195h201v-195z" />
    <glyph glyph-name="Egrave" unicode="&#x161;" horiz-adv-x="1149" 
d="M151 0v1489h931v-176h-733v-408h683v-176h-683v-553h733v-176h-931zM754 1675h-149l-273 374h243z" />
    <glyph glyph-name="Iacute" unicode="&#xa6;" horiz-adv-x="764" 
d="M671 0h-578v152h190v1185h-190v152h578v-152h-190v-1185h190v-152zM662 2049l-273 -374h-149l179 374h243z" />
    <glyph glyph-name="Icircumflex" unicode="&#xb2;" horiz-adv-x="764" 
d="M671 0h-578v152h190v1185h-190v152h578v-152h-190v-1185h190v-152zM730 1670h-159l-185 256l-184 -256h-155l228 379h227z" />
    <glyph glyph-name="Idieresis" unicode="&#xb3;" horiz-adv-x="764" 
d="M671 0h-578v152h190v1185h-190v152h578v-152h-190v-1185h190v-152zM695 1677h-201v195h201v-195zM282 1677h-201v195h201v-195z" />
    <glyph glyph-name="Igrave" unicode="&#xb9;" horiz-adv-x="764" 
d="M671 0h-578v152h190v1185h-190v152h578v-152h-190v-1185h190v-152zM534 1675h-149l-273 374h243z" />
    <glyph glyph-name="Oacute" unicode="&#xbc;" horiz-adv-x="1449" 
d="M1204 1318q85 -98 132 -243t47 -331q0 -181 -46 -327t-133 -245q-91 -104 -212.5 -153.5t-267.5 -49.5q-151 0 -272 51t-208 152q-86 99 -132 244t-46 328q0 188 46.5 330t132.5 244q86 99 207.5 150.5t271.5 51.5q152 0 274 -53t206 -149zM1177 744q0 148 -32 262
t-90 189q-59 77 -142.5 115.5t-187.5 38.5q-108 0 -188.5 -37.5t-142.5 -116.5q-59 -76 -90.5 -191t-31.5 -260q0 -293 123 -448.5t330 -155.5t329.5 155.5t122.5 448.5zM1002 2049l-273 -374h-149l179 374h243z" />
    <glyph glyph-name="Ocircumflex" unicode="&#xbd;" horiz-adv-x="1449" 
d="M1204 1318q85 -98 132 -243t47 -331q0 -181 -46 -327t-133 -245q-91 -104 -212.5 -153.5t-267.5 -49.5q-151 0 -272 51t-208 152q-86 99 -132 244t-46 328q0 188 46.5 330t132.5 244q86 99 207.5 150.5t271.5 51.5q152 0 274 -53t206 -149zM1177 744q0 148 -32 262
t-90 189q-59 77 -142.5 115.5t-187.5 38.5q-108 0 -188.5 -37.5t-142.5 -116.5q-59 -76 -90.5 -191t-31.5 -260q0 -293 123 -448.5t330 -155.5t329.5 155.5t122.5 448.5zM1055 1670h-159l-185 256l-184 -256h-155l228 379h227z" />
    <glyph glyph-name="Ograve" unicode="&#xbe;" horiz-adv-x="1449" 
d="M1204 1318q85 -98 132 -243t47 -331q0 -181 -46 -327t-133 -245q-91 -104 -212.5 -153.5t-267.5 -49.5q-151 0 -272 51t-208 152q-86 99 -132 244t-46 328q0 188 46.5 330t132.5 244q86 99 207.5 150.5t271.5 51.5q152 0 274 -53t206 -149zM1177 744q0 148 -32 262
t-90 189q-59 77 -142.5 115.5t-187.5 38.5q-108 0 -188.5 -37.5t-142.5 -116.5q-59 -76 -90.5 -191t-31.5 -260q0 -293 123 -448.5t330 -155.5t329.5 155.5t122.5 448.5zM851 1675h-149l-273 374h243z" />
    <glyph glyph-name="Uacute" unicode="&#xd0;" horiz-adv-x="1343" 
d="M671 -31q-131 0 -229 34.5t-167 102.5q-78 78 -110 186.5t-32 267.5v929h198v-929q0 -103 13 -173.5t51 -126.5q40 -60 108.5 -91t167.5 -31q93 0 165 31t112 91q37 57 50.5 126t13.5 169v934h198v-929q0 -155 -31.5 -266t-110.5 -188q-71 -69 -165.5 -103t-231.5 -34z
M995 2049l-273 -374h-149l179 374h243z" />
    <glyph glyph-name="Ucircumflex" unicode="&#xd7;" horiz-adv-x="1343" 
d="M671 -31q-131 0 -229 34.5t-167 102.5q-78 78 -110 186.5t-32 267.5v929h198v-929q0 -103 13 -173.5t51 -126.5q40 -60 108.5 -91t167.5 -31q93 0 165 31t112 91q37 57 50.5 126t13.5 169v934h198v-929q0 -155 -31.5 -266t-110.5 -188q-71 -69 -165.5 -103t-231.5 -34z
M1006 1670h-159l-185 256l-184 -256h-155l228 379h227z" />
    <glyph glyph-name="Ugrave" unicode="&#xdd;" horiz-adv-x="1343" 
d="M671 -31q-131 0 -229 34.5t-167 102.5q-78 78 -110 186.5t-32 267.5v929h198v-929q0 -103 13 -173.5t51 -126.5q40 -60 108.5 -91t167.5 -31q93 0 165 31t112 91q37 57 50.5 126t13.5 169v934h198v-929q0 -155 -31.5 -266t-110.5 -188q-71 -69 -165.5 -103t-231.5 -34z
M854 1675h-149l-273 374h243z" />
    <glyph glyph-name="dotlessi" unicode="&#xde;" horiz-adv-x="468" 
d="M328 0h-188v1117h188v-1117z" />
    <glyph glyph-name="circumflex" unicode="&#xf0;" horiz-adv-x="1118" 
d="M901 1297h-159l-185 256l-184 -256h-155l228 379h227z" />
    <glyph glyph-name="tilde" unicode="&#xfd;" horiz-adv-x="1118" 
d="M960 1632q-10 -156 -74.5 -234t-171.5 -78q-52 0 -96 19t-86 59q-44 41 -76 62.5t-63 21.5q-49 0 -68.5 -45t-23.5 -121h-140q7 154 76 232.5t169 78.5q51 0 94 -19.5t86 -57.5q43 -39 77.5 -59.5t63.5 -20.5q47 0 68.5 45t24.5 117h140z" />
    <glyph glyph-name="glyph216" unicode="&#xfe;" horiz-adv-x="1118" 
d="M936 1335h-754v154h754v-154z" />
    <glyph glyph-name="breve" unicode="&#x25cc;" horiz-adv-x="1079" 
d="M643 43q0 20 13.5 35.5t33.5 15.5q21 0 35 -15.5t14 -35.5t-14 -33.5t-35 -13.5q-20 0 -33.5 13.5t-13.5 33.5zM645 944q0 21 14.5 36t34.5 15q21 0 35 -15t14 -36q0 -20 -14 -33.5t-35 -13.5q-20 0 -34.5 13.5t-14.5 33.5zM618 76q0 -21 -14 -34t-35 -13q-20 0 -34.5 13
t-14.5 34q0 20 14.5 34.5t34.5 14.5q21 0 35 -14.5t14 -34.5zM516 150q0 -21 -14.5 -35.5t-34.5 -14.5q-21 0 -35 14.5t-14 35.5q0 20 14 34.5t35 14.5q20 0 34.5 -14.5t14.5 -34.5zM446 258q0 -20 -14 -34.5t-35 -14.5q-20 0 -34.5 14.5t-14.5 34.5q0 21 14.5 35t34.5 14
q21 0 35 -14t14 -35zM408 375q0 -21 -14.5 -35t-35.5 -14q-20 0 -34.5 14t-14.5 35q0 20 14.5 34.5t34.5 14.5q21 0 35.5 -14.5t14.5 -34.5zM399 494q0 -21 -14 -34.5t-35 -13.5q-20 0 -34.5 13.5t-14.5 34.5q0 20 14.5 35.5t34.5 15.5q21 0 35 -15.5t14 -35.5zM408 612
q0 -20 -14.5 -34.5t-35.5 -14.5q-20 0 -34.5 14.5t-14.5 34.5q0 21 14.5 35.5t34.5 14.5q21 0 35.5 -14.5t14.5 -35.5zM449 729q0 -20 -14.5 -34.5t-35.5 -14.5q-20 0 -34.5 14.5t-14.5 34.5q0 21 14.5 35t34.5 14q21 0 35.5 -14t14.5 -35zM514 838q0 -21 -14.5 -35.5
t-34.5 -14.5q-21 0 -34 14.5t-13 35.5q0 20 13 34.5t34 14.5q20 0 34.5 -14.5t14.5 -34.5zM616 913q0 -20 -14 -33.5t-35 -13.5q-20 0 -34.5 13.5t-14.5 33.5q0 21 14.5 36.5t34.5 15.5q21 0 35 -15.5t14 -36.5zM762 76q0 20 14.5 34.5t34.5 14.5t34.5 -14.5t14.5 -34.5
q0 -21 -14.5 -34t-34.5 -13t-34.5 13t-14.5 34zM864 150q0 20 14.5 34.5t34.5 14.5q21 0 35.5 -14.5t14.5 -34.5q0 -21 -14.5 -35.5t-35.5 -14.5q-20 0 -34.5 14.5t-14.5 35.5zM934 258q0 21 14.5 35t34.5 14q21 0 35 -14t14 -35q0 -20 -14 -34.5t-35 -14.5
q-20 0 -34.5 14.5t-14.5 34.5zM973 375q0 20 14 34.5t35 14.5q20 0 34.5 -14.5t14.5 -34.5q0 -21 -14.5 -35t-34.5 -14q-21 0 -35 14t-14 35zM981 494q0 20 14.5 35.5t34.5 15.5q21 0 35 -15.5t14 -35.5q0 -21 -14 -34.5t-35 -13.5q-20 0 -34.5 13.5t-14.5 34.5zM973 612
q0 21 14 35.5t35 14.5q20 0 34.5 -14.5t14.5 -35.5q0 -20 -14.5 -34.5t-34.5 -14.5q-21 0 -35 14.5t-14 34.5zM932 729q0 21 14.5 35t34.5 14t34.5 -14t14.5 -35q0 -20 -14.5 -34.5t-34.5 -14.5t-34.5 14.5t-14.5 34.5zM866 838q0 20 13.5 33.5t33.5 13.5q21 0 36.5 -13.5
t15.5 -33.5q0 -21 -15.5 -35.5t-36.5 -14.5q-20 0 -33.5 14.5t-13.5 35.5zM766 913q0 21 13.5 36.5t33.5 15.5q21 0 35 -15.5t14 -36.5q0 -20 -14 -33.5t-35 -13.5q-20 0 -33.5 13.5t-13.5 33.5z" />
    <glyph glyph-name="dotaccent" unicode="&#x200b;" 
 />
    <glyph glyph-name="ring" unicode="&#x200c;" horiz-adv-x="63" 
d="M0 0v1610h63v-1610h-63z" />
    <glyph glyph-name="cedilla" unicode="&#x200d;" horiz-adv-x="61" 
d="M184 1499l-123 123v-1622h-61v1620l-118 -121l-41 45l151 152l-151 151l41 45l151 -153l151 153l43 -45l-153 -151l153 -152z" />
    <glyph glyph-name="hungarumlaut" unicode="&#x1780;" horiz-adv-x="1351" 
d="M378 1104l318 318l256 -159l166 163q137 -78 207 -120.5t83 -49.5q0 -2 -47 -67q-25 -31 -49 -57t-49 -46q-32 21 -96 58.5t-163 92.5l-159 -155l-244 155l-64 -59l127 -100l-123 -103zM488 -3v774q5 252 431 262q418 -7 422 -262v-771h-178v830q-3 71 -81 104
q-85 32 -163 32q-80 0 -159 -40q-91 -37 -96 -110l3 -819h-179z" />
    <glyph glyph-name="ogonek" 
d="M-197 -430q0 74 -78 106q-85 35 -156 35q-61 0 -143 -35q-83 -36 -86 -110v-322q13 -15 -89 -49q-58 0 -100 53v244q0 103 107 204q101 95 304 103q177 0 308 -77q126 -78 126 -241v-233q1 -1 1 -2q0 -20 -97 -51q-101 23 -97 56v319z" />
    <glyph glyph-name="caron" 
d="M-197 -1040q0 74 -78 106q-85 35 -156 35q-61 0 -143 -35q-83 -36 -86 -110v-322q13 -15 -89 -49q-58 0 -100 53v244q0 103 107 204q101 95 304 103q177 0 308 -77q126 -78 126 -241v-233q1 -1 1 -2q0 -20 -97 -51q-101 23 -97 56v319z" />
    <glyph glyph-name="Lslash" horiz-adv-x="1976" 
d="M381 1104l318 318l396 -169l42 -16l-1 -3l288 192l536 -309v-1124h-177v4h-3v1008l-433 243l-259 -174v-2h-2l-3 -2l1 3l-480 164l-64 -59l127 -100l-123 -103zM491 -3v774q5 252 431 262q418 -7 422 -262v-771h-178v830q-3 71 -81 104q-85 32 -163 32q-80 0 -159 -40
q-91 -37 -96 -110v-819h-176z" />
    <glyph glyph-name="lslash" horiz-adv-x="1976" 
d="M381 1104l318 318l438 -185l-1 -3l288 192l393 -227l37 98q33 54 33 103q0 50 -22 93q-14 29 -25 52t-20 40q-21 30 -29 83q4 10 63 54h85q51 -48 67 -103q9 -47 9 -100q0 -51 -6 -98t-23 -98q-28 -85 -28 -96l2 -110v-1124h-177v4h-3v1008l-433 243l-259 -174l-2 -2
l-482 165l-64 -59l127 -100l-123 -103zM491 -3v774q5 252 431 262q418 -7 422 -262v-771h-178v830q-3 71 -81 104q-85 32 -163 32q-80 0 -159 -40q-91 -37 -96 -110v-819h-176z" />
    <glyph glyph-name="Scaron" unicode="&#x1781;" horiz-adv-x="1384" 
d="M1059 782q75 55 96 130q15 43 15 107q0 74 -33 148q-104 156 -278 156q-58 0 -100 -19q-134 -74 -128 -173q0 -61 36 -74q28 7 78 54q39 11 63 11q56 0 89 -36q31 -33 45 -93q0 -88 -64 -134q-63 -48 -155 -48q-106 12 -167 70q-63 60 -63 186q4 163 129 259
q126 93 289 100q202 -5 338 -111q132 -106 136 -286q0 -91 -29 -144q-25 -57 -78 -107q-75 -75 -170 -130q-51 -28 -99 -50t-94 -39q-200 -67 -216 -67v-311q0 -35 53 -67q49 -33 112 -33q53 0 118 33q60 28 103 94q13 20 25.5 48t23.5 66q11 37 19.5 74t16.5 74
q17 88 25.5 135.5t8.5 54.5q0 4 18 33q17 24 82 29q46 -11 59 -36l15 -38q0 -28 -1 -60t-3 -69q-3 -70 -32 -163q-46 -175 -212 -293q-110 -66 -271 -66q-136 0 -245 55q-114 55 -117 171v340q84 17 179.5 46.5t205.5 72.5q54 22 97.5 47t79.5 53z" />
    <glyph glyph-name="scaron" 
d="M-252 -439q33 22 33 64t-25 70q-35 28 -93 33q-52 2 -96.5 -3.5t-82.5 -18.5q-81 -31 -85 -112q5 4 17.5 14.5t31.5 27.5q107 -5 107 -71q0 -49 -40 -70q-40 -22 -81 -22q-40 3 -71 22q-33 17 -38 92q31 148 145 181q94 28 162 28q10 0 11 -1q122 0 205 -45
q85 -51 85 -129q0 -28 -15 -56q-29 -57 -95 -85q-32 -17 -68 -29t-74 -20q-85 -11 -130 -16.5t-50 -5.5v-88q3 -21 43 -31q42 -18 92 -18q115 0 120 74v71q10 17 141 43q27 0 40 -7l-4 -152q-21 -30 -78 -58q-53 -34 -184 -52q-149 3 -245 45q-101 36 -105 78v117
q54 8 110 20t117 29q119 33 200 81z" />
    <glyph glyph-name="Zcaron" 
d="M-252 -1039q33 22 33 64t-25 70q-35 28 -93 33q-52 2 -96.5 -3.5t-82.5 -18.5q-81 -31 -85 -112q5 4 17.5 14.5t31.5 27.5q107 -5 107 -71q0 -49 -40 -70q-40 -22 -81 -22q-40 3 -71 22q-33 17 -38 92q31 148 145 181q94 28 162 28q10 0 11 -1q122 0 205 -45
q85 -51 85 -129q0 -28 -15 -56q-29 -57 -95 -85q-32 -17 -68 -29t-74 -20q-85 -11 -130 -16.5t-50 -5.5v-88q3 -21 43 -31q42 -18 92 -18q115 0 120 74v71q10 17 141 43q27 0 40 -7l-4 -152q-21 -30 -78 -58q-53 -34 -184 -52q-149 3 -245 45q-101 36 -105 78v117
q54 8 110 20t117 29q119 33 200 81z" />
    <glyph glyph-name="zcaron" horiz-adv-x="2064" 
d="M1062 782q75 55 96 130q15 43 15 107q0 74 -33 148q-104 156 -278 156q-58 0 -100 -19q-134 -74 -128 -173q0 -61 36 -74q28 7 78 54q39 11 63 11q56 0 89 -36q31 -33 45 -93q0 -88 -64 -134q-63 -48 -155 -48q-106 12 -167 70q-63 60 -63 186q4 163 129 259
q126 93 289 100q202 -5 338 -111q17 -14 33.5 -30.5t30.5 -35.5l286 177l446 -169v-1257l-189 -2v1113l-272 127l-209 -123q5 -20 7 -41.5t3 -44.5q0 -91 -29 -144q-25 -57 -78 -107q-75 -75 -170 -130q-51 -28 -99 -50t-94 -39q-200 -67 -216 -67v-311q0 -35 53 -67
q49 -33 112 -33q53 0 118 33q60 28 103 94q13 20 25.5 48t23.5 66q11 37 19.5 74t16.5 74q17 88 25.5 135.5t8.5 54.5q0 4 18 33q17 24 82 29q46 -11 59 -36l15 -38q0 -28 -1 -60t-3 -69q-3 -70 -32 -163q-46 -175 -212 -293q-110 -66 -271 -66q-136 0 -245 55
q-114 55 -117 171v340q84 17 179.5 46.5t205.5 72.5q54 22 97.5 47t79.5 53z" />
    <glyph glyph-name="brokenbar" horiz-adv-x="2064" 
d="M1062 782q75 55 96 130q15 43 15 107q0 74 -33 148q-104 156 -278 156q-58 0 -100 -19q-134 -74 -128 -173q0 -61 36 -74q28 7 78 54q39 11 63 11q56 0 89 -36q31 -33 45 -93q0 -88 -64 -134q-63 -48 -155 -48q-106 12 -167 70q-63 60 -63 186q4 163 129 259
q126 93 289 100q202 -5 338 -111q17 -14 33.5 -30.5t30.5 -35.5l286 177l342 -129q33 54 33 103q0 50 -22 93q-14 29 -25 52t-20 40q-21 30 -29 83q4 10 63 54h85q51 -48 67 -103q9 -47 9 -100v-15q0 -14 -1 -15q0 -88 -28 -166q-28 -85 -28 -96v-1227l-189 -2v1113
l-272 127l-209 -123q5 -20 7 -41.5t3 -44.5q0 -91 -29 -144q-25 -57 -78 -107q-75 -75 -170 -130q-51 -28 -99 -50t-94 -39q-200 -67 -216 -67v-311q0 -35 53 -67q49 -33 112 -33q53 0 118 33q60 28 103 94q13 20 25.5 48t23.5 66q11 37 19.5 74t16.5 74q17 88 25.5 135.5
t8.5 54.5q0 4 18 33q17 24 82 29q46 -11 59 -36l15 -38q0 -28 -1 -60t-3 -69q-3 -70 -32 -163q-46 -175 -212 -293q-110 -66 -271 -66q-136 0 -245 55q-114 55 -117 171v340q84 17 179.5 46.5t205.5 72.5q54 22 97.5 47t79.5 53z" />
    <glyph glyph-name="Eth" unicode="&#x1782;" horiz-adv-x="1355" 
d="M374 1096l326 326l255 -159l159 163q141 -78 212.5 -120.5t84.5 -49.5q-2 -2 -13 -17t-31 -43q-52 -61 -94 -96q-32 21 -97 57t-162 88l-152 -149l-251 149l-71 -67l149 -85l-145 -118zM1166 0v816q-3 68 -81 103q-78 33 -163 33q-74 0 -156 -33q-88 -34 -92 -103v-590
q41 134 163 188q26 8 33 8q69 -4 74 -75q0 -47 -71 -50q-34 0 -59 -22q-13 -14 -27 -30.5t-28 -36.5q-49 -70 -63 -134l-15 -70l-190 -4v771q5 252 431 262q418 -7 422 -262v-771h-178z" />
    <glyph glyph-name="eth" 
d="M-204 -487q0 74 -74 107q-78 32 -156 32q-66 0 -141 -32q-74 -38 -77 -111v-70q58 106 208 106q42 -7 74 -36q29 -32 29 -67q0 -31 -18 -49q-10 -10 -28 -10q-11 2 -25 5.5t-32 8.5q-46 11 -91 11q-17 0 -61 -29q-46 -34 -49 -78v-41q10 -16 -89 -44q-27 0 -60 11
q-32 11 -59 36v215q0 105 108 201q100 100 308 103q166 0 297 -77q130 -78 135 -234v-208q0 -14 -99 -47q-107 23 -100 51v246z" />
    <glyph glyph-name="Yacute" 
d="M-204 -1097q0 74 -74 107q-76 32 -156 32q-68 0 -141 -32q-74 -38 -77 -111v-70q58 106 208 106q43 -8 74 -36q29 -32 29 -67q0 -31 -18 -49q-10 -10 -28 -10q-11 2 -25 5.5t-32 8.5q-44 11 -91 11q-17 0 -61 -29q-46 -34 -49 -78v-41q10 -16 -89 -44q-29 0 -60 11
q-32 11 -59 36v215q0 105 108 201q100 100 308 103q166 0 297 -77q130 -78 135 -234v-208q0 -14 -99 -47q-107 23 -100 51v246z" />
    <glyph glyph-name="yacute" horiz-adv-x="1976" 
d="M381 1104l318 318l438 -185l-1 -3l288 192l536 -309v-1124h-177v4h-3v1008l-433 243l-259 -174v-2h-2l-3 -2l1 3l-480 164l-64 -59l127 -100l-123 -103zM1166 0v816q-3 68 -81 103q-78 33 -163 33q-74 0 -156 -33q-88 -34 -92 -103v-590q41 134 163 188q26 8 33 8
q69 -4 74 -75q0 -47 -71 -50q-34 0 -59 -22q-13 -14 -27 -30.5t-28 -36.5q-49 -70 -63 -134l-15 -70l-190 -4v771q5 252 431 262q418 -7 422 -262v-771h-178z" />
    <glyph glyph-name="Thorn" horiz-adv-x="1976" 
d="M381 1104l318 318l438 -185l-1 -3l288 192l393 -227l3 12l34 86q33 54 33 103q0 50 -22 93q-14 29 -25 52t-20 40q-21 30 -29 83q4 10 63 54h85q51 -48 67 -103q9 -47 9 -100v-15q0 -14 -1 -15q0 -88 -28 -166q-28 -85 -28 -96v-109l2 -1v-1124h-177v4h-3v1008l-433 243
l-259 -174v-2h-2l-3 -2l1 3l-480 164l-64 -59l127 -100l-123 -103zM1166 0v816q-3 68 -81 103q-78 33 -163 33q-74 0 -156 -33q-88 -34 -92 -103v-590q41 134 163 188q26 8 33 8q69 -4 74 -75q0 -47 -71 -50q-34 0 -59 -22q-13 -14 -27 -30.5t-28 -36.5q-49 -70 -63 -134
l-15 -70l-190 -4v771q5 252 431 262q418 -7 422 -262v-771h-178z" />
    <glyph glyph-name="thorn" unicode="&#x1783;" horiz-adv-x="1957" 
d="M379 1049q-59 41 -59 118q0 82 34 137q28 53 62 78q80 44 89 44h1l182 -37v-1166q0 -34 26 -57q18 -24 52 -43q67 -42 145 -42q74 0 134 33q58 34 63 105v763l-145 107l223 337l233 -152l-108 -170l-203 126l-49 -59l234 -167v-785q0 -27 25 -49q10 -13 23 -24.5
t29 -22.5q67 -49 142 -49q77 0 148 33q79 34 83 101v774l-150 107l223 337l229 -152l-108 -170l-203 126l-49 -59l234 -167v-753q0 -111 -96 -184q-104 -74 -301 -77q-228 3 -322 91q-30 -19 -60.5 -33.5t-62.5 -25.5q-56 -22 -173 -25q-398 8 -398 265v738q-75 0 -127 49z
M506 1341q-74 -38 -74 -156q18 -51 74 -71v227z" />
    <glyph glyph-name="minus" horiz-adv-x="681" 
d="M-385 -263q-27 0 -38 -38q3 -36 45 -54zM-190 -697q42 -18 78 -18q67 3 112 25q47 23 50 60v155l-124 89l198 197q21 -19 45 -36t51 -31q28 -17 43 -26.5t17 -11.5q-7 -13 -18 -26.5t-25 -27.5q-32 -35 -49 -38q-18 0 -64 18q-23 8 -42.5 17.5t-34.5 20.5l-15 -18
l177 -123v-167q5 -57 57 -70q45 -18 70 -18q76 8 121 59q46 46 46 167v1526l-181 105l222 340l225 -156l-100 -166l-206 130l-45 -63l249 -152v-1571q-8 -134 -97 -201q-71 -75 -230 -85q-71 0 -149 29q-66 22 -92 63q-8 -23 -31 -33q-28 -19 -61 -30q-63 -22 -123 -22
q-85 0 -170 36q-20 12 -38 24t-32 25q-26 32 -33 67q0 221 -45 241q-42 21 -45 85q3 86 112 105q33 0 81 -17q60 -14 60 -54v-382q8 -23 36 -41z" />
    <glyph glyph-name="multiply" horiz-adv-x="688" 
d="M-385 -883q-27 0 -38 -38q3 -36 45 -54zM-190 -1317q42 -18 78 -18q67 3 112 25q47 23 50 60v155l-124 89l198 197q21 -19 45 -36t51 -31q28 -17 43 -26.5t17 -11.5q-7 -13 -18 -26.5t-25 -27.5q-32 -35 -49 -38q-18 0 -64 18q-23 8 -42.5 17.5t-34.5 20.5l-15 -18
l177 -123v-167q5 -57 57 -70q45 -18 70 -18q76 8 121 59q46 46 46 167v2146l-181 105l222 340l225 -156l-100 -166l-206 130l-45 -63l249 -152v-2191q-8 -134 -97 -201q-71 -75 -230 -85q-71 0 -149 29q-66 22 -92 63q-8 -23 -31 -33q-28 -19 -61 -30q-63 -22 -123 -22
q-85 0 -170 36q-20 12 -38 24t-32 25q-26 32 -33 67q0 221 -45 241q-42 21 -45 85q3 86 112 105q33 0 81 -17q60 -14 60 -54v-382q8 -23 36 -41z" />
    <glyph glyph-name="onesuperior" horiz-adv-x="2534" 
d="M2518 1117v-1124h-177v4h-3v979l-453 292l-192 -111l209 -153v-753q0 -110 -89 -184q-104 -74 -301 -77q-228 3 -322 91q-30 -19 -60.5 -33.5t-62.5 -25.5q-56 -22 -173 -25q-397 7 -397 265v738q-75 0 -127 49q-59 41 -59 118q0 82 34 137q28 53 62 78q80 44 89 44h1
l181 -37v-1166q0 -34 26 -57q18 -24 52 -43q67 -42 145 -42q74 0 134 33q58 34 63 105v763l-145 107l223 337l233 -152l-108 -170l-203 126l-49 -59l234 -167v-785q0 -27 25 -49q10 -13 23 -24.5t29 -22.5q67 -49 142 -49q77 0 148 33q70 34 74 101v774l-171 147l459 297z
M497 1341q-74 -38 -74 -156q18 -51 74 -71v227zM2369 975l2 -9v8z" />
    <glyph glyph-name="twosuperior" horiz-adv-x="1314" 
d="M1295 1117v-1124h-177v4h-3v1009l-443 282l-202 -131l209 -153v-1511q-8 -134 -109 -201q-71 -75 -230 -85q-71 0 -149 29q-66 22 -92 63q-8 -23 -31 -33q-28 -19 -61 -30q-63 -22 -123 -22q-85 0 -170 36q-20 12 -38 24t-32 25q-26 32 -33 67q0 221 -45 241
q-42 21 -45 85q3 86 112 105q33 0 81 -17q40 -13 40 -54v-382q8 -23 56 -41q42 -18 78 -18q67 3 112 25q47 23 50 60v155l-124 89l198 197q21 -19 45 -36t51 -31q28 -17 43 -26.5t17 -11.5q-7 -13 -18 -26.5t-25 -27.5q-32 -35 -49 -38q-18 0 -64 18q-23 8 -42.5 17.5
t-34.5 20.5l-15 -18l177 -123v-167q5 -57 57 -70q45 -18 70 -18q76 8 121 59q46 46 46 167v1482h-2l-171 167l459 277zM-385 -263q-27 0 -38 -38q3 -36 45 -54z" />
    <glyph glyph-name="threesuperior" horiz-adv-x="1308" 
d="M1295 1117v-1124h-177v4h-3v1009l-443 282l-202 -131l209 -153v-2121q-7 -133 -109 -201q-71 -74 -230 -85q-73 0 -149 29q-67 23 -92 63q-7 -22 -31 -33q-29 -20 -61 -30q-65 -22 -123 -22q-85 0 -170 36q-20 12 -38 24t-32 25q-25 31 -33 67q0 221 -45 241
q-42 21 -45 85q3 86 112 105q35 0 81 -17q40 -13 40 -54v-382q8 -23 56 -41q42 -18 78 -18q65 3 112 25q47 23 50 60v155l-124 89l198 197q21 -19 45 -36t51 -31q28 -17 43 -26.5t17 -11.5q-7 -13 -18 -26.5t-25 -27.5q-32 -35 -49 -38q-18 0 -64 18q-23 8 -42.5 17.5
t-34.5 20.5l-15 -18l177 -123v-167q4 -56 57 -70q45 -18 70 -18q74 7 121 59q46 46 46 167v2092h-2l-171 167l459 277zM-385 -873q-27 0 -38 -38q3 -36 45 -54z" />
    <glyph glyph-name="onehalf" horiz-adv-x="2526" 
d="M2411 1297q33 54 33 103q0 50 -22 93q-14 29 -25 52t-20 40q-21 30 -29 83q4 10 63 54h85q51 -48 67 -103q9 -47 9 -100v-15q0 -14 -1 -15q0 -88 -28 -166q-28 -85 -28 -96v-109l2 -1v-1124h-177v4h-3v979l-453 292l-192 -111l209 -153v-753q0 -110 -89 -184
q-104 -74 -301 -77q-228 3 -322 91q-30 -19 -60.5 -33.5t-62.5 -25.5q-56 -22 -173 -25q-397 7 -397 265v738q-75 0 -127 49q-59 41 -59 118q0 82 34 137q28 53 62 78q80 44 89 44h1l181 -37v-1166q0 -34 26 -57q18 -24 52 -43q67 -42 145 -42q74 0 134 33q58 34 63 105v763
l-145 107l223 337l233 -152l-108 -170l-203 126l-49 -59l234 -167v-785q0 -27 25 -49q10 -13 23 -24.5t29 -22.5q67 -49 142 -49q77 0 148 33q70 34 74 101v774l-171 147l459 297l364 -223l2 8zM496 1341q-74 -38 -74 -156q18 -51 74 -71v227z" />
    <glyph glyph-name="onequarter" horiz-adv-x="1308" 
d="M1189 1297q33 54 33 103q0 50 -22 93q-14 29 -25 52t-20 40q-21 30 -29 83q4 10 63 54h85q51 -48 67 -103q9 -47 9 -100v-15q0 -14 -1 -15q0 -88 -28 -166q-28 -85 -28 -96v-109l2 -1v-1124h-177v4h-3v1009l-443 282l-202 -131l209 -153v-1511q-8 -134 -109 -201
q-71 -75 -230 -85q-71 0 -149 29q-66 22 -92 63q-8 -23 -31 -33q-28 -19 -61 -30q-63 -22 -123 -22q-85 0 -170 36q-20 12 -38 24t-32 25q-26 32 -33 67q0 221 -45 241q-42 21 -45 85q3 86 112 105q33 0 81 -17q40 -13 40 -54v-382q8 -23 56 -41q42 -18 78 -18q67 3 112 25
q47 23 50 60v155l-124 89l198 197q21 -19 45 -36t51 -31q28 -17 43 -26.5t17 -11.5q-7 -13 -18 -26.5t-25 -27.5q-32 -35 -49 -38q-18 0 -64 18q-23 8 -42.5 17.5t-34.5 20.5l-15 -18l177 -123v-167q5 -57 57 -70q45 -18 70 -18q76 8 121 59q46 46 46 167v1482h-2l-171 167
l459 277l364 -223l2 8zM-385 -263q-27 0 -38 -38q3 -36 45 -54z" />
    <glyph glyph-name="threequarters" horiz-adv-x="1308" 
d="M1189 1297q33 54 33 103q0 50 -22 93q-14 29 -25 52t-20 40q-21 30 -29 83q4 10 63 54h85q51 -48 67 -103q9 -47 9 -100q0 -57 -6.5 -103.5t-22.5 -92.5q-28 -85 -28 -96v-109l2 -1v-1124h-177v4h-3v1009l-443 282l-202 -131l209 -153v-2121q-8 -134 -109 -201
q-71 -75 -230 -85q-71 0 -149 29q-66 22 -92 63q-8 -23 -31 -33q-28 -19 -61 -30q-63 -22 -123 -22q-85 0 -170 36q-20 12 -38 24t-32 25q-26 32 -33 67q0 221 -45 241q-42 21 -45 85q3 86 112 105q33 0 81 -17q40 -13 40 -54v-382q8 -23 56 -41q42 -18 78 -18q67 3 112 25
q47 23 50 60v155l-124 89l198 197q21 -19 45 -36t51 -31q28 -17 43 -26.5t17 -11.5q-7 -13 -18 -26.5t-25 -27.5q-32 -35 -49 -38q-18 0 -64 18q-23 8 -42.5 17.5t-34.5 20.5l-15 -18l177 -123v-167q5 -57 57 -70q45 -18 70 -18q76 8 121 59q46 46 46 167v2092h-2l-171 167
l459 277l364 -223l2 8zM-385 -873q-27 0 -38 -38q3 -36 45 -54z" />
    <glyph glyph-name="franc" unicode="&#x1784;" horiz-adv-x="1350" 
d="M1326 975v-971l-181 -4l-223 223l-222 -223l-203 4v685q-3 -3 -67 33q-30 16 -49 49q-25 28 -25 74q0 76 49 134q40 50 118 58q67 0 110 -22q42 -22 45 -71v-830l244 230l227 -217l3 835l-74 31q-84 -38 -159 -34q-94 0 -159 31q-34 11 -57 18t-36 11q-45 10 -103 59
q-60 50 -70 138v291q-11 19 -24 42q-18 18 -18 36q0 16 14 27q37 18 95 18h7q110 0 117 -118v-233q4 -78 22 -108q16 -33 67 -75q38 -29 145 -32q50 0 88 29q-41 20 -74 59q-32 41 -32 89q0 19 11 60q22 57 85 88q64 26 148 26q63 -18 107 -74q41 -56 41 -140
q-14 -94 -96 -134zM490 926q-50 -11 -60 -63q0 -33 18 -43q10 -17 42 -24v130zM1100 1167q52 11 56 60q0 56 -47 74q-70 0 -78 -35q-9 -11 -9 -21q0 -29 27 -53q22 -25 51 -25z" />
    <glyph glyph-name="Gbreve" 
d="M-54 -480q-54 -107 -99 -141q-15 -18 -82 -61t-193 -53q-130 0 -230 64q-99 56 -146 184q-9 18 -9 49q0 54 19 96q10 49 33 60q31 43 89 58q45 16 101 16q118 -16 121 -134q-22 -85 -63 -82q-21 4 -44 15q-14 7 -45 7q-21 4 -36 -32q4 -18 25 -31q11 -7 27 -13.5
t37 -11.5q69 -22 159 -22q103 18 174 54q69 36 133 127q0 6 22 49q23 37 63 47q0 -135 -56 -245z" />
    <glyph glyph-name="gbreve" 
d="M-53 -1130q-54 -107 -99 -141q-15 -18 -82 -61t-193 -53q-130 0 -230 64q-100 57 -146 184q-9 18 -9 49q0 51 19 96q10 49 33 60q31 43 89 58q48 16 101 16q118 -16 121 -134q-22 -85 -63 -82q-21 4 -44 15q-17 7 -45 7q-21 4 -36 -32q4 -18 25 -31q11 -7 27 -13.5
t37 -11.5q72 -22 159 -22q103 18 174 54q69 36 133 127q0 6 22 49q23 37 63 47q0 -135 -56 -245z" />
    <glyph glyph-name="Idotaccent" horiz-adv-x="1988" 
d="M1975 1227v-1229h-189v1113l-272 127l-237 -92q-25 -52 -80 -79l137 -92v-975h-189l-223 223l-222 -223l-203 -1v690q-3 -3 -67 33q-30 16 -49 49q-25 28 -25 74q0 76 49 134q41 51 118 58q67 0 110 -22q42 -23 45 -71v-830l244 230l227 -217l-1 835l-70 31
q-86 -38 -159 -34q-96 0 -159 31q-34 11 -57 18t-36 11q-46 11 -103 59q-59 49 -70 138v291q-11 19 -24 42q-18 18 -18 36q0 16 14 27q37 18 95 18h7q110 0 117 -118v-233q5 -79 22 -108q17 -34 67 -75q38 -29 145 -32q50 0 88 29q-41 20 -74 59q-32 41 -32 89q0 18 11 60
q22 57 85 88q66 26 148 26q63 -18 107 -74q20 -27 31 -67l246 152zM1100 1167q51 10 56 60q0 56 -47 74q-70 0 -78 -35q-9 -11 -9 -21q0 -29 27 -53q22 -25 51 -25zM490 926q-50 -11 -60 -63q0 -33 18 -43q10 -17 42 -24v130z" />
    <glyph glyph-name="Scedilla" horiz-adv-x="1988" 
d="M1871 1277q33 73 33 123t-22 93q-14 29 -25 52t-20 40q-22 31 -29 83q4 10 63 54h85q51 -48 67 -103q9 -47 9 -100q0 -57 -6.5 -103.5t-22.5 -92.5q-28 -87 -28 -96v-1229h-189v1113l-272 127l-237 -92q-25 -52 -80 -79l137 -92v-975h-189l-223 223l-222 -223l-203 -1
v690q-3 -3 -67 33q-30 16 -49 49q-25 28 -25 74q0 76 49 134q40 50 118 58q67 0 110 -22q42 -22 45 -71v-830l244 230l227 -217l-1 835l-70 31q-84 -38 -159 -34q-94 0 -159 31q-34 11 -57 18t-36 11q-45 10 -103 59q-60 50 -70 138v291q-11 19 -24 42q-18 18 -18 36
q0 16 14 27q37 18 95 18h7q110 0 117 -118v-233q4 -78 22 -108q16 -33 67 -75q38 -29 145 -32q50 0 88 29q-41 20 -74 59q-32 41 -32 89q0 19 11 60q22 57 85 88q64 26 148 26q63 -18 107 -74q21 -29 31 -67l246 152zM1100 1167q52 11 56 60q0 56 -47 74q-70 0 -78 -35
q-9 -11 -9 -21q0 -29 27 -53q22 -25 51 -25zM490 926q-50 -11 -60 -63q0 -33 18 -43q10 -17 42 -24v130z" />
    <glyph glyph-name="scedilla" unicode="&#x1785;" horiz-adv-x="1367" 
d="M1159 944q-26 -8 -47 -29q-22 -30 -30 -56q3 -114 77 -137v222zM1223 49q-114 -59 -304 -63q-163 0 -286 63q-129 62 -132 163v792q-2 2 -17 15t-43 38q-59 28 -67 36l329 333l247 -170l173 170l293 -181q-5 -4 -46 -42t-122 -110q-100 63 -155 97.5t-71 43.5l-159 -156
l-237 163l-96 -89q6 -6 78 -14q39 -17 59 -52q18 -42 18 -46v-843q0 -53 64 -87q63 -36 166 -36q66 0 159 26q82 27 85 108v407q-7 -3 -88 45q-33 25 -60 69q-33 45 -33 105q0 71 64 128q53 59 128 67q34 0 64 -1.5t56 -5.5q49 -10 52 -60v-770q-3 -84 -119 -143z" />
    <glyph glyph-name="Cacute" horiz-adv-x="3" 
d="M-314 -528q3 10 -8 18q-41 47 -41 83q16 75 34 75q40 36 111 39q42 5 70 -32q15 -24 15 -49q-8 -82 -40 -107q-4 -16 74 -78q35 -11 58 -18.5t34 -11.5q0 -9 -11 -47q-14 -35 -45 -38q-43 3 -92 34q-14 13 -30 24.5t-33 22.5q-37 -63 -111 -107q-86 -56 -244 -59
q-100 0 -168 41q-82 51 -82 78q4 25 60 61q26 16 59 42t75 63q43 58 52 96q0 15 -9 26q-4 4 -15 18t-28 38q4 85 110 96q45 0 74 -18q27 -21 49 -53q22 -31 22 -74q0 -66 -67 -148q-44 -48 -81 -75q-20 -13 -39 -25t-36 -25q-7 -7 -7 -15q5 -23 71 -23q57 0 112 23
q38 18 69 58q38 38 38 67z" />
    <glyph glyph-name="cacute" horiz-adv-x="3" 
d="M-314 -1128q3 10 -8 18q-41 47 -41 83q16 75 34 75q40 36 111 39q42 5 70 -32q15 -24 15 -49q-7 -81 -40 -107q-4 -16 74 -78q35 -11 58 -18.5t34 -11.5q0 -8 -11 -47q-14 -35 -45 -38q-43 3 -92 34q-14 13 -30 24.5t-33 22.5q-38 -64 -111 -107q-86 -56 -244 -59
q-100 0 -168 41q-82 51 -82 78q4 25 60 61q26 16 59 42t75 63q43 58 52 96q0 15 -9 26q-4 4 -15 18t-28 38q5 86 110 96q45 0 74 -18q25 -20 49 -53q22 -31 22 -74q0 -66 -67 -148q-44 -48 -81 -75q-20 -13 -39 -25t-36 -25q-7 -7 -7 -15q5 -23 71 -23q55 0 112 23
q38 18 69 58q38 38 38 67z" />
    <glyph glyph-name="Ccaron" horiz-adv-x="1976" 
d="M1965 1117v-1124h-177v4h-3v1008l-433 243l-259 -174v-2h-2l-473 162l-88 -82q6 -6 78 -14q38 -17 57 -55q20 -46 20 -886q0 -53 64 -87q63 -36 166 -36q66 0 159 26q82 27 85 108v407q-7 -3 -88 45q-33 25 -60 69q-33 45 -33 105q0 71 64 128q53 59 128 67q34 0 64 -1.5
t56 -5.5q49 -10 52 -60v-770q-3 -84 -119 -143q-114 -59 -304 -63q-163 0 -286 63q-129 62 -132 163v792q-2 2 -17 15t-43 38q-59 28 -67 36l329 333l439 -189l287 189zM1159 944q-26 -8 -47 -29q-22 -30 -30 -56q3 -114 77 -137v222z" />
    <glyph glyph-name="ccaron" horiz-adv-x="1976" 
d="M1859 1297q33 54 33 103q0 50 -22 93q-14 29 -25 52t-20 40q-21 30 -29 83q4 10 63 54h85q51 -48 67 -103q9 -47 9 -100q0 -57 -6.5 -103.5t-22.5 -92.5q-28 -85 -28 -96v-109l2 -1125h-177v4h-3v1008l-433 243l-259 -174v-2h-2l-473 162l-88 -82q6 -6 78 -14
q38 -17 57 -55q20 -46 20 -886q0 -53 64 -87q63 -36 166 -36q66 0 159 26q82 27 85 108v407q-7 -3 -88 45q-33 25 -60 69q-33 45 -33 105q0 71 64 128q53 59 128 67q34 0 64 -1.5t56 -5.5q49 -10 52 -60v-770q-3 -84 -119 -143q-114 -59 -304 -63q-163 0 -286 63
q-129 62 -132 163v792q-2 2 -17 15t-43 38q-59 28 -67 36l329 333l439 -189l287 189l393 -227l3 12zM1159 944q-26 -8 -47 -29q-22 -30 -30 -56q3 -114 77 -137v222z" />
    <glyph glyph-name="dmacron" unicode="&#x1786;" horiz-adv-x="1340" 
d="M1318 237l-29 -110q-19 -45 -53 -82q-36 -38 -99 -38q-127 4 -208 78q-42 34 -75.5 63.5t-62.5 55.5q-28 19 -59 19q-45 -5 -47 -8v-141q0 -4 -22 -29q-27 -38 -101 -38q-132 0 -174 60q-42 52 -36 148q22 82 85 100q34 5 51 8t19 3v689l-164 103l296 331l294 -166
l159 146l300 -170l-156 -155l-258 133l-145 -133l-251 144l-60 -70l170 -118q-4 -7 -4 -275q-3 -255 -3 -459q63 0 144 -18q81 -25 152 -111q41 -41 67 -41q21 0 44 18q7 9 13.5 17.5t11.5 16.5q24 43 24 47v375q-5 0 -78 52q-30 21 -53 63q-29 35 -29 78q0 71 55 129
q54 60 130 67q64 0 107 -22q41 -23 45 -74v-686zM1130 908q-49 -19 -64 -63q0 -89 64 -107v170zM507 223q-30 0 -52 -19q-29 -23 -29 -56q22 -48 81 -48v123z" />
    <glyph glyph-name="macron" 
d="M-675 -489q3 0 89 -12q78 -15 130 -36q70 -26 107.5 -41t44.5 -19q52 0 78 18q29 17 29 74q0 56 -33 71q-41 14 -74 11q-5 -11 -81 -29q-46 0 -49 59q12 60 63 93q53 38 100 38q164 0 218 -67q54 -63 54 -165q0 -10 -1 -11q0 -24 -11 -65q-10 -22 -20.5 -39.5
t-21.5 -31.5q-27 -34 -41 -51t-16 -19q-65 -35 -127 -35q-69 5 -71 8q0 2 -56 49q-59 36 -117 63q-164 36 -194 36v-81q8 -11 -103 -55q-112 25 -112 59v348q0 19 112 44q108 -15 103 -44v-170z" />
    <glyph glyph-name="periodcentered" 
d="M-675 -1139q3 0 89 -12q77 -15 130 -36q70 -26 107.5 -41t44.5 -19q52 0 78 18q29 17 29 74q0 56 -33 71q-40 14 -74 11q-5 -11 -81 -29q-46 0 -49 59q12 60 63 93q53 38 100 38q164 0 218 -67q54 -63 54 -165q0 -10 -1 -11q0 -26 -11 -65q-20 -43 -42 -71
q-27 -34 -41 -51t-16 -19q-65 -35 -127 -35q-69 5 -71 8q0 2 -56 49q-59 36 -117 63q-164 36 -194 36v-81q8 -11 -103 -55q-112 25 -112 59v348q0 19 112 44q108 -15 103 -44v-170z" />
    <glyph glyph-name="Abreve" horiz-adv-x="1981" 
d="M546 1206l-24 -28l170 -118q-4 -7 -4 -275q-3 -255 -3 -459q63 0 144 -18q81 -25 152 -111q41 -41 67 -41q21 0 44 18q7 9 13.5 17.5t11.5 16.5q24 43 24 47v375q-5 0 -78 52q-30 21 -53 63q-29 35 -29 78q0 71 55 129q54 60 130 67q64 0 107 -22q41 -23 45 -74v-686
l-29 -110q-19 -45 -53 -82q-36 -38 -99 -38q-127 4 -208 78q-42 34 -75.5 63.5t-62.5 55.5q-28 19 -59 19q-45 -5 -47 -8v-141q0 -4 -22 -29q-27 -38 -101 -38q-132 0 -174 60q-42 52 -36 148q22 82 85 100q34 5 51 8t19 3v689l-164 103l372 304l438 -185l287 189l536 -309
v-1124h-177v4h-3v1008l-433 243l-259 -174v-2h-2l-482 185zM1130 908q-49 -19 -64 -63q0 -89 64 -107v170zM507 223q-30 0 -52 -19q-29 -23 -29 -56q22 -48 81 -48v123z" />
    <glyph glyph-name="abreve" horiz-adv-x="1981" 
d="M546 1206l-24 -28l170 -118q-4 -7 -4 -275q-3 -255 -3 -459q63 0 144 -18q82 -26 152 -111q41 -41 67 -41q21 0 44 18q7 9 13.5 17.5t11.5 16.5q24 43 24 47v375q-5 0 -78 52q-31 22 -53 63q-29 35 -29 78q0 71 55 129q54 60 130 67q64 0 107 -22q40 -22 45 -74v-686
l-29 -110q-20 -46 -53 -82q-36 -38 -99 -38q-127 4 -208 78q-42 34 -75.5 63.5t-62.5 55.5q-28 19 -59 19q-45 -5 -47 -8v-141q0 -4 -22 -29q-27 -38 -101 -38q-132 0 -174 60q-42 52 -36 148q22 82 85 100q34 5 51 8t19 3v689l-164 103l372 304l438 -185l287 189l393 -227
l3 12l34 86q33 54 33 103q0 50 -22 93q-14 29 -25 52t-20 40q-22 31 -29 83q4 10 63 54h85q51 -48 67 -103q9 -47 9 -100q0 -57 -6.5 -103.5t-22.5 -92.5q-28 -87 -28 -96v-109l2 -1v-1124h-177v4h-3v1008l-433 243l-259 -174v-2l-484 185zM1130 908q-49 -19 -64 -63
q0 -89 64 -107v170zM507 223q-30 0 -52 -19q-29 -23 -29 -56q22 -48 81 -48v123z" />
    <glyph glyph-name="Aogonek" unicode="&#x1787;" horiz-adv-x="1396" 
d="M1363 0h-183l-237 233l-233 -233h-199v1015l-137 107q88 103 173 178t170 126q19 9 35 9q43 0 99 -24q58 -23 110 -60q64 -32 120 -57q58 -31 103 -31q56 0 89 52q0 49 -15 82q-23 39 -58 49q-72 18 -112 47q-36 27 -36 88q7 34 40 64q34 27 85 27q34 0 59 -13
q134 -44 134 -206q-3 -104 -56 -212q-80 -134 -219 -130q-140 0 -367 134q-8 3 -81 3q-37 0 -62 -18q-16 -10 -33.5 -25.5t-36.5 -37.5l177 -114q-7 -7 -7 -253q0 -627 3 -700l255 260l241 -237v859h179v-982z" />
    <glyph glyph-name="aogonek" horiz-adv-x="3" 
d="M-185 -517q-30 13 -63 21q-38 10 -81 42q-20 23 -20 51q9 56 12 59q40 67 129 64q76 0 119 -37q33 -30 40 -67q2 -20 3 -33.5t1 -18.5q9 -2 37.5 -14.5t77.5 -34.5q35 -13 53.5 -20t20.5 -9q0 -16 -11 -49q-11 -29 -34 -29q-8 2 -16.5 4t-19.5 4q-29 0 -49 10
q-57 19 -67 19q0 -51 -21 -100q-29 -47 -74 -63q-35 -11 -67 -11q-152 7 -248 85q-8 0 -33 -36q-28 -42 -101 -46q-177 4 -199 152q0 30 1.5 60.5t5.5 62.5q4 63 25 107q17 30 71 53q49 21 99 21q1 1 9 1q71 0 96 -64q8 -14 8 -47q3 -35 -18 -63q-24 -29 -84 -35
q-22 0 -65 -18q-49 -25 -52 -43q3 -25 67 -38q58 -18 124 -18q32 19 60 59q31 33 49 33q25 -18 92 -43q59 -28 85 -31q60 14 64 38q0 11 -26 22z" />
    <glyph glyph-name="Dcaron" 
d="M-185 -1127q-30 13 -63 21q-38 10 -81 42q-20 23 -20 51q9 56 12 59q40 67 129 64q76 0 119 -37q33 -30 40 -67q2 -20 3 -33.5t1 -18.5q9 -2 37.5 -14.5t77.5 -34.5q70 -26 74 -29q0 -14 -11 -49q-11 -29 -34 -29q-8 2 -16.5 4t-19.5 4q-30 0 -49 10q-56 19 -67 19
q0 -51 -21 -100q-28 -46 -74 -63q-36 -11 -67 -11q-153 8 -248 85q-8 0 -33 -36q-28 -42 -101 -46q-177 4 -199 152q0 30 1.5 60.5t5.5 62.5q5 65 25 107q17 30 71 53q49 21 99 21q1 1 9 1q71 0 96 -64q8 -14 8 -47q3 -35 -18 -63q-24 -29 -84 -35q-22 0 -65 -18
q-49 -25 -52 -43q3 -25 67 -38q58 -18 124 -18q33 20 60 59q31 33 49 33q25 -18 92 -43q57 -28 85 -31q59 13 64 38q0 11 -26 22z" />
    <glyph glyph-name="dcaron" horiz-adv-x="1996" 
d="M1970 1247v-1247l-163 -2v1123l-272 117l-287 -77q-65 -53 -153 -50q-140 0 -367 134q-8 3 -81 3q-37 0 -62 -18q-16 -10 -33.5 -25.5t-36.5 -37.5l177 -114q-7 -7 -7 -253q0 -627 3 -700l255 260l241 -237v859h179v-982h-183l-237 233l-233 -233h-199v1015l-137 107
q88 103 173 178t170 126q19 9 35 9q43 0 99 -24q58 -23 110 -60q64 -32 120 -57q58 -31 103 -31q56 0 89 52q0 49 -15 82q-23 39 -58 49q-72 18 -112 47q-36 27 -36 88q7 34 40 64q34 27 85 27q34 0 59 -13q134 -44 134 -206q-2 -60 -18 -117l198 90z" />
    <glyph glyph-name="Dslash" horiz-adv-x="1996" 
d="M1866 1287q33 64 33 113q0 50 -22 93q-14 29 -25 52t-20 40q-21 30 -29 83q4 10 63 54h85q51 -48 67 -103q9 -47 9 -100q0 -57 -6.5 -103.5t-22.5 -92.5q-28 -85 -28 -96v-1227l-163 -2v1123l-272 117l-287 -77q-65 -53 -153 -50q-140 0 -367 134q-8 3 -81 3
q-37 0 -62 -18q-16 -10 -33.5 -25.5t-36.5 -37.5l177 -114q-7 -7 -7 -253q0 -627 3 -700l255 260l241 -237v859h179v-982h-183l-237 233l-233 -233h-199v1015l-137 107q88 103 173 178t170 126q19 9 35 9q43 0 99 -24q58 -23 110 -60q64 -32 120 -57q58 -31 103 -31
q56 0 89 52q0 49 -15 82q-23 39 -58 49q-72 18 -112 47q-36 27 -36 88q7 34 40 64q34 27 85 27q34 0 59 -13q134 -44 134 -206q-2 -60 -18 -117l198 90z" />
    <glyph glyph-name="Eogonek" unicode="&#x1788;" horiz-adv-x="2590" 
d="M2193 74q74 0 132 40q60 42 64 109v759l-156 107l223 337l244 -152l-103 -170l-205 126l-50 -59l237 -167v-753q-4 -110 -87 -184q-86 -74 -284 -77q-243 0 -349 91q-29 -18 -59.5 -33t-62.5 -26q-57 -22 -175 -25q-407 8 -407 265v939q0 40 -22 65q-22 31 -63 46
q-91 32 -163 32t-148 -32q-75 -33 -78 -103v-782q81 0 141 -24q60 -29 63 -117q-7 -160 -101 -219q-96 -63 -103 -63l-185 -4v1167q0 254 404 259q208 0 325 -69q120 -74 123 -186v-948q0 -34 26 -57q18 -25 52 -43q67 -42 141 -42q73 0 132 33q56 34 64 105v763l-156 107
l223 337l244 -152l-103 -170l-208 126l-49 -59l233 -167v-785q0 -31 27 -53q13 -13 28 -24.5t32 -22.5q78 -45 159 -45zM674 81q85 49 88 170q-8 32 -29 46q-16 5 -30.5 8.5t-28.5 5.5v-230z" />
    <glyph glyph-name="eogonek" horiz-adv-x="654" 
d="M648 -514q3 -87 -47 -170q-17 -20 -39 -36.5t-50 -27.5q-29 -10 -68.5 -16.5t-90.5 -8.5q-120 0 -161 29q-40 28 -55 63q-27 -49 -88 -70q-60 -22 -126 -22q-72 0 -127 36q-58 34 -61 103v261q0 31 -35 54q-32 20 -74 20q-28 0 -67 -14q-33 -24 -36 -57v-215q3 4 52 -11
q47 -21 47 -81q0 -92 -96 -96q-19 2 -42 5.5t-50 8.5q-59 10 -63 33v346q0 32 29 61q32 32 70 45q85 33 167 33q101 0 172 -47q72 -45 72 -82v-264q0 -65 56 -68q19 -10 45 -10q46 5 81 28q29 26 29 59v167l-106 54l184 186q19 -16 42 -30.5t50 -28.5q28 -17 41.5 -26
t14.5 -10q-8 -11 -16 -24t-16 -29q-24 -31 -42 -34q-18 0 -56 23q-18 9 -34.5 19t-30.5 21l-42 -29l167 -112v-181q0 -36 38 -53q39 -14 96 -14q115 24 110 197v1537l-152 96l205 318l215 -143l-96 -161l-179 123l-44 -60l207 -141v-1554zM-477 -722q33 0 52 34q0 22 -12 33
q-9 5 -19 10.5t-21 10.5v-88z" />
    <glyph glyph-name="Ecaron" horiz-adv-x="654" 
d="M648 -1144q3 -87 -47 -170q-17 -20 -39 -36.5t-50 -27.5q-29 -10 -68.5 -16.5t-90.5 -8.5q-120 0 -161 29q-40 28 -55 63q-27 -49 -88 -70q-62 -22 -126 -22q-72 0 -127 36q-58 34 -61 103v261q0 31 -35 54q-32 20 -74 20q-30 0 -67 -14q-33 -24 -36 -57v-215q3 4 52 -11
q47 -21 47 -81q0 -92 -96 -96q-19 2 -42 5.5t-50 8.5q-59 10 -63 33v346q0 32 29 61q31 31 70 45q85 33 167 33q101 0 172 -47q72 -45 72 -82v-264q0 -65 56 -68q19 -10 45 -10q45 4 81 28q29 26 29 59v167l-106 54l184 186q19 -16 42 -30.5t50 -28.5q28 -17 41.5 -26
t14.5 -10q-8 -11 -16 -24t-16 -29q-24 -31 -42 -34q-18 0 -56 23q-18 9 -34.5 19t-30.5 21l-42 -29l167 -112v-181q0 -36 38 -53q37 -14 96 -14q115 24 110 197v2167l-152 96l205 318l215 -143l-96 -161l-179 123l-44 -60l207 -141v-2184zM-477 -1352q33 0 52 34
q0 22 -12 33q-9 5 -19 10.5t-21 10.5v-88z" />
    <glyph glyph-name="ecaron" horiz-adv-x="3201" 
d="M2576 1004v-753q-5 -111 -87 -184q-86 -74 -284 -77q-243 0 -349 91q-29 -18 -59.5 -33t-62.5 -26q-56 -22 -175 -25q-407 8 -407 265v939q0 40 -22 65q-22 31 -63 46q-93 32 -163 32t-148 -32q-75 -33 -78 -103v-782q81 0 141 -24q60 -29 63 -117q-8 -161 -101 -219
q-96 -63 -103 -63l-185 -4v1167q0 254 404 259q208 0 325 -69q120 -74 123 -186v-948q0 -34 26 -57q18 -25 52 -43q67 -42 141 -42q73 0 132 33q57 35 64 105v763l-156 107l223 337l244 -152l-103 -170l-208 126l-49 -59l233 -167v-785q0 -31 27 -53q13 -13 28 -24.5
t32 -22.5q78 -45 159 -45q74 0 132 40q60 42 64 109v759h4l-170 147l124 81l4 -6v8l331 214l506 -309v-1124h-177v4h-3v979l-453 292l-175 -101l192 -163h7zM671 81q85 49 88 170q-8 32 -29 46q-16 5 -30.5 8.5t-28.5 5.5v-230zM3026 975l2 -9v8z" />
    <glyph glyph-name="Lacute" horiz-adv-x="1303" 
d="M1287 1117v-1121l-177 1h-3v1009l-443 282l-180 -117l168 -171l3 -1535q-7 -72 -54 -149q-17 -20 -39 -36.5t-50 -27.5q-29 -10 -68.5 -16.5t-90.5 -8.5q-120 0 -161 29q-40 28 -55 63q-27 -49 -88 -70q-62 -22 -126 -22q-72 0 -127 36q-58 34 -61 103v261q0 31 -35 54
q-32 20 -74 20q-30 0 -67 -14q-33 -24 -36 -57v-215q3 4 52 -11q47 -21 47 -81q0 -92 -96 -96q-19 2 -42 5.5t-50 8.5q-59 10 -63 33v346q0 32 29 61q31 31 70 45q85 33 167 33q101 0 172 -47q72 -45 72 -82v-264q0 -65 56 -68q19 -10 45 -10q45 4 81 28q29 26 29 59v167
l-106 54l184 186q19 -16 42 -30.5t50 -28.5q28 -17 41.5 -26t14.5 -10q-8 -11 -16 -24t-16 -29q-24 -31 -42 -34q-18 0 -56 23q-18 9 -34.5 19t-30.5 21l-42 -29l167 -112v-181q0 -36 38 -53q37 -14 96 -14q115 24 110 197v1497l-170 181l459 277zM-477 -722q33 0 52 34
q0 22 -12 33q-9 5 -19 10.5t-21 10.5v-88z" />
    <glyph glyph-name="lacute" horiz-adv-x="1303" 
d="M653 1000l2 -2157q-8 -81 -54 -157q-17 -20 -39 -36.5t-50 -27.5q-29 -10 -68.5 -16.5t-90.5 -8.5q-120 0 -161 29q-40 28 -55 63q-27 -49 -88 -70q-60 -22 -126 -22q-72 0 -127 36q-58 34 -61 103v261q0 31 -35 54q-32 20 -74 20q-28 0 -67 -14q-33 -24 -36 -57v-215
q3 4 52 -11q47 -21 47 -81q0 -92 -96 -96q-19 2 -42 5.5t-50 8.5q-59 10 -63 33v346q0 32 29 61q32 32 70 45q85 33 167 33q101 0 172 -47q72 -45 72 -82v-264q0 -65 56 -68q19 -10 45 -10q46 5 81 28q29 26 29 59v167l-106 54l184 186q19 -16 42 -30.5t50 -28.5
q28 -17 41.5 -26t14.5 -10q-8 -11 -16 -24t-16 -29q-24 -31 -42 -34q-18 0 -56 23q-18 9 -34.5 19t-30.5 21l-42 -29l167 -112v-181q0 -36 38 -53q39 -14 96 -14q115 24 110 197v2127l-170 181l459 277l506 -309v-1124h-177v4h-3v1009l-443 282l-187 -108zM-477 -1352
q33 0 52 34q0 22 -12 33q-9 5 -19 10.5t-21 10.5v-88z" />
    <glyph glyph-name="Lcaron" horiz-adv-x="3201" 
d="M2576 1004v-753q-5 -111 -87 -184q-86 -74 -284 -77q-243 0 -349 91q-29 -18 -59.5 -33t-62.5 -26q-56 -22 -175 -25q-407 8 -407 265v939q0 40 -22 65q-22 31 -63 46q-93 32 -163 32t-148 -32q-75 -33 -78 -103v-782q81 0 141 -24q60 -29 63 -117q-8 -161 -101 -219
q-96 -63 -103 -63l-185 -4v1167q0 254 404 259q208 0 325 -69q120 -74 123 -186v-948q0 -34 26 -57q18 -25 52 -43q67 -42 141 -42q73 0 132 33q57 35 64 105v763l-156 107l223 337l244 -152l-103 -170l-208 126l-49 -59l233 -167v-785q0 -31 27 -53q13 -13 28 -24.5
t32 -22.5q78 -45 159 -45q74 0 132 40q60 42 64 109v759h4l-170 147l459 297l364 -223l2 8l34 86q33 54 33 103q0 50 -22 93q-14 29 -25 52t-20 40q-21 30 -29 83q4 10 63 54h85q51 -48 67 -103q9 -47 9 -100v-15q0 -14 -1 -15q0 -88 -28 -166q-28 -85 -28 -96l2 -110v-1124
h-177v4h-3v979l-453 292l-175 -101zM671 81q85 49 88 170q-8 32 -29 46q-16 5 -30.5 8.5t-28.5 5.5v-230z" />
    <glyph glyph-name="lcaron" horiz-adv-x="1295" 
d="M1181 1297q33 54 33 103q0 50 -22 93q-14 29 -25 52t-20 40q-21 30 -29 83q4 10 63 54h85q51 -48 67 -103q9 -47 9 -100v-15q0 -14 -1 -15q0 -88 -28 -166q-28 -85 -28 -96v-109l2 -1v-1124h-177v4h-3v1009l-443 282l-187 -108l177 -180h-1l-1 -1524q-5 -84 -51 -160
q-17 -20 -39 -36.5t-50 -27.5q-29 -10 -68.5 -16.5t-90.5 -8.5q-120 0 -161 29q-40 28 -55 63q-27 -49 -88 -70q-60 -22 -126 -22q-72 0 -127 36q-58 34 -61 103v261q0 31 -35 54q-32 20 -74 20q-28 0 -67 -14q-33 -24 -36 -57v-215q3 4 52 -11q47 -21 47 -81q0 -92 -96 -96
q-19 2 -42 5.5t-50 8.5q-59 10 -63 33v346q0 32 29 61q32 32 70 45q85 33 167 33q101 0 172 -47q72 -45 72 -82v-264q0 -65 56 -68q19 -10 45 -10q46 5 81 28q29 26 29 59v167l-106 54l184 186q19 -16 42 -30.5t50 -28.5q28 -17 41.5 -26t14.5 -10q-8 -11 -16 -24t-16 -29
q-24 -31 -42 -34q-18 0 -56 23q-18 9 -34.5 19t-30.5 21l-42 -29l167 -112v-181q0 -36 38 -53q39 -14 96 -14q115 24 110 197v1497h1l-171 181l459 277l364 -223l2 8zM-477 -722q33 0 52 34q0 22 -12 33q-9 5 -19 10.5t-21 10.5v-88z" />
    <glyph glyph-name="Ldot" horiz-adv-x="1296" 
d="M653 999l-1 -2153q-5 -84 -51 -160q-17 -20 -39 -36.5t-50 -27.5q-29 -10 -68.5 -16.5t-90.5 -8.5q-120 0 -161 29q-40 28 -55 63q-27 -49 -88 -70q-60 -22 -126 -22q-72 0 -127 36q-58 34 -61 103v261q0 31 -35 54q-32 20 -74 20q-28 0 -67 -14q-33 -24 -36 -57v-215
q3 4 52 -11q47 -21 47 -81q0 -92 -96 -96q-19 2 -42 5.5t-50 8.5q-59 10 -63 33v346q0 32 29 61q32 32 70 45q85 33 167 33q101 0 172 -47q72 -45 72 -82v-264q0 -65 56 -68q19 -10 45 -10q46 5 81 28q29 26 29 59v167l-106 54l184 186q19 -16 42 -30.5t50 -28.5
q28 -17 41.5 -26t14.5 -10q-8 -11 -16 -24t-16 -29q-24 -31 -42 -34q-18 0 -56 23q-18 9 -34.5 19t-30.5 21l-42 -29l167 -112v-181q0 -36 38 -53q39 -14 96 -14q115 24 110 197v2126l-170 182l459 277l364 -223l2 8l34 86q33 54 33 103q0 50 -22 93q-14 29 -25 52t-20 40
q-21 30 -29 83q4 10 63 54h85q51 -48 67 -103q9 -47 9 -100q0 -57 -6.5 -103.5t-22.5 -92.5q-28 -85 -28 -96v-109l2 -1v-1124h-177v4h-3v1009l-443 282l-187 -108l176 -180l1 -1h-1zM-477 -1352q33 0 52 34q0 22 -12 33q-9 5 -19 10.5t-21 10.5v-88z" />
    <glyph glyph-name="ldot" unicode="&#x1789;" horiz-adv-x="1944" 
d="M681 427q83 0 141 -49q58 -52 58 -137q0 -78 -25 -127q-28 -45 -64 -72q-92 -45 -95 -45l-189 3v993q-3 51 -56 89q-56 36 -59 36l329 308l212 -167l162 167l239 -193l313 193l290 -185v-1248l-160 -7v1145l-229 132l-192 -119v-1147h-172v1103l-195 141l-156 -145
l-212 145l-85 -74q4 -5 75 -45q65 -43 70 -107v-588zM1142 -251q52 22 108 18q44 0 86 -11q60 -26 110.5 -59.5t93.5 -73.5q22 -19 45 -36t47 -31q44 -29 92 -29q96 7 96 70q-7 22 -50 22q-24 4 -42 27q-18 15 -18 62q4 44 33 67q30 21 70 21q74 0 107 -58q20 -32 20 -64
v-10q0 -101 -105 -179q-100 -81 -221 -85q-80 0 -141 49q-49 42 -85.5 69t-62.5 41q-29 14 -58 23.5t-58 14.5q-11 4 -24.5 9.5t-29.5 12.5q-46 11 -82 11q-45 3 -74 -7q59 92 143 126zM681 71q80 36 85 159q-18 52 -85 70v-229z" />
    <glyph glyph-name="Nacute" horiz-adv-x="1944" 
d="M681 427q83 0 141 -49q58 -52 58 -137q0 -78 -25 -127q-28 -45 -64 -72q-92 -45 -95 -45l-189 3v993q-3 51 -56 89q-56 36 -59 36l329 308l212 -167l162 167l239 -193l313 193l290 -185v-1248l-160 -7v1145l-229 132l-192 -119v-1147h-172v1103l-195 141l-156 -145
l-212 145l-85 -74q4 -5 75 -45q65 -43 70 -107v-588zM681 71q80 36 85 159q-18 52 -85 70v-229z" />
    <glyph glyph-name="nacute" horiz-adv-x="1" 
d="M-818 -244q52 22 108 18q44 0 86 -11q60 -26 110.5 -59.5t93.5 -73.5q22 -19 45 -36t47 -31q44 -29 92 -29q96 7 96 70q-7 22 -50 22q-24 4 -42 27q-18 15 -18 62q4 44 33 67q30 21 70 21q74 0 107 -58q21 -30 21 -64q0 -9 -1 -10q0 -101 -105 -179q-100 -81 -221 -85
q-80 0 -141 49q-49 42 -85.5 69t-62.5 41q-29 14 -58 23.5t-58 14.5q-11 4 -24.5 9.5t-29.5 12.5q-46 11 -82 11q-45 3 -74 -7q59 92 143 126z" />
    <glyph glyph-name="Ncaron" 
d="M-965 -1040q59 92 143 126q52 22 108 18q44 0 86 -11q60 -26 110.5 -59.5t93.5 -73.5q22 -19 45 -36t47 -31q44 -29 92 -29q96 7 96 70q-7 22 -50 22q-24 4 -42 27q-18 15 -18 62q4 44 33 67q30 21 70 21q74 0 107 -58q21 -30 21 -64q0 -9 -1 -10q0 -101 -105 -179
q-100 -81 -221 -85q-80 0 -141 49q-49 42 -85.5 69t-62.5 41q-29 14 -58 23.5t-58 14.5q-11 4 -24.5 9.5t-29.5 12.5q-46 11 -82 11q-45 3 -74 -7z" />
    <glyph glyph-name="ncaron" 
d="M-465 -616q5 -6 -67 -32q-77 13 -82 32v241l-233 70l-92 -67l-178 67l-34 -18q4 0 45 -21q36 -24 36 -53v-134q4 0 57 -3q47 -7 52 -51q0 -36 -16 -52q-14 -21 -65 -29q-42 0 -105 18q-66 10 -71 32v208q-14 56 -47 56l217 140l176 -69l144 74l245 -101l170 96l255 -96
v-329q0 -11 -89 -29q-64 14 -56 32v275l-206 51l-56 -29v-279zM-1062 -775q-18 0 -18 7q25 27 103 64q85 38 211 38q189 -13 275 -60q43 -28 84 -48.5t83 -33.5q11 0 25 2t31 6q22 3 22 25q0 10 -38 18q-32 4 -37 45q5 26 33 26q49 0 85 -40q20 -23 20 -42q0 -40 -71 -63
q-56 -22 -215 -25q-93 25 -166 63q-78 33 -194 36q-92 -3 -233 -18z" />
    <glyph glyph-name="Odblacute" 
d="M-467 -1176q5 -6 -67 -32q-77 13 -82 32v241l-233 70l-92 -67l-178 67l-34 -18q4 0 45 -21q36 -24 36 -53v-134q4 0 57 -3q47 -7 52 -51q0 -36 -16 -52q-14 -21 -65 -29q-42 0 -105 18q-66 10 -71 32v208q-14 56 -47 56l217 140l176 -69l144 74l245 -101l170 96l255 -96
v-329q0 -11 -89 -29q-64 14 -56 32v275l-206 51l-56 -29v-279zM-1064 -1335q-18 0 -18 7q25 27 103 64q85 38 211 38q189 -13 275 -60q43 -28 84 -48.5t83 -33.5q11 0 25 2t31 6q22 3 22 25q0 10 -38 18q-32 4 -37 45q5 26 33 26q49 0 85 -40q20 -23 20 -42q0 -40 -71 -63
q-56 -22 -215 -25q-93 25 -166 63q-78 33 -194 36q-92 -3 -233 -18z" />
    <glyph glyph-name="odblacute" horiz-adv-x="2586" 
d="M681 427q83 0 141 -49q58 -52 58 -137q0 -78 -25 -127q-28 -45 -64 -72q-92 -45 -95 -45l-189 3v993q-3 51 -56 89q-56 36 -59 36l329 308l212 -167l162 167l239 -193l313 193l238 -152l245 152q446 -197 446 -199v-1229h-180v1113l-281 127l-178 -69v-1176l-160 -7v1145
l-229 132l-192 -119v-1147h-172v1103l-195 141l-156 -145l-212 145l-85 -74q4 -5 75 -45q65 -43 70 -107v-588zM1142 -251q52 22 108 18q44 0 86 -11q60 -26 110.5 -59.5t93.5 -73.5q22 -19 45 -36t47 -31q44 -29 92 -29q96 7 96 70q-7 22 -50 22q-24 4 -42 27
q-18 15 -18 62q4 44 33 67q30 21 70 21q74 0 107 -58q20 -32 20 -64v-10q0 -101 -105 -179q-100 -81 -221 -85q-80 0 -141 49q-49 42 -85.5 69t-62.5 41q-29 14 -58 23.5t-58 14.5q-11 4 -24.5 9.5t-29.5 12.5q-46 11 -82 11q-45 3 -74 -7q59 92 143 126zM681 71
q80 36 85 159q-18 52 -85 70v-229z" />
    <glyph glyph-name="Racute" horiz-adv-x="2586" 
d="M681 427q83 0 141 -49q58 -52 58 -137q0 -78 -25 -127q-28 -45 -64 -72q-92 -45 -95 -45l-189 3v993q-3 51 -56 89q-56 36 -59 36l329 308l212 -167l162 167l239 -193l313 193l238 -152l245 152q446 -197 446 -199v-1229h-180v1113l-281 127l-178 -69v-1176l-160 -7v1145
l-229 132l-192 -119v-1147h-172v1103l-195 141l-156 -145l-212 145l-85 -74q4 -5 75 -45q65 -43 70 -107v-588zM681 71q80 36 85 159q-18 52 -85 70v-229z" />
    <glyph glyph-name="racute" horiz-adv-x="2586" 
d="M681 427q83 0 141 -49q58 -52 58 -137q0 -78 -25 -127q-29 -46 -64 -72q-92 -45 -95 -45l-189 3v993q-3 51 -56 89q-56 36 -59 36l329 308l212 -167l162 167l239 -193l313 193l238 -152l245 152l342 -129q33 54 33 103q0 50 -22 93q-14 29 -25 52t-20 40q-22 31 -29 83
q4 10 63 54h85q51 -48 67 -103q9 -47 9 -100q0 -57 -6.5 -103.5t-22.5 -92.5q-28 -87 -28 -96v-1229h-180v1113l-281 127l-178 -69v-1176l-160 -7v1145l-229 132l-192 -119v-1147h-172v1103l-195 141l-156 -145l-212 145l-85 -74q4 -5 75 -45q66 -44 70 -107v-588z
M1142 -251q52 22 108 18q45 0 86 -11q60 -26 110.5 -59.5t93.5 -73.5q22 -19 45 -36t47 -31q44 -29 92 -29q96 7 96 70q-7 22 -50 22q-24 4 -42 27q-18 15 -18 62q5 45 33 67q30 21 70 21q74 0 107 -58q20 -32 20 -64v-10q0 -101 -105 -179q-100 -81 -221 -85q-80 0 -141 49
q-49 42 -85.5 69t-62.5 41q-29 14 -58 23.5t-58 14.5q-11 4 -24.5 9.5t-29.5 12.5q-44 11 -82 11q-44 3 -74 -7q58 91 143 126zM681 71q81 36 85 159q-18 52 -85 70v-229z" />
    <glyph glyph-name="Rcaron" horiz-adv-x="2586" 
d="M681 427q83 0 141 -49q58 -52 58 -137q0 -78 -25 -127q-28 -45 -64 -72q-92 -45 -95 -45l-189 3v993q-3 51 -56 89q-56 36 -59 36l329 308l212 -167l162 167l239 -193l313 193l238 -152l245 152l342 -129q33 54 33 103q0 50 -22 93q-14 29 -25 52t-20 40q-21 30 -29 83
q4 10 63 54h85q51 -48 67 -103q9 -47 9 -100q0 -57 -6.5 -103.5t-22.5 -92.5q-28 -85 -28 -96v-1229h-180v1113l-281 127l-178 -69v-1176l-160 -7v1145l-229 132l-192 -119v-1147h-172v1103l-195 141l-156 -145l-212 145l-85 -74q4 -5 75 -45q65 -43 70 -107v-588zM681 71
q80 36 85 159q-18 52 -85 70v-229z" />
    <glyph glyph-name="rcaron" unicode="&#x178a;" horiz-adv-x="1389" 
d="M771 1167q-9 4 -21 12.5t-28 21.5q-35 26 -58 26q-16 0 -16 -22q0 -78 74 -116q70 -40 163 -40q19 0 37 2t37 6q70 13 141 36q68 18 81 85v296q15 42 31 64q15 18 44 18q45 0 77 -15q31 -14 35 -59v-344q-137 -190 -396 -194q-159 0 -286 53q-127 44 -152 141
q-11 49 -11 81q3 122 103 189q49 18 99 18q75 0 131 -33q56 -32 74 -103q0 -134 -103 -130q-34 0 -56 7zM944 367l248 -244v859h172v-982h-190l-230 233l-233 -233h-199v979h177v-872z" />
    <glyph glyph-name="Sacute" 
d="M-211 -407q0 67 -77 93q-78 26 -149 21q-75 0 -128 -25q-67 -25 -71 -92v-92q35 3 89 -17q56 -18 56 -96q0 -92 -49 -117q-51 -30 -126 -35q-56 0 -96 22q-44 24 -47 63v248q0 201 376 208q1 1 8 1h23q134 0 244 -33q123 -45 127 -187v-262q1 -1 1 -3q0 -19 -96 -53
q-92 23 -85 60v296z" />
    <glyph glyph-name="sacute" 
d="M-211 -1037q0 67 -77 93q-78 26 -149 21q-74 0 -128 -25q-67 -25 -71 -92v-92q36 3 89 -17q56 -18 56 -96q0 -92 -49 -117q-52 -31 -126 -35q-56 0 -96 22q-44 24 -47 63v248q0 201 376 208q2 1 8 1h23q134 0 244 -33q123 -45 127 -187v-262q1 -1 1 -3q0 -19 -96 -53
q-92 23 -85 60v296z" />
    <glyph glyph-name="Tcedilla" horiz-adv-x="2072" 
d="M2061 1227v-1229h-174v1113l-281 127l-238 -92v-8q-136 -189 -396 -194q-157 0 -286 53q-126 43 -152 141q-11 52 -11 81q3 122 103 189q49 18 99 18q75 0 131 -33q56 -32 74 -103q0 -134 -103 -130q-35 0 -56 7q-9 4 -21 12.5t-28 21.5q-35 26 -58 26q-16 0 -16 -22
q0 -78 74 -116q70 -40 163 -40q19 0 37 2t37 6q70 13 141 36q68 18 81 85v296q15 42 31 64q15 18 44 18q45 0 77 -15q30 -13 35 -59v-213l253 157zM944 367l248 -244v859h172v-982h-190l-230 233l-233 -233h-199v979h177v-872z" />
    <glyph glyph-name="tcedilla" horiz-adv-x="2072" 
d="M1963 1287q33 54 33 103q0 50 -22 93q-14 29 -25 52t-20 40q-21 30 -29 83q4 10 63 54h85q51 -48 67 -103q9 -47 9 -100q0 -57 -6.5 -103.5t-22.5 -92.5q-34 -86 -34 -96v-1219h-174v1113l-281 127l-238 -92v-8q-136 -189 -396 -194q-157 0 -286 53q-126 43 -152 141
q-11 52 -11 81q3 122 103 189q49 18 99 18q75 0 131 -33q56 -32 74 -103q0 -134 -103 -130q-35 0 -56 7q-9 4 -21 12.5t-28 21.5q-35 26 -58 26q-16 0 -16 -22q0 -78 74 -116q70 -40 163 -40q19 0 37 2t37 6q70 13 141 36q68 18 81 85v296q15 42 31 64q15 18 44 18
q45 0 77 -15q30 -13 35 -59v-213l253 157zM944 367l248 -244v859h172v-982h-190l-230 233l-233 -233h-199v979h177v-872z" />
    <glyph glyph-name="Tcaron" unicode="&#x178b;" horiz-adv-x="1351" 
d="M922 81q248 11 244 152v618l-322 176l237 369q45 -28 85.5 -50t77.5 -39q41 0 63 34q22 22 29 51q0 45 -36 64q-20 14 -42 27t-47 26q-25 14 -46 28t-39 28q-45 25 -45 70q14 96 155 100q78 -18 131 -78q43 -58 50 -112q8 -43 8 -69q-5 -136 -62 -254q-62 -121 -141 -125
q-39 13 -87.5 33t-106.5 49l-57 -71l376 -163l3 -659q0 -120 -99 -201q-103 -85 -333 -92q-220 4 -311 92q-96 88 -96 197v718q-75 0 -127 49q-59 41 -59 118q0 82 34 137q29 54 62 78q83 47 90 44l188 -37v-1159q0 -45 53 -93q47 -52 170 -56zM511 1341q-74 -38 -74 -156
q18 -51 74 -71v227z" />
    <glyph glyph-name="tcaron" 
d="M-851 -432l29 64q27 55 105 78h396v45q44 29 110 29q60 0 98 -26v-48h58q7 3 38 -55q0 -48 -38 -56h-54q0 -279 -27 -325q-28 -48 -85 -53h-138l-156 130q-24 -3 -77 -63q-51 -63 -53 -65h-7q-7 0 -20.5 0.5t-33.5 1.5q-64 3 -103 25q-42 81 -42 98v220zM-677 -661
q2 2 22 19t59 51q37 32 66 54.5t50 36.5q63 0 130 -49l69 -53l-7 201h-308l-81 -63v-197z" />
    <glyph glyph-name="Uring" 
d="M-851 -1052l29 64q27 55 105 78h396v45q44 29 110 29q60 0 98 -26v-48h58q7 3 38 -55q0 -48 -38 -56h-54q0 -279 -27 -325q-28 -48 -85 -53h-138l-156 130q-24 -3 -77 -63q-51 -63 -53 -65h-7q-7 0 -20.5 0.5t-33.5 1.5q-64 3 -103 25q-42 81 -42 98v220zM-677 -1281
q2 2 22 19t59 51q37 32 66 54.5t50 36.5q63 0 130 -49l69 -53l-7 201h-308l-81 -63v-197z" />
    <glyph glyph-name="uring" horiz-adv-x="2025" 
d="M2000 1187v-1189h-174v1113l-311 137l-182 -76q-51 -72 -111 -75q-39 13 -87.5 33t-106.5 49l-57 -71l376 -163l3 -659q0 -120 -99 -201q-102 -84 -333 -92q-221 5 -311 92q-96 88 -96 197v718q-75 0 -127 49q-59 41 -59 118q0 82 34 137q28 53 62 78q83 47 90 44
l188 -37v-1159q0 -45 53 -93q46 -51 170 -56q249 11 244 152v618l-322 176l237 369q45 -28 85.5 -50t77.5 -39q41 0 63 34q21 21 29 51q0 45 -36 74q-20 14 -42 27t-47 26q-25 14 -46 28t-39 28q-45 25 -45 70q13 95 155 100q79 -18 131 -78q42 -57 50 -112q8 -46 8 -69
q-3 -80 -26 -171l181 81q420 -206 420 -209zM511 1341q-74 -38 -74 -156q18 -51 74 -71v227z" />
    <glyph glyph-name="Udblacute" horiz-adv-x="2025" 
d="M1902 1257q33 54 33 103q0 50 -22 93q-14 29 -25 52t-20 40q-22 31 -29 83q4 10 63 54h85q51 -48 67 -103q9 -47 9 -100q0 -57 -6.5 -103.5t-22.5 -92.5q-34 -87 -34 -96v-1189h-174v1113l-311 137l-182 -76q-51 -72 -111 -75q-39 13 -87.5 33t-106.5 49l-57 -71
l376 -163l3 -659q0 -120 -99 -201q-103 -85 -333 -92q-220 4 -311 92q-96 88 -96 197v718q-75 0 -127 49q-59 41 -59 118q0 82 34 137q29 54 62 78q83 47 90 44l188 -37v-1159q0 -45 53 -93q47 -52 170 -56q248 11 244 152v618l-322 176l237 369q45 -28 85.5 -50t77.5 -39
q41 0 63 34q22 22 29 51q0 45 -36 74q-20 14 -42 27t-47 26q-25 14 -46 28t-39 28q-45 25 -45 70q14 96 155 100q78 -18 131 -78q43 -58 50 -112q8 -43 8 -69q-3 -83 -26 -171l181 81zM511 1341q-74 -38 -74 -156q18 -51 74 -71v227z" />
    <glyph glyph-name="udblacute" unicode="&#x178c;" horiz-adv-x="1377" 
d="M1188 881v324q-8 15 -56 32q-50 15 -96 15q-26 -11 -78 -51q-52 -49 -96 -49q-13 5 -35.5 18t-54.5 35q-58 40 -100 43q-92 -56 -88 -137q3 -99 63 -125q40 0 121 29q20 7 49 7q62 0 100 -47q34 -43 34 -116q-5 -30 -45 -67q-43 -43 -138 -43q-107 13 -177 78
q-74 59 -92 145q-2 27 -3 52.5t-1 50.5q0 138 40 222q37 88 148 129q30 0 71 -11q18 -10 33.5 -19.5t29.5 -20.5q55 -49 96 -52q30 0 56 18q11 10 23 18.5t26 15.5q51 47 118 51q29 -9 60.5 -18t65.5 -19q68 -18 96 -85v-481q-89 -116 -204 -179q-60 -34 -116 -56.5
t-110 -35.5q-252 -47 -259 -40v-253q0 -45 60 -67q60 -26 121 -26q82 0 144 35q17 7 44.5 20.5t64.5 33.5q78 37 81 82v237q0 30 15 66q10 30 60 35q91 -10 99 -31v-626q-10 -43 -60 -70q-50 -29 -106 -29q-71 0 -71 40q5 23 56 63v208q-23 -29 -81 -93q-65 -66 -78 -81
q-101 -59 -215 -59q-124 0 -212 66q-96 60 -99 181v339q100 11 196 32t196 53q191 61 304 213z" />
    <glyph glyph-name="Zacute" horiz-adv-x="3" 
d="M-222 -459q18 22 18 56q0 21 -14 47q-5 -2 -33.5 -13.5t-80.5 -33.5q-25 5 -56 15q-17 7 -35.5 13.5t-39.5 11.5q-82 38 -106 38q-82 -18 -82 -60q0 -22 22 -29q5 4 17.5 13.5t31.5 26.5v7q81 -3 85 -85q0 -48 -60 -70q-69 -26 -108 -26q-44 4 -66 26q-23 20 -27 97v103
q11 38 74 60q51 25 89 25q55 0 138 -37q80 -37 112 -40q29 3 85 36q58 34 121 34q17 -5 35.5 -10.5t38.5 -10.5q49 -16 49 -49v-120q-5 -50 -42 -74q-18 -13 -30.5 -20.5t-19.5 -11.5q-41 -16 -116 -33q-37 -10 -75 -18t-77 -13q-180 -21 -185 -25v-96q15 -27 149 -27
q45 0 103 20q52 18 81 54q23 38 18 71q4 4 67 30q70 26 100 26q20 0 20 -11l3 -279l-92 -25h-12q-69 0 -78 43q0 22 -1 39t-3 28q-29 -29 -118 -50q-43 -11 -80 -18.5t-68 -9.5q-51 2 -98 11.5t-92 26.5q-92 33 -96 75v132q60 6 130.5 15.5t155.5 22.5q172 25 248 92z" />
    <glyph glyph-name="zacute" 
d="M-432 -1416v75q-34 -43 -86 -59q-42 -16 -86 -16h-362q-75 0 -118.5 30t-43.5 90v72q0 24 34.5 40.5t91 29t127.5 22.5t144 21q56 7 110 28t96 45.5t67.5 47.5t25.5 34v43l-96 70l-158 -125h-26l-205 123l-37 -25v-180q12 -16 29 -16h6q16 4 32.5 14t16.5 19q0 6 -10 10
q-25 0 -41 11t-16 40v6q2 36 22.5 49t44.5 13q12 0 24 -4.5t21.5 -13t16 -21.5t6.5 -29q0 -64 -62 -108q-65 -44 -155 -44h-19q-35 0 -62 29q-28 28 -28 68v174l180 116h72l215 -133l166 133h72l165 -118v-125q0 -23 -38 -52.5t-101 -58.5t-143 -54.5t-160 -37.5
q-78 -12 -127 -19t-77.5 -13.5t-39 -14t-10.5 -19.5v-20q0 -18 8.5 -27.5t26.5 -14t45.5 -5t65.5 -0.5h137q38 0 80 6t77.5 20.5t58.5 37.5t23 57v37l62 24h51l61 -22v-260h-174z" />
    <glyph glyph-name="Zdot" horiz-adv-x="2034" 
d="M1688 1397q329 -177 329 -180v-1219h-174v1143l-251 147l-231 -83v-382q-89 -116 -204 -179q-60 -34 -116 -56.5t-110 -35.5q-252 -47 -259 -40v-253q0 -45 60 -67q60 -26 121 -26q82 0 144 35q17 7 44.5 20.5t64.5 33.5q78 37 81 82v237q0 30 15 66q10 30 60 35
q91 -10 99 -31v-626q-10 -43 -60 -70q-50 -29 -106 -29q-71 0 -71 40q5 23 56 63v208q-23 -29 -81 -93q-65 -66 -78 -81q-101 -59 -215 -59q-124 0 -212 66q-96 60 -99 181v339q100 11 196 32t196 53q191 61 304 213v324q-8 15 -56 32q-50 15 -96 15q-26 -11 -78 -51
q-52 -49 -96 -49q-13 5 -35.5 18t-54.5 35q-58 40 -100 43q-92 -56 -88 -137q3 -99 63 -125q40 0 121 29q20 7 49 7q62 0 100 -47q34 -43 34 -116q-5 -30 -45 -67q-43 -43 -138 -43q-107 13 -177 78q-74 59 -92 145q-2 27 -3 52.5t-1 50.5q0 138 40 222q37 88 148 129
q30 0 71 -11q18 -10 33.5 -19.5t29.5 -20.5q55 -49 96 -52q30 0 56 18q11 10 23 18.5t26 15.5q51 47 118 51q29 -9 60.5 -18t65.5 -19q59 -17 87 -68l170 90q31 15 65 15q48 0 101 -29z" />
    <glyph glyph-name="zdot" horiz-adv-x="2034" 
d="M1688 1397l231 -110q33 54 33 103q0 50 -22 93q-14 29 -25 52t-20 40q-21 30 -29 83q4 10 63 54h85q51 -48 67 -103q9 -47 9 -100q0 -57 -6.5 -103.5t-22.5 -92.5q-34 -86 -34 -96v-1219h-174v1143l-251 147l-231 -83v-382q-89 -116 -204 -179q-60 -34 -116 -56.5
t-110 -35.5q-252 -47 -259 -40v-253q0 -45 60 -67q60 -26 121 -26q82 0 144 35q17 7 44.5 20.5t64.5 33.5q78 37 81 82v237q0 30 15 66q10 30 60 35q91 -10 99 -31v-626q-10 -43 -60 -70q-50 -29 -106 -29q-71 0 -71 40q5 23 56 63v208q-23 -29 -81 -93q-65 -66 -78 -81
q-101 -59 -215 -59q-124 0 -212 66q-96 60 -99 181v339q100 11 196 32t196 53q191 61 304 213v324q-8 15 -56 32q-50 15 -96 15q-26 -11 -78 -51q-52 -49 -96 -49q-13 5 -35.5 18t-54.5 35q-58 40 -100 43q-92 -56 -88 -137q3 -99 63 -125q40 0 121 29q20 7 49 7
q62 0 100 -47q34 -43 34 -116q-5 -30 -45 -67q-43 -43 -138 -43q-107 13 -177 78q-74 59 -92 145q-2 27 -3 52.5t-1 50.5q0 138 40 222q37 88 148 129q30 0 71 -11q18 -10 33.5 -19.5t29.5 -20.5q55 -49 96 -52q30 0 56 18q11 10 23 18.5t26 15.5q51 47 118 51
q29 -9 60.5 -18t65.5 -19q59 -17 87 -68l170 90q80 35 166 -14z" />
    <glyph glyph-name="Gamma" unicode="&#x178d;" horiz-adv-x="1808" 
d="M1353 212q46 -53 111 -60q62 0 106 33q42 34 46 101v669l-208 138l318 325q20 -26 42.5 -48.5t47.5 -39.5q60 -42 92.5 -63.5t40.5 -25.5q-13 -26 -30 -48t-37 -41q-41 -38 -82 -45q-33 0 -85 31q-26 14 -53.5 31.5t-56.5 39.5l-38 -35l222 -166v-742q0 -123 -50 -185
q-56 -59 -156 -77q-107 3 -168 67q-31 28 -60.5 55.5t-57.5 54.5v-114q0 -38 -38 -56q-36 -18 -78 -18q-62 21 -54 63v1044l-183 137l-159 -151l-206 155l-56 -60q2 -2 21.5 -14.5t56.5 -35.5q16 -13 28.5 -26t23.5 -27q22 -28 22 -59v-630q5 0 78 -49q14 -11 27.5 -25.5
t24.5 -32.5q22 -37 22 -90q0 -63 -53 -125q-54 -57 -133 -70q-136 0 -140 88v897q0 28 -20 51q-18 24 -39 42q-65 36 -67 36l296 304l219 -167l159 170l252 -209v-876q0 -72 52 -121zM671 107q50 16 64 63q-5 93 -64 109v-172z" />
    <glyph glyph-name="Theta" horiz-adv-x="691" 
d="M352 1093l222 336l225 -150l-100 -172l-192 130l-45 -59l215 -156v-1488q0 -102 -49 -190q-54 -92 -226 -96q-83 5 -135 71q-28 32 -48.5 57.5t-33.5 45.5v-163h-175v326q-5 21 -32 34q-31 18 -53 22q-29 0 -70 -29q-39 -30 -64 -35q-7 2 -23 10.5t-42 24.5
q-50 29 -78 29q-37 -15 -45 -56v-114q4 3 45 -18q15 -7 33 -31q11 -30 11 -54q0 -46 -36 -71q-17 -14 -35 -23.5t-36 -14.5q-20 -7 -56 -7q-19 2 -39 5.5t-42 8.5q-32 10 -37 31v336q0 27 22 49q8 11 18.5 22t24.5 22q60 45 116 63q63 0 122 -32q29 -16 53 -31.5t41 -32.5
q18 14 42.5 31t56.5 36q60 33 106 33q20 0 31 -8q52 -26 100 -74q40 -53 45 -78v-110q18 -50 69 -78q24 -17 37 -26.5t15 -11.5q88 0 138 22q29 17 45 49q11 39 11 92v1416zM-397 -678q21 0 38 33q0 41 -38 56v-89z" />
    <glyph glyph-name="Phi" horiz-adv-x="691" 
d="M352 1093l222 336l225 -150l-100 -172l-192 130l-45 -59l215 -156v-2128q0 -102 -49 -190q-54 -92 -226 -96q-83 5 -135 71q-28 32 -48.5 57.5t-33.5 45.5v-163h-175v326q-5 21 -32 34q-31 18 -53 22q-29 0 -70 -29q-39 -30 -64 -35q-7 2 -23 10.5t-42 24.5
q-50 29 -78 29q-37 -15 -45 -56v-114q4 3 45 -18q15 -7 33 -31q11 -30 11 -54q0 -46 -36 -71q-17 -14 -35 -23.5t-36 -14.5q-20 -7 -56 -7q-19 2 -39 5.5t-42 8.5q-32 10 -37 31v336q0 27 22 49q8 11 18.5 22t24.5 22q60 45 116 63q63 0 122 -32q29 -16 53 -31.5t41 -32.5
q18 14 42.5 31t56.5 36q60 33 106 33q20 0 31 -8q52 -26 100 -74q40 -53 45 -78v-110q18 -50 69 -78q24 -17 37 -26.5t15 -11.5q88 0 138 22q29 17 45 49q11 39 11 92v2056zM-397 -1318q21 0 38 33q0 41 -38 56v-89z" />
    <glyph glyph-name="alpha" horiz-adv-x="2418" 
d="M2401 1107v-1111l-180 4v966l-453 292l-168 -97l189 -153v-742q0 -123 -50 -185q-56 -59 -156 -77q-107 3 -168 67q-31 28 -60.5 55.5t-57.5 54.5v-114q0 -38 -38 -56q-36 -18 -78 -18q-62 21 -54 63v1044l-183 137l-159 -151l-206 155l-56 -60q2 -2 21.5 -14.5
t56.5 -35.5q16 -13 28.5 -26t23.5 -27q22 -28 22 -59v-630q5 0 78 -49q14 -11 27.5 -25.5t24.5 -32.5q22 -37 22 -90q0 -63 -53 -125q-54 -57 -133 -70q-136 0 -140 88v897q0 28 -20 51q-18 24 -39 42q-65 36 -67 36l296 304l219 -167l159 170l252 -209v-876q0 -72 52 -121
q46 -53 111 -60q62 0 106 33q42 34 46 101v687l-170 146l449 297zM671 107q50 16 64 63q-5 93 -64 109v-172z" />
    <glyph glyph-name="delta" horiz-adv-x="1318" 
d="M1295 1117v-1124h-177v4l-3 1009l-443 282l-180 -117l185 -149v-1488q0 -102 -49 -190q-54 -92 -226 -96q-83 5 -135 71q-28 32 -48.5 57.5t-33.5 45.5v-163h-175v326q-5 21 -32 34q-31 18 -53 22q-29 0 -70 -29q-39 -30 -64 -35q-7 2 -23 10.5t-42 24.5q-50 29 -78 29
q-37 -15 -45 -56v-114q4 3 45 -18q15 -7 33 -31q11 -30 11 -54q0 -46 -36 -71q-17 -14 -35 -23.5t-36 -14.5q-20 -7 -56 -7q-19 2 -39 5.5t-42 8.5q-32 10 -37 31v336q0 27 22 49q8 11 18.5 22t24.5 22q60 45 116 63q63 0 122 -32q29 -16 53 -31.5t41 -32.5q18 14 42.5 31
t56.5 36q60 33 106 33q20 0 31 -8q52 -26 100 -74q40 -53 45 -78v-110q18 -50 69 -78q24 -17 37 -26.5t15 -11.5q88 0 138 22q29 17 45 49q11 39 11 92v1412l-174 167l459 277zM-397 -678q21 0 38 33q0 41 -38 56v-89z" />
    <glyph glyph-name="epsilon" horiz-adv-x="1318" 
d="M1295 1117v-1124h-177v4h-3v1009l-443 282l-180 -117l185 -149v-2148q0 -102 -49 -190q-54 -92 -226 -96q-82 4 -135 71q-28 32 -48.5 57.5t-33.5 45.5v-163h-175v326q-4 20 -32 34q-31 18 -53 22q-29 0 -70 -29q-40 -31 -64 -35q-7 2 -23 10.5t-42 24.5q-50 29 -78 29
q-37 -15 -45 -56v-114q4 3 45 -18q16 -8 33 -31q11 -28 11 -54q0 -46 -36 -71q-17 -14 -35 -23.5t-36 -14.5q-21 -7 -56 -7q-19 2 -39 5.5t-42 8.5q-33 11 -37 31v336q0 27 22 49q8 11 18.5 22t24.5 22q60 45 116 63q63 0 122 -32q29 -16 53 -31.5t41 -32.5q18 14 42.5 31
t56.5 36q60 33 106 33q20 0 31 -8q51 -25 100 -74q40 -53 45 -78v-110q18 -50 69 -78q24 -17 37 -26.5t15 -11.5q87 0 138 22q28 16 45 49q11 38 11 92v2072l-174 167l459 277zM-397 -1338q21 0 38 33q0 41 -38 56v-89z" />
    <glyph glyph-name="sigma" horiz-adv-x="2424" 
d="M2295 1287q33 54 33 103q0 50 -22 93q-14 29 -25 52t-20 40q-21 30 -29 83q4 10 63 54h85q51 -48 67 -103q9 -47 9 -100q0 -57 -6.5 -103.5t-22.5 -92.5q-28 -85 -28 -96v-109l2 -1v-1111l-83 5l-97 -1v966l-453 292l-168 -97l189 -153v-742q0 -123 -50 -185
q-56 -59 -156 -77q-107 3 -168 67q-31 28 -60.5 55.5t-57.5 54.5v-114q0 -38 -38 -56q-36 -18 -78 -18q-62 21 -54 63v1044l-183 137l-159 -151l-206 155l-56 -60q2 -2 21.5 -14.5t56.5 -35.5q16 -13 28.5 -26t23.5 -27q22 -28 22 -59v-630q5 0 78 -49q14 -11 27.5 -25.5
t24.5 -32.5q22 -37 22 -90q0 -63 -53 -125q-54 -57 -133 -70q-136 0 -140 88v897q0 28 -20 51q-18 24 -39 42q-65 36 -67 36l296 304l219 -167l159 170l252 -209v-876q0 -72 52 -121q46 -53 111 -60q62 0 106 33q42 34 46 101v687l-170 146l449 297l364 -223l2 8zM671 107
q50 16 64 63q-5 93 -64 109v-172z" />
    <glyph glyph-name="tau" horiz-adv-x="1311" 
d="M1189 1297q33 54 33 103q0 50 -22 93q-14 29 -25 52t-20 40q-21 30 -29 83q4 10 63 54h85q51 -48 67 -103q9 -47 9 -100q0 -57 -6.5 -103.5t-22.5 -92.5q-28 -85 -28 -96v-109l2 -1125h-177v4h-3v1009l-443 282l-180 -117l185 -149v-1488q0 -102 -49 -190
q-54 -92 -226 -96q-83 5 -135 71q-28 32 -48.5 57.5t-33.5 45.5v-163h-175v326q-5 21 -32 34q-31 18 -53 22q-29 0 -70 -29q-39 -30 -64 -35q-7 2 -23 10.5t-42 24.5q-50 29 -78 29q-37 -15 -45 -56v-114q4 3 45 -18q15 -7 33 -31q11 -30 11 -54q0 -46 -36 -71
q-17 -14 -35 -23.5t-36 -14.5q-20 -7 -56 -7q-19 2 -39 5.5t-42 8.5q-32 10 -37 31v336q0 27 22 49q8 11 18.5 22t24.5 22q60 45 116 63q63 0 122 -32q29 -16 53 -31.5t41 -32.5q18 14 42.5 31t56.5 36q60 33 106 33q20 0 31 -8q52 -26 100 -74q40 -53 45 -78v-110
q18 -50 69 -78q24 -17 37 -26.5t15 -11.5q88 0 138 22q29 17 45 49q11 39 11 92v1412h-3l-171 167l459 277l364 -223l2 8zM-397 -678q21 0 38 33q0 41 -38 56v-89z" />
    <glyph glyph-name="phi" horiz-adv-x="1311" 
d="M1189 1297q33 54 33 103q0 50 -22 93q-14 29 -25 52t-20 40q-21 30 -29 83q4 10 63 54h85q51 -48 67 -103q9 -47 9 -100q-1 -57 -8 -105.5t-21 -90.5q-28 -85 -28 -96v-109l2 -1125h-177v4h-3v1009l-443 282l-180 -117l185 -149v-2148q0 -102 -49 -190q-54 -92 -226 -96
q-83 5 -135 71q-28 32 -48.5 57.5t-33.5 45.5v-163h-175v326q-5 21 -32 34q-31 18 -53 22q-29 0 -70 -29q-39 -30 -64 -35q-7 2 -23 10.5t-42 24.5q-50 29 -78 29q-37 -15 -45 -56v-114q4 3 45 -18q15 -7 33 -31q11 -30 11 -54q0 -46 -36 -71q-17 -14 -35 -23.5t-36 -14.5
q-20 -7 -56 -7q-19 2 -39 5.5t-42 8.5q-32 10 -37 31v336q0 27 22 49q8 11 18.5 22t24.5 22q60 45 116 63q63 0 122 -32q29 -16 53 -31.5t41 -32.5q18 14 42.5 31t56.5 36q60 33 106 33q20 0 31 -8q52 -26 100 -74q40 -53 45 -78v-110q18 -50 69 -78q24 -17 37 -26.5
t15 -11.5q88 0 138 22q29 17 45 49q11 39 11 92v2072h-3l-171 167l459 277l364 -223l2 8zM-397 -1338q21 0 38 33q0 41 -38 56v-89z" />
    <glyph glyph-name="underscoredbl" unicode="&#x178e;" horiz-adv-x="2570" 
d="M679 427q81 0 152 -42q64 -40 67 -119q-8 -89 -36 -143q-35 -59 -74 -81q-89 -45 -92 -45h-198v1121q5 156 131 226q121 67 276 67q211 -3 315 -96q102 -89 102 -173v-976l206 212l197 -201v937q0 42 29 95q23 50 74 95q52 46 130 78q85 29 178 29q163 0 286 -78
q114 -77 126 -237v-1099l-186 -4v1178q-5 75 -71 119q-70 40 -152 40q-67 0 -152 -29q-87 -34 -92 -127v-1174l-170 -3l-204 207l-210 -207h-169v1177q-3 74 -81 116q-76 40 -163 40q-74 0 -141 -36q-73 -37 -78 -113v-754zM683 92q34 15 63 42q24 22 24 70q0 26 -9 62
q-22 49 -78 49v-223z" />
    <glyph glyph-name="exclamdbl" 
d="M-827 -379q5 48 92 103q87 60 236 60q121 0 228 -45q112 -43 112 -134v-369q-7 -12 -112 -35q-74 15 -66 35v372q0 42 -59 71q-56 27 -113 27t-92 -16q-43 -22 -47 -62v-419h-179l-148 112l-149 -112h-173v423q0 35 -60 58q-62 20 -114 20q-57 0 -103 -24
q-53 -21 -56 -61v-179q28 3 85 -11q49 -15 49 -74q3 -22 -8 -51q-30 -90 -148 -105q-25 0 -50 3t-51 8q-53 10 -58 34v355q5 91 117 134q106 45 230 45q152 0 248 -42q92 -44 92 -114v-323l152 115l145 -110v311z" />
    <glyph glyph-name="nsuperior" 
d="M-827 -989q5 48 92 103q87 60 236 60q121 0 228 -45q112 -43 112 -134v-369q-7 -12 -112 -35q-74 15 -66 35v372q0 42 -59 71q-56 27 -113 27t-92 -16q-43 -22 -47 -62v-419h-179l-148 112l-149 -112h-173v423q0 35 -60 58q-62 20 -114 20q-57 0 -103 -24
q-53 -21 -56 -61v-179q28 3 85 -11q49 -15 49 -74q3 -22 -8 -51q-30 -90 -148 -105q-25 0 -50 3t-51 8q-53 10 -58 34v355q5 91 117 134q106 45 230 45q152 0 248 -42q92 -44 92 -114v-323l152 115l145 -110v311z" />
    <glyph glyph-name="peseta" horiz-adv-x="3205" 
d="M3185 1227v-1229h-170v1113l-231 157l-247 -105q4 -16 6.5 -32.5t4.5 -34.5v-1102h-186v1177q-5 75 -71 119q-70 40 -152 40q-68 0 -152 -29q-88 -34 -82 -127q-4 -63 0 -1177h-180l-204 207l-210 -207h-169v1177q-3 74 -81 116q-76 40 -163 40q-74 0 -141 -36
q-74 -38 -78 -113v-754q81 0 152 -42q64 -40 67 -119q-8 -89 -36 -143q-34 -58 -74 -81q-89 -45 -92 -45h-198v1121q4 155 131 226q121 67 276 67q211 -3 315 -96q102 -89 102 -173v-976l206 212l197 -201v937q0 42 29 95q23 50 74 95q53 47 130 78q84 29 178 29
q163 0 286 -78q40 -29 69 -66l173 109q53 44 107 44q46 0 89 -28zM683 92q34 15 63 42q24 22 24 70q0 26 -9 62q-22 49 -78 49v-223z" />
    <glyph glyph-name="IJ" horiz-adv-x="3205" 
d="M3070 1287q43 64 43 113q0 50 -22 93q-14 29 -25 52t-20 40q-21 30 -29 83q4 10 63 54h85q51 -48 67 -103q9 -47 9 -100q0 -57 -6.5 -103.5t-22.5 -92.5q-28 -84 -28 -96h1v-1229h-170v1113l-231 157l-247 -105q4 -16 6.5 -32.5t4.5 -34.5v-1102h-186v1177q-5 75 -71 119
q-70 40 -152 40q-67 0 -152 -29q-88 -34 -82 -127q-4 -63 0 -1177h-180l-204 207l-210 -207h-169v1177q-3 74 -81 116q-76 40 -163 40q-74 0 -141 -36q-73 -37 -78 -113v-754q81 0 152 -42q64 -40 67 -119q-8 -89 -36 -143q-35 -59 -74 -81q-89 -45 -92 -45h-198v1121
q5 156 131 226q121 67 276 67q211 -3 315 -96q102 -89 102 -173v-976l206 212l197 -201v937q0 42 29 95q23 50 74 95q52 46 130 78q85 29 178 29q163 0 286 -78q40 -29 69 -66l173 109q53 44 107 44q46 0 89 -28q69 -35 119.5 -60t90.5 -45zM683 92q34 15 63 42q24 22 24 70
q0 26 -9 62q-22 49 -78 49v-223z" />
    <glyph glyph-name="ij" unicode="&#x178f;" horiz-adv-x="1351" 
d="M378 1096l319 326l255 -159l166 163q137 -78 207 -120.5t83 -49.5q-2 -2 -13 -18t-31 -46q-23 -31 -47 -55.5t-47 -43.5q-32 23 -95.5 60.5t-163.5 91.5l-159 -156l-251 148l-64 -59l127 -100l-123 -103zM1163 0v816q-3 68 -81 103q-78 33 -163 33q-80 0 -159 -40
q-91 -37 -96 -112v-389q74 0 147 -26q63 -28 66 -106q-8 -165 -95 -223q-98 -59 -104 -59l-190 -4v778q5 252 431 262q418 -7 422 -262v-771h-178zM664 81q40 25 69 71q30 45 30 107q-3 31 -34 41q-36 11 -65 11v-230z" />
    <glyph glyph-name="napostrophe" 
d="M-211 -407q0 67 -77 93q-78 26 -149 21q-75 0 -128 -25q-67 -25 -71 -92v-92q35 3 89 -17q56 -18 56 -96q0 -92 -49 -117q-51 -30 -126 -35q-56 0 -96 22q-44 24 -47 63v248q0 201 376 208q1 1 8 1h23q134 0 244 -33q123 -45 127 -187v-262q1 -1 1 -3q0 -19 -96 -53
q-92 23 -85 60v296z" />
    <glyph glyph-name="minute" 
d="M-211 -1037q0 67 -77 93q-78 26 -149 21q-75 0 -128 -25q-67 -25 -71 -92v-92q35 3 89 -17q56 -18 56 -96q0 -92 -49 -117q-51 -30 -126 -35q-56 0 -96 22q-44 24 -47 63v248q0 201 376 208q1 1 8 1h23q134 0 244 -33q123 -45 127 -187v-262q1 -1 1 -3q0 -19 -96 -53
q-92 23 -85 60v296z" />
    <glyph glyph-name="second" horiz-adv-x="1963" 
d="M378 1104l318 318l438 -185l287 189l526 -309v-1124h-167v4h-3v1008l-433 243l-259 -174v-2h-2l-482 165l-64 -59l127 -100l-123 -103zM1163 0v816q-3 68 -81 103q-78 33 -163 33q-80 0 -159 -40q-91 -37 -96 -112v-389q74 0 147 -26q63 -28 66 -106q-8 -165 -95 -223
q-98 -59 -104 -59l-190 -4v778q5 252 431 262q418 -7 422 -262v-771h-178zM664 81q40 25 69 71q30 45 30 107q-3 31 -34 41q-36 11 -65 11v-230z" />
    <glyph glyph-name="afii61248" horiz-adv-x="1963" 
d="M378 1104l318 318l438 -185l287 189l393 -227l3 12l34 86q33 54 33 103q0 50 -22 93q-14 29 -25 52t-20 40q-22 31 -29 83q4 10 63 54h85q51 -48 67 -103q9 -47 9 -100v-15q0 -13 -1 -15q0 -86 -28 -166q-28 -87 -28 -96l-7 -110v-1124h-168v4h-3v1008l-433 243
l-259 -174v-2h-2l-482 165l-64 -59l127 -100l-123 -103zM1163 0v816q-3 69 -81 103q-78 33 -163 33q-79 0 -159 -40q-92 -38 -96 -112v-389q75 0 147 -26q63 -29 66 -106q-7 -164 -95 -223q-98 -59 -104 -59l-190 -3v777q4 251 431 262q418 -7 422 -262v-771h-178zM664 81
q41 26 69 71q30 45 30 107q-3 31 -34 41q-35 11 -65 11v-230z" />
    <glyph glyph-name="afii61289" unicode="&#x1790;" horiz-adv-x="1389" 
d="M954 -3q-200 3 -322 77q-121 73 -121 188v753l-137 107q88 103 173 178t170 126q10 9 35 9q43 0 99 -27q28 -14 58 -30.5t62 -33.5q31 -16 61.5 -30.5t62.5 -27.5q55 -30 100 -30q60 0 83 59q0 53 -27 85q-29 29 -47 38q-123 59 -119 107q0 27 7 40q21 70 148 70
q130 -43 130 -202q0 -118 -52 -212q-82 -148 -215 -141q-72 0 -163 42q-45 17 -98.5 43t-117.5 60q-8 3 -61 3q-40 0 -71 -25q-17 -16 -34.5 -31.5t-35.5 -31.5l163 -107v-834q0 -34 29 -60q16 -13 33.5 -24t36.5 -21q88 -33 163 -33q81 0 159 33q82 34 85 105v403
q-74 0 -132 49q-67 43 -67 125q0 84 33 134q31 52 63 78q82 49 89 49l186 -38v-757q0 -258 -409 -265zM1191 966q-85 -36 -88 -159q7 -11 16 -21.5t22 -18.5q22 -19 50 -29v228z" />
    <glyph glyph-name="H22073" horiz-adv-x="3" 
d="M-21 -601q-27 -24 -60 -34q-45 -15 -85 -15q-67 4 -119 37q-28 19 -53.5 39.5t-49.5 43.5q-47 46 -93 81q-50 36 -108 36q-103 -7 -107 -74q14 -23 67 -18q22 -5 40 -22q16 -22 16 -77q0 -46 -34 -67q-31 -31 -85 -31q-32 0 -64 20q-31 10 -50 40q-20 48 -20 77
q3 49 38 113q29 50 81 92q106 88 241 88q81 0 148 -52q73 -64 118 -105t63 -58q67 -49 137 -81q0 -15 -21 -33z" />
    <glyph glyph-name="H18543" 
d="M-21 -1241q-27 -24 -60 -34q-45 -15 -85 -15q-67 4 -119 37q-28 19 -53.5 39.5t-49.5 43.5q-47 46 -93 81q-50 36 -108 36q-103 -7 -107 -74q14 -23 67 -18q22 -5 40 -22q16 -22 16 -77q0 -46 -34 -67q-31 -31 -85 -31q-32 0 -64 20q-31 10 -50 40q-20 48 -20 77
q3 49 38 113q29 50 81 92q106 88 241 88q81 0 148 -52q73 -64 118 -105t63 -58q67 -49 137 -81q0 -15 -21 -33z" />
    <glyph glyph-name="H18551" horiz-adv-x="1996" 
d="M1986 1227v-1227l-179 -2v1123l-272 117l-272 -73q-67 -70 -160 -65q-72 0 -163 42q-45 17 -98.5 43t-117.5 60q-8 3 -61 3q-40 0 -71 -25q-17 -16 -34.5 -31.5t-35.5 -31.5l163 -107v-834q0 -34 29 -60q16 -13 33.5 -24t36.5 -21q88 -33 163 -33q81 0 159 33
q82 34 85 105v403q-74 0 -132 49q-67 43 -67 125q0 84 33 134q31 52 63 78q82 49 89 49l186 -38v-757q0 -258 -409 -265q-200 3 -322 77q-121 73 -121 188v753l-137 107q88 103 173 178t170 126q10 9 35 9q43 0 99 -27q28 -14 58 -30.5t62 -33.5q31 -16 61.5 -30.5
t62.5 -27.5q55 -30 100 -30q60 0 83 59q0 53 -27 85q-29 29 -47 38q-123 59 -119 107q0 27 7 40q21 70 148 70q130 -43 130 -202q0 -30 -3.5 -58.5t-10.5 -56.5l194 88q436 -196 436 -199zM1191 966q-85 -36 -88 -159q7 -11 16 -21.5t22 -18.5q22 -19 50 -29v228z" />
    <glyph glyph-name="H18533" horiz-adv-x="1996" 
d="M1882 1297q33 54 33 103q0 50 -22 93q-14 29 -25 52t-20 40q-21 30 -29 83q4 10 63 54h85q51 -48 67 -103q9 -47 9 -100q0 -57 -6.5 -103.5t-22.5 -92.5q-28 -85 -28 -96v-1227l-179 -2v1123l-272 117l-272 -73q-67 -70 -160 -65q-72 0 -163 42q-45 17 -98.5 43
t-117.5 60q-8 3 -61 3q-40 0 -71 -25q-17 -16 -34.5 -31.5t-35.5 -31.5l163 -107v-834q0 -34 29 -60q16 -13 33.5 -24t36.5 -21q88 -33 163 -33q81 0 159 33q82 34 85 105v403q-74 0 -132 49q-67 43 -67 125q0 84 33 134q31 52 63 78q82 49 89 49l186 -38v-757
q0 -258 -409 -265q-200 3 -322 77q-121 73 -121 188v753l-137 107q88 103 173 178t170 126q10 9 35 9q43 0 99 -27q28 -14 58 -30.5t62 -33.5q31 -16 61.5 -30.5t62.5 -27.5q55 -30 100 -30q60 0 83 59q0 53 -27 85q-29 29 -47 38q-123 59 -119 107q0 27 7 40q21 70 148 70
q130 -43 130 -202q0 -30 -3.5 -58.5t-10.5 -56.5l194 88zM1191 966q-85 -36 -88 -159q7 -11 16 -21.5t22 -18.5q22 -19 50 -29v228z" />
    <glyph glyph-name="openbullet" unicode="&#x1791;" horiz-adv-x="1289" 
d="M846 -3q-15 0 -55 6t-106 19q-63 22 -114 63q-56 38 -56 107v342q3 74 78 74q48 0 81 -34q38 -33 38 -96v-297q0 -71 36 -89q33 -18 100 -21q48 -4 108 14q47 15 51 85v393q-25 0 -51.5 3t-55.5 8q-32 5 -64 10.5t-66 12.5q-68 18 -129 51q-32 17 -65 39.5t-65 50.5
q-92 104 -92 276q2 106 35 179.5t99 125.5q121 100 298 107q190 0 315 -93q127 -96 130 -251q0 -82 -39 -152q-50 -72 -152 -85q-106 0 -176 36q-74 35 -74 112q8 28 20.5 52t28.5 44q26 38 81 38q36 0 63 -13q60 -50 82 -57q36 13 36 70q0 46 -29 96q-33 39 -123 56
q-18 2 -37.5 3t-40.5 1q-73 0 -155 -20q-77 -18 -136 -96q-56 -81 -52 -167q0 -81 21 -130q47 -83 152 -132q109 -53 201 -60q40 0 56 19q15 10 22 28q5 10 11.5 19.5t13.5 18.5q10 18 49 29q111 5 145 -32q32 -50 32 -89q0 -20 -11 -56l-95 -52v-355q0 -74 -49 -119
q-26 -20 -56 -36t-62 -28q-134 -28 -167 -28h-10z" />
    <glyph glyph-name="Amacron" 
d="M-643 -325q285 3 436 85q17 8 30 20.5t23 28.5q13 25 48 25q16 0 29 -7q42 -24 42 -78q4 -33 -20 -71q-23 -38 -67 -56q-45 -14 -100 -31t-124 -36q-69 -20 -122 -32.5t-90 -17.5q-18 0 -18 -17q0 -19 51 -47q19 -10 45 -10q22 4 41.5 6t36.5 4q115 40 188 57
q10 5 18.5 12t15.5 16q28 33 89 33q70 0 70 -47v-300q-27 -38 -77 -38q-81 19 -89 45v170q-8 14 -45 14q-29 0 -131 -36q-94 -40 -206 -45q-59 0 -123 27q-36 22 -36 92q4 78 33 156q21 74 52 78z" />
    <glyph glyph-name="amacron" 
d="M-643 -905q285 3 436 85q17 8 30 20.5t23 28.5q13 25 48 25q16 0 29 -7q42 -24 42 -78q4 -33 -20 -71q-23 -38 -67 -56q-45 -14 -100 -31t-124 -36q-69 -20 -122 -32.5t-90 -17.5q-18 0 -18 -17q0 -19 51 -47q19 -10 45 -10q22 4 41.5 6t36.5 4q115 40 188 57
q10 5 18.5 12t15.5 16q28 33 89 33q70 0 70 -47v-300q-27 -38 -77 -38q-81 19 -89 45v170q-8 14 -45 14q-29 0 -131 -36q-94 -40 -206 -45q-59 0 -123 27q-36 22 -36 92q4 78 33 156q21 74 52 78z" />
    <glyph glyph-name="Ccircumflex" horiz-adv-x="1910" 
d="M1900 1227v-1229h-174v1143l-311 137l-158 -66q28 -58 30 -130q0 -82 -39 -152q-50 -72 -152 -85q-106 0 -176 36q-74 35 -74 112q8 28 20.5 52t28.5 44q26 38 81 38q36 0 63 -13q60 -50 82 -57q36 13 36 70q0 46 -29 96q-33 39 -123 56q-18 2 -37.5 3t-40.5 1
q-73 0 -155 -20q-77 -18 -136 -96q-56 -81 -52 -167q0 -81 21 -130q47 -83 152 -132q109 -53 201 -60q40 0 56 19q15 10 22 28q5 10 11.5 19.5t13.5 18.5q10 18 49 29q111 5 145 -32q32 -50 32 -89q0 -20 -11 -56l-95 -52v-355q0 -74 -49 -119q-26 -20 -56 -36t-62 -28
q-134 -28 -167 -28h-10q-15 0 -55 6t-106 19q-63 22 -114 63q-56 38 -56 107v342q3 74 78 74q48 0 81 -34q38 -33 38 -96v-297q0 -71 36 -89q33 -18 100 -21q48 -4 108 14q47 15 51 85v393q-25 0 -51.5 3t-55.5 8q-32 5 -64 10.5t-66 12.5q-68 18 -129 51q-32 17 -65 39.5
t-65 50.5q-92 104 -92 276q2 106 35 179.5t99 125.5q121 100 298 107q190 0 315 -93q11 -8 20.5 -16.5t18.5 -17.5l284 127z" />
    <glyph glyph-name="ccircumflex" horiz-adv-x="1910" 
d="M1802 1287q33 54 33 103q0 50 -22 93q-14 29 -25 52t-20 40q-21 30 -29 83q4 10 63 54h85q51 -48 67 -103q9 -47 9 -100q0 -57 -6.5 -103.5t-22.5 -92.5q-34 -86 -34 -96v-1219h-174v1143l-311 137l-158 -66q28 -58 30 -130q0 -82 -39 -152q-50 -72 -152 -85
q-106 0 -176 36q-74 35 -74 112q8 28 20.5 52t28.5 44q26 38 81 38q36 0 63 -13q60 -50 82 -57q36 13 36 70q0 46 -29 96q-33 39 -123 56q-18 2 -37.5 3t-40.5 1q-73 0 -155 -20q-77 -18 -136 -96q-56 -81 -52 -167q0 -81 21 -130q47 -83 152 -132q109 -53 201 -60
q40 0 56 19q15 10 22 28q5 10 11.5 19.5t13.5 18.5q10 18 49 29q111 5 145 -32q32 -50 32 -89q0 -20 -11 -56l-95 -52v-355q0 -74 -49 -119q-26 -20 -56 -36t-62 -28q-134 -28 -167 -28h-10q-15 0 -55 6t-106 19q-63 22 -114 63q-56 38 -56 107v342q3 74 78 74q48 0 81 -34
q38 -33 38 -96v-297q0 -71 36 -89q33 -18 100 -21q48 -4 108 14q47 15 51 85v393q-25 0 -51.5 3t-55.5 8q-32 5 -64 10.5t-66 12.5q-68 18 -129 51q-32 17 -65 39.5t-65 50.5q-92 104 -92 276q4 202 134 305q121 100 298 107q190 0 315 -93q11 -8 20.5 -16.5t18.5 -17.5
l284 127z" />
    <glyph glyph-name="Cdot" unicode="&#x1792;" horiz-adv-x="1349" 
d="M1341 962v-965q-2 0 -53.5 -1l-154.5 -3q-21 25 -48 53.5t-59 60.5q-30 32 -57 56.5t-51 40.5q-18 -19 -45.5 -45t-65.5 -59q-37 -38 -64 -64.5t-44 -42.5q-97 2 -146 3t-53 1v1000l-123 103l333 335l253 -161l159 152l301 -167q-2 -4 -39 -44.5t-110 -121.5
q-121 63 -188.5 98t-86.5 46l-159 -137l-208 123l-110 -92l162 -98v-919l237 215l237 -233v519q-7 -3 -88 45q-33 25 -60 69q-33 45 -33 105q0 71 64 128q53 59 128 67q34 0 64 -1.5t56 -5.5q49 -10 52 -60zM1158 944q-26 -8 -47 -29q-22 -30 -30 -56q3 -114 77 -137v222z
" />
    <glyph glyph-name="cdot" 
d="M-278 -294q32 22 61.5 43.5t57.5 41.5q8 -2 16.5 -4.5t19.5 -6.5q46 0 75 -63q27 -63 27 -156q1 -1 1 -9q0 -109 -65 -213q-41 -53 -85 -53q-48 8 -88 35q-23 13 -39.5 22t-27.5 14q0 -36 -42 -85q-21 -23 -40.5 -40.5t-37.5 -30.5q-68 -39 -141 -39q-65 3 -132 36
q-32 17 -65 41t-65 55q-45 58 -45 105q0 35 41 61q37 24 93 42q32 11 65.5 21t68.5 20q37 11 74 24t74 27q67 32 117 59.5t82 52.5zM-144 -346q-15 0 -40 -33q-32 -38 -81 -78q-57 -41 -133 -71t-182 -59q-120 -34 -127 -56q53 -47 121 -56q17 -4 30.5 -5.5t22.5 -1.5
q38 3 41 16q28 18 50 40.5t39 48.5q29 56 29 81q51 -5 101.5 -8.5t102.5 -5.5q57 57 57 128q0 60 -31 60z" />
    <glyph glyph-name="Emacron" 
d="M-279 -864q32 22 61.5 43.5t57.5 41.5q8 -2 16.5 -4.5t19.5 -6.5q46 0 75 -63q27 -63 27 -156q1 -1 1 -9q0 -109 -65 -213q-41 -53 -85 -53q-46 7 -88 35q-23 13 -39.5 22t-27.5 14q0 -36 -42 -85q-21 -23 -40.5 -40.5t-37.5 -30.5q-68 -39 -141 -39q-65 3 -132 36
q-32 17 -65 41t-65 55q-45 58 -45 105q0 35 41 61q37 24 93 42q32 11 65.5 21t68.5 20q37 11 74 24t74 27q67 32 117 59.5t82 52.5zM-145 -916q-15 0 -40 -33q-32 -38 -81 -78q-57 -41 -133 -71t-182 -59q-120 -34 -127 -56q53 -47 121 -56q17 -4 30.5 -5.5t22.5 -1.5
q38 3 41 16q28 18 50 40.5t39 48.5q29 56 29 81q51 -5 101.5 -8.5t102.5 -5.5q57 57 57 128q0 60 -31 60z" />
    <glyph glyph-name="emacron" horiz-adv-x="1959" 
d="M1954 1117v-1124h-167v4h-3v1008l-433 243l-259 -174v-2h-2l-456 156l-112 -97l162 -98v-919l237 215l237 -233v519q-7 -3 -88 45q-33 25 -60 69q-33 45 -33 105q0 71 64 128q53 59 128 67q34 0 64 -1.5t56 -5.5q49 -10 52 -60v-965q-2 0 -53.5 -1l-154.5 -3
q-21 25 -48 53.5t-59 60.5q-30 32 -57 56.5t-51 40.5q-18 -19 -45.5 -45t-65.5 -59q-37 -38 -64 -64.5t-44 -42.5q-97 2 -146 3t-53 1v1000l-123 103l321 317l443 -180l287 189zM1158 944q-26 -8 -47 -29q-22 -30 -30 -56q3 -114 77 -137v222z" />
    <glyph glyph-name="Ebreve" horiz-adv-x="1959" 
d="M1848 1297q33 54 33 103q0 50 -22 93q-14 29 -25 52t-20 40q-21 30 -29 83q4 10 63 54h85q51 -48 67 -103q9 -47 9 -100q0 -57 -6.5 -103.5t-22.5 -92.5q-28 -85 -28 -96v-109l2 -1v-1124h-167v4h-3v1008l-433 243l-259 -174v-2h-2l-456 156l-112 -97l162 -98v-919
l237 215l237 -233v519q-7 -3 -88 45q-33 25 -60 69q-33 45 -33 105q0 71 64 128q53 59 128 67q34 0 64 -1.5t56 -5.5q49 -10 52 -60v-965q-2 0 -53.5 -1l-154.5 -3q-21 25 -48 53.5t-59 60.5q-30 32 -57 56.5t-51 40.5q-18 -19 -45.5 -45t-65.5 -59q-37 -38 -64 -64.5
t-44 -42.5q-97 2 -146 3t-53 1v1000l-123 103l323 323l441 -186l287 189l384 -226l2 11zM1158 944q-26 -8 -47 -29q-22 -30 -30 -56q3 -114 77 -137v222z" />
    <glyph glyph-name="ebreve" unicode="&#x1793;" horiz-adv-x="1382" 
d="M1190 548q-3 0 -60 13.5t-169 39.5q-48 14 -96.5 31t-97.5 36q-99 31 -174 81q-56 44 -77 118q-29 79 -29 170q3 185 137 289q127 100 308 109q187 -6 318 -102q129 -104 132 -258q-3 -127 -65 -201q-63 -78 -168 -78q-85 4 -149 49q-65 36 -65 127q7 103 107 106
q13 0 30.5 -3t40.5 -8q34 -13 52 -34q15 -25 40 -25q45 18 49 88q0 52 -38 105q-38 51 -138 82q-56 14 -96 14q-155 -3 -247 -123q-53 -79 -49 -163q0 -76 23 -134q29 -70 114 -110q42 -22 87.5 -39.5t99.5 -30.5q112 -23 204 -39t165 -25v-414q0 -91 -22 -134
q-28 -49 -71 -67q-76 -25 -152 -25h-14q-28 2 -58 10t-62 22q-28 14 -59 33t-65 42q-66 46 -115 84t-83 67v-258l-177 4v604q-29 32 -29 67q0 18 22 36q20 14 49 14q47 0 88 -32q41 -35 51 -109v-210q0 -28 31 -56q14 -15 31 -28t36 -24q42 -26 73.5 -42.5t54.5 -24.5
q16 -4 36 -10t46 -16q46 -25 92 -25q40 0 78 29q30 31 30 100v278z" />
    <glyph glyph-name="Edot" horiz-adv-x="3" 
d="M-56 -698q-58 -14 -110 -14q-112 0 -148 99l-349 -4q-103 10 -147 107q-9 24 -9 45q4 64 49 116q45 47 110 47h353v89h156v-89h106q100 4 108 -43q0 -32 -18 -42q-35 -11 -90 -11h-106v-119h88q70 -18 70 -129q-11 -42 -63 -52zM-466 -394q-25 2 -47 0t-42 -7
q-42 -11 -45 -60q3 -26 52 -36q22 -7 40.5 -10.5t33.5 -5.5h174l-7 119h-159z" />
    <glyph glyph-name="edot" horiz-adv-x="3" 
d="M-56 -1348q-56 -14 -110 -14q-112 0 -148 99l-349 -4q-104 11 -147 107q-9 24 -9 45q4 64 49 116q45 47 110 47h353v89h156v-89h106q100 4 108 -43q0 -32 -18 -42q-33 -11 -90 -11h-106v-119h88q70 -18 70 -129q-10 -41 -63 -52zM-466 -1044q-25 2 -47 0t-42 -7
q-42 -11 -45 -60q3 -26 52 -36q22 -7 40.5 -10.5t33.5 -5.5h174l-7 119h-159z" />
    <glyph glyph-name="Gcircumflex" horiz-adv-x="1993" 
d="M1989 1222v-1224h-174v1143l-311 137l-155 -65q31 -63 33 -138q-3 -127 -65 -201q-63 -78 -168 -78q-85 4 -149 49q-65 36 -65 127q7 103 107 106q13 0 30.5 -3t40.5 -8q34 -13 52 -34q15 -25 40 -25q45 18 49 88q0 52 -38 105q-37 50 -138 82q-58 14 -96 14
q-156 -3 -247 -123q-53 -81 -49 -163q0 -74 23 -134q28 -69 114 -110q42 -22 87.5 -39.5t99.5 -30.5q112 -23 204 -39t165 -25v-414q0 -91 -22 -134q-28 -49 -71 -67q-75 -25 -152 -25h-14q-28 2 -58 10t-62 22q-28 14 -59 33t-65 42q-66 46 -115 84t-83 67v-258l-177 4v604
q-29 32 -29 67q0 18 22 36q20 14 49 14q47 0 88 -32q40 -34 51 -109v-210q0 -28 31 -56q14 -15 31 -28t36 -24q42 -26 73.5 -42.5t54.5 -24.5q16 -4 36 -10t46 -16q46 -25 92 -25q40 0 78 29q30 31 30 100v278q-3 0 -60 13.5t-169 39.5q-48 14 -96.5 31t-97.5 36
q-99 31 -174 81q-56 44 -77 118q-29 81 -29 170q3 185 137 289q127 100 308 109q187 -6 318 -102q10 -8 19.5 -16.5t17.5 -16.5l282 126q420 -201 420 -204z" />
    <glyph glyph-name="gcircumflex" horiz-adv-x="1993" 
d="M1891 1287q33 54 33 103q0 50 -22 93q-14 29 -25 52t-20 40q-22 31 -29 83q4 10 63 54h85q51 -48 67 -103q9 -47 9 -100q0 -57 -6.5 -103.5t-22.5 -92.5q-34 -87 -34 -96v-1219h-174v1143l-311 137l-155 -65q31 -63 33 -138q-3 -127 -65 -201q-63 -78 -168 -78
q-85 4 -149 49q-65 36 -65 127q7 103 107 106q13 0 30.5 -3t40.5 -8q34 -13 52 -34q15 -25 40 -25q45 18 49 88q0 52 -38 105q-38 51 -138 82q-56 14 -96 14q-155 -3 -247 -123q-53 -79 -49 -163q0 -76 23 -134q29 -70 114 -110q42 -22 87.5 -39.5t99.5 -30.5
q112 -23 204 -39t165 -25v-414q0 -91 -22 -134q-28 -49 -71 -67q-76 -25 -152 -25h-14q-28 2 -58 10t-62 22q-28 14 -59 33t-65 42q-66 46 -115 84t-83 67v-258l-177 4v604q-29 32 -29 67q0 18 22 36q20 14 49 14q47 0 88 -32q41 -35 51 -109v-210q0 -28 31 -56
q14 -15 31 -28t36 -24q42 -26 73.5 -42.5t54.5 -24.5q16 -4 36 -10t46 -16q46 -25 92 -25q40 0 78 29q30 31 30 100v278q-3 0 -60 13.5t-169 39.5q-48 14 -96.5 31t-97.5 36q-99 31 -174 81q-56 44 -77 118q-29 79 -29 170q3 185 137 289q127 100 308 109q187 -6 318 -102
q10 -8 19.5 -16.5t17.5 -16.5l282 126z" />
    <glyph glyph-name="Gdot" unicode="&#x1794;" horiz-adv-x="1389" 
d="M1037 1086l222 340l230 -156l-100 -170l-197 123l-47 -63l219 -141v-757q0 -258 -409 -265q-200 3 -322 77q-121 73 -121 188v720l-134 104l223 340l233 -156l-112 -170l-188 116l-49 -64l208 -144v-789q0 -34 29 -60q39 -29 67 -45q79 -40 159 -40t156 40q76 34 81 105
v763z" />
    <glyph glyph-name="gdot" horiz-adv-x="667" 
d="M-130 -293q43 67 96 70q132 7 166 -105q0 -54 -27 -121q-31 -62 -91 -79l17 72q16 31 16 58q0 31 -34 34v-233l255 195l233 -184h3v1601l-155 96l205 315l208 -143l-89 -156l-193 114l-40 -52l210 -129v-1770q-51 -14 -78 -14q-36 0 -78 18l-226 194l-244 -188
q-48 -17 -67 -17q-14 2 -36 6t-51 11v407z" />
    <glyph glyph-name="Gcedilla" horiz-adv-x="667" 
d="M-130 -973q43 67 96 70q132 7 166 -105q0 -54 -27 -121q-32 -63 -91 -79l27 72q6 36 6 58q0 31 -34 34v-233l255 195l233 -184h3v2281l-155 96l205 315l208 -143l-89 -156l-193 114l-40 -52l210 -129v-2450q-50 -14 -78 -14q-36 0 -78 18l-226 194l-244 -188
q-46 -17 -67 -17q-14 2 -36 6t-51 11v407z" />
    <glyph glyph-name="gcedilla" horiz-adv-x="1995" 
d="M1989 1177v-1179h-174v1063l-431 187l-242 -198l-525 177l-71 -75l131 -85v-852q0 -63 70 -96q67 -35 141 -45q109 0 192 53q82 46 85 92v637q0 38 20 67q18 29 82 29q74 0 74 -89v-996q0 -32 -20 -37q-9 -4 -21 -7t-26 -7q-105 4 -123 51v218q-22 -20 -51.5 -37.5
t-66.5 -33.5q-37 -14 -80 -22t-92 -10q-159 10 -255 81q-107 71 -107 226v715l-123 74l342 340l454 -195l237 203z" />
    <glyph glyph-name="Hcircumflex" horiz-adv-x="1270" 
d="M660 1010v-1720q-29 -7 -51 -10.5t-37 -3.5q-36 0 -78 18l-226 194l-244 -188q-48 -17 -67 -17q-14 2 -38.5 3.5t-58.5 3.5v417q54 67 106 70q132 7 166 -105q0 -54 -27 -121q-31 -61 -92 -83v-65l255 195l233 -184h3v1569l-170 166l459 277l486 -309v-1124h-157v4h-3
v1022l-443 269l-180 -117zM13 -500q4 21 18 44q16 31 16 58q0 31 -34 34v-136z" />
    <glyph glyph-name="hcircumflex" horiz-adv-x="1270" 
d="M660 1010v-2390q-29 -7 -51 -10.5t-37 -3.5q-36 0 -78 18l-226 194l-244 -188q-48 -17 -67 -17q-14 2 -38.5 3.5t-58.5 3.5v417q54 67 106 70q132 7 166 -105q0 -54 -27 -121q-31 -61 -92 -83v-65l255 195l233 -184h3v2239l-170 166l459 277l486 -309v-1124h-157v4h-3
v1022l-443 269l-180 -117zM13 -1170q4 21 18 44q16 31 16 58q0 31 -34 34v-136z" />
    <glyph glyph-name="Hbar" horiz-adv-x="1995" 
d="M1891 1227q33 114 33 163q0 50 -22 93q-14 29 -25 52t-20 40q-21 30 -29 83q4 10 63 54h85q51 -48 67 -103q9 -47 9 -100q-1 -57 -8 -105.5t-21 -90.5q-34 -86 -34 -96v-1219h-174v1063l-431 187l-242 -198l-525 177l-71 -75l131 -85v-852q0 -63 70 -96q67 -35 141 -45
q109 0 192 53q82 46 85 92v637q0 38 20 67q18 29 82 29q74 0 74 -89v-996q0 -32 -20 -37q-9 -4 -21 -7t-26 -7q-105 4 -123 51v218q-22 -20 -51.5 -37.5t-66.5 -33.5q-37 -14 -80 -22t-92 -10q-159 10 -255 81q-107 71 -107 226v715l-123 74l342 340l454 -195l237 203z" />
    <glyph glyph-name="hbar" horiz-adv-x="1280" 
d="M650 1010v-1720q-51 -14 -78 -14q-36 0 -78 18l-226 194l-244 -188q-48 -17 -67 -17q-14 2 -36 6t-51 11v407q43 67 96 70q132 7 166 -105q0 -54 -27 -121q-31 -61 -92 -83v-65l255 195l233 -184h3v1569l-170 166l459 277l345 -220l1 5l34 86q33 54 33 103q0 50 -22 93
q-14 29 -25 52t-20 40q-21 30 -29 83q4 10 63 54h85q51 -48 67 -103q9 -47 9 -100q-1 -57 -8 -105.5t-21 -90.5q-28 -85 -28 -96v-109l2 -1v-1124h-157v4h-3v1022l-443 269l-180 -117l157 -157zM13 -500q4 21 18 44q16 31 16 58q0 31 -34 34v-136z" />
    <glyph glyph-name="Itilde" horiz-adv-x="1280" 
d="M650 1010v-2380q-51 -14 -78 -14q-36 0 -78 18l-226 194l-244 -188q-48 -17 -67 -17q-14 2 -36 6t-51 11v407q43 67 96 70q132 7 166 -105q0 -54 -27 -121q-31 -61 -92 -83v-65l255 195l233 -184h3v2229l-170 166l459 277l345 -220l1 5l34 86q33 54 33 103q0 50 -22 93
q-14 29 -25 52t-20 40q-21 30 -29 83q4 10 63 54h85q51 -48 67 -103q9 -47 9 -100q-1 -57 -8 -105.5t-21 -90.5q-28 -85 -28 -96v-109l2 -1v-1124h-157v4h-3v1022l-443 269l-180 -117l157 -157zM13 -1160q4 21 18 44q16 31 16 58q0 31 -34 34v-136z" />
    <glyph glyph-name="itilde" unicode="&#x1795;" horiz-adv-x="1359" 
d="M1062 671q-60 43 -60 125q0 93 34 148q29 55 62 75q83 41 90 38l163 -38v-1019h-190l-244 241l-226 -241h-192v1015l-137 107q88 103 173 178t170 126q19 9 35 9q43 0 99 -24q57 -23 110 -60q64 -32 120 -57q58 -31 103 -31q56 0 89 52q0 49 -15 82q-22 38 -58 49
q-73 18 -112 47q-36 27 -36 88q7 38 36 67q28 31 78 31q32 0 70 -20q134 -44 134 -206q-3 -106 -56 -212q-35 -70 -99 -89q-60 -18 -134 -18q-141 0 -367 132h-64q-36 0 -65 -29q-34 -28 -70 -70l162 -114l4 -939l255 261l264 -261v508q-74 0 -126 49zM1188 966
q-74 -36 -74 -159q18 -51 74 -69v228z" />
    <glyph glyph-name="Imacron" 
d="M-647 -589l240 246l237 -230l-3 156q-53 0 -85 29q-42 21 -42 66q0 33 15 75q11 18 152 47q26 0 67 -11q30 -15 52 -58v-434h-166l-227 222l-211 -215h-188v456l162 3z" />
    <glyph glyph-name="imacron" 
d="M-647 -1249l240 246l237 -230l-3 156q-53 0 -85 29q-42 21 -42 66q0 33 15 75q11 18 152 47q28 0 67 -11q30 -15 52 -58v-434h-166l-227 222l-211 -215h-188v456l162 3z" />
    <glyph glyph-name="Ibreve" horiz-adv-x="2001" 
d="M2000 1237v-1237l-173 -2v1123l-272 137l-301 -81q-11 -8 -23 -14.5t-26 -10.5q-60 -18 -134 -18q-141 0 -367 132h-64q-36 0 -65 -29q-34 -28 -70 -70l166 -114v-939l255 261l264 -261v508q-74 0 -126 49q-60 43 -60 125q0 93 34 148q28 55 62 75q83 41 90 38l163 -38
v-1019h-190l-244 241l-226 -241h-192v1015l-137 107q88 103 173 178t170 126q19 9 35 9q43 0 99 -24q58 -23 110 -60q64 -32 120 -57q58 -31 103 -31q56 0 89 52q0 49 -15 82q-23 39 -58 49q-72 18 -112 47q-36 27 -36 88q8 39 36 67q28 31 78 31q32 0 70 -20
q134 -44 134 -206q-2 -71 -24 -137l13 20l221 90zM1190 966q-74 -36 -74 -159q18 -51 74 -69v228z" />
    <glyph glyph-name="ibreve" horiz-adv-x="2001" 
d="M1896 1297q33 54 33 103q0 50 -22 93q-14 29 -25 52t-20 40q-21 30 -29 83q4 10 63 54h85q51 -48 67 -103q9 -47 9 -100q0 -57 -6.5 -103.5t-22.5 -92.5q-28 -85 -28 -96v-1227l-173 -2v1123l-272 137l-301 -81q-11 -8 -23 -14.5t-26 -10.5q-60 -18 -134 -18
q-141 0 -367 132h-64q-36 0 -65 -29q-34 -28 -70 -70l166 -114v-939l255 261l264 -261v508q-74 0 -126 49q-60 43 -60 125q0 93 34 148q28 55 62 75q83 41 90 38l163 -38v-1019h-190l-244 241l-226 -241h-192v1015l-137 107q88 103 173 178t170 126q19 9 35 9q43 0 99 -24
q58 -23 110 -60q64 -32 120 -57q58 -31 103 -31q56 0 89 52q0 49 -15 82q-23 39 -58 49q-72 18 -112 47q-36 27 -36 88q8 39 36 67q28 31 78 31q32 0 70 -20q134 -44 134 -206q-2 -71 -24 -137l13 20l221 90zM1190 966q-74 -36 -74 -159q18 -51 74 -69v228z" />
    <glyph glyph-name="Iogonek" unicode="&#x1796;" horiz-adv-x="1374" 
d="M675 427q78 0 130 -49q50 -53 54 -137q0 -78 -25 -127q-28 -45 -64 -72q-92 -45 -95 -45l-174 3v993q-5 52 -56 89q-56 36 -60 36l326 308l211 -167l167 167l268 -210v-1219h-170v1103l-205 141l-159 -145l-208 145l-89 -74q2 -2 20.5 -13.5t53.5 -31.5q70 -43 75 -107
v-588zM675 71q70 36 70 159q-13 52 -70 70v-229z" />
    <glyph glyph-name="iogonek" 
d="M-35 -771h-172v325q0 20 -33 35q-38 18 -56 21q-27 0 -74 -29q-41 -29 -63 -34q-9 2 -27 11.5t-45 26.5q-60 33 -91 33q-12 -2 -28.5 -8l-38.5 -14q-47 -18 -51 -42v-117q4 3 67 -15q64 -19 67 -85q0 -44 -38 -70q-37 -28 -74 -38q-30 -8 -52 -8q-47 4 -93 15
q-47 11 -50 31v340q3 23 25 45q11 10 26 20.5t34 22.5q37 23 71 39t65 25q66 0 141 -33q70 -38 108 -63q16 16 38 31.5t51 31.5q55 33 117 33q29 -14 58 -33.5t58 -44.5q60 -53 60 -74v-378zM-710 -712q11 0 44 11q22 10 30 26q0 23 -27 38q-11 5 -22.5 10.5t-24.5 10.5v-96
z" />
    <glyph glyph-name="Jcircumflex" 
d="M-35 -1381h-172v325q0 20 -33 35q-38 18 -56 21q-27 0 -74 -29q-41 -29 -63 -34q-9 2 -27 11.5t-45 26.5q-60 33 -91 33q-12 -2 -28.5 -8l-38.5 -14q-47 -18 -51 -42v-117q4 3 67 -15q64 -19 67 -85q0 -44 -38 -70q-37 -28 -74 -38q-30 -8 -52 -8q-47 4 -93 15
q-47 11 -50 31v340q3 23 25 45q11 10 26 20.5t34 22.5q37 23 71 39t65 25q66 0 141 -33q70 -38 108 -63q16 16 38 31.5t51 31.5q55 33 117 33q29 -14 58 -33.5t58 -44.5q60 -53 60 -74v-378zM-710 -1322q11 0 44 11q22 10 30 26q0 23 -27 38q-11 5 -22.5 10.5t-24.5 10.5
v-96z" />
    <glyph glyph-name="jcircumflex" horiz-adv-x="1977" 
d="M1966 1227v-1229h-170v1113l-281 127l-159 -62v-1179h-172v1103l-195 141l-156 -145l-212 145l-85 -74q4 -5 75 -45q65 -43 70 -107v-588q83 0 141 -49q58 -52 58 -137q0 -78 -25 -127q-28 -45 -64 -72q-92 -45 -95 -45l-189 3v993q-3 51 -56 89q-56 36 -59 36l329 308
l212 -167l162 167l189 -152l246 152q436 -196 436 -199zM681 71q80 36 85 159q-18 52 -85 70v-229z" />
    <glyph glyph-name="Kcedilla" horiz-adv-x="1977" 
d="M1862 1297q33 54 33 103q0 50 -22 93q-14 29 -25 52t-20 40q-21 30 -29 83q4 10 63 54h85q51 -48 67 -103q9 -47 9 -100q0 -57 -6.5 -103.5t-22.5 -92.5q-28 -85 -28 -96v-1229h-170v1113l-281 127l-159 -62v-1179h-172v1103l-195 141l-156 -145l-212 145l-85 -74
q4 -5 75 -45q65 -43 70 -107v-588q83 0 141 -49q58 -52 58 -137q0 -78 -25 -127q-28 -45 -64 -72q-92 -45 -95 -45l-189 3v993q-3 51 -56 89q-56 36 -59 36l329 308l212 -167l162 167l189 -152l246 152zM681 71q80 36 85 159q-18 52 -85 70v-229z" />
    <glyph glyph-name="kcedilla" unicode="&#x1797;" horiz-adv-x="1369" 
d="M388 1096l326 326l255 -159l159 163q141 -78 212.5 -120.5t84.5 -49.5q-2 -2 -13 -17t-31 -43q-52 -61 -94 -96q-32 21 -97 57t-162 88l-173 -156l-237 148l-64 -59l131 -82l-127 -121zM435 237q0 -128 70 -156v227q-54 -19 -70 -71zM373 60q-52 52 -52 191
q28 163 184 171v349q5 252 431 262q418 -7 422 -262v-771h-170v816q0 40 -22 65t-63 38q-83 33 -167 33q-74 0 -159 -33q-92 -35 -96 -103v-812l-190 -4q-75 0 -118 60z" />
    <glyph glyph-name="kgreenlandic" 
d="M-795 -812q-43 -31 -116 -31q-75 8 -128 71q-56 63 -60 166q8 36 29 49q20 11 49 11q56 0 56 -29q-27 -24 -27 -56q3 -55 23 -60q29 47 26 56v122q0 104 106 204q110 98 322 103q172 0 312 -78q141 -81 144 -237v-255q1 -1 1 -2q0 -16 -107 -61q-64 3 -78 38l-11 29v297
q0 70 -89 103q-78 34 -162 34q-92 0 -161 -34q-86 -33 -89 -107v-268q0 -43 -40 -65z" />
    <glyph glyph-name="Lcedilla" 
d="M-795 -1392q-43 -31 -116 -31q-75 8 -128 71q-56 63 -60 166q8 36 29 49q20 11 49 11q56 0 56 -29q-27 -24 -27 -56q3 -55 23 -60q29 47 26 56v122q0 104 106 204q110 98 322 103q172 0 312 -78q141 -81 144 -237v-255q1 -1 1 -2q0 -16 -107 -61q-64 3 -78 38l-11 29v297
q0 70 -89 103q-78 34 -162 34q-92 0 -161 -34q-86 -33 -89 -107v-268q0 -43 -40 -65z" />
    <glyph glyph-name="lcedilla" horiz-adv-x="1975" 
d="M395 1104l318 318l438 -185l287 189l526 -309v-1124h-167v4h-3v1008l-433 243l-259 -174v-2h-2l-482 165l-64 -59l127 -100l-123 -103zM491 0q-75 0 -118 60q-52 52 -52 191q28 163 184 171v349q5 252 431 262q418 -7 422 -262v-771h-170v816q0 40 -22 65t-63 38
q-83 33 -167 33q-74 0 -159 -33q-92 -35 -96 -103v-812zM505 308q-54 -19 -70 -71q0 -128 70 -156v227z" />
    <glyph glyph-name="Ncedilla" horiz-adv-x="1971" 
d="M395 1104l318 318l438 -185l287 189l384 -226l36 97q33 54 33 103q0 50 -22 93q-14 29 -25 52t-20 40q-21 30 -29 83q4 10 63 54h85q51 -48 67 -103q9 -47 9 -100q0 -57 -6.5 -103.5t-22.5 -92.5q-28 -85 -28 -96l2 -109v-1125h-167v4h-3v1008l-433 243l-259 -174v-2h-2
l-482 165l-64 -59l127 -100l-123 -103zM491 0q-75 0 -118 60q-52 52 -52 191q28 163 184 171v349q5 252 431 262q418 -7 422 -262v-771h-170v816q0 40 -22 65t-63 38q-83 33 -167 33q-74 0 -159 -33q-92 -35 -96 -103v-812zM505 308q-54 -19 -70 -71q0 -128 70 -156v227z
" />
    <glyph glyph-name="ncedilla" unicode="&#x1798;" horiz-adv-x="1389" 
d="M1192 979l-155 107l222 340l230 -147l-100 -179l-204 123l-40 -56l219 -148v-757q0 -99 -101 -177q-100 -81 -308 -88q-200 3 -322 77q-121 73 -121 188v720l-134 104l223 340l233 -156l-112 -170l-203 130l-41 -63l208 -159v-330h506v301zM686 219q0 -34 29 -63
q15 -13 32.5 -25.5t37.5 -23.5q81 -40 163 -40q83 0 159 43q82 42 85 113v351h-506v-355z" />
    <glyph glyph-name="Eng" horiz-adv-x="3" 
d="M-745 -300q53 14 82 14q65 0 115 -29q25 -17 48 -37.5t45 -45.5q23 -20 44.5 -38t43.5 -34q47 -35 93 -38q34 0 37 14q4 7 4 38q0 20 1.5 42t5.5 47q2 22 8.5 44t17.5 45q43 57 92 57q4 0 5 -1q71 0 75 -64q-57 -58 -60 -152q55 -1 82.5 -40t27.5 -130q-11 -32 -50 -59
q-47 -38 -105 -42q-38 0 -78 34q-26 23 -22 85q-77 -44 -159 -49q-73 0 -134 49q-67 63 -109.5 100.5t-60.5 51.5q-34 23 -64.5 41.5t-58.5 32.5q4 19 27 37q18 16 47 27zM-88 -611q32 3 32 29q0 53 -32 48v-77z" />
    <glyph glyph-name="eng" 
d="M-744 -960q53 14 82 14q65 0 115 -29q25 -17 48 -37.5t45 -45.5q23 -20 44.5 -38t43.5 -34q47 -35 93 -38q34 0 37 14q4 7 4 38q0 20 1.5 42t5.5 47q2 22 8.5 44t17.5 45q43 57 92 57q4 0 5 -1q71 0 75 -64q-57 -58 -60 -152q110 -2 110 -151v-19q-11 -32 -50 -59
q-47 -38 -105 -42q-38 0 -78 34q-26 23 -22 85q-77 -44 -159 -49q-73 0 -134 49q-67 63 -109.5 100.5t-60.5 51.5q-34 23 -64.5 41.5t-58.5 32.5q4 19 27 37q18 16 47 27zM-87 -1271q32 3 32 29q0 53 -32 48v-77z" />
    <glyph glyph-name="Omacron" horiz-adv-x="1993" 
d="M1364 262q0 -99 -101 -177q-100 -81 -308 -88q-200 3 -322 77q-121 73 -121 188v720l-134 104l223 340l233 -156l-112 -170l-203 130l-41 -63l208 -159v-330h506v301h1l-171 170l459 277l506 -309v-1124h-177v4h-3v1009l-443 282l-181 -105l181 -164v-757zM686 219
q0 -34 29 -63q15 -13 32.5 -25.5t37.5 -23.5q81 -40 163 -40q83 0 159 43q82 42 85 113v351h-506v-355z" />
    <glyph glyph-name="omacron" horiz-adv-x="1993" 
d="M1364 262q0 -99 -101 -177q-100 -81 -308 -88q-200 3 -322 77q-121 73 -121 188v720l-134 104l223 340l233 -156l-112 -170l-203 130l-41 -63l208 -159v-330h506v301h1l-171 170l459 277l364 -223l2 8l34 86q33 54 33 103q0 50 -22 93q-14 29 -25 52t-20 40
q-21 30 -29 83q4 10 63 54h85q51 -48 67 -103q9 -47 9 -100q0 -57 -6.5 -103.5t-22.5 -92.5q-28 -85 -28 -96v-109l2 -1v-1124h-177v4h-3v1009l-443 282l-181 -105l181 -164v-757zM686 219q0 -34 29 -63q15 -13 32.5 -25.5t37.5 -23.5q81 -40 163 -40q83 0 159 43
q82 42 85 113v351h-506v-355z" />
    <glyph glyph-name="Obreve" unicode="&#x1799;" horiz-adv-x="1952" 
d="M512 1379l185 59h1q8 0 94 -45q17 -13 33.5 -31t30.5 -43q25 -49 25 -134q-4 -77 -54 -118q-53 -48 -130 -48v-778q0 -71 70 -111q58 -49 141 -49q79 8 149 42q74 33 77 103v708l-175 119l253 389l226 -168l-108 -170l-196 119l-45 -63l223 -156v-778q0 -25 25 -49
q10 -13 23 -24.5t29 -22.5q38 -22 75 -35.5t74 -20.5q214 4 222 141v729l-166 109l244 385l226 -164l-108 -170l-196 119l-34 -63l212 -156v-753q0 -111 -93 -184q-98 -74 -296 -77q-230 3 -330 91q-30 -19 -60.5 -33.5t-62.5 -25.5q-56 -22 -173 -25q-411 3 -411 285v1097z
M767 1205q0 115 -70 152v-226q56 18 70 74z" />
    <glyph glyph-name="obreve" horiz-adv-x="660" 
d="M570 -716q-70 -67 -255 -85q-152 0 -266 50q-108 52 -123 179v308q5 30 26 40q35 11 48 7q81 -11 81 -29v-371q4 -88 85 -107q67 -19 142 -19q72 0 130 34q53 31 58 96v1624l-149 93l205 314l215 -139l-96 -161l-193 123l-40 -56l207 -136l2 -1595q-11 -112 -77 -170z
" />
    <glyph glyph-name="Rcedilla" horiz-adv-x="660" 
d="M570 -1316q-70 -67 -255 -85q-152 0 -266 50q-108 52 -123 179v308q5 30 26 40q35 11 48 7q81 -11 81 -29v-371q4 -88 85 -107q67 -19 142 -19q72 0 130 34q53 31 58 96v2224l-149 93l205 314l215 -139l-96 -161l-193 123l-40 -56l207 -136l2 -2195q-11 -112 -77 -170z
" />
    <glyph glyph-name="rcedilla" horiz-adv-x="2573" 
d="M1938 1013v-762q0 -111 -93 -184q-98 -74 -296 -77q-230 3 -330 91q-30 -19 -60.5 -33.5t-62.5 -25.5q-56 -22 -173 -25q-411 3 -411 285v1097l185 59h1q8 0 94 -45q17 -13 33.5 -31t30.5 -43q25 -49 25 -134q-4 -77 -54 -118q-53 -48 -130 -48v-778q0 -71 70 -111
q58 -49 141 -49q79 8 149 42q74 33 77 103v708l-175 119l253 389l226 -168l-108 -170l-196 119l-45 -63l223 -156v-778q0 -25 25 -49q10 -13 23 -24.5t29 -22.5q38 -22 75 -35.5t74 -20.5q214 4 222 141v761l-138 173l459 277l486 -309v-1124h-157v4h-3v1022l-443 269
l-180 -117zM697 1131q56 18 70 74q0 115 -70 152v-226z" />
    <glyph glyph-name="Scircumflex" horiz-adv-x="1283" 
d="M645 1012l2 -1558q-11 -112 -77 -170q-70 -67 -255 -85q-152 0 -266 50q-108 52 -123 179v308q5 30 26 40q35 11 48 7q81 -11 81 -29v-371q4 -88 85 -107q67 -19 142 -19q72 0 130 34q53 31 58 96v1602l-164 160l459 277l486 -309v-1124h-157v4h-3v1022l-443 269
l-180 -117z" />
    <glyph glyph-name="scircumflex" horiz-adv-x="1283" 
d="M645 1012l2 -2168q-11 -112 -77 -170q-70 -67 -255 -85q-152 0 -266 50q-108 52 -123 179v308q5 30 26 40q35 11 48 7q81 -11 81 -29v-371q4 -88 85 -107q67 -19 142 -19q72 0 130 34q53 31 58 96v2212l-164 160l459 277l486 -309v-1124h-157v4h-3v1022l-443 269
l-180 -117z" />
    <glyph glyph-name="Tbar" horiz-adv-x="2573" 
d="M1938 1013v-762q0 -111 -93 -184q-98 -74 -296 -77q-230 3 -330 91q-60 -37 -123 -59q-57 -22 -173 -25q-411 3 -411 285v1097l185 59q3 5 95 -45q17 -13 33.5 -31t30.5 -43q25 -49 25 -134q-5 -78 -54 -118q-53 -48 -130 -48v-778q0 -71 70 -111q58 -49 141 -49
q78 7 149 42q74 33 77 103v708l-175 119l253 389l226 -168l-108 -170l-196 119l-45 -63l223 -156v-778q0 -25 25 -49q10 -13 23 -24.5t29 -22.5q76 -43 149 -56q214 4 222 141v761l-138 173l459 277l345 -220l1 5l34 86q33 54 33 103q0 50 -22 93q-14 29 -25 52t-20 40
q-22 31 -29 83q4 10 63 54h85q51 -48 67 -103q9 -47 9 -100q0 -57 -6.5 -103.5t-22.5 -92.5q-28 -87 -28 -96v-109l2 -1v-1124h-157v4h-3v1022l-443 269l-180 -117l157 -157zM697 1131q56 18 70 74q0 115 -70 152v-226z" />
    <glyph glyph-name="tbar" horiz-adv-x="1283" 
d="M645 1012l2 -1558q-11 -112 -77 -170q-70 -67 -255 -85q-152 0 -266 50q-108 52 -123 179v308q5 30 26 40q35 11 48 7q81 -11 81 -29v-371q4 -88 85 -107q67 -19 142 -19q72 0 130 34q53 31 58 96v1602l-164 160l459 277l345 -220l1 5l34 86q33 54 33 103q0 50 -22 93
q-14 29 -25 52t-20 40q-21 30 -29 83q4 10 63 54h85q51 -48 67 -103q9 -47 9 -100q0 -57 -6.5 -103.5t-22.5 -92.5q-28 -85 -28 -96v-109l2 -1v-1124h-157v4h-3v1022l-443 269l-180 -117z" />
    <glyph glyph-name="Utilde" horiz-adv-x="1283" 
d="M645 1012l2 -2158q-11 -112 -77 -170q-70 -67 -255 -85q-152 0 -266 50q-108 52 -123 179v308q5 30 26 40q35 11 48 7q81 -11 81 -29v-371q4 -88 85 -107q67 -19 142 -19q72 0 130 34q53 31 58 96v2202l-164 160l459 277l345 -220l35 91q33 54 33 103q0 50 -22 93
q-14 29 -25 52t-20 40q-21 30 -29 83q4 10 63 54h85q51 -48 67 -103q9 -47 9 -100q0 -57 -6.5 -103.5t-22.5 -92.5q-28 -85 -28 -96v-109l2 -1v-1124h-157v4h-3v1022l-443 269l-180 -117z" />
    <glyph glyph-name="utilde" unicode="&#x179a;" horiz-adv-x="714" 
d="M704 -3l-178 3q-7 0 -88 45q-93 46 -98 203q0 80 60 127q52 43 126 43v564l-148 104l223 340l233 -156l-112 -170l-196 123l-41 -63l219 -152v-1011zM456 233q0 -127 70 -155v226q-56 -18 -70 -71z" />
    <glyph glyph-name="Umacron" horiz-adv-x="707" 
d="M378 1086l223 340l233 -156l-112 -170l-203 130l-49 -63l205 -159v-1576q0 -33 25 -58q18 -27 49 -45q67 -36 136 -36q73 0 159 18q82 22 87 117v255q0 15 81 33q29 3 54 -7q31 -10 31 -37v-206q-3 -189 -137 -218q-52 -19 -134 -22q-39 -2 -78 -3.5t-78 -3.5
q-194 3 -277 81q-86 78 -81 195v1487z" />
    <glyph glyph-name="umacron" horiz-adv-x="707" 
d="M378 1086l223 340l233 -156l-112 -170l-203 130l-49 -63l205 -159v-2196q0 -33 25 -58q18 -27 49 -45q67 -36 136 -36q73 0 159 18q82 22 87 117v265q0 15 81 33q29 3 54 -7q31 -10 31 -37v-216q-3 -189 -137 -218q-54 -19 -134 -22q-39 -2 -78 -3.5t-78 -3.5
q-195 3 -277 81q-86 78 -81 195v2107z" />
    <glyph glyph-name="Ubreve" horiz-adv-x="1303" 
d="M1296 1117v-1124h-157v4h-3v1022l-443 269l-160 -107l169 -168v-1016l-178 3q-7 0 -88 45q-93 46 -98 203q0 80 60 127q52 43 126 43v564l-173 167l459 277zM524 304q-56 -18 -70 -71q0 -127 70 -155v226z" />
    <glyph glyph-name="ubreve" horiz-adv-x="1303" 
d="M1190 1297q33 54 33 103q0 50 -22 93q-14 29 -25 52t-20 40q-21 30 -29 83q4 10 63 54h85q51 -48 67 -103q9 -47 9 -100q0 -57 -6.5 -103.5t-22.5 -92.5q-28 -85 -28 -96v-109l2 -1v-1124h-157v4h-3v1022l-443 269l-160 -107l169 -168v-1016l-178 3q-7 0 -88 45
q-93 46 -98 203q0 80 60 127q52 43 126 43v564l-173 167l459 277l345 -220zM524 304q-56 -18 -70 -71q0 -127 70 -155v226z" />
    <glyph glyph-name="Uogonek" unicode="&#x179b;" horiz-adv-x="2029" 
d="M827 393q49 -38 54 -114q0 -85 -25 -134q-29 -53 -64 -85q-92 -60 -95 -56l-185 -4v1163q0 245 411 248q208 0 325 -63q120 -65 123 -177v-941q0 -33 29 -60q21 -24 64 -47q81 -42 155 -42q78 0 152 42q74 33 78 103v764l-152 103l223 342l237 -156l-109 -168l-206 130
l-45 -63l229 -167v-749q0 -229 -396 -265q-229 3 -333 77q-101 71 -119 188v916q0 42 -22 67q-23 28 -63 45q-79 40 -163 40q-78 0 -156 -36q-81 -42 -85 -109v-758q83 0 138 -34zM689 81q74 47 78 178q-22 49 -78 52v-230z" />
    <glyph glyph-name="uogonek" 
d="M13 -339q0 -40 -10 -67q-23 -89 -63 -138q0 -18 -60 -70q-59 -60 -114 -63q-12 0 -22 7q0 36 -38 92q-20 29 -36 54t-29 47q-25 44 -293 40q-24 0 -67 -18q-49 -22 -70 -45q31 -36 63 -36q22 0 51 21q11 8 14 8q27 0 45 -37q18 -38 18 -77q-8 -35 -39 -71
q-44 -38 -109 -41q-25 0 -58 12q-90 62 -97 131q-2 15 -2.5 28t-1.5 24v12q0 8 0.5 17t1.5 19q2 16 5.5 29.5t8.5 25.5q4 11 9 22l10 22q10 21 39 66q78 93 197 111q20 2 39 3t36 1q76 0 127 -18q73 -25 124 -97q45 -68 99 -162q14 8 26 19.5t20 27.5q7 15 13.5 30.5
t11.5 32.5q24 73 63 96l74 -4q14 -26 14 -54z" />
    <glyph glyph-name="Wcircumflex" 
d="M14 -989q0 -41 -10 -67q-23 -89 -63 -138q0 -18 -60 -70q-59 -60 -114 -63q-12 0 -22 7q0 36 -38 92q-20 29 -36 54t-29 47q-26 44 -293 40q-24 0 -67 -18q-49 -22 -70 -45q31 -36 63 -36q22 0 51 21q11 8 14 8q27 0 45 -37q18 -38 18 -77q-8 -35 -39 -71
q-44 -38 -109 -41q-25 0 -58 12q-89 61 -97 131q-2 20 -3 36.5t-1 30.5q0 10 0.5 18t1.5 15q2 16 5.5 29.5t8.5 25.5q4 11 9 22l10 22q10 21 39 66q78 93 197 111q20 2 39 3t36 1q76 0 127 -18q73 -25 124 -97q45 -68 99 -162q14 8 26 19.5t20 27.5q7 15 13.5 30.5
t11.5 32.5q24 73 63 96l74 -4q14 -26 14 -54z" />
    <glyph glyph-name="wcircumflex" horiz-adv-x="2652" 
d="M2651 1117v-1124h-177v4h-3v1009l-443 282l-180 -117l178 -160v-749q0 -229 -396 -265q-229 3 -333 77q-101 71 -119 188v916q0 42 -22 67q-23 28 -63 45q-79 40 -163 40q-78 0 -156 -36q-81 -42 -85 -109v-758q83 0 138 -34q49 -38 54 -114q0 -85 -25 -134
q-29 -53 -64 -85q-92 -60 -95 -56l-185 -4v1163q0 245 411 248q208 0 325 -63q120 -65 123 -177v-941q0 -33 29 -60q21 -24 64 -47q81 -42 155 -42q78 0 152 42q74 33 78 103v764l-163 159l459 277zM689 81q74 47 78 178q-22 49 -78 52v-230z" />
    <glyph glyph-name="Ycircumflex" horiz-adv-x="2652" 
d="M2545 1297q33 54 33 103q0 50 -22 93q-14 29 -25 52t-20 40q-21 30 -29 83q4 10 63 54h85q51 -48 67 -103q9 -47 9 -100q0 -57 -6.5 -103.5t-22.5 -92.5q-28 -85 -28 -96l3 -109l-1 -1125h-177v4h-3v1009l-443 282l-180 -117l178 -160v-749q0 -229 -396 -265
q-229 3 -333 77q-101 71 -119 188v916q0 42 -22 67q-23 28 -63 45q-79 40 -163 40q-78 0 -156 -36q-81 -42 -85 -109v-758q83 0 138 -34q49 -38 54 -114q0 -85 -25 -134q-29 -53 -64 -85q-92 -60 -95 -56l-185 -4v1163q0 245 411 248q208 0 325 -63q120 -65 123 -177v-941
q0 -33 29 -60q21 -24 64 -47q81 -42 155 -42q78 0 152 42q74 33 78 103v764l-163 159l459 277l364 -223l2 8zM689 81q74 47 78 178q-22 49 -78 52v-230z" />
    <glyph glyph-name="ycircumflex" unicode="&#x179c;" horiz-adv-x="763" 
d="M707 -3l-183 -4q-58 4 -117 70q-64 67 -67 178q25 173 190 181v540l-212 149l241 315q32 -17 60 -30.5t53 -24.5q26 -14 47.5 -26.5t38.5 -25.5q21 0 41 7q18 11 22 49q0 12 -11 51q-11 38 -40 48q-34 10 -74 15q-21 4 -39 9.5t-32 13.5q-34 15 -48 62q0 51 45 89
q32 38 85 38q103 -7 148 -78q40 -70 40 -167q0 -109 -47 -211q-52 -93 -130 -103q-33 0 -89 32q-28 16 -60 32.5t-67 34.5l-56 -63l261 -163v-1018zM455 226q4 -123 78 -159l-9 230q-54 -18 -69 -71z" />
    <glyph glyph-name="longs" horiz-adv-x="3" 
d="M-126 -238q22 16 34 16q22 0 33 -23q9 -17 9 -41q0 -5 -0.5 -10.5t-1.5 -10.5q0 -119 -67 -257q-32 -68 -81 -117q-28 -28 -58 -48.5t-64 -33.5q-71 -23 -130 -23q-139 0 -251 112q-46 43 -46 74q5 52 98 92q91 36 234 93q42 19 81 41t78 47t72 47t60 42zM-148 -374
q-74 -78 -174 -126q-204 -71 -215 -89q40 -34 92 -34q41 0 85 12q16 7 35.5 18.5t42.5 28.5q42 35 74 74q78 96 78 123q0 4 -1.5 4t-16.5 -11z" />
    <glyph glyph-name="Aringacute" horiz-adv-x="3" 
d="M-126 -858q22 16 34 16q22 0 33 -23q9 -17 9 -41q0 -5 -0.5 -10.5t-1.5 -10.5q0 -119 -67 -257q-32 -68 -81 -117q-28 -28 -58 -48.5t-64 -33.5q-71 -23 -130 -23q-139 0 -251 112q-46 43 -46 74q5 52 98 92q91 36 234 93q42 19 81 41t78 47t72 47t60 42zM-148 -994
q-74 -78 -174 -126q-204 -71 -215 -89q40 -34 92 -34q41 0 85 12q16 7 35.5 18.5t42.5 28.5q42 35 74 74q78 96 78 123q0 4 -1.5 4t-16.5 -11z" />
    <glyph glyph-name="aringacute" horiz-adv-x="1444" 
d="M1428 1227v-1227l-173 -2v1123l-272 137l-153 -41q-46 -67 -112 -75q-33 0 -89 32q-28 16 -60 32.5t-67 34.5l-56 -63l261 -163v-1018l-183 -4q-59 5 -117 70q-64 67 -67 178q26 174 190 181v540l-212 149l241 315q32 -17 60 -30.5t53 -24.5q26 -14 47.5 -26.5
t38.5 -25.5q23 0 41 7q17 10 22 49q0 10 -11 51q-10 37 -40 48q-35 11 -74 15q-21 4 -39 9.5t-32 13.5q-34 15 -48 62q0 51 45 89q32 38 85 38q103 -7 148 -78q40 -70 40 -167q0 -50 -9 -96l112 66q430 -196 430 -199zM455 226q4 -123 78 -159l-9 230q-54 -18 -69 -71z" />
    <glyph glyph-name="AEacute" horiz-adv-x="1445" 
d="M1324 1297q33 54 33 103q0 50 -22 93q-14 29 -25 52t-20 40q-21 30 -29 83q4 10 63 54h85q51 -48 67 -103q9 -47 9 -100q0 -57 -6.5 -103.5t-22.5 -92.5q-28 -85 -28 -96v-1227l-173 -2v1123l-272 137l-153 -41q-46 -67 -112 -75q-33 0 -89 32q-28 16 -60 32.5t-67 34.5
l-56 -63l261 -163v-1018l-183 -4q-59 5 -117 70q-64 67 -67 178q26 174 190 181v540l-212 149l241 315q32 -17 60 -30.5t53 -24.5q26 -14 47.5 -26.5t38.5 -25.5q23 0 41 7q17 10 22 49q0 10 -11 51q-10 37 -40 48q-35 11 -74 15q-21 4 -39 9.5t-32 13.5q-34 15 -48 62
q0 51 45 89q32 38 85 38q103 -7 148 -78q40 -70 40 -167q0 -50 -9 -96l112 66zM455 226q4 -123 78 -159l-9 230q-54 -18 -69 -71z" />
    <glyph glyph-name="aeacute" unicode="&#x179d;" horiz-adv-x="1355" 
d="M1451 521v-123h-107v-398h-178v398h-122v123h122v295q-3 69 -81 103q-78 33 -163 33q-74 0 -156 -33q-88 -34 -92 -103v-590q41 134 163 188q24 8 33 8q70 -5 74 -75q0 -47 -71 -50q-34 0 -59 -22q-13 -14 -27 -30.5t-28 -36.5q-50 -71 -63 -134l-15 -70l-190 -4v771
q4 251 431 262q418 -7 422 -262v-250h107zM374 1096l326 326l255 -159l159 163q140 -78 212 -120.5t85 -49.5q-2 -2 -13 -17t-31 -43q-51 -60 -94 -96q-32 21 -97 57t-162 88l-152 -149l-251 149l-71 -67l149 -85l-145 -118z" />
    <glyph glyph-name="Oslashacute" 
d="M72 -491v-123h-83v-123q0 -14 -99 -47q-107 23 -100 51q-1 33 -1.5 63t-2.5 56h-120v123h105q-20 95 -55 111q-78 32 -156 32q-66 0 -141 -32q-74 -38 -77 -111v-70q59 107 148 66q42 -7 74 -36q29 -32 29 -67q0 -31 -18 -49q-10 -10 -28 -10q-11 2 -25 5.5t-32 8.5
q-46 11 -91 11q-9 0 -17.5 -2t-15 -9t-11.5 -20.5t-6 -35.5v-41q10 -16 -89 -44q-27 0 -60 11q-32 11 -59 36v215q0 105 108 201q100 100 308 103q166 0 297 -77q115 -67 133 -196h85z" />
    <glyph glyph-name="oslashacute" 
d="M72 -1101v-123h-83v-123q0 -14 -99 -47q-107 23 -100 51q-1 33 -1.5 63t-2.5 56h-120v123h105q-20 95 -55 111q-78 32 -156 32q-66 0 -141 -32q-74 -38 -77 -111v-70q59 107 148 66q42 -7 74 -36q29 -32 29 -67q0 -31 -18 -49q-10 -10 -28 -10q-11 2 -25 5.5t-32 8.5
q-46 11 -91 11q-9 0 -17.5 -2t-15 -9t-11.5 -20.5t-6 -35.5v-41q10 -16 -89 -44q-27 0 -60 11q-32 11 -59 36v215q0 105 108 201q100 100 308 103q166 0 297 -77q115 -67 133 -196h85z" />
    <glyph glyph-name="anoteleia" horiz-adv-x="1965" 
d="M381 1104l318 318l438 -185l-1 -3l288 192l536 -309v-1124h-177v4h-3v1008l-433 243l-259 -174v-2h-2l-482 165l-64 -59l127 -100l-123 -103zM1451 521v-123h-107v-398h-178v398h-122v123h122v295q-3 68 -81 103q-78 33 -163 33q-74 0 -156 -33q-88 -34 -92 -103v-590
q41 134 163 188q26 8 33 8q69 -4 74 -75q0 -47 -71 -50q-34 0 -59 -22q-13 -14 -27 -30.5t-28 -36.5q-49 -70 -63 -134l-15 -70l-190 -4v771q5 252 431 262q418 -7 422 -262v-250h107zM1781 1004h2h-2z" />
    <glyph glyph-name="Wgrave" horiz-adv-x="1965" 
d="M381 1104l318 318l438 -185l-1 -3l288 192l393 -227l3 12l34 86q33 54 33 103q0 50 -22 93q-14 29 -25 52t-20 40q-22 31 -29 83q4 10 63 54h85q51 -48 67 -103q9 -47 9 -100q0 -57 -6.5 -103.5t-22.5 -92.5q-28 -87 -28 -96v-109l2 -1v-1124h-177v4h-3v1008l-433 243
l-259 -174v-2h-2l-482 165l-64 -59l127 -100l-123 -103zM1451 521v-123h-107v-398h-178v398h-122v123h122v295q-3 69 -81 103q-78 33 -163 33q-74 0 -156 -33q-88 -34 -92 -103v-590q41 134 163 188q24 8 33 8q70 -5 74 -75q0 -47 -71 -50q-34 0 -59 -22q-13 -14 -27 -30.5
t-28 -36.5q-50 -71 -63 -134l-15 -70l-190 -4v771q4 251 431 262q418 -7 422 -262v-250h107z" />
    <glyph glyph-name="wgrave" unicode="&#x179e;" horiz-adv-x="1389" 
d="M1471 621v-123h-107v-236q0 -99 -101 -177q-100 -81 -308 -88q-200 3 -322 77q-121 73 -121 188v720l-134 104l223 340l233 -156l-112 -170l-203 130l-41 -63l208 -159v-789q0 -34 29 -63q15 -13 32.5 -25.5t37.5 -23.5q81 -40 163 -40q83 0 159 43q82 42 85 113v275
h-128v123h128v358l-155 107l222 340l230 -147l-100 -179l-204 123l-40 -56l219 -148v-398h107z" />
    <glyph glyph-name="Wacute" horiz-adv-x="667" 
d="M773 143v-123h-123v-730q-51 -14 -78 -14q-36 0 -78 18l-226 194l-244 -188q-48 -17 -67 -17q-14 2 -36 6t-51 11v407q43 67 96 70q132 7 166 -105q0 -54 -27 -121q-31 -61 -92 -83v-65l255 195l233 -184h3v606h-138v123h138v872l-155 96l205 315l208 -143l-89 -156
l-193 114l-40 -52l210 -129v-917h123zM31 -456q16 31 16 58q0 31 -34 34v-135q4 22 18 43z" />
    <glyph glyph-name="wacute" horiz-adv-x="667" 
d="M773 143v-123h-123v-1390q-50 -14 -78 -14q-36 0 -78 18l-226 194l-244 -188q-46 -17 -67 -17q-14 2 -36 6t-51 11v407q43 67 96 70q132 7 166 -105q0 -54 -27 -121q-31 -61 -92 -83v-65l255 195l233 -184h3v1266h-138v123h138v872l-155 96l205 315l208 -143l-89 -156
l-193 114l-40 -52l210 -129v-917h123zM31 -1116q16 31 16 58q0 31 -34 34v-135q4 22 18 43z" />
    <glyph glyph-name="Wdieresis" horiz-adv-x="1993" 
d="M1471 621v-123h-107v-236q0 -99 -101 -177q-100 -81 -308 -88q-200 3 -322 77q-121 73 -121 188v720l-134 104l223 340l233 -156l-112 -170l-203 130l-41 -63l208 -159v-789q0 -34 29 -63q15 -13 32.5 -25.5t37.5 -23.5q81 -40 163 -40q83 0 159 43q82 42 85 113v275
h-128v123h128v358h1l-171 170l459 277l506 -309v-1124h-177v4h-3v1009l-443 282l-181 -105l181 -164v-398h107zM1808 1005l2 -1z" />
    <glyph glyph-name="wdieresis" horiz-adv-x="1280" 
d="M773 143v-123h-123v-730q-51 -14 -78 -14q-36 0 -78 18l-226 194l-244 -188q-48 -17 -67 -17q-14 2 -36 6t-51 11v407q43 67 96 70q132 7 166 -105q0 -54 -27 -121q-31 -61 -92 -83v-65l255 195l233 -184h3v606h-138v123h138v840l-170 166l459 277l345 -220l139 -88l2 -1
v-1124h-157v4h-3v1022l-443 269l-180 -117l154 -161v-867h123zM31 -456q16 31 16 58q0 31 -34 34v-134q4 22 18 42z" />
    <glyph glyph-name="Ygrave" horiz-adv-x="1280" 
d="M773 143v-123h-123v-1390q-51 -14 -78 -14q-36 0 -78 18l-226 194l-244 -188q-48 -17 -67 -17q-14 2 -36 6t-51 11v407q43 67 96 70q132 7 166 -105q0 -54 -27 -121q-31 -61 -92 -83v-65l255 195l233 -184h3v1266h-138v123h138v840l-170 166l459 277l485 -308l1 -1125
h-157v4h-3v1022l-443 269l-180 -117l154 -161v-867h123zM31 -1116q16 31 16 58q0 31 -34 34v-134q4 22 18 42z" />
    <glyph glyph-name="ygrave" horiz-adv-x="1993" 
d="M1471 621v-123h-107v-236q0 -99 -101 -177q-100 -81 -308 -88q-200 3 -322 77q-121 73 -121 188v720l-134 104l223 340l233 -156l-112 -170l-203 130l-41 -63l208 -159v-789q0 -34 29 -63q15 -13 32.5 -25.5t37.5 -23.5q81 -40 163 -40q83 0 159 43q82 42 85 113v275
h-128v123h128v358l-170 170l459 277l364 -223l2 8l34 86q33 54 33 103q0 50 -22 93q-14 29 -25 52t-20 40q-21 30 -29 83q4 10 63 54h85q51 -48 67 -103q9 -47 9 -100q0 -57 -6.5 -103.5t-22.5 -92.5q-28 -85 -28 -96v-109l2 -1v-1124h-177v4h-3v1009l-443 282l-181 -105
l181 -164v-398h107z" />
    <glyph glyph-name="quotereversed" horiz-adv-x="1280" 
d="M773 143v-123h-123v-730q-51 -14 -78 -14q-36 0 -78 18l-226 194l-244 -188q-48 -17 -67 -17q-14 2 -36 6t-51 11v407q43 67 96 70q132 7 166 -105q0 -54 -27 -121q-31 -61 -92 -83v-65l255 195l233 -184h3v606h-138v123h138v840l-170 166l459 277l345 -220l35 91
q33 54 33 103q0 50 -22 93q-14 29 -25 52t-20 40q-21 30 -29 83q4 10 63 54h85q51 -48 67 -103q9 -47 9 -100q0 -57 -6.5 -103.5t-22.5 -92.5q-28 -85 -28 -96v-109l2 -1v-1124h-157v4h-3v1022l-443 269l-180 -117l154 -161v-867h123zM31 -456q16 31 16 58q0 31 -34 34v-133
q4 21 18 41z" />
    <glyph glyph-name="radicalex" horiz-adv-x="1280" 
d="M773 143v-123h-123v-1390q-51 -14 -78 -14q-36 0 -78 18l-226 194l-244 -188q-48 -17 -67 -17q-14 2 -36 6t-51 11v407q43 67 96 70q132 7 166 -105q0 -54 -27 -121q-31 -61 -92 -83v-65l255 195l233 -184h3v1266h-138v123h138v840l-170 166l459 277l345 -220l35 91
q33 54 33 103q0 50 -22 93q-14 29 -25 52t-20 40q-21 30 -29 83q4 10 63 54h85q51 -48 67 -103q9 -47 9 -100q0 -57 -6.5 -103.5t-22.5 -92.5q-28 -85 -28 -96v-109l2 -1v-1124h-157v4h-3v1022l-443 269l-180 -117l154 -161v-867h123zM31 -1116q16 31 16 58q0 31 -34 34
v-134q4 22 18 42z" />
    <glyph glyph-name="afii08941" unicode="&#x179f;" horiz-adv-x="1944" 
d="M570 1093l222 333l308 -160l-110 -166l-268 134l-51 -53l230 -124h107q34 -4 60 -9t46 -11q74 -22 134 -82q60 -68 60 -181v-551q0 -67 81 -100q70 -42 149 -42q78 0 137 33q58 35 62 105l-4 763l-143 104l221 340l230 -156l-107 -170l-204 130l-47 -63l233 -148v-757
q0 -114 -89 -188q-95 -74 -293 -77q-407 7 -403 265v579q-4 71 -78 103q-84 35 -156 35q-79 0 -141 -31q-70 -33 -70 -103l-4 -418q83 0 141 -31q58 -36 58 -117q-8 -161 -96 -219q-92 -63 -96 -63l-177 3v785q11 74 51 134q38 63 134 107zM689 81q73 46 78 185
q-7 27 -25 38q-12 2 -25.5 3.5t-27.5 3.5v-230z" />
    <glyph glyph-name="estimated" horiz-adv-x="660" 
d="M-173 -421q-71 5 -74 89q3 62 51 103q46 34 101 34q31 0 54 -14q45 -7 67 -52q24 -50 24 -86v-246q0 -32 28 -54q25 -25 60 -38q84 -26 152 -26q71 0 135 40q66 41 71 109v580h-118v119h123l-1 871l-147 96l203 314l211 -139l-92 -161l-179 123l-40 -56l196 -141v-907
h133v-123h-133v-529q3 -252 -362 -255q-160 3 -271 49q-129 44 -132 184v142q-29 -26 -60 -26z" />
    <glyph glyph-name="oneeighth" horiz-adv-x="660" 
d="M-173 -1041q-71 5 -74 89q3 63 51 103q46 34 101 34q31 0 54 -14q45 -7 67 -52q24 -50 24 -86v-246q0 -32 28 -54q24 -24 60 -38q83 -26 152 -26q71 0 135 40q66 41 71 109v1200h-118v119h123l-1 871l-147 96l203 314l211 -139l-92 -161l-179 123l-40 -56l196 -141v-907
h133v-123h-133v-1149q3 -252 -362 -255q-158 3 -271 49q-129 43 -132 184v142q-29 -26 -60 -26z" />
    <glyph glyph-name="threeeighths" horiz-adv-x="2550" 
d="M2531 1117v-1124h-177v4h-3v1009l-443 282l-180 -117l188 -152v-757q0 -114 -89 -188q-95 -74 -293 -77q-407 8 -403 265v579q-5 72 -78 103q-85 35 -156 35q-80 0 -141 -31q-70 -33 -70 -103l-1 -418q80 0 138 -31q58 -36 58 -117q-8 -161 -96 -219q-92 -63 -96 -63
l-177 3v785q11 74 51 134q38 63 134 107l-127 67l222 333l308 -160l-110 -166l-268 134l-51 -53l230 -124h107q34 -4 60 -9t46 -11q75 -23 134 -82q60 -68 60 -181v-551q0 -67 81 -100q70 -42 149 -42q78 0 137 33q58 34 58 105v763l-167 167l459 277zM689 81q74 47 78 185
q-8 28 -25 38q-12 2 -25.5 3.5t-27.5 3.5v-230z" />
    <glyph glyph-name="fiveeighths" horiz-adv-x="1277" 
d="M1117 1017v2l-443 269l-180 -117l158 -147v-887h133v-123h-133v-529q3 -252 -362 -255q-158 3 -271 49q-129 43 -132 184v132q-29 -26 -60 -26q-71 5 -74 89q3 63 51 103q46 34 101 34q31 0 54 -14q45 -7 67 -52q24 -50 24 -86v-236q0 -32 28 -54q24 -24 60 -38
q83 -26 152 -26q71 0 135 40q66 41 71 109v580h-118v119h121v27l1 819l-168 166l459 277l484 -308l2 -1v-1124h-157v4h-3l-1 1021z" />
    <glyph glyph-name="seveneighths" horiz-adv-x="1277" 
d="M1117 1017v2l-443 269l-180 -117l158 -147v-887h133v-123h-133v-1169q3 -252 -362 -255q-160 3 -271 49q-129 44 -132 184v132q-29 -26 -60 -26q-71 5 -74 89q3 62 51 103q46 34 101 34q31 0 54 -14q45 -7 67 -52q24 -50 24 -86v-236q0 -32 28 -54q25 -25 60 -38
q84 -26 152 -26q71 0 135 40q66 41 71 109v1220h-118v119h121v27l1 819l-168 166l459 277l484 -308l2 -1v-1124h-157v4h-3l-1 1021z" />
    <glyph glyph-name="commaaccent" horiz-adv-x="2550" 
d="M2425 1297q33 54 33 103q0 50 -22 93q-14 29 -25 52t-20 40q-21 30 -29 83q4 10 63 54h85q51 -48 67 -103q9 -47 9 -100q0 -57 -6.5 -103.5t-22.5 -92.5q-28 -85 -28 -96v-109l2 -1v-1124h-177v4h-3v1009l-443 282l-180 -117l188 -152v-757q0 -114 -89 -188
q-95 -74 -293 -77q-407 8 -403 265v579q-5 72 -78 103q-85 35 -156 35q-80 0 -141 -31q-70 -33 -70 -103l-1 -418q80 0 138 -31q58 -36 58 -117q-8 -161 -96 -219q-92 -63 -96 -63l-177 3v785q11 74 51 134q38 63 134 107l-127 67l222 333l308 -160l-110 -166l-268 134
l-51 -53l230 -124h107q34 -4 60 -9t46 -11q75 -23 134 -82q60 -68 60 -181v-551q0 -67 81 -100q70 -42 149 -42q78 0 137 33q58 34 58 105v763h3l-170 167l459 277l364 -223zM689 81q74 47 78 185q-8 28 -25 38q-12 2 -25.5 3.5t-27.5 3.5v-230z" />
    <glyph glyph-name="undercommaaccent" horiz-adv-x="1277" 
d="M1117 1017v2l-443 269l-180 -117l158 -147v-887h133v-123h-133v-529q3 -252 -362 -255q-160 3 -271 49q-129 44 -132 184v132q-29 -26 -60 -26q-71 5 -74 89q3 62 51 103q46 34 101 34q31 0 54 -14q45 -7 67 -52q24 -50 24 -86v-236q0 -32 28 -54q25 -25 60 -38
q84 -26 152 -26q71 0 135 40q66 41 71 109v580h-118v119h121l1 846l-168 166l459 277l346 -215l34 86q33 54 33 103q0 50 -22 93q-14 29 -25 52t-20 40q-21 30 -29 83q4 10 63 54h85q51 -48 67 -103q9 -47 9 -100v-27v-18.5t-1 -21.5q0 -51 -28 -129q-28 -85 -28 -96v-109
l2 -1v-1124h-157v4h-3l-1 1021z" />
    <glyph glyph-name="tonos" horiz-adv-x="1277" 
d="M1117 1017v2l-443 269l-180 -117l158 -147v-887h133v-123h-133v-1159q3 -252 -362 -255q-160 3 -271 49q-129 44 -132 184v132q-29 -26 -60 -26q-71 5 -74 89q3 62 51 103q46 34 101 34q31 0 54 -14q45 -7 67 -52q24 -50 24 -86v-236q0 -32 28 -54q25 -25 60 -38
q84 -26 152 -26q71 0 135 40q66 41 71 109v1210h-118v119h121l1 846l-168 166l459 277l346 -215l34 86q33 54 33 103q0 50 -22 93q-14 29 -25 52t-20 40q-21 30 -29 83q4 10 63 54h85q51 -48 67 -103q9 -47 9 -100q-1 -57 -8 -105.5t-21 -90.5q-28 -85 -28 -96v-109l2 -1
v-1124h-157v4h-3v1020z" />
    <glyph glyph-name="dieresistonos" unicode="&#x17a0;" horiz-adv-x="1978" 
d="M1138 1171q3 244 410 255q413 -5 413 -263v-1163h-176v1216q-3 70 -77 103q-84 32 -156 32t-156 -32q-81 -33 -85 -103v-954q-3 -257 -407 -265q-199 3 -300 77q-100 73 -100 188v720l-148 104l223 340l233 -156l-112 -170l-203 130l-49 -63l230 -159v-804q0 -70 82 -104
q73 -33 144 -33q80 0 156 40q73 34 78 101v963z" />
    <glyph glyph-name="Alphatonos" 
d="M-815 -622q5 -37 45 -56q40 -21 99 -21q102 0 102 77v252q0 154 255 159q103 0 204 -36q100 -37 103 -130v-355q1 -1 1 -6q0 -13 -12 -28q-13 -17 -67 -22q-49 5 -59 22q-15 18 -15 38v358q0 32 -49 45q-47 18 -106 18q-96 4 -96 -63v-293q0 -82 -64 -100
q-66 -21 -200 -21q-137 0 -210 21q-78 18 -78 105v206q-5 15 -31 35q-56 14 -63 11l212 199q149 -75 166 -78q-13 -28 -43 -65q-32 -38 -53 -42q-62 5 -134 56l-67 -34q7 0 29.5 -3t64.5 -8q70 -50 66 -60v-181z" />
    <glyph glyph-name="Epsilontonos" 
d="M-815 -1222q4 -36 45 -56q40 -21 99 -21q102 0 102 77v252q0 154 255 159q103 0 204 -36q100 -37 103 -130v-355q1 -1 1 -6q0 -13 -12 -28q-14 -18 -67 -22q-48 4 -59 22q-15 18 -15 38v358q0 32 -49 45q-47 18 -106 18q-96 4 -96 -63v-293q0 -82 -64 -100
q-66 -21 -200 -21q-137 0 -210 21q-78 18 -78 105v206q-4 14 -31 35q-56 14 -63 11l212 199q148 -75 166 -78q-13 -28 -43 -65q-31 -37 -53 -42q-61 4 -134 56l-67 -34q7 0 29.5 -3t64.5 -8q70 -50 66 -60v-181z" />
    <glyph glyph-name="Etatonos" horiz-adv-x="2634" 
d="M2615 1227v-1229h-170v1113l-231 157l-253 -108v-1160h-176v1216q-3 70 -77 103q-85 32 -156 32t-156 -32q-81 -33 -85 -103v-954q-3 -257 -407 -265q-199 3 -300 77q-100 73 -100 188v720l-148 104l223 340l233 -156l-112 -170l-203 130l-49 -63l230 -159v-804
q0 -70 82 -104q73 -33 144 -33q80 0 156 40q74 35 78 101v963q3 244 410 255q310 -3 387 -150l159 100q53 44 107 44q46 0 89 -28q325 -162 325 -165z" />
    <glyph glyph-name="Iotatonos" horiz-adv-x="2634" 
d="M2290 1392l221 -107q33 66 33 115q0 50 -22 93q-14 29 -25 52t-20 40q-21 30 -29 83q4 10 63 54h85q51 -48 67 -103q9 -47 9 -100q0 -57 -6.5 -103.5t-22.5 -92.5q-28 -85 -28 -96v-1229h-170v1113l-231 157l-253 -108v-1160h-176v1216q-3 70 -77 103q-85 32 -156 32
t-156 -32q-81 -33 -85 -103v-954q-3 -257 -407 -265q-199 3 -300 77q-100 73 -100 188v720l-148 104l223 340l233 -156l-112 -170l-203 130l-49 -63l230 -159v-804q0 -70 82 -104q73 -33 144 -33q80 0 156 40q74 35 78 101v963q3 244 410 255q310 -3 387 -150l159 100
q96 80 196 16z" />
    <glyph glyph-name="Omicrontonos" unicode="&#x17a1;" horiz-adv-x="1725" 
d="M844 -3q-14 0 -34.5 1.5t-46.5 5.5q-50 7 -110 21q-59 24 -96 64q-42 39 -49 103v334q0 37 32 60q31 15 60 15q38 0 74 -11q22 -16 22 -74v-342q0 -78 45 -96q42 -18 107 -15q55 -3 105 15q47 14 47 85v400q-25 0 -51.5 3t-55.5 8q-32 5 -64 10.5t-66 12.5
q-68 18 -129 51q-32 17 -65 39.5t-65 50.5q-92 104 -92 276q2 106 35 179.5t99 125.5q121 100 298 107q190 0 315 -93q127 -96 130 -251q0 -82 -39 -152q-50 -72 -152 -85q-106 0 -176 36q-74 35 -74 112q8 28 20.5 52t28.5 44q26 38 81 38q36 0 63 -13q60 -50 82 -57
q36 13 36 70q0 46 -29 96q-33 39 -123 56q-18 2 -37.5 3t-40.5 1q-170 3 -262 -116q-56 -81 -52 -167q0 -73 23 -130q44 -80 136 -132q94 -53 186 -60q40 0 56 19q15 10 22 28q5 12 11.5 23.5t13.5 22.5q11 18 49 29q35 0 60.5 -2t42.5 -6q36 -11 49 -32q25 -49 25 -89
q0 -20 -11 -56l-95 -52v-355q-7 -148 -134 -183q-63 -16 -113 -23t-92 -5zM1490 -689l-252 201l-296 -201l-208 -3v459q-78 7 -73 36q0 38 44 71q36 33 78 41q49 0 88 -14q31 -20 42 -42l10.5 -43.5t3.5 -15.5v-373l315 185q13 0 60 -26q20 -16 43 -33t49 -37
q114 -96 141 -105q-3 759 -3 1575l-149 107l216 336l237 -150l-105 -172l-181 123l-53 -59l201 -149v-1714z" />
    <glyph glyph-name="Upsilontonos" 
d="M-549 -638q-87 -10 -145 -9q-21 0 -58 3q-36 1 -78 6q-20 4 -37 9t-31 11q-29 12 -34 32v104q0 11 23 19l24.5 3.5t17.5 1.5q41 0 53 -4q15 -5 15 -23v-106q0 -25 32 -30q16 -3 34.5 -4.5t41.5 -0.5q19 -1 37 0.5t37 4.5q33 4 33 26v125q-36 0 -75 3q-23 2 -46 3.5
t-47 3.5q-23 3 -46 7t-45 9q-23 5 -46 12.5t-46 15.5q-65 33 -65 87v4q1 58 95 90q86 32 211 33q142 0 223 -28q91 -30 92 -79q0 -25 -28 -47q-33 -21 -108 -26q-36 0 -67 3t-57 8q-52 10 -52 35q10 16 34 30q20 11 58 11q19 0 45 -3q42 -17 57 -18q26 5 26 21q0 15 -21 30
q-26 13 -87 18q-13 1 -26.5 1h-28.5q-120 1 -186 -36q-39 -22 -37 -52q0 -24 17 -41q30 -24 96 -41q67 -17 132 -18q20 0 40 5q10 4 15 9t9.5 8.5t8.5 5.5t12.5 5t22.5 5q50 0 73 -3q24 -3 34 -10q18 -15 18 -27q0 -11 -7 -18l-68 -16v-111q-6 -46 -95 -57zM-208 -860
l-178 62l-211 -62l-147 -1v143q-56 2 -51 11q0 11 30 22q14 5 28 8.5t28 4.5q19 0 34 -1.5t28 -3.5q22 -6 30 -12q10 -16 10 -19v-116l223 57q-4 0 42 -8q14 -5 30.5 -10t35.5 -12q42 -14 66.5 -22t33.5 -10q-3 235 -3 491l-105 33l153 105l167 -47l-74 -54l-128 39l-37 -19
l142 -46v-534z" />
    <glyph glyph-name="Omegatonos" 
d="M-549 -1178q-87 -10 -145 -9q-21 0 -58 3q-36 1 -78 6q-20 4 -37 9t-31 11q-29 12 -34 32v104q0 11 23 19l24.5 3.5t17.5 1.5q41 0 53 -4q15 -5 15 -23v-106q0 -25 32 -30q16 -3 34.5 -4.5t41.5 -0.5q19 -1 37 0.5t37 4.5q33 4 33 26v125q-36 0 -75 3q-23 2 -46 3.5
t-47 3.5q-23 3 -46 7t-45 9q-23 5 -46 12.5t-46 15.5q-65 33 -65 87v4q1 58 95 90q86 32 211 33q142 0 223 -28q91 -30 92 -79q0 -25 -28 -47q-33 -21 -108 -26q-36 0 -67 3t-57 8q-52 10 -52 35q10 16 34 30q20 11 58 11q19 0 45 -3q42 -17 57 -18q26 5 26 21q0 15 -21 30
q-26 13 -87 18q-13 1 -26.5 1h-28.5q-120 1 -186 -36q-39 -22 -37 -52q0 -24 17 -41q30 -24 96 -41q67 -17 132 -18q20 0 40 5q10 4 15 9t9.5 8.5t8.5 5.5t12.5 5t22.5 5q50 0 73 -3q24 -3 34 -10q18 -15 18 -27q0 -11 -7 -18l-68 -16v-111q-6 -46 -95 -57zM-208 -1400
l-178 62l-211 -62l-147 -1v143q-56 2 -51 11q0 11 30 22q14 5 28 8.5t28 4.5q19 0 34 -1.5t28 -3.5q22 -6 30 -12q10 -16 10 -19v-116l223 57q-4 0 42 -8q14 -5 30.5 -10t35.5 -12q42 -14 66.5 -22t33.5 -10q-3 235 -3 491l-105 33l153 105l167 -47l-74 -54l-128 39l-37 -19
l142 -46v-534z" />
    <glyph glyph-name="iotadieresistonos" horiz-adv-x="2320" 
d="M2309 1117v-1124h-157v4h-3v1022l-443 269l-187 -108l179 -158v-1714l-208 -1l-252 205l-296 -201l-208 -3v459q-78 7 -73 36q0 38 44 71q36 33 78 41q49 0 88 -14q31 -20 42 -42l10.5 -43.5t3.5 -15.5v-373l315 185q13 0 60 -26q20 -16 43 -33t49 -37q114 -96 138 -105
v1574l-168 164l459 277zM854 -3q-14 0 -34.5 1.5t-46.5 5.5q-50 7 -110 21q-59 24 -96 64q-42 39 -49 103v334q0 37 32 60q31 15 60 15q38 0 74 -11q22 -16 22 -74v-342q0 -78 45 -96q42 -18 107 -15q55 -3 105 15q47 14 47 85v400q-25 0 -51.5 3t-55.5 8q-32 5 -64 10.5
t-66 12.5q-68 18 -129 51q-32 17 -65 39.5t-65 50.5q-92 104 -92 276q2 106 35 179.5t99 125.5q121 100 298 107q190 0 315 -93q127 -96 130 -251q0 -82 -39 -152q-50 -72 -152 -85q-106 0 -176 36q-74 35 -74 112q8 28 20.5 52t28.5 44q26 38 81 38q36 0 63 -13
q60 -50 82 -57q36 13 36 70q0 46 -29 96q-33 39 -123 56q-18 2 -37.5 3t-40.5 1q-170 3 -262 -116q-56 -81 -52 -167q0 -73 23 -130q44 -80 136 -132q94 -53 186 -60q40 0 56 19q15 10 22 28q5 12 11.5 23.5t13.5 22.5q11 18 49 29q35 0 60.5 -2t42.5 -6q36 -11 49 -32
q25 -49 25 -89q0 -20 -11 -56l-95 -52v-355q-7 -148 -134 -183q-63 -16 -113 -23t-92 -5z" />
    <glyph glyph-name="Alpha" horiz-adv-x="2325" 
d="M2203 1297q33 54 33 103q0 50 -22 93q-14 29 -25 52t-20 40q-21 30 -29 83q4 10 63 54h85q51 -48 67 -103q9 -47 9 -100q0 -57 -6.5 -103.5t-22.5 -92.5q-28 -85 -28 -96l2 -110v-1124h-157v4h-3v1022l-443 269l-187 -108l179 -158v-1714l-208 -1l-252 205l-296 -201
l-208 -3v459q-78 7 -73 36q0 38 44 71q36 33 78 41q49 0 88 -14q31 -20 42 -42l10.5 -43.5t3.5 -15.5v-373l315 185q13 0 60 -26q20 -16 43 -33t49 -37q114 -96 139 -105q-1 379 -1 772.5v801.5l-168 164l459 277l346 -215zM854 -3q-14 0 -34.5 1.5t-46.5 5.5q-50 7 -110 21
q-59 24 -96 64q-42 39 -49 103v334q0 37 32 60q31 15 60 15q38 0 74 -11q22 -16 22 -74v-342q0 -78 45 -96q42 -18 107 -15q55 -3 105 15q47 14 47 85v400q-25 0 -51.5 3t-55.5 8q-32 5 -64 10.5t-66 12.5q-68 18 -129 51q-32 17 -65 39.5t-65 50.5q-92 104 -92 276
q2 106 35 179.5t99 125.5q121 100 298 107q190 0 315 -93q127 -96 130 -251q0 -82 -39 -152q-50 -72 -152 -85q-106 0 -176 36q-74 35 -74 112q8 28 20.5 52t28.5 44q26 38 81 38q36 0 63 -13q60 -50 82 -57q36 13 36 70q0 46 -29 96q-33 39 -123 56q-18 2 -37.5 3t-40.5 1
q-170 3 -262 -116q-56 -81 -52 -167q0 -73 23 -130q44 -80 136 -132q94 -53 186 -60q40 0 56 19q15 10 22 28q5 12 11.5 23.5t13.5 22.5q11 18 49 29q35 0 60.5 -2t42.5 -6q36 -11 49 -32q25 -49 25 -89q0 -20 -11 -56l-95 -52v-355q-7 -148 -134 -183q-63 -16 -113 -23
t-92 -5z" />
    <glyph glyph-name="Beta" unicode="&#x17a2;" horiz-adv-x="1371" 
d="M1347 0l-170 4q-65 8 -121 74q-64 67 -64 173q0 86 60 131q51 45 125 45v147h-496l7 -577l-177 -4q-57 5 -116 70q-70 67 -70 185q0 80 59 127q52 43 127 43v564l-134 104l223 340l233 -156l-112 -170l-188 116l-49 -56l204 -152v-279h489v250l-141 107l222 340l230 -147
l-100 -179l-197 123l-40 -63l196 -141v-1019zM440 233q0 -126 71 -155v226q-56 -18 -71 -71zM1106 241q0 -122 71 -160v230q-56 -18 -71 -70z" />
    <glyph glyph-name="Delta" 
d="M-103 -690q0 -22 -38 -36q-46 -20 -103 -20q-96 23 -116 97q0 18 20 29q10 4 18 6.5t15 4.5l49 4v45h-286v-130q4 -49 -96 -53q-42 19 -78 42q-38 23 -41 56q3 43 38 51q29 11 29 7v148l-100 49l199 177q128 -74 134 -74q-36 -67 -89 -70q-14 0 -38 12q-9 2 -21.5 8.5
t-28.5 17.5l-31 -22l116 -78l7 -56h286v36l-120 42l205 184q61 -38 92.5 -58.5t35.5 -22.5q-13 -22 -36 -40q-24 -24 -45 -31q-17 0 -40 20q-11 5 -25 12.5t-31 16.5l-29 -21l148 -85v-268z" />
    <glyph glyph-name="Epsilon" 
d="M-103 -1310q0 -22 -38 -36q-45 -20 -103 -20q-96 23 -116 97q0 18 20 29q10 4 18 6.5t15 4.5l49 4v45h-286v-130q4 -49 -96 -53q-42 19 -78 42q-38 23 -41 56q3 43 38 51q29 11 29 7v148l-100 49l199 177q128 -74 134 -74q-36 -67 -89 -70q-14 0 -38 12q-9 2 -21.5 8.5
t-28.5 17.5l-31 -22l116 -78l7 -56h286v36l-120 42l205 184q61 -38 92.5 -58.5t35.5 -22.5q-13 -22 -36 -40q-23 -23 -45 -31q-17 0 -40 20q-11 5 -25 12.5t-31 16.5l-29 -21l148 -85v-268z" />
    <glyph glyph-name="Zeta" horiz-adv-x="1973" 
d="M1347 0h-170q-64 10 -121 78q-64 67 -64 173q0 86 60 131q51 45 125 45l-1 147h-495l-1 -581h-169q-57 5 -116 70q-70 67 -70 185q0 80 59 127q52 43 127 43v564l-134 104l223 340l233 -156l-112 -170l-188 116l-49 -56l204 -152v-279h488l-1 254l-155 166l459 277
l486 -308v-1125h-157v4h-3v1022l-403 269l-220 -117l163 -154zM1106 241q0 -122 71 -160v230q-56 -18 -71 -70zM440 233q0 -126 71 -155v226q-56 -18 -71 -71z" />
    <glyph glyph-name="Eta" horiz-adv-x="1980" 
d="M1347 0h-170q-64 10 -121 78q-64 67 -64 173q0 86 60 131q51 45 125 45l-1 147h-495l-1 -581h-169q-57 5 -116 70q-70 67 -70 185q0 80 59 127q52 43 127 43v564l-134 104l223 340l233 -156l-112 -170l-188 116l-49 -56l204 -152v-279h488l-1 254l-155 166l459 277
l345 -220l1 5l34 86q33 54 33 103q0 50 -22 93q-14 29 -25 52t-20 40q-21 30 -29 83q4 10 63 54h85q51 -48 67 -103q9 -47 9 -100q0 -57 -6.5 -103.5t-22.5 -92.5q-28 -85 -28 -96v-109l2 -1v-1124h-157v4h-3v1022l-403 269l-220 -117l165 -152v-1019zM1106 241
q0 -122 71 -160v230q-56 -18 -71 -70zM440 233q0 -126 71 -155v226q-56 -18 -71 -71z" />
    <glyph glyph-name="Iota" unicode="&#x17a3;" horiz-adv-x="1371" 
d="M1347 0l-170 4q-65 8 -121 74q-64 67 -64 173q0 86 60 131q51 45 125 45v147h-496l2 -578l-172 -3q-57 5 -116 70q-70 67 -70 185q0 80 59 127q52 43 127 43v564l-134 104l223 340l233 -156l-112 -170l-188 116l-49 -56l204 -152v-279h489v250l-141 107l222 340l230 -147
l-100 -179l-197 123l-40 -63l196 -141v-1019zM440 233q0 -126 71 -155v226q-56 -18 -71 -71zM1106 241q0 -122 71 -160v230q-56 -18 -71 -70z" />
    <glyph glyph-name="Kappa" 
d="M-103 -690q0 -22 -38 -36q-46 -20 -103 -20q-96 23 -116 97q0 18 20 29q10 4 18 6.5t15 4.5l49 4v45h-286v-130q4 -49 -96 -53q-42 19 -78 42q-38 23 -41 56q3 43 38 51q29 11 29 7v148l-100 49l199 177q128 -74 134 -74q-36 -67 -89 -70q-14 0 -38 12q-9 2 -21.5 8.5
t-28.5 17.5l-31 -22l116 -78l7 -56h286v36l-120 42l205 184q61 -38 92.5 -58.5t35.5 -22.5q-13 -22 -36 -40q-24 -24 -45 -31q-17 0 -40 20q-11 5 -25 12.5t-31 16.5l-29 -21l148 -85v-268z" />
    <glyph glyph-name="Lambda" 
d="M-103 -1310q0 -22 -38 -36q-46 -20 -103 -20q-96 23 -116 97q0 18 20 29q10 4 18 6.5t15 4.5l49 4v45h-286v-130q4 -49 -96 -53q-42 19 -78 42q-38 23 -41 56q3 43 38 51q29 11 29 7v148l-100 49l199 177q128 -74 134 -74q-36 -67 -89 -70q-14 0 -38 12q-9 2 -21.5 8.5
t-28.5 17.5l-31 -22l116 -78l7 -56h286v36l-120 42l205 184q61 -38 92.5 -58.5t35.5 -22.5q-13 -22 -36 -40q-24 -24 -45 -31q-17 0 -40 20q-11 5 -25 12.5t-31 16.5l-29 -21l148 -85v-268z" />
    <glyph glyph-name="Mu" unicode="&#x17a4;" horiz-adv-x="1973" 
d="M1347 0h-170q-64 10 -121 78q-64 67 -64 173q0 86 60 131q51 45 125 45l-1 147h-495l-1 -581h-169q-57 5 -116 70q-70 67 -70 185q0 80 59 127q52 43 127 43v564l-134 104l223 340l233 -156l-112 -170l-188 116l-49 -56l204 -152v-279h488l-1 254l-155 166l459 277
l484 -308l2 -1v-1124h-157v4h-3v1022l-403 269l-220 -117l165 -152v-1019zM1106 241q0 -122 71 -160v230q-56 -18 -71 -70zM440 233q0 -126 71 -155v226q-56 -18 -71 -71z" />
    <glyph glyph-name="Nu" 
d="M-495 -798h-137q-52 4 -98 38q-51 33 -51 85q0 42 48 65q40 22 101 22v73h-401v-287h-137q-45 1 -94 35q-56 33 -56 91q0 40 47 63q43 21 103 21v278l-108 51l180 167l188 -77l-90 -83l-152 57l-40 -28l165 -75v-137h394l-1 125l-125 82l371 136l391 -151l1 -1v-554h-126
v2h-3v504l-325 132l-178 -57l124 -76l9 1v-502zM-1227 -683q0 -64 57 -77v112q-45 -9 -57 -35zM-689 -680q0 -60 57 -78v113q-45 -9 -57 -35zM-232 -385v-4l-1 4h1z" />
    <glyph glyph-name="Xi" 
d="M-501 -1418h-137q-53 5 -98 38q-51 33 -51 85q0 42 48 65q40 22 101 22v73h-401v-287h-137q-46 2 -94 35q-56 33 -56 91q0 40 47 63q43 21 103 21v278l-108 51l180 167l188 -77l-90 -83l-152 57l-40 -28l165 -75v-137h394l-1 125l-125 82l371 136l391 -151l1 -1v-554
h-126v2h-3v504l-325 132l-178 -57l124 -76l9 1v-502zM-1233 -1303q0 -64 57 -77v112q-45 -9 -57 -35zM-695 -1300q0 -60 57 -78v113q-45 -9 -57 -35zM-138 -1495v-4l-1 4h1zM-238 -1005v-4l-1 4h1z" />
    <glyph glyph-name="Omicron" unicode="&#x17a5;" horiz-adv-x="1341" 
d="M1154 785q-5 72 -82 103q-85 35 -159 35q-64 0 -145 -35q-81 -32 -81 -106v-400q7 0 94 -45q33 -22 61 -55q28 -37 28 -90q0 -72 -53 -125q-54 -57 -134 -70q-66 0 -117 25q-64 22 -67 70v657q3 103 106 203q102 101 304 105q163 0 294 -78q132 -82 137 -237v-684
q0 -16 -105 -58q-92 22 -81 63v722zM432 1082q45 51 88.5 99.5t88.5 97.5q85 100 168 147q15 9 37 9q29 0 81 -20q21 -11 42 -24t43 -27q22 -16 43.5 -28t41.5 -21q40 -25 74 -25q49 -4 82 54q0 35 -18 64q-11 16 -20.5 25t-16.5 13q-123 54 -119 106q0 25 7 42
q23 65 149 65q74 -18 106 -74q31 -61 31 -139q-5 -115 -56 -205q-45 -63 -81 -96q-40 -34 -104 -34q-94 0 -289 108q-52 37 -89 37q-28 0 -63 -26q-33 -26 -60 -45l120 -128l-160 -109zM687 107q16 4 31 9.5t29 13.5q21 18 30 40q0 52 -27 78q-28 22 -63 31v-172z" />
    <glyph glyph-name="Pi" 
d="M-386 -507q-5 35 -82 50q-91 17 -159 17q-35 0 -71 -4.5t-74 -12.5q-81 -15 -81 -52v-195q15 0 94 -22q34 -10 61 -27q28 -19 28 -44q0 -35 -53 -61q-49 -27 -134 -35q-69 0 -117 13q-64 10 -67 34v321q3 51 106 100q102 50 304 51q156 0 294 -38q133 -40 137 -116v-334
h1q0 -8 -106 -29q-92 11 -81 31v353zM-1108 -362q45 25 88.5 49t88.5 48q85 49 168 72q8 4 37 4q45 0 81 -10q21 -5 42 -11.5t43 -13.5q49 -17 85 -24q42 -12 74 -12q54 -2 82 26q0 18 -18 32q-21 14 -37 18q-123 27 -119 52q0 11 7 21q22 31 149 31q75 -8 106 -36
q31 -30 31 -68q-5 -56 -56 -100q-23 -16 -43 -27.5t-38 -19.5q-49 -17 -104 -17q-86 0 -289 53q-53 18 -89 18q-30 0 -63 -12q-17 -7 -31.5 -12t-28.5 -10l120 -63l-160 -53zM-853 -839q31 4 60 12q18 7 30 19q0 26 -27 38q-29 10 -63 15v-84z" />
    <glyph glyph-name="Rho" 
d="M-386 -1017q-5 35 -82 50q-91 17 -159 17q-35 0 -71 -4.5t-74 -12.5q-81 -15 -81 -52v-195q15 0 94 -22q34 -10 61 -27q28 -19 28 -44q0 -35 -53 -61q-49 -27 -134 -35q-69 0 -117 13q-64 10 -67 34v321q3 51 106 100q102 50 304 51q156 0 294 -38q133 -40 137 -116v-334
h1q0 -8 -106 -29q-92 11 -81 31v353zM-1108 -872q45 25 88.5 49t88.5 48q85 49 168 72q8 4 37 4q45 0 81 -10q21 -5 42 -11.5t43 -13.5q49 -17 85 -24q42 -12 74 -12q54 -2 82 26q0 18 -18 32q-21 14 -37 18q-123 27 -119 52q0 11 7 21q22 31 149 31q75 -8 106 -36
q31 -30 31 -68q-5 -56 -56 -100q-23 -16 -43 -27.5t-38 -19.5q-49 -17 -104 -17q-86 0 -289 53q-53 18 -89 18q-30 0 -63 -12q-17 -7 -31.5 -12t-28.5 -10l120 -63l-160 -53zM-853 -1349q31 4 60 12q18 7 30 19q0 26 -27 38q-29 10 -63 15v-84z" />
    <glyph glyph-name="Sigma" unicode="&#x17a6;" horiz-adv-x="1754" 
d="M1535 1708q-22 38 -64 52q-43 13 -85.5 18.5t-87.5 3.5q-75 -4 -107 -42q-42 -36 -42 -68v-60l-11 -38q-6 -6 -14 -12t-18 -13q-27 -15 -71 -15q-56 4 -70 29q-15 22 -15 74v342q-90 44 -94 74q0 22 27 37q18 10 40 14q114 0 166 -40q50 -41 60 -88q0 -30 1 -63.5
t3 -70.5q52 81 155 85q223 -4 331 -96q104 -98 104 -233v-2039q0 -22 -1 -44.5t-3 -47.5q-4 -49 -38 -89q-29 -38 -100 -67q-35 -13 -86 -20.5t-118 -11.5q-156 3 -226 70q-69 61 -69 132v183q0 28 -23 51q-22 19 -58 30q-67 22 -123 22q-20 0 -49 -3.5t-67 -10.5
q-72 -22 -85 -71l-4 -70q0 -21 35 -26q14 -4 31 -8.5t36 -11.5q20 -5 37 -11.5t33 -13.5q29 -23 29 -71q-4 -77 -63 -130q-60 -51 -130 -58q-45 0 -118 18q-78 15 -81 60v355q0 56 47 94q49 32 115 54q73 19 140.5 27.5t133.5 6.5q109 0 233 -56q118 -52 123 -130v-226
q5 -71 56 -89q46 -18 81 -18q74 0 100 45q25 43 25 140v2042q0 67 -21 103zM1138 1127q-3 74 -77 107q-81 32 -149 32q-72 0 -148 -32q-82 -37 -82 -112v-737q3 0 89 -45q17 -11 33 -26t30 -32q26 -38 26 -90q0 -65 -51 -125q-52 -60 -134 -67q-66 0 -117 25q-64 24 -67 67
v1001q7 98 106 197q102 99 304 103q162 0 293 -78q133 -78 138 -233v-1019q11 -14 -105 -59q-96 21 -89 63v1060zM697 -685q22 0 56 25q30 25 34 71q-5 63 -90 67v-163zM679 110q31 9 60 24q29 18 36 40q0 44 -29 70q-29 31 -67 35v-169z" />
    <glyph glyph-name="Tau" 
d="M-856 -720q-14 0 -23 -4q-22 -4 -22 -23q0 -14 13.5 -19.5t31.5 -7.5v54zM-858 -516v205q0 21 -22.5 32.5t-55 17.5t-67.5 7t-59 1h-66q-33 0 -67.5 -3.5t-63.5 -10.5t-47.5 -18t-18.5 -26v-153q51 0 76 15t25 26q0 6 -8 6q-21 0 -51 9q-31 9 -31 34q0 18 11.5 30.5
t26.5 19.5t30 10t22 3h16q48 0 65 -21q15 -23 15 -44q0 -27 -20 -51.5t-53 -44t-75 -31t-85 -11.5h-37q-29 0 -56 9q-28 7 -28 20v197q0 21 33 37.5t82 28.5t106 18t106 6h109q37 0 97 -3q29 -2 58 -5t57 -8q28 -6 53 -13t43.5 -16t29 -20t10.5 -25v-228h-160zM-260 -827
h-178q-37 27 -66.5 47t-58.5 33.5t-61 20t-74 6.5v-84q0 -7 -13 -15t-42 -8h-78q-88 0 -135 21.5t-55 54.5v6q0 18 17 32.5t42 24.5t54.5 15.5t53.5 5.5v31q0 4 -13 10t-41 12t-70.5 10t-102.5 4q-127 0 -185.5 -12t-58.5 -26v-132q5 0 10 -9t11 -9q35 0 53.5 9t18.5 14
q0 4 -9 4q-5 0 -15.5 2t-27.5 6q-26 8 -26 33q0 16 10 25t23.5 13.5t26 5.5t18.5 1h16q84 0 84 -49q0 -26 -25.5 -45t-62 -31.5t-77.5 -18.5t-71 -6h-41q-28 0 -50.5 9.5t-22.5 23.5v172q0 15 33.5 27t89 20.5t127 13t147.5 4.5q77 0 147 -5t123.5 -14t85 -21t31.5 -25v-33
h4q49 0 96.5 -8t84 -21t59 -28.5t22.5 -30.5v561q0 19 -24.5 33t-61.5 23.5t-79 14.5t-78 5q-34 0 -73.5 -2t-73.5 -7t-56.5 -13.5t-22.5 -20.5v-18h-155v63q0 29 -37 47q-33 12 -63 15q-30 1 -35 14l-2 6q0 6 7.5 10.5t20 7.5t28 4.5t30.5 1.5q81 0 126.5 -22t57.5 -51
q19 6 46.5 10.5t60.5 7.5t69 4.5t72 1.5q93 0 169 -9t131 -23.5t85 -32.5t30 -35v-682z" />
    <glyph glyph-name="Upsilon" 
d="M-858 -1309q-12 0 -23 -4q-22 -4 -22 -22q0 -15 13.5 -20t31.5 -7v53zM-860 -1104v205q0 21 -22.5 33t-55 17t-67.5 6t-59 1h-66q-33 0 -67.5 -3.5t-63.5 -10t-47.5 -17.5t-18.5 -26v-154q25 0 44 4.5t31.5 11t19 13.5t6.5 12q0 6 -8 6q-30 0 -51 10q-31 9 -31 33
q0 19 11.5 31t26.5 19.5t30 10.5t22 3h16q48 0 65 -21q15 -23 15 -45q0 -26 -20 -50.5t-53 -44t-75 -31t-85 -11.5h-37q-29 0 -56 9q-28 7 -28 20v196q0 21 33 38t82 29t106 18t106 6h109q37 0 97 -3q29 -2 58 -5.5t57 -8.5t53 -11.5t43.5 -15.5t29 -20.5t10.5 -26.5v-227
h-160zM-262 -1415h-178q-38 27 -67.5 46.5t-58 33t-60.5 20t-74 6.5v-84q0 -6 -13.5 -14t-41.5 -8h-78q-88 0 -135 21.5t-56 54.5v6q0 18 17 32.5t42.5 24.5t55 15.5t53.5 5.5v30q0 4 -13 10.5t-41 12.5t-70.5 10t-102.5 4q-127 0 -185.5 -12t-58.5 -27v-131q4 0 9.5 -9
t11.5 -9q35 0 53.5 9t18.5 13t-9 4q-18 0 -43 9q-26 8 -26 32q0 16 10 25.5t23.5 13.5t26 5t18.5 1h16q84 0 84 -49q0 -26 -25.5 -44.5t-62 -31t-77.5 -18.5t-71 -6h-41q-28 0 -50.5 9t-22.5 24v172q0 15 33.5 27t89 20.5t127 13t147.5 4.5q77 0 147 -5t123.5 -14t85 -21
t31.5 -25v-33h4q49 0 96.5 -8t84 -21t59 -28.5t22.5 -30.5v561q0 18 -24.5 32.5t-61.5 24t-79 14.5t-78 5q-34 0 -73.5 -2t-73.5 -7.5t-56.5 -13.5t-22.5 -20v-19h-155v64q0 29 -37 47q-17 7 -33 10t-30 4q-31 2 -35 15l-3 6q0 6 8 10.5t20 7.5t27.5 4.5t30.5 1.5
q82 0 127.5 -22.5t57.5 -50.5q19 6 46.5 10.5t60.5 7.5t69 4.5t72 1.5q93 0 169 -9t131 -23.5t85 -32.5t30 -35v-682z" />
    <glyph glyph-name="Chi" unicode="&#x17a7;" horiz-adv-x="1384" 
d="M1174 881v190q0 29 -42 110q-27 36 -85 64q-60 21 -170 21q-120 4 -205 -39q-74 -68 -70 -145q0 -78 45 -96q40 0 121 29q20 7 49 7q62 0 100 -47q34 -43 34 -116q-5 -30 -45 -67q-43 -43 -138 -43q-107 13 -177 78q-74 59 -92 145q-4 16 -5.5 33t-1.5 35q0 116 59 205
q53 83 140 134q123 56 233 56q119 0 212 -42q58 -23 123 -78q61 -55 99 -148v-344q-89 -116 -204 -179q-60 -34 -116 -56.5t-110 -35.5q-245 -47 -252 -40v-253q0 -44 56 -67q60 -26 118 -26q82 0 144 35q31 13 102 54q69 37 74 82v237q0 -6 14 52q15 44 75 49
q91 -10 99 -31v-922q-11 -44 -60 -69q-49 -31 -106 -31q-71 0 -71 42q0 22 40 62v489q-11 -15 -29 -36t-43 -49q-57 -63 -71 -74q-101 -59 -215 -59q-124 0 -212 66q-96 60 -99 181v339q202 21 385 85q184 61 297 213z" />
    </font>
</defs>
</svg>
