<?xml version="1.0" standalone="no"?>
<!DOCTYPE svg PUBLIC "-//W3C//DTD SVG 1.1//EN" "http://www.w3.org/Graphics/SVG/1.1/DTD/svg11.dtd" >
<svg xmlns="http://www.w3.org/2000/svg" xmlns:xlink="http://www.w3.org/1999/xlink" version="1.1">
<metadata>
Created by FontForge 20150824 at Fri May 27 22:47:55 2016
 By Everything Fonts
Copyright (c) TR &#38; Dara, 2006. All rights reserved.
</metadata>
<defs>
<font id="KhmerMEF2" horiz-adv-x="0" >
  <font-face 
    font-family="Khmer MEF2"
    font-weight="400"
    font-stretch="normal"
    units-per-em="2048"
    panose-1="2 0 5 6 0 0 0 2 0 4"
    ascent="1638"
    descent="-410"
    x-height="1117"
    cap-height="1489"
    bbox="-1898 -1461 4522 2860"
    underline-thickness="130"
    underline-position="-235"
    unicode-range="U+0020-25CC"
  />
<missing-glyph horiz-adv-x="2048" 
d="M256 0v1536h1536v-1536h-1536zM384 128h1280v1280h-1280v-1280z" />
    <glyph glyph-name=".notdef" horiz-adv-x="2048" 
d="M256 0v1536h1536v-1536h-1536zM384 128h1280v1280h-1280v-1280z" />
    <glyph glyph-name=".null" 
 />
    <glyph glyph-name="nonmarkingreturn" horiz-adv-x="640" 
 />
    <glyph glyph-name="space" unicode=" " horiz-adv-x="640" 
 />
    <glyph glyph-name="exclam" unicode="!" horiz-adv-x="680" 
d="M452 1489l-28 -1079h-166l-30 1079h224zM442 0h-204v211h204v-211z" />
    <glyph glyph-name="quotedbl" unicode="&#x22;" horiz-adv-x="822" 
d="M708 1556l-43 -579h-132l-43 579h218zM332 1556l-43 -579h-132l-43 579h218z" />
    <glyph glyph-name="numbersign" unicode="#" horiz-adv-x="1490" 
d="M1348 932h-293l-92 -376h268v-135h-303l-105 -421h-129l105 421h-270l-105 -421h-129l105 421h-258v135h293l92 376h-268v135h303l105 422h129l-105 -422h270l105 422h129l-105 -422h258v-135zM929 934h-274l-94 -380h274z" />
    <glyph glyph-name="dollar" unicode="$" horiz-adv-x="1118" 
d="M1024 380q0 -147 -112.5 -252.5t-283.5 -126.5v-362h-114v357q-108 1 -217.5 25t-190.5 64v202h15q79 -59 178 -96t215 -47v432q-25 6 -61 14.5t-61 16.5q-150 41 -214.5 124t-64.5 204q0 142 111 247t290 122v272h114v-270q91 -3 188.5 -25.5t159.5 -49.5v-198h-15
q-70 48 -153.5 84t-179.5 44v-430q33 -7 61.5 -14.5t49.5 -12.5q136 -32 210.5 -111t74.5 -213zM514 746v414q-90 -8 -151 -58.5t-61 -140.5q0 -89 44.5 -137.5t167.5 -77.5zM835 354q0 94 -48 139t-159 68v-415q102 12 154.5 61.5t52.5 146.5z" />
    <glyph glyph-name="percent" unicode="%" horiz-adv-x="2000" 
d="M807 1076q0 -225 -90.5 -333.5t-261.5 -108.5q-174 0 -263.5 110t-89.5 331q0 224 91 333t262 109q174 0 263 -110t89 -331zM1473 1489l-780 -1489h-165l780 1489h165zM1897 413q0 -225 -90.5 -333.5t-261.5 -108.5q-174 0 -263.5 110t-89.5 331q0 224 91 333t262 109
q174 0 263 -110t89 -331zM629 1076q0 152 -35.5 230t-138.5 78t-139 -79t-36 -230q0 -150 34 -229t141 -79q103 0 138.5 79t35.5 230zM1719 413q0 152 -35.5 230t-138.5 78t-139 -79t-36 -230q0 -150 34 -229t141 -79q103 0 138.5 79t35.5 230z" />
    <glyph glyph-name="ampersand" unicode="&#x26;" horiz-adv-x="1380" 
d="M1445 0h-256l-204 213q-102 -130 -209.5 -187t-243.5 -57q-202 0 -333.5 121.5t-131.5 318.5q0 86 24 153t64 121q39 52 90 91.5t98 68.5q-101 68 -151 143t-50 189q0 71 28.5 131.5t74.5 106.5q48 47 124.5 77t167.5 30q166 0 271 -87.5t105 -221.5q0 -49 -12.5 -101.5
t-45.5 -101.5t-86.5 -92t-142.5 -75l352 -362q14 82 17 178.5t3 251.5h195v-96q0 -96 -24.5 -216.5t-80.5 -228.5zM898 301l-460 471q-25 -16 -50 -38t-55 -66q-24 -35 -42.5 -91.5t-18.5 -119.5q0 -142 84.5 -233.5t228.5 -91.5q96 0 173 40.5t140 128.5zM532 912
q56 19 92.5 51t56.5 70q18 35 27 74t9 84q0 97 -56.5 150t-131.5 53q-89 0 -140 -60t-51 -150q0 -40 7.5 -68.5t31.5 -66.5q21 -31 58.5 -66t96.5 -71z" />
    <glyph glyph-name="quotesingle" unicode="'" horiz-adv-x="432" 
d="M327 1556l-43 -579h-136l-43 579h222z" />
    <glyph glyph-name="parenleft" unicode="(" horiz-adv-x="784" 
d="M710 -412h-229q-174 207 -273.5 438t-99.5 546q0 308 98.5 542.5t274.5 441.5h229v-10q-81 -73 -154.5 -168.5t-136.5 -222.5q-60 -123 -97.5 -271t-37.5 -312q0 -171 36.5 -313t98.5 -270q60 -123 137 -222.5t154 -168.5v-10z" />
    <glyph glyph-name="parenright" unicode=")" horiz-adv-x="784" 
d="M676 572q0 -309 -99 -543t-274 -441h-229v10q77 69 155 169.5t136 221.5q62 129 98.5 272.5t36.5 310.5q0 165 -37 312t-98 271t-138 223t-153 168v10h229q174 -207 273.5 -440t99.5 -544z" />
    <glyph glyph-name="asterisk" unicode="*" horiz-adv-x="1118" 
d="M1007 887l-65 -110l-327 217l7 -364h-125l6 364l-325 -218l-66 110l354 207l-354 207l66 110l326 -219l-7 365h125l-8 -365l328 218l65 -110l-354 -205z" />
    <glyph glyph-name="plus" unicode="+" horiz-adv-x="1490" 
d="M1333 572h-505v-505h-166v505h-505v160h505v505h166v-505h505v-160z" />
    <glyph glyph-name="comma" unicode="," horiz-adv-x="620" 
d="M500 285l-280 -655h-146l176 655h250z" />
    <glyph glyph-name="hyphen" unicode="-" horiz-adv-x="744" 
d="M654 561h-564v181h564v-181z" />
    <glyph glyph-name="period" unicode="." horiz-adv-x="620" 
d="M429 0h-239v285h239v-285z" />
    <glyph glyph-name="slash" unicode="/" horiz-adv-x="783" 
d="M728 1556l-583 -1880h-169l580 1880h172z" />
    <glyph glyph-name="zero" unicode="0" horiz-adv-x="1118" 
d="M1035 745q0 -401 -116.5 -588.5t-359.5 -187.5q-246 0 -361 191t-115 583q0 403 116.5 589.5t359.5 186.5q246 0 361 -193t115 -581zM779 291q29 74 41 187t12 267q0 153 -12 266t-42 188q-30 76 -82.5 115.5t-136.5 39.5q-83 0 -136.5 -39.5t-84.5 -117.5
q-30 -76 -41 -192t-11 -262q0 -156 9.5 -261t41.5 -188q29 -77 82.5 -118.5t139.5 -41.5q83 0 136.5 39.5t83.5 117.5z" />
    <glyph glyph-name="one" unicode="1" horiz-adv-x="1118" 
d="M952 0h-726v152h270v998h-270v136q153 0 225.5 43.5t81.5 164.5h155v-1342h264v-152z" />
    <glyph glyph-name="two" unicode="2" horiz-adv-x="1118" 
d="M1028 0h-919v209q99 94 187 180t172 179q170 187 232 299.5t62 232.5q0 62 -19.5 109t-53.5 78q-35 30 -81 45t-101 15q-53 0 -107.5 -13.5t-104.5 -33.5q-42 -17 -81 -41t-63 -41h-11v212q62 31 172.5 60.5t209.5 29.5q208 0 326 -110.5t118 -299.5q0 -87 -20.5 -161
t-56.5 -137q-37 -65 -89 -129t-110 -126q-94 -102 -209.5 -212t-184.5 -174h732v-171z" />
    <glyph glyph-name="three" unicode="3" horiz-adv-x="1118" 
d="M511 1347q-54 0 -108 -13t-106 -34q-48 -20 -83.5 -42t-63.5 -41h-12v211q65 35 176.5 63.5t212.5 28.5t176.5 -20.5t136.5 -63.5q66 -48 99.5 -116t33.5 -159q0 -123 -81 -216t-194 -118v-14q47 -9 100.5 -31t99.5 -65t75 -110.5t29 -164.5q0 -101 -34.5 -185.5
t-97.5 -149.5q-65 -68 -157 -103t-209 -35q-112 0 -222 27t-185 65v211h14q63 -46 169 -88t212 -42q61 0 122.5 19.5t102.5 63.5q40 44 61 97t21 134t-23.5 133t-65.5 82t-99.5 41.5t-124.5 11.5h-85v166h66q135 0 219.5 64t84.5 186q0 56 -22 96.5t-56 64.5q-38 26 -84 36
t-98 10z" />
    <glyph glyph-name="four" unicode="4" horiz-adv-x="1118" 
d="M1067 512h-177v-512h-192v512h-658v210l666 767h184v-817h177v-160zM698 672v582l-502 -582h502z" />
    <glyph glyph-name="five" unicode="5" horiz-adv-x="1118" 
d="M1011 474q0 -108 -34.5 -200t-96.5 -159q-63 -68 -156.5 -107t-209.5 -39q-107 0 -210.5 23.5t-179.5 61.5v211h14q23 -17 66 -38.5t95 -40.5q59 -21 108 -32.5t110 -11.5q60 0 117 21.5t98 69.5q37 44 56.5 103t19.5 139q0 79 -21.5 130t-62.5 84q-43 38 -105.5 53.5
t-139.5 15.5q-81 0 -163 -12.5t-131 -23.5v767h817v-175h-624v-396q36 4 71 6t64 2q114 0 193 -19t152 -74q74 -56 113.5 -140t39.5 -219z" />
    <glyph glyph-name="six" unicode="6" horiz-adv-x="1118" 
d="M1051 483q0 -115 -38 -212t-102 -162q-67 -69 -150 -104.5t-183 -35.5q-101 0 -183.5 34t-145.5 101q-77 81 -120.5 216.5t-43.5 333.5q0 194 40 350.5t123 272.5q81 113 209 176.5t296 63.5q50 0 93 -5t76 -16v-191h-9q-27 15 -78 27.5t-109 12.5q-186 0 -300.5 -125.5
t-135.5 -372.5q71 50 146 77t164 27q87 0 152.5 -17.5t136.5 -70.5q82 -62 122 -157t40 -223zM848 475q0 92 -24 154t-78 106q-39 32 -88.5 42t-101.5 10q-70 0 -136 -21t-130 -61q-2 -22 -3 -42.5t-1 -51.5q0 -155 30.5 -250t75.5 -144q43 -47 88.5 -66t98.5 -19
q120 0 194.5 86t74.5 257z" />
    <glyph glyph-name="seven" unicode="7" horiz-adv-x="1118" 
d="M1044 1266l-644 -1266h-213l682 1314h-770v175h945v-223z" />
    <glyph glyph-name="eight" unicode="8" horiz-adv-x="1118" 
d="M811 1142q0 100 -67 167t-186 67q-109 0 -178.5 -60t-69.5 -162q0 -74 35.5 -125t106.5 -92q31 -17 94.5 -47t115.5 -47q87 67 118 137.5t31 161.5zM839 396q0 92 -36 146t-139 110q-34 19 -90.5 41t-127.5 52q-83 -55 -127 -135.5t-44 -183.5q0 -135 81.5 -223
t204.5 -88q126 0 202 75.5t76 205.5zM559 -34q-111 0 -202 33t-155 95q-63 60 -95.5 142.5t-32.5 174.5q0 121 64.5 222.5t187.5 161.5v6q-110 64 -163 140t-53 190q0 168 127 280t322 112q203 0 325.5 -106.5t122.5 -272.5q0 -100 -58.5 -198t-168.5 -153v-6
q130 -61 197 -148t67 -224q0 -191 -138.5 -320t-346.5 -129z" />
    <glyph glyph-name="nine" unicode="9" horiz-adv-x="1118" 
d="M832 877q0 152 -28 247.5t-77 147.5q-44 48 -89 66t-99 18q-123 0 -196 -88t-73 -255q0 -94 24 -155t78 -105q38 -31 86 -41.5t103 -10.5q64 0 138 22.5t129 59.5q1 15 2.5 39.5t1.5 54.5zM67 1005q0 115 37.5 210t102.5 164q62 66 151.5 103t181.5 37q103 0 186.5 -34.5
t144.5 -99.5q77 -82 119.5 -215t42.5 -336q0 -185 -41.5 -350.5t-122.5 -274.5q-86 -116 -206.5 -177t-297.5 -61q-40 0 -85 4.5t-84 16.5v191h10q25 -14 78 -27t108 -13q196 0 308 129t127 369q-80 -54 -152.5 -79t-157.5 -25q-83 0 -151 18t-137 70q-80 61 -121 154.5
t-41 225.5z" />
    <glyph glyph-name="colon" unicode=":" horiz-adv-x="724" 
d="M482 832h-239v285h239v-285zM482 0h-239v285h239v-285z" />
    <glyph glyph-name="semicolon" unicode=";" horiz-adv-x="724" 
d="M482 832h-239v285h239v-285zM548 285l-280 -655h-146l176 655h250z" />
    <glyph glyph-name="less" unicode="&#x3c;" horiz-adv-x="1490" 
d="M1275 79l-1074 513v120l1074 513v-178l-833 -395l833 -395v-178z" />
    <glyph glyph-name="equal" unicode="=" horiz-adv-x="1490" 
d="M1298 782h-1106v160h1106v-160zM1298 362h-1106v160h1106v-160z" />
    <glyph glyph-name="greater" unicode="&#x3e;" horiz-adv-x="1490" 
d="M1289 592l-1074 -513v178l833 395l-833 395v178l1074 -513v-120z" />
    <glyph glyph-name="question" unicode="?" horiz-adv-x="970" 
d="M912 1139q0 -98 -32.5 -174.5t-86.5 -134.5t-122.5 -107t-144.5 -95v-228h-179v305q56 34 130.5 81.5t116.5 88.5q54 51 84 111.5t30 137.5q0 113 -71 168.5t-185 55.5q-100 0 -188.5 -33.5t-143.5 -69.5h-11v204q67 27 169 48.5t193 21.5q205 0 323 -104.5t118 -275.5z
M542 0h-204v211h204v-211z" />
    <glyph glyph-name="at" unicode="@" horiz-adv-x="1862" 
d="M1739 663q0 -139 -38 -268.5t-109 -237.5h-421l-25 116q-67 -57 -123.5 -90.5t-153.5 -33.5q-154 0 -252 123.5t-98 358.5t120.5 366t275.5 131q72 0 124 -18t105 -48v48h159v-842h227q38 71 54.5 184t16.5 205q0 327 -166.5 526.5t-478.5 199.5q-296 0 -488.5 -215.5
t-192.5 -522.5q0 -330 187 -534.5t489 -204.5q81 0 170.5 11t169.5 35v-142q-84 -20 -170.5 -28t-170.5 -8q-354 0 -586 243t-232 630q0 367 239.5 619t583.5 252q368 0 576 -237.5t208 -617.5zM1142 408v518q-56 29 -103 41.5t-98 12.5q-113 0 -182 -84.5t-69 -261.5
q0 -160 52 -245t166 -85q61 0 120.5 29t113.5 75z" />
    <glyph glyph-name="A" unicode="A" horiz-adv-x="1228" 
d="M-10 0l502 1489h244l502 -1489h-209l-135 416h-569l-135 -416h-200zM839 585l-230 702l-229 -702h459z" />
    <glyph glyph-name="B" unicode="B" horiz-adv-x="1207" 
d="M1161 457q0 -111 -42 -196t-113 -140q-84 -66 -180 -93.5t-248 -27.5h-427v1489h395q159 0 238.5 -10.5t152.5 -49.5q80 -43 117 -112.5t37 -163.5q0 -105 -55.5 -188t-153.5 -130v-8q133 -36 206 -131.5t73 -238.5zM885 1125q0 54 -18 93.5t-58 62.5q-48 27 -107 33
t-163 6h-190v-436h225q93 0 137 9.5t91 39.5q45 29 64 76t19 116zM955 449q0 84 -24 138.5t-97 92.5q-47 25 -102.5 32t-157.5 7h-225v-550h161q130 0 205 12t132 51q56 39 82 88.5t26 128.5z" />
    <glyph glyph-name="C" unicode="C" horiz-adv-x="1230" 
d="M733 -27q-146 0 -268.5 49t-211.5 146t-138 242t-49 333q0 187 47.5 326t138.5 242q89 100 211 152.5t273 52.5q75 0 140.5 -11t121.5 -28q48 -15 98.5 -37.5t99.5 -49.5v-239h-16q-26 24 -67 58t-100 67q-57 31 -124 51t-155 20q-95 0 -180 -39t-149 -115
q-63 -76 -98 -191t-35 -259q0 -153 37 -263.5t101 -186.5q62 -74 146 -111.5t178 -37.5q86 0 159 21t130 53q55 31 95 63.5t63 55.5h15v-236q-49 -23 -92.5 -44t-105.5 -41q-65 -21 -120.5 -32t-144.5 -11z" />
    <glyph glyph-name="D" unicode="D" horiz-adv-x="1389" 
d="M1325 743q0 -204 -82.5 -368t-221.5 -256q-113 -71 -229.5 -95t-297.5 -24h-343v1489h339q210 0 329.5 -31.5t203.5 -86.5q144 -95 223 -252.5t79 -375.5zM1119 746q0 172 -57 293.5t-169 189.5q-79 48 -169 69t-224 21h-151v-1149h151q132 0 231 21t181 78
q103 70 155 186.5t52 290.5z" />
    <glyph glyph-name="E" unicode="E" horiz-adv-x="1149" 
d="M151 0v1489h931v-176h-733v-408h683v-176h-683v-553h733v-176h-931z" />
    <glyph glyph-name="F" unicode="F" horiz-adv-x="1068" 
d="M1042 1313h-693v-420h664v-176h-664v-717h-198v1489h891v-176z" />
    <glyph glyph-name="G" unicode="G" horiz-adv-x="1367" 
d="M774 -29q-158 0 -289 48t-225 146q-94 99 -144 245t-50 336q0 180 50.5 322.5t144.5 243.5q91 98 224 151t291 53q75 0 144 -11t132 -30q50 -15 111.5 -41.5t99.5 -45.5v-239h-17q-37 33 -76.5 62.5t-111.5 63.5q-60 30 -138 50t-168 20q-215 0 -347.5 -162t-132.5 -431
q0 -150 35 -262t101 -190q64 -77 154.5 -117.5t203.5 -40.5q84 0 167 12t140 36v385h-344v174h540v-650q-38 -17 -101.5 -43t-118.5 -41q-73 -22 -132 -33t-143 -11z" />
    <glyph glyph-name="H" unicode="H" horiz-adv-x="1383" 
d="M1232 0h-198v729h-685v-729h-198v1489h198v-584h685v584h198v-1489z" />
    <glyph glyph-name="I" unicode="I" horiz-adv-x="764" 
d="M671 0h-578v152h190v1185h-190v152h578v-152h-190v-1185h190v-152z" />
    <glyph glyph-name="J" unicode="J" horiz-adv-x="853" 
d="M712 387q0 -196 -119.5 -302t-320.5 -106q-48 0 -128.5 8.5t-134.5 20.5v189h11q41 -14 101.5 -31t123.5 -17q92 0 146.5 21t80.5 60q27 40 34.5 98t7.5 134v869h-315v158h513v-1102z" />
    <glyph glyph-name="K" unicode="K" horiz-adv-x="1204" 
d="M1236 0h-257l-543 693l-87 -98v-595h-198v1489h198v-685l610 685h241l-616 -665z" />
    <glyph glyph-name="L" unicode="L" horiz-adv-x="1019" 
d="M1014 0h-863v1489h198v-1313h665v-176z" />
    <glyph glyph-name="M" unicode="M" horiz-adv-x="1578" 
d="M1427 0h-198v1283l-388 -873h-120l-385 873v-1283h-185v1489h270l372 -829l359 829h275v-1489z" />
    <glyph glyph-name="N" unicode="N" horiz-adv-x="1367" 
d="M1216 0h-222l-658 1284v-1284h-185v1489h281l599 -1179v1179h185v-1489z" />
    <glyph glyph-name="O" unicode="O" horiz-adv-x="1449" 
d="M1204 1318q85 -98 132 -243t47 -331q0 -181 -46 -327t-133 -245q-91 -104 -212.5 -153.5t-267.5 -49.5q-151 0 -272 51t-208 152q-86 99 -132 244t-46 328q0 188 46.5 330t132.5 244q86 99 207.5 150.5t271.5 51.5q152 0 274 -53t206 -149zM1177 744q0 148 -32 262
t-90 189q-59 77 -142.5 115.5t-187.5 38.5q-108 0 -188.5 -37.5t-142.5 -116.5q-59 -76 -90.5 -191t-31.5 -260q0 -293 123 -448.5t330 -155.5t329.5 155.5t122.5 448.5z" />
    <glyph glyph-name="P" unicode="P" horiz-adv-x="1129" 
d="M1091 1040q0 -97 -34.5 -183.5t-95.5 -147.5q-77 -76 -181 -115t-263 -39h-168v-555h-198v1489h374q132 0 225 -22t164 -71q83 -57 130 -144.5t47 -211.5zM885 1035q0 77 -26.5 134t-80.5 93q-47 31 -109.5 44t-155.5 13h-164v-595h135q120 0 194 19.5t123 69.5
q44 45 64 98t20 124z" />
    <glyph glyph-name="Q" unicode="Q" horiz-adv-x="1449" 
d="M1388 -364q-54 -14 -113.5 -21t-118.5 -7q-167 0 -271.5 94t-114.5 268h-25h-21q-151 0 -272.5 51.5t-207.5 150.5t-132 244t-46 328q0 188 46.5 330t132.5 244q86 99 207.5 150.5t271.5 51.5q152 0 274 -53t206 -149q85 -98 132 -243t47 -331q0 -289 -113 -477
t-309 -255q5 -56 19.5 -100.5t37.5 -70.5q27 -31 65.5 -45.5t105.5 -14.5q40 0 94 12.5t78 22.5h27v-180zM1177 744q0 148 -32 262t-90 189q-59 77 -142.5 115.5t-187.5 38.5q-108 0 -188.5 -37.5t-142.5 -116.5q-59 -76 -90.5 -191t-31.5 -260q0 -293 123 -449t330 -156
t329.5 156t122.5 449z" />
    <glyph glyph-name="R" unicode="R" horiz-adv-x="1271" 
d="M1304 0h-257l-472 592h-226v-592h-198v1489h384q128 0 214.5 -14t164.5 -65q78 -50 123.5 -129t45.5 -196q0 -164 -83 -274t-226 -163zM876 1070q0 65 -23 115.5t-71 82.5q-42 28 -98 39.5t-139 11.5h-196v-562h174q85 0 153 15t116 62q43 42 63.5 100t20.5 136z" />
    <glyph glyph-name="S" unicode="S" horiz-adv-x="1141" 
d="M566 -27q-162 0 -275.5 33.5t-213.5 82.5v248h14q98 -92 222 -142.5t239 -50.5q164 0 248 68.5t84 180.5q0 89 -44 145t-140 83q-69 20 -126 33t-143 35q-77 20 -138 51t-108 81q-46 49 -71.5 115.5t-25.5 153.5q0 181 141 303.5t360 122.5q125 0 236.5 -25t206.5 -71
v-237h-15q-71 65 -182 113.5t-233 48.5q-138 0 -223 -64.5t-85 -169.5q0 -95 50 -151t145 -82q63 -17 154 -38.5t151 -39.5q154 -47 225 -142t71 -234q0 -87 -35.5 -172t-99.5 -144q-72 -65 -162.5 -100t-226.5 -35z" />
    <glyph glyph-name="T" unicode="T" horiz-adv-x="1196" 
d="M499 0v1313h-500v176h1198v-176h-500v-1313h-198z" />
    <glyph glyph-name="U" unicode="U" horiz-adv-x="1343" 
d="M671 -31q-131 0 -229 34.5t-167 102.5q-78 78 -110 186.5t-32 267.5v929h198v-929q0 -103 13 -173.5t51 -126.5q40 -60 108.5 -91t167.5 -31q93 0 165 31t112 91q37 57 50.5 126t13.5 169v934h198v-929q0 -155 -31.5 -266t-110.5 -188q-71 -69 -165.5 -103t-231.5 -34z
" />
    <glyph glyph-name="V" unicode="V" horiz-adv-x="1222" 
d="M1230 1489l-512 -1489h-214l-512 1489h212l412 -1236l412 1236h202z" />
    <glyph glyph-name="W" unicode="W" horiz-adv-x="1847" 
d="M1821 1489l-374 -1489h-223l-303 1236l-296 -1236h-218l-381 1489h203l300 -1238l298 1238h201l301 -1250l298 1250h194z" />
    <glyph glyph-name="X" unicode="X" horiz-adv-x="1189" 
d="M1181 0h-227l-363 596l-369 -596h-214l473 745l-459 744h226l356 -585l361 585h215l-466 -734z" />
    <glyph glyph-name="Y" unicode="Y" horiz-adv-x="1180" 
d="M1193 1489l-503 -830v-659h-198v638l-503 851h220l384 -657l390 657h210z" />
    <glyph glyph-name="Z" unicode="Z" horiz-adv-x="1145" 
d="M1100 0h-1040v184l797 1129h-761v176h984v-179l-806 -1134h826v-176z" />
    <glyph glyph-name="bracketleft" unicode="[" horiz-adv-x="784" 
d="M686 -392h-520v1948h520v-143h-345v-1662h345v-143z" />
    <glyph glyph-name="backslash" unicode="\" horiz-adv-x="783" 
d="M804 -324h-169l-583 1880h172z" />
    <glyph glyph-name="bracketright" unicode="]" horiz-adv-x="784" 
d="M618 -392h-520v143h345v1662h-345v143h520v-1948z" />
    <glyph glyph-name="asciicircum" unicode="^" horiz-adv-x="1490" 
d="M1357 684h-198l-415 625l-414 -627h-197l549 807h126z" />
    <glyph glyph-name="underscore" unicode="_" horiz-adv-x="1118" 
d="M1134 -300h-1150v130h1150v-130z" />
    <glyph glyph-name="grave" unicode="`" horiz-adv-x="1118" 
d="M670 1302h-149l-273 374h243z" />
    <glyph glyph-name="a" unicode="a" horiz-adv-x="1075" 
d="M760 275v310q-67 -6 -169.5 -16.5t-165.5 -29.5q-75 -23 -124 -70.5t-49 -132.5q0 -96 54 -145t158 -49q89 0 161 38.5t135 94.5zM760 119q-23 -17 -61.5 -47.5t-74.5 -48.5q-50 -26 -96.5 -40t-130.5 -14q-69 0 -131 26t-109 73q-45 46 -72 113.5t-27 142.5
q0 116 49 197.5t155 129.5q94 43 222 59.5t276 24.5v36q0 66 -20 106.5t-56 62.5q-36 23 -88 30.5t-107 7.5q-65 0 -153 -19.5t-176 -56.5h-11v191q52 15 149 33t192 18q115 0 194 -18t142 -65q61 -46 91 -119t30 -178v-764h-187v119z" />
    <glyph glyph-name="b" unicode="b" horiz-adv-x="1132" 
d="M879 562q0 200 -61 303.5t-196 103.5q-77 0 -155.5 -36t-142.5 -91v-640q71 -35 126 -49.5t121 -14.5q144 0 226 102t82 322zM1073 577q0 -274 -133 -441t-333 -167q-91 0 -155.5 22.5t-127.5 60.5l-12 -52h-176v1556h188v-556q71 64 154 106t188 42q189 0 298 -151.5
t109 -419.5z" />
    <glyph glyph-name="c" unicode="c" horiz-adv-x="945" 
d="M580 -25q-115 0 -211 35.5t-165 107.5t-107 181.5t-38 257.5q0 147 39.5 254t105.5 180t164.5 112.5t211.5 39.5q92 0 177.5 -26t152.5 -60v-211h-11q-20 17 -51.5 39t-76.5 45q-39 20 -92 35t-102 15q-146 0 -234.5 -110.5t-88.5 -312.5q0 -198 85.5 -308.5
t237.5 -110.5q92 0 175 38t147 98h11v-211q-28 -13 -70 -31.5t-76 -27.5q-48 -14 -86 -21.5t-98 -7.5z" />
    <glyph glyph-name="d" unicode="d" horiz-adv-x="1132" 
d="M996 0h-188v114q-44 -37 -76 -61t-75 -44q-40 -19 -83 -29.5t-100 -10.5q-91 0 -168.5 38t-131.5 111q-55 74 -85 182.5t-30 249.5q0 147 38 254.5t105 187.5q61 73 147.5 114.5t181.5 41.5q84 0 146 -18.5t131 -57.5v484h188v-1556zM808 272v644q-70 34 -125.5 47
t-120.5 13q-145 0 -227 -108.5t-82 -313.5q0 -197 63 -301.5t202 -104.5q74 0 149 33.5t141 90.5z" />
    <glyph glyph-name="e" unicode="e" horiz-adv-x="1078" 
d="M621 -26q-267 0 -414.5 150.5t-147.5 427.5q0 273 143 434.5t374 161.5q104 0 184 -30t140 -94t92 -156.5t32 -226.5v-102h-774q0 -195 98 -298t271 -103q62 0 121.5 14t107.5 36q51 23 86 44.5t58 40.5h11v-205q-33 -13 -82 -32.5t-88 -30.5q-55 -15 -99.5 -23
t-112.5 -8zM841 683q-2 76 -18 131t-46 93q-33 42 -84.5 64t-127.5 22q-75 0 -127.5 -22.5t-95.5 -65.5q-42 -44 -64 -97.5t-28 -124.5h591z" />
    <glyph glyph-name="f" unicode="f" horiz-adv-x="652" 
d="M724 1376h-10q-25 9 -72 17.5t-84 8.5q-119 0 -169.5 -53.5t-50.5 -193.5v-38h311v-156h-305v-961h-188v961h-127v156h127v37q0 202 97 307t278 105q52 0 102 -5.5t91 -12.5v-172z" />
    <glyph glyph-name="g" unicode="g" horiz-adv-x="1132" 
d="M808 303v613q-70 34 -129.5 48.5t-118.5 14.5q-143 0 -225 -105t-82 -301q0 -186 62.5 -283t202.5 -97q73 0 150.5 29t139.5 81zM176 -179q19 -8 56 -21.5t84 -25.5q52 -13 96 -21t96 -8q87 0 147.5 23t94.5 64q32 41 45 95t13 123v98q-76 -66 -149 -97.5t-183 -31.5
q-191 0 -304 142t-113 408q0 139 39 246.5t105 182.5q63 72 149 111t178 39q87 0 150.5 -20.5t127.5 -58.5l11 48h177v-990q0 -284 -124 -417t-379 -133q-82 0 -167.5 13t-159.5 35v196h10z" />
    <glyph glyph-name="h" unicode="h" horiz-adv-x="1142" 
d="M1014 0h-188v636q0 77 -7.5 143.5t-28.5 106.5q-23 42 -64 62.5t-112 20.5q-70 0 -144.5 -37.5t-145.5 -97.5v-834h-188v1556h188v-563q84 75 166 115t173 40q165 0 258 -108.5t93 -314.5v-725z" />
    <glyph glyph-name="i" unicode="i" horiz-adv-x="468" 
d="M328 0h-188v1117h188v-1117zM341 1304h-214v195h214v-195z" />
    <glyph glyph-name="j" unicode="j" horiz-adv-x="577" 
d="M441 -32q0 -191 -102.5 -291t-282.5 -100q-31 0 -69.5 3t-76.5 9v168h11q22 -5 48.5 -9.5t50.5 -4.5q75 0 123.5 18.5t72.5 58.5q22 36 29.5 91t7.5 134v916h-202v156h390v-1149zM442 1304h-214v195h214v-195z" />
    <glyph glyph-name="k" unicode="k" horiz-adv-x="1020" 
d="M1062 0h-247l-417 539l-74 -72v-467h-188v1556h188v-911l442 472h234l-459 -467z" />
    <glyph glyph-name="l" unicode="l" horiz-adv-x="468" 
d="M328 0h-188v1556h188v-1556z" />
    <glyph glyph-name="m" unicode="m" horiz-adv-x="1720" 
d="M1404 0v646q0 77 -6 142.5t-25 102.5q-20 40 -57 59t-100 19q-58 0 -124.5 -35.5t-137.5 -102.5q1 -17 2.5 -40.5t1.5 -55.5v-735h-188v646q0 77 -6 142.5t-25 102.5q-20 40 -57 59t-100 19q-61 0 -128 -38t-130 -97v-834h-188v1117h188v-124q74 74 146.5 114.5
t159.5 40.5q99 0 175.5 -45t116.5 -148q85 95 166 144t176 49q72 0 131 -22.5t103 -72.5q45 -51 69.5 -127t24.5 -191v-735h-188z" />
    <glyph glyph-name="n" unicode="n" horiz-adv-x="1142" 
d="M1014 0h-188v636q0 77 -7.5 143.5t-28.5 106.5q-23 42 -64 62.5t-112 20.5q-70 0 -144.5 -37.5t-145.5 -97.5v-834h-188v1117h188v-124q84 75 166 115t173 40q165 0 258 -108.5t93 -314.5v-725z" />
    <glyph glyph-name="o" unicode="o" horiz-adv-x="1112" 
d="M1055 558q0 -282 -136 -435.5t-362 -153.5q-233 0 -366.5 158.5t-133.5 430.5q0 280 137.5 435t362.5 155q226 0 362 -154.5t136 -435.5zM861 558q0 217 -79 322.5t-225 105.5q-147 0 -226.5 -105.5t-79.5 -322.5q0 -210 79.5 -318.5t226.5 -108.5q145 0 224.5 106.5
t79.5 320.5z" />
    <glyph glyph-name="p" unicode="p" horiz-adv-x="1132" 
d="M1073 588q0 -279 -133.5 -444.5t-337.5 -165.5q-83 0 -147 19t-131 59v-468h-188v1529h188v-117q70 63 155.5 105.5t186.5 42.5q192 0 299.5 -152t107.5 -408zM879 567q0 191 -61 296.5t-198 105.5q-80 0 -154.5 -35.5t-141.5 -91.5v-633q74 -36 126.5 -49t120.5 -13
q146 0 227 107t81 313z" />
    <glyph glyph-name="q" unicode="q" horiz-adv-x="1132" 
d="M996 -412h-188v534q-82 -75 -160 -109.5t-173 -34.5q-190 0 -303 152.5t-113 424.5q0 144 39.5 254.5t104.5 185.5q62 73 148 113t179 40q86 0 149 -20t129 -59l12 48h176v-1529zM808 280v636q-71 35 -127 49t-120 14q-148 0 -228 -107t-80 -308q0 -196 64 -301.5
t199 -105.5q79 0 154 34t138 89z" />
    <glyph glyph-name="r" unicode="r" horiz-adv-x="738" 
d="M728 915h-10q-21 6 -44.5 7.5t-56.5 1.5q-76 0 -151 -33t-142 -98v-793h-188v1117h188v-166q103 91 179.5 128.5t148.5 37.5q29 0 43.5 -1.5t32.5 -4.5v-196z" />
    <glyph glyph-name="s" unicode="s" horiz-adv-x="914" 
d="M438 -27q-112 0 -209.5 30t-161.5 64v211h10q24 -19 56.5 -42t86.5 -48q48 -22 105.5 -39t119.5 -17q45 0 96 10.5t76 26.5q35 23 50.5 49t15.5 78q0 67 -36.5 101t-129.5 57q-36 9 -94 21t-107 26q-128 37 -186 114.5t-58 187.5q0 151 114 246t303 95q93 0 187 -23
t158 -58v-201h-10q-72 57 -160.5 90t-178.5 33q-93 0 -157 -39t-64 -118q0 -70 38 -104.5t122 -56.5q42 -11 93.5 -21.5t108.5 -24.5q124 -31 186.5 -103t62.5 -196q0 -72 -28.5 -136.5t-83.5 -110.5q-60 -50 -135.5 -76t-189.5 -26z" />
    <glyph glyph-name="t" unicode="t" horiz-adv-x="685" 
d="M474 -22q-154 0 -240 87.5t-86 276.5v619h-127v156h127v321h188v-321h346v-156h-346v-531q0 -85 3 -131t23 -86q17 -35 55 -52.5t103 -17.5q46 0 89 13.5t62 22.5h11v-169q-53 -15 -107.5 -23.5t-100.5 -8.5z" />
    <glyph glyph-name="u" unicode="u" horiz-adv-x="1142" 
d="M1006 0h-188v124q-87 -76 -165 -115.5t-174 -39.5q-73 0 -137.5 24t-112.5 76t-74.5 131t-26.5 192v725h188v-636q0 -89 6.5 -147.5t29.5 -102.5q23 -43 62.5 -63t113.5 -20q69 0 147 39t143 96v834h188v-1117z" />
    <glyph glyph-name="v" unicode="v" horiz-adv-x="1020" 
d="M1014 1117l-421 -1117h-169l-418 1117h203l306 -862l303 862h196z" />
    <glyph glyph-name="w" unicode="w" horiz-adv-x="1520" 
d="M1490 1117l-283 -1117h-174l-273 861l-271 -861h-173l-286 1117h196l197 -865l265 865h155l272 -865l186 865h189z" />
    <glyph glyph-name="x" unicode="x" horiz-adv-x="1014" 
d="M1004 0h-231l-271 422l-279 -422h-213l388 554l-384 563h231l269 -418l276 418h214l-386 -550z" />
    <glyph glyph-name="y" unicode="y" horiz-adv-x="1020" 
d="M1014 1117l-601 -1529h-201l200 466l-406 1063h203l305 -827l304 827h196z" />
    <glyph glyph-name="z" unicode="z" horiz-adv-x="910" 
d="M870 0h-821v139l584 823h-560v155h786v-134l-587 -826h598v-157z" />
    <glyph glyph-name="braceleft" unicode="{" horiz-adv-x="984" 
d="M886 -392h-116q-179 0 -280.5 98.5t-101.5 288.5v149q0 69 -13 139t-50 120t-96.5 75.5t-147.5 25.5h-21v156h21q88 0 147.5 25.5t96.5 75.5t50 120t13 139v149q0 190 101.5 288.5t280.5 98.5h116v-138h-80q-59 0 -102 -12t-74 -41q-32 -30 -47.5 -83t-15.5 -130v-175
q0 -82 -19 -138t-56 -105q-33 -44 -86 -80.5t-110 -59.5v-24q57 -23 109.5 -59.5t86.5 -80.5q37 -49 56 -105t19 -138v-175q0 -77 15.5 -130t47.5 -83q30 -29 73.5 -41t102.5 -12h80v-138z" />
    <glyph glyph-name="bar" unicode="|" horiz-adv-x="783" 
d="M475 -392h-167v1948h167v-1948z" />
    <glyph glyph-name="braceright" unicode="}" horiz-adv-x="984" 
d="M924 504h-21q-88 0 -147.5 -25.5t-96.5 -75.5t-50 -120t-13 -139v-149q0 -190 -101.5 -288.5t-280.5 -98.5h-116v138h80q59 0 102 12t74 41q32 30 47.5 83t15.5 130v175q0 82 19 138t56 105q33 44 86 80.5t110 59.5v24q-57 23 -110 59.5t-86 80.5q-37 49 -56 105t-19 138
v175q0 77 -15.5 130t-47.5 83q-31 29 -74 41t-102 12h-80v138h116q179 0 280.5 -98.5t101.5 -288.5v-149q0 -69 13 -139t50 -120t96.5 -75.5t147.5 -25.5h21v-156z" />
    <glyph glyph-name="asciitilde" unicode="~" horiz-adv-x="1490" 
d="M1356 927q-2 -102 -21 -196.5t-60 -169.5q-41 -73 -102 -119t-159 -46q-57 0 -102.5 15.5t-80.5 40.5t-67 60t-57 65q-27 33 -53 67t-51 60q-27 28 -56 45t-66 17q-50 0 -83 -26.5t-55 -78.5q-21 -50 -29.5 -120t-11.5 -146h-168q2 104 21.5 199t58.5 167
q40 76 106 120.5t156 44.5q60 0 105.5 -16t80.5 -41t64.5 -57t57.5 -67q22 -27 52.5 -66t51.5 -61q29 -30 58.5 -46t62.5 -16q50 0 84.5 28t53.5 76q20 50 29.5 117.5t11.5 149.5h168z" />
    <glyph glyph-name="Adieresis" unicode="&#x201a;" horiz-adv-x="1228" 
d="M-10 0l502 1489h244l502 -1489h-209l-135 416h-569l-135 -416h-200zM839 585l-230 702l-229 -702h459zM913 1657h-201v195h201v-195zM500 1657h-201v195h201v-195z" />
    <glyph glyph-name="Aring" unicode="&#x192;" horiz-adv-x="1228" 
d="M874.5 1532q-45.5 -69 -116.5 -107l480 -1425h-209l-135 416h-569l-135 -416h-200l479 1422q-72 40 -116.5 108.5t-44.5 154.5q0 128 89 214.5t217 86.5q129 0 217.5 -86t88.5 -215q0 -84 -45.5 -153zM839 584l-230 705l-229 -705h459zM773 1683q0 73 -44 121.5
t-115 48.5q-70 0 -114.5 -48.5t-44.5 -121.5q0 -74 45 -122.5t114 -48.5t114 48.5t45 122.5z" />
    <glyph glyph-name="Ccedilla" unicode="&#x201e;" horiz-adv-x="1230" 
d="M733 -27q-146 0 -268.5 49t-211.5 146t-138 242t-49 333q0 187 47.5 326t138.5 242q89 100 211 152.5t273 52.5q75 0 140.5 -11t121.5 -28q48 -15 98.5 -37.5t99.5 -49.5v-239h-16q-26 24 -67 58t-100 67q-57 31 -124 51t-155 20q-95 0 -180 -39t-149 -115
q-63 -76 -98 -191t-35 -259q0 -153 37 -263.5t101 -186.5q62 -74 146 -111.5t178 -37.5q86 0 159 21t130 53q55 31 95 63.5t63 55.5h15v-236q-49 -23 -92.5 -44t-105.5 -41q-8 -3 -23 -7.5t-21 -5.5q1 -15 3 -39t2 -53q0 -149 -82 -241.5t-227 -92.5q-37 0 -87 6t-90 18v160
h9q24 -11 63 -22.5t79 -11.5q94 0 138 39.5t44 126.5q0 18 -0.5 38t-1.5 45q-18 -1 -33.5 -2t-37.5 -1z" />
    <glyph glyph-name="Eacute" unicode="&#x2026;" horiz-adv-x="1149" 
d="M151 0v1489h931v-176h-733v-408h683v-176h-683v-553h733v-176h-931zM920 2049l-273 -374h-149l179 374h243z" />
    <glyph glyph-name="Ntilde" unicode="&#x2020;" horiz-adv-x="1367" 
d="M1216 0h-222l-658 1284v-1284h-185v1489h281l599 -1179v1179h185v-1489zM1110 1985q-10 -156 -74.5 -234t-171.5 -78q-52 0 -96 19t-86 59q-44 41 -76 62.5t-63 21.5q-49 0 -68.5 -45t-23.5 -121h-140q7 154 76 232.5t169 78.5q51 0 94 -19.5t86 -57.5q43 -39 77.5 -59.5
t63.5 -20.5q47 0 68.5 45t24.5 117h140z" />
    <glyph glyph-name="Odieresis" unicode="&#x2021;" horiz-adv-x="1449" 
d="M1204 1318q85 -98 132 -243t47 -331q0 -181 -46 -327t-133 -245q-91 -104 -212.5 -153.5t-267.5 -49.5q-151 0 -272 51t-208 152q-86 99 -132 244t-46 328q0 188 46.5 330t132.5 244q86 99 207.5 150.5t271.5 51.5q152 0 274 -53t206 -149zM1177 744q0 148 -32 262
t-90 189q-59 77 -142.5 115.5t-187.5 38.5q-108 0 -188.5 -37.5t-142.5 -116.5q-59 -76 -90.5 -191t-31.5 -260q0 -293 123 -448.5t330 -155.5t329.5 155.5t122.5 448.5zM1027 1677h-201v195h201v-195zM614 1677h-201v195h201v-195z" />
    <glyph glyph-name="Udieresis" unicode="&#x2030;" horiz-adv-x="1343" 
d="M671 -31q-131 0 -229 34.5t-167 102.5q-78 78 -110 186.5t-32 267.5v929h198v-929q0 -103 13 -173.5t51 -126.5q40 -60 108.5 -91t167.5 -31q93 0 165 31t112 91q37 57 50.5 126t13.5 169v934h198v-929q0 -155 -31.5 -266t-110.5 -188q-71 -69 -165.5 -103t-231.5 -34z
M1004 1677h-201v195h201v-195zM591 1677h-201v195h201v-195z" />
    <glyph glyph-name="aacute" unicode="&#x2039;" horiz-adv-x="1174" 
d="M1043 541l-488 419v85l488 418v-188l-317 -273l317 -273v-188zM613 512l-510 446v89l510 445v-196l-331 -294l331 -294v-196z" />
    <glyph glyph-name="agrave" unicode="&#x152;" horiz-adv-x="1075" 
d="M760 275v310q-67 -6 -169.5 -16.5t-165.5 -29.5q-75 -23 -124 -70.5t-49 -132.5q0 -96 54 -145t158 -49q89 0 161 38.5t135 94.5zM760 119q-23 -17 -61.5 -47.5t-74.5 -48.5q-50 -26 -96.5 -40t-130.5 -14q-69 0 -131 26t-109 73q-45 46 -72 113.5t-27 142.5
q0 116 49 197.5t155 129.5q94 43 222 59.5t276 24.5v36q0 66 -20 106.5t-56 62.5q-36 23 -88 30.5t-107 7.5q-65 0 -153 -19.5t-176 -56.5h-11v191q52 15 149 33t192 18q115 0 194 -18t142 -65q61 -46 91 -119t30 -178v-764h-187v119zM670 1302h-149l-273 374h243z" />
    <glyph glyph-name="acircumflex" unicode="&#x2018;" horiz-adv-x="499" 
d="M385 1444q-35 -12 -64.5 -33.5t-49 -47.5t-31 -53.5t-11.5 -54.5q0 -43 31 -76.5t94 -39.5q17 -9 23 -24t6 -30q0 -38 -29.5 -62t-68.5 -24q-37 0 -69 17.5t-53.5 46.5t-33.5 63.5t-12 69.5q0 53 19.5 100t54 85t79.5 68t95 48z" />
    <glyph glyph-name="adieresis" unicode="&#x2019;" horiz-adv-x="858" 
d="M362 993q-49 19 -94 48.5t-78.5 68.5t-54 85t-20.5 99q0 35 12 71t33.5 63.5t53.5 46t71 18.5q37 0 66.5 -23.5t29.5 -64.5q0 -14 -6 -29.5t-23 -23.5q-63 -6 -88.5 -40t-25.5 -75q0 -53 36.5 -108.5t108.5 -81.5zM725 993q-51 19 -95 48.5t-78 68.5t-54.5 85t-20.5 99
q0 35 11.5 71t34 63.5t53 46t69.5 18.5t68.5 -23.5t29.5 -64.5q0 -14 -7 -29.5t-21 -23.5q-64 -6 -94.5 -40t-30.5 -75q0 -27 11 -54.5t30.5 -53t48.5 -47t65 -35.5z" />
    <glyph glyph-name="atilde" unicode="&#x201c;" horiz-adv-x="858" 
d="M745 1444q-36 -12 -65 -33.5t-48.5 -47.5t-30.5 -53.5t-11 -54.5q0 -43 30.5 -76.5t94.5 -39.5q14 -9 21 -24t7 -30q0 -38 -29.5 -62t-68.5 -24t-69.5 17.5t-53 46.5t-34 63.5t-11.5 69.5q0 53 19.5 100t54.5 85t79 68t95 48zM385 1444q-35 -12 -64.5 -33.5t-49 -47.5
t-31 -53.5t-11.5 -54.5q0 -43 31 -76.5t94 -39.5q17 -9 23 -24t6 -30q0 -38 -29.5 -62t-68.5 -24q-37 0 -69 17.5t-53.5 46.5t-33.5 63.5t-12 69.5q0 53 19.5 100t54 85t79.5 68t95 48z" />
    <glyph glyph-name="aring" unicode="&#x201d;" horiz-adv-x="858" 
d="M477 1047q72 26 109 81.5t37 108.5q0 41 -26 75t-89 40q-16 8 -22.5 23.5t-6.5 29.5q0 41 30 64.5t66 23.5q39 0 71 -18.5t53.5 -46t33.5 -63.5t12 -71q0 -53 -20 -99t-54 -85t-79 -68.5t-94 -48.5zM115 1047q37 14 65.5 35.5t48 47t30.5 53t11 54.5q0 41 -30.5 75
t-94.5 40q-14 8 -21 23.5t-7 29.5q0 41 29.5 64.5t68.5 23.5t69.5 -18.5t53 -46t34 -63.5t11.5 -71q0 -53 -20.5 -99t-54.5 -85t-78 -68.5t-95 -48.5z" />
    <glyph glyph-name="ccedilla" unicode="&#x2022;" horiz-adv-x="945" 
d="M580 -25q-115 0 -211 35.5t-165 107.5t-107 181.5t-38 257.5q0 147 39.5 254t105.5 180t164.5 112.5t211.5 39.5q92 0 177.5 -26t152.5 -60v-211h-11q-20 17 -51.5 39t-76.5 45q-39 20 -92 35t-102 15q-146 0 -234.5 -110.5t-88.5 -312.5q0 -198 85.5 -308.5
t237.5 -110.5q92 0 175 38t147 98h11v-211q-28 -13 -65 -29t-68 -26q1 -16 3 -42t2 -55q0 -149 -82 -241.5t-227 -92.5q-37 0 -87 6t-90 18v160h9q24 -11 63 -22.5t79 -11.5q94 0 138 39.5t44 126.5q0 18 -0.5 38.5t-1.5 45.5q-13 0 -22.5 -1t-24.5 -1z" />
    <glyph glyph-name="eacute" unicode="&#x2013;" horiz-adv-x="1078" 
d="M621 -26q-267 0 -414.5 150.5t-147.5 427.5q0 273 143 434.5t374 161.5q104 0 184 -30t140 -94t92 -156.5t32 -226.5v-102h-774q0 -195 98 -298t271 -103q62 0 121.5 14t107.5 36q51 23 86 44.5t58 40.5h11v-205q-33 -13 -82 -32.5t-88 -30.5q-55 -15 -99.5 -23
t-112.5 -8zM841 683q-2 76 -18 131t-46 93q-33 42 -84.5 64t-127.5 22q-75 0 -127.5 -22.5t-95.5 -65.5q-42 -44 -64 -97.5t-28 -124.5h591zM889 1676l-273 -374h-149l179 374h243z" />
    <glyph glyph-name="egrave" unicode="&#x2014;" horiz-adv-x="1078" 
d="M621 -26q-267 0 -414.5 150.5t-147.5 427.5q0 273 143 434.5t374 161.5q104 0 184 -30t140 -94t92 -156.5t32 -226.5v-102h-774q0 -195 98 -298t271 -103q62 0 121.5 14t107.5 36q51 23 86 44.5t58 40.5h11v-205q-33 -13 -82 -32.5t-88 -30.5q-55 -15 -99.5 -23
t-112.5 -8zM841 683q-2 76 -18 131t-46 93q-33 42 -84.5 64t-127.5 22q-75 0 -127.5 -22.5t-95.5 -65.5q-42 -44 -64 -97.5t-28 -124.5h591zM685 1302h-149l-273 374h243z" />
    <glyph glyph-name="ecircumflex" unicode="&#x2122;" horiz-adv-x="1078" 
d="M621 -26q-267 0 -414.5 150.5t-147.5 427.5q0 273 143 434.5t374 161.5q104 0 184 -30t140 -94t92 -156.5t32 -226.5v-102h-774q0 -195 98 -298t271 -103q62 0 121.5 14t107.5 36q51 23 86 44.5t58 40.5h11v-205q-33 -13 -82 -32.5t-88 -30.5q-55 -15 -99.5 -23
t-112.5 -8zM841 683q-2 76 -18 131t-46 93q-33 42 -84.5 64t-127.5 22q-75 0 -127.5 -22.5t-95.5 -65.5q-42 -44 -64 -97.5t-28 -124.5h591zM915 1297h-159l-185 256l-184 -256h-155l228 379h227z" />
    <glyph glyph-name="edieresis" unicode="&#x203a;" horiz-adv-x="1174" 
d="M1071 958l-510 -446v196l331 294l-331 294v196l510 -445v-89zM619 960l-488 -419v188l317 273l-317 273v188l488 -418v-85z" />
    <glyph glyph-name="iacute" unicode="&#x153;" horiz-adv-x="468" 
d="M328 0h-188v1117h188v-1117zM547 1676l-273 -374h-149l179 374h243z" />
    <glyph glyph-name="igrave" unicode="&#x178;" horiz-adv-x="468" 
d="M328 0h-188v1117h188v-1117zM426 1302h-149l-273 374h243z" />
    <glyph glyph-name="icircumflex" unicode="&#xa0;" horiz-adv-x="468" 
d="M328 0h-188v1117h188v-1117zM521 1297h-151l-139 263l-138 -263h-147l174 379h227z" />
    <glyph glyph-name="idieresis" unicode="&#xa1;" horiz-adv-x="468" 
d="M328 0h-188v1117h188v-1117zM506 1304h-189v195h189v-195zM151 1304h-189v195h189v-195z" />
    <glyph glyph-name="ntilde" unicode="&#xa2;" horiz-adv-x="1142" 
d="M1014 0h-188v636q0 77 -7.5 143.5t-28.5 106.5q-23 42 -64 62.5t-112 20.5q-70 0 -144.5 -37.5t-145.5 -97.5v-834h-188v1117h188v-124q84 75 166 115t173 40q165 0 258 -108.5t93 -314.5v-725zM978 1632q-10 -156 -74.5 -234t-171.5 -78q-52 0 -96 19t-86 59
q-44 41 -76 62.5t-63 21.5q-49 0 -68.5 -45t-23.5 -121h-140q7 154 76 232.5t169 78.5q51 0 94 -19.5t86 -57.5q43 -39 77.5 -59.5t63.5 -20.5q47 0 68.5 45t24.5 117h140z" />
    <glyph glyph-name="oacute" unicode="&#xa3;" horiz-adv-x="1112" 
d="M1055 558q0 -282 -136 -435.5t-362 -153.5q-233 0 -366.5 158.5t-133.5 430.5q0 280 137.5 435t362.5 155q226 0 362 -154.5t136 -435.5zM861 558q0 217 -79 322.5t-225 105.5q-147 0 -226.5 -105.5t-79.5 -322.5q0 -210 79.5 -318.5t226.5 -108.5q145 0 224.5 106.5
t79.5 320.5zM871 1676l-273 -374h-149l179 374h243z" />
    <glyph glyph-name="ograve" unicode="&#xa4;" horiz-adv-x="1112" 
d="M1055 558q0 -282 -136 -435.5t-362 -153.5q-233 0 -366.5 158.5t-133.5 430.5q0 280 137.5 435t362.5 155q226 0 362 -154.5t136 -435.5zM861 558q0 217 -79 322.5t-225 105.5q-147 0 -226.5 -105.5t-79.5 -322.5q0 -210 79.5 -318.5t226.5 -108.5q145 0 224.5 106.5
t79.5 320.5zM670 1302h-149l-273 374h243z" />
    <glyph glyph-name="ocircumflex" unicode="&#xa5;" horiz-adv-x="1112" 
d="M1055 558q0 -282 -136 -435.5t-362 -153.5q-233 0 -366.5 158.5t-133.5 430.5q0 280 137.5 435t362.5 155q226 0 362 -154.5t136 -435.5zM861 558q0 217 -79 322.5t-225 105.5q-147 0 -226.5 -105.5t-79.5 -322.5q0 -210 79.5 -318.5t226.5 -108.5q145 0 224.5 106.5
t79.5 320.5zM901 1297h-159l-185 256l-184 -256h-155l228 379h227z" />
    <glyph glyph-name="odieresis" unicode="&#xa7;" horiz-adv-x="1112" 
d="M1055 558q0 -282 -136 -435.5t-362 -153.5q-233 0 -366.5 158.5t-133.5 430.5q0 280 137.5 435t362.5 155q226 0 362 -154.5t136 -435.5zM861 558q0 217 -79 322.5t-225 105.5q-147 0 -226.5 -105.5t-79.5 -322.5q0 -210 79.5 -318.5t226.5 -108.5q145 0 224.5 106.5
t79.5 320.5zM867 1304h-201v195h201v-195zM454 1304h-201v195h201v-195z" />
    <glyph glyph-name="otilde" unicode="&#xa8;" horiz-adv-x="1112" 
d="M1055 558q0 -282 -136 -435.5t-362 -153.5q-233 0 -366.5 158.5t-133.5 430.5q0 280 137.5 435t362.5 155q226 0 362 -154.5t136 -435.5zM861 558q0 217 -79 322.5t-225 105.5q-147 0 -226.5 -105.5t-79.5 -322.5q0 -210 79.5 -318.5t226.5 -108.5q145 0 224.5 106.5
t79.5 320.5zM960 1632q-10 -156 -74.5 -234t-171.5 -78q-52 0 -96 19t-86 59q-44 41 -76 62.5t-63 21.5q-49 0 -68.5 -45t-23.5 -121h-140q7 154 76 232.5t169 78.5q51 0 94 -19.5t86 -57.5q43 -39 77.5 -59.5t63.5 -20.5q47 0 68.5 45t24.5 117h140z" />
    <glyph glyph-name="uacute" unicode="&#xa9;" horiz-adv-x="1142" 
d="M1006 0h-188v124q-87 -76 -165 -115.5t-174 -39.5q-73 0 -137.5 24t-112.5 76t-74.5 131t-26.5 192v725h188v-636q0 -89 6.5 -147.5t29.5 -102.5q23 -43 62.5 -63t113.5 -20q69 0 147 39t143 96v834h188v-1117zM871 1676l-273 -374h-149l179 374h243z" />
    <glyph glyph-name="ugrave" unicode="&#xaa;" horiz-adv-x="1142" 
d="M1006 0h-188v124q-87 -76 -165 -115.5t-174 -39.5q-73 0 -137.5 24t-112.5 76t-74.5 131t-26.5 192v725h188v-636q0 -89 6.5 -147.5t29.5 -102.5q23 -43 62.5 -63t113.5 -20q69 0 147 39t143 96v834h188v-1117zM687 1302h-149l-273 374h243z" />
    <glyph glyph-name="ucircumflex" unicode="&#xab;" horiz-adv-x="1142" 
d="M1006 0h-188v124q-87 -76 -165 -115.5t-174 -39.5q-73 0 -137.5 24t-112.5 76t-74.5 131t-26.5 192v725h188v-636q0 -89 6.5 -147.5t29.5 -102.5q23 -43 62.5 -63t113.5 -20q69 0 147 39t143 96v834h188v-1117zM908 1297h-159l-185 256l-184 -256h-155l228 379h227z" />
    <glyph glyph-name="udieresis" unicode="&#xac;" horiz-adv-x="1142" 
d="M1006 0h-188v124q-87 -76 -165 -115.5t-174 -39.5q-73 0 -137.5 24t-112.5 76t-74.5 131t-26.5 192v725h188v-636q0 -89 6.5 -147.5t29.5 -102.5q23 -43 62.5 -63t113.5 -20q69 0 147 39t143 96v834h188v-1117zM879 1304h-201v195h201v-195zM466 1304h-201v195h201v-195z
" />
    <glyph glyph-name="dagger" unicode="&#xae;" horiz-adv-x="1118" 
d="M983 1034l-363 5l5 -904h-132l5 904l-363 -5v129l363 -5l-5 398h132l-5 -398l363 5v-129z" />
    <glyph glyph-name="degree" unicode="&#xaf;" horiz-adv-x="964" 
d="M863 1135q0 -160 -110 -270t-271 -110q-159 0 -270 109t-111 271q0 160 110 270t271 110t271 -110t110 -270zM706 1135q0 96 -64 162t-160 66t-160 -66t-64 -162q0 -98 65.5 -163t158.5 -65q96 0 160 66.5t64 161.5z" />
    <glyph glyph-name="cent" unicode="&#xb0;" horiz-adv-x="1118" 
d="M557 2q-215 25 -329 169t-114 386q0 238 118 386t325 172v360h114v-359q87 -3 167.5 -26.5t136.5 -52.5v-200h-10q-62 51 -132 89t-162 51v-836q49 5 98.5 23t83.5 38q36 21 64 41.5t48 37.5h10v-198q-65 -30 -135.5 -53.5t-168.5 -28.5v-362h-114v363zM557 146v825
q-116 -21 -183 -125.5t-67 -288.5q0 -188 68.5 -289.5t181.5 -121.5z" />
    <glyph glyph-name="sterling" unicode="&#xb1;" horiz-adv-x="1118" 
d="M1031 0h-942v207q111 33 156.5 128t45.5 278h-161v138h161v320q0 201 116 324t301 123q97 0 166 -15.5t127 -32.5v-206h-10q-58 41 -129 64t-135 23q-123 0 -183.5 -77t-60.5 -222v-301h364v-138h-364v-61q0 -117 -58.5 -212.5t-163.5 -157.5v-11h770v-171z" />
    <glyph glyph-name="section" unicode="&#xb4;" horiz-adv-x="1118" 
d="M759 401q24 35 37.5 67.5t13.5 86.5q0 49 -14.5 85t-39.5 59q-24 23 -56 38.5t-74 28.5q-33 10 -77 22.5t-99 30.5q-20 -12 -41.5 -30t-47.5 -51q-20 -26 -36.5 -70t-16.5 -89q0 -81 38 -129t146 -81q34 -10 77.5 -23.5t97.5 -30.5q19 12 44 33t48 53zM182 -133
q26 -13 64.5 -29t74.5 -28q47 -15 87 -22.5t101 -7.5q114 0 190.5 46.5t76.5 137.5q0 54 -18.5 87.5t-59.5 59.5q-42 25 -103.5 42.5t-134.5 38.5q-88 25 -146.5 51t-105.5 69q-45 41 -67 95t-22 126q0 94 49 178.5t150 146.5v7q-91 50 -130.5 121t-39.5 161q0 168 128 270
t352 102q85 0 157 -13t161 -44v-194h-10q-90 45 -167.5 66t-161.5 21q-112 0 -189.5 -45.5t-77.5 -133.5q0 -57 20.5 -93t59.5 -59q39 -24 99.5 -43t137.5 -39q184 -50 262.5 -128.5t78.5 -212.5q0 -108 -54.5 -189t-144.5 -135v-7q87 -46 128.5 -116t41.5 -164
q0 -74 -31.5 -145t-89.5 -119q-62 -53 -148.5 -82t-209.5 -29q-79 0 -157 14t-161 44v194h10z" />
    <glyph glyph-name="bullet" unicode="&#xb5;" horiz-adv-x="931" 
d="M817 662q0 -145 -103.5 -248t-248.5 -103t-248 103t-103 248t103 248t248 103t248.5 -103t103.5 -248z" />
    <glyph glyph-name="paragraph" unicode="&#xb6;" horiz-adv-x="1118" 
d="M982 -363h-140v1722h-187v-1722h-140v956q-206 5 -332 129t-126 328q0 207 130 323t373 116h422v-1852z" />
    <glyph glyph-name="germandbls" unicode="&#xb7;" horiz-adv-x="1123" 
d="M1068 481q0 -218 -135 -361.5t-351 -143.5q-25 0 -62.5 3t-59.5 7v166h10q28 -8 59 -12.5t61 -4.5q77 0 131.5 27.5t87.5 74.5q35 51 49.5 111t14.5 141q0 169 -103 248.5t-304 79.5v157q152 0 233.5 57.5t81.5 190.5q0 33 -10 68.5t-34 63.5q-24 29 -62 46.5t-97 17.5
q-53 0 -96 -14.5t-81 -54.5q-36 -37 -56.5 -103t-20.5 -160v-1086h-188v1080q0 130 34 218t95 150q60 60 142.5 89t174.5 29q168 0 279.5 -85t111.5 -240q0 -112 -71 -201t-184 -121v-9q164 -37 257 -147t93 -282z" />
    <glyph glyph-name="registered" unicode="&#xb8;" horiz-adv-x="1902" 
d="M1816 655q0 -358 -253.5 -611.5t-611.5 -253.5t-611.5 253.5t-253.5 611.5t253.5 611t611.5 253t611.5 -253t253.5 -611zM1701 655q0 313 -219.5 533.5t-529.5 220.5t-529.5 -220.5t-219.5 -533.5t219.5 -534t529.5 -221t529.5 221t219.5 534zM1448 215h-227l-283 355
h-123v-355h-165v915h279q94 0 148.5 -7t110.5 -39q60 -34 87 -82t27 -123q0 -100 -55.5 -164t-144.5 -100zM1120 868q0 37 -12 64t-42 46q-25 16 -56 21.5t-80 5.5h-115v-309h98q48 0 90 9.5t68 32.5t37.5 53t11.5 77z" />
    <glyph glyph-name="copyright" unicode="&#xba;" horiz-adv-x="1902" 
d="M1816 655q0 -358 -253.5 -611.5t-611.5 -253.5t-611.5 253.5t-253.5 611.5t253.5 611t611.5 253t611.5 -253t253.5 -611zM1701 655q0 313 -219.5 533.5t-529.5 220.5t-529.5 -220.5t-219.5 -533.5t219.5 -534t529.5 -221t529.5 221t219.5 534zM1274 255
q-67 -30 -134 -52.5t-158 -22.5q-209 0 -330 123.5t-121 356.5q0 230 125 356.5t326 126.5q83 0 159 -22t133 -51v-181h-16q-43 38 -119 72.5t-153 34.5q-123 0 -196.5 -82t-73.5 -254q0 -162 70 -247.5t200 -85.5q84 0 159 36.5t113 70.5h16v-179z" />
    <glyph glyph-name="trademark" unicode="&#xbb;" horiz-adv-x="1794" 
d="M1634 785h-124v616h-20l-204 -453h-85l-206 460h-25v-623h-123v704h238l161 -382l161 382h227v-704zM692 1372h-229v-587h-127v587h-229v117h585v-117z" />
    <glyph glyph-name="acute" unicode="&#xbf;" horiz-adv-x="1118" 
d="M871 1676l-273 -374h-149l179 374h243z" />
    <glyph glyph-name="dieresis" unicode="&#xc0;" horiz-adv-x="1118" 
d="M867 1304h-201v195h201v-195zM454 1304h-201v195h201v-195z" />
    <glyph glyph-name="notequal" unicode="&#xc1;" horiz-adv-x="1490" 
d="M1298 362h-568l-105 -335h-153l105 335h-385v156h434l84 268h-518v156h566l105 335h153l-105 -335h387v-156h-436l-83 -268h519v-156z" />
    <glyph glyph-name="AE" unicode="&#xc2;" horiz-adv-x="1870" 
d="M1802 0h-912v557h-505l-217 -557h-207l603 1489h1238v-176h-716v-408h666v-176h-666v-553h716v-176zM890 723v601h-194l-245 -601h439z" />
    <glyph glyph-name="Oslash" unicode="&#xc3;" horiz-adv-x="1449" 
d="M1383 744q0 -368 -180 -571.5t-479 -203.5q-110 0 -204.5 29t-171.5 82l-132 -196h-148l189 278q-90 99 -140.5 245t-50.5 337q0 368 180.5 572t477.5 204q114 0 203.5 -27.5t169.5 -82.5l115 171h148l-171 -251q91 -100 142.5 -243.5t51.5 -342.5zM995 1260
q-52 44 -120 66.5t-150 22.5q-208 0 -331.5 -154t-123.5 -451q0 -135 26 -239.5t73 -180.5zM1179 744q0 138 -27.5 246t-73.5 179l-628 -937q57 -46 120.5 -69t154.5 -23q206 0 330 155.5t124 448.5z" />
    <glyph glyph-name="infinity" unicode="&#xc4;" horiz-adv-x="1862" 
d="M1752 663q0 -229 -113.5 -367.5t-316.5 -138.5q-127 0 -234 80.5t-168 218.5q-77 -153 -176.5 -226t-236.5 -73q-182 0 -289.5 137t-107.5 348q0 236 117.5 371t312.5 135q127 0 234 -80.5t168 -218.5q75 150 177 224.5t236 74.5q182 0 289.5 -137t107.5 -348zM873 729
q-60 117 -144.5 175.5t-174.5 58.5q-131 0 -202.5 -82t-71.5 -239q0 -142 62.5 -220.5t167.5 -78.5q85 0 143 37.5t124 153.5q25 44 49.5 92t46.5 103zM1582 663q0 144 -63 221.5t-167 77.5q-88 0 -145 -39t-123 -152q-33 -55 -52.5 -97.5t-42.5 -97.5q58 -116 143.5 -175
t175.5 -59q131 0 202.5 81.5t71.5 239.5z" />
    <glyph glyph-name="plusminus" unicode="&#xc5;" horiz-adv-x="1490" 
d="M1328 159h-1166v158h500v422h-500v158h500v505h166v-505h500v-158h-500v-422h500v-158z" />
    <glyph glyph-name="lessequal" unicode="&#xc6;" horiz-adv-x="1490" 
d="M1275 305l-1074 483v120l1074 483v-181l-812 -362l812 -362v-181zM1275 0h-1074v160h1074v-160z" />
    <glyph glyph-name="greaterequal" unicode="&#xc7;" horiz-adv-x="1490" 
d="M1289 788l-1074 -483v181l812 362l-812 362v181l1074 -483v-120zM1289 0h-1074v160h1074v-160z" />
    <glyph glyph-name="yen" unicode="&#xc8;" horiz-adv-x="1118" 
d="M1059 1489l-408 -811v-100h342v-138h-340v-440h-188v440h-340v138h342v79l-411 832h210l294 -639l298 639h201z" />
    <glyph glyph-name="mu1" unicode="&#xc9;" horiz-adv-x="1163" 
d="M1027 0h-172v116h-6q-60 -63 -120.5 -98t-150.5 -35q-92 0 -145 35t-109 97v-527h-188v1529h188v-842q42 -50 105 -80.5t149 -30.5q90 0 151.5 29t109.5 82v842h188v-1117z" />
    <glyph glyph-name="partialdiff" unicode="&#xca;" horiz-adv-x="1118" 
d="M1033 837q0 -68 -7.5 -153.5t-25.5 -170.5t-48 -170t-74 -153q-82 -123 -178.5 -172t-205.5 -49q-190 0 -308.5 123.5t-118.5 331.5q0 228 130.5 372.5t326.5 144.5q87 0 163 -26t151 -91q2 26 2.5 53t0.5 58q0 216 -75 317.5t-221 101.5q-79 0 -165 -31t-162 -87h-13
v194q79 44 179.5 66.5t187.5 22.5q140 0 236.5 -56t155.5 -177q41 -86 55 -191t14 -258zM832 678q-56 46 -129 73.5t-143 27.5q-134 0 -213.5 -89t-79.5 -263q0 -146 63.5 -222t169.5 -76q143 0 230 143t102 406z" />
    <glyph glyph-name="summation" unicode="&#xcb;" horiz-adv-x="1303" 
d="M1228 -189h-1102v191l626 668l-616 631v188h1053v-176h-807l601 -598v-72l-628 -656h873v-176z" />
    <glyph glyph-name="product" unicode="&#xcc;" horiz-adv-x="1393" 
d="M1237 1489v-1678h-198v1502h-685v-1502h-198v1678h1081z" />
    <glyph glyph-name="pi1" unicode="&#xcd;" horiz-adv-x="1154" 
d="M1018 0h-188v955h-506v-955h-188v1117h882v-1117z" />
    <glyph glyph-name="integral" unicode="&#xce;" horiz-adv-x="1118" 
d="M1048 1369h-10q-29 10 -80.5 18.5t-80.5 8.5q-127 0 -175.5 -59.5t-48.5 -211.5v-1123q0 -210 -105.5 -317.5t-283.5 -107.5q-48 0 -94 4.5t-96 14.5v178h10q38 -11 82 -19t75 -8q127 0 175.5 59.5t48.5 211.5v1123q0 210 105 317.5t284 107.5q58 0 105 -5.5t89 -13.5
v-178z" />
    <glyph glyph-name="ordfeminine" unicode="&#xcf;" horiz-adv-x="1010" 
d="M874 566h-166v91q-19 -15 -51 -38.5t-63 -37.5q-41 -19 -80.5 -29.5t-109.5 -10.5q-124 0 -207 83.5t-83 214.5q0 104 43 169.5t123 103.5q75 36 189 51t239 21v19q0 52 -16.5 84t-48.5 50q-29 17 -72 22.5t-89 5.5q-78 0 -158.5 -23.5t-119.5 -37.5h-15v170
q44 13 131.5 29t162.5 16q192 0 291.5 -76.5t99.5 -248.5v-628zM708 802v243q-65 -4 -151 -12t-137 -23q-60 -17 -97 -55.5t-37 -105.5q0 -75 44 -114t131 -39q76 0 136.5 33t110.5 73z" />
    <glyph glyph-name="ordmasculine" unicode="&#xd1;" horiz-adv-x="1010" 
d="M926 1030q0 -234 -117 -362t-303 -128q-193 0 -307 131.5t-114 358.5q0 233 117 361.5t304 128.5t303.5 -127t116.5 -363zM746 1030q0 173 -64.5 256.5t-175.5 83.5t-176 -82.5t-65 -257.5q0 -169 64 -254.5t177 -85.5q111 0 175.5 85.5t64.5 254.5z" />
    <glyph glyph-name="Ohm" unicode="&#xd2;" horiz-adv-x="1438" 
d="M1403 0h-559v387q61 38 120.5 83.5t99.5 101.5q45 62 68.5 133t23.5 188q0 95 -26.5 179t-80.5 145q-53 61 -136 96.5t-190 35.5q-109 0 -191 -35t-140 -98q-53 -58 -81.5 -144.5t-28.5 -178.5q0 -109 26.5 -187.5t70.5 -134.5q45 -57 104 -101.5t119 -82.5v-387h-559
v174h393v124q-73 42 -138 101.5t-115 134.5q-50 76 -78.5 166.5t-28.5 192.5q0 139 43.5 250t128.5 198q81 83 204 131t271 48t268 -46.5t203 -131.5q82 -84 125 -198.5t43 -250.5q0 -103 -27.5 -193.5t-74.5 -164.5t-111 -134t-139 -103v-124h393v-174z" />
    <glyph glyph-name="ae" unicode="&#xd3;" horiz-adv-x="1802" 
d="M817 298q-19 54 -29 119.5t-10 140.5q-95 -3 -189.5 -8.5t-169.5 -26.5q-74 -20 -121 -66t-47 -127q0 -95 56 -141.5t167 -46.5q91 0 184 44t159 112zM1340 138q65 0 125.5 14.5t106.5 35.5q51 23 86 44.5t58 40.5h11v-205l-82.5 -32.5t-88.5 -30.5q-55 -15 -99.5 -23
t-114.5 -8q-161 0 -276 52t-189 155q-21 -19 -64.5 -59.5t-91.5 -68.5q-65 -38 -134.5 -60t-179.5 -22q-146 0 -247.5 97t-101.5 249q0 129 53 204t150 117q92 39 231.5 52t293.5 16v58q0 65 -21.5 108t-60.5 67q-36 22 -87.5 31.5t-116.5 9.5q-81 0 -176.5 -26.5
t-152.5 -51.5h-15v191q49 14 151.5 33.5t193.5 19.5q160 0 260 -48t153 -136q66 81 165 133.5t217 52.5q224 0 338.5 -134.5t114.5 -372.5v-82h-788q0 -114 30 -195.5t83 -132.5q53 -50 120 -71.5t146 -21.5zM1567 703q-5 59 -20.5 112.5t-47.5 92.5q-31 38 -85 61.5
t-127 23.5q-78 0 -129.5 -21.5t-94.5 -62.5q-40 -38 -64.5 -92.5t-34.5 -113.5h603z" />
    <glyph glyph-name="oslash" unicode="&#xd4;" horiz-adv-x="1112" 
d="M1055 558q0 -282 -136 -435t-362 -153q-79 0 -145 20.5t-124 56.5l-123 -194h-124l168 261q-72 76 -112 187t-40 257q0 280 137.5 434.5t362.5 154.5q75 0 142 -20t124 -57l108 170h125l-152 -236q71 -77 111 -186t40 -260zM735 932q-34 26 -78 40t-100 14
q-147 0 -228 -107.5t-81 -320.5q0 -97 14.5 -169.5t43.5 -126.5zM864 558q0 99 -14.5 173t-42.5 125l-429 -669q38 -29 79.5 -42.5t99.5 -13.5q145 0 226 106.5t81 320.5z" />
    <glyph glyph-name="questiondown" unicode="&#xd5;" horiz-adv-x="970" 
d="M632 1278h-204v211h204v-211zM861 40q-79 -30 -167 -50t-195 -20q-205 0 -323 104.5t-118 275.5q0 94 30 168t89 141q53 59 122.5 106.5t144.5 95.5v228h179v-305q-71 -43 -131.5 -81t-115.5 -89q-51 -48 -82.5 -109t-31.5 -140q0 -113 71 -168.5t185 -55.5
q99 0 191 34.5t141 68.5h11v-204z" />
    <glyph glyph-name="exclamdown" unicode="&#xd6;" horiz-adv-x="680" 
d="M442 1278h-204v211h204v-211zM452 0h-224l28 1079h166z" />
    <glyph glyph-name="logicalnot" unicode="&#xd8;" horiz-adv-x="1490" 
d="M1323 57h-171v545h-995v160h1166v-705z" />
    <glyph glyph-name="radical" unicode="&#xd9;" horiz-adv-x="1490" 
d="M1554 1789l-790 -1940h-104l-342 993h-237v139h393l265 -797l653 1605h162z" />
    <glyph glyph-name="florin" unicode="&#xda;" horiz-adv-x="1118" 
d="M1087 1320h-10q-27 10 -78.5 23.5t-89.5 13.5q-112 0 -162 -60.5t-72 -213.5l-29 -199h292v-138h-310l-70 -511q-32 -231 -137 -334t-286 -103q-39 0 -86.5 4.5t-97.5 13.5v181h10q28 -10 77.5 -23.5t90.5 -13.5q112 0 163 61t71 213l72 512h-178v138h196l27 198
q17 123 54 206.5t92 136.5q52 49 125.5 71.5t151.5 22.5q50 0 91 -4.5t93 -13.5v-181z" />
    <glyph glyph-name="approxequal" unicode="&#xdb;" horiz-adv-x="1490" 
d="M1298 1104q-19 -195 -100.5 -293.5t-235.5 -98.5q-69 0 -136.5 37t-120.5 83q-28 24 -90.5 65t-105.5 41q-72 0 -105 -47t-59 -172h-155q21 181 104 279t233 98q66 0 134.5 -36.5t122.5 -82.5q36 -30 94.5 -68.5t101.5 -38.5q69 0 106 53.5t55 180.5h157zM1299 588
q-23 -185 -102.5 -282t-235.5 -97q-66 0 -134.5 37t-122.5 83q-37 31 -95 68.5t-101 37.5q-72 0 -107.5 -55.5t-53.5 -177.5h-157q17 192 102 291.5t234 99.5q71 0 138.5 -37.5t118.5 -81.5q31 -26 90 -66.5t106 -40.5q70 0 104 50t59 171h157z" />
    <glyph glyph-name="Delta" unicode="&#xdc;" horiz-adv-x="1268" 
d="M1278 0h-1288l522 1489h244zM1010 172l-381 1120l-380 -1120h761z" />
    <glyph glyph-name="guillemotleft" unicode="&#xdf;" horiz-adv-x="1174" 
d="M1043 191l-488 419v85l488 418v-188l-317 -273l317 -273v-188zM613 162l-510 446v89l510 445v-196l-331 -294l331 -294v-196z" />
    <glyph glyph-name="guillemotright" unicode="&#xe0;" horiz-adv-x="1174" 
d="M1071 608l-510 -446v196l331 294l-331 294v196l510 -445v-89zM619 610l-488 -419v188l317 273l-317 273v188l488 -418v-85z" />
    <glyph glyph-name="ellipsis" unicode="&#xe1;" horiz-adv-x="1674" 
d="M1497 0h-204v223h204v-223zM939 0h-204v223h204v-223zM381 0h-204v223h204v-223z" />
    <glyph glyph-name="Agrave" unicode="&#xe2;" horiz-adv-x="1228" 
d="M-10 0l502 1489h244l502 -1489h-209l-135 416h-569l-135 -416h-200zM839 585l-230 702l-229 -702h459zM769 1675h-149l-273 374h243z" />
    <glyph glyph-name="Atilde" unicode="&#xe3;" horiz-adv-x="1228" 
d="M-10 0l502 1489h244l502 -1489h-209l-135 416h-569l-135 -416h-200zM839 585l-230 702l-229 -702h459zM1010 1965q-10 -156 -74.5 -234t-171.5 -78q-52 0 -96 19t-86 59q-44 41 -76 62.5t-63 21.5q-49 0 -68.5 -45t-23.5 -121h-140q7 154 76 232.5t169 78.5
q51 0 94 -19.5t86 -57.5q43 -39 77.5 -59.5t63.5 -20.5q47 0 68.5 45t24.5 117h140z" />
    <glyph glyph-name="Otilde" unicode="&#xe4;" horiz-adv-x="1449" 
d="M1204 1318q85 -98 132 -243t47 -331q0 -181 -46 -327t-133 -245q-91 -104 -212.5 -153.5t-267.5 -49.5q-151 0 -272 51t-208 152q-86 99 -132 244t-46 328q0 188 46.5 330t132.5 244q86 99 207.5 150.5t271.5 51.5q152 0 274 -53t206 -149zM1177 744q0 148 -32 262
t-90 189q-59 77 -142.5 115.5t-187.5 38.5q-108 0 -188.5 -37.5t-142.5 -116.5q-59 -76 -90.5 -191t-31.5 -260q0 -293 123 -448.5t330 -155.5t329.5 155.5t122.5 448.5zM1110 1985q-10 -156 -74.5 -234t-171.5 -78q-52 0 -96 19t-86 59q-44 41 -76 62.5t-63 21.5
q-49 0 -68.5 -45t-23.5 -121h-140q7 154 76 232.5t169 78.5q51 0 94 -19.5t86 -57.5q43 -39 77.5 -59.5t63.5 -20.5q47 0 68.5 45t24.5 117h140z" />
    <glyph glyph-name="OE" unicode="&#xe5;" horiz-adv-x="2000" 
d="M1932 0h-1031q-184 0 -308 26t-225 92q-144 95 -223 253.5t-79 374.5q0 209 84.5 370.5t220.5 252.5q89 60 209.5 90t318.5 30h1033v-176h-723v-408h673v-176h-673v-553h723v-176zM1012 171v1147h-119q-148 0 -241.5 -22.5t-172.5 -75.5q-103 -68 -155 -188t-52 -289
q0 -172 57 -293.5t169 -189.5q83 -50 173.5 -69.5t219.5 -19.5h121z" />
    <glyph glyph-name="oe" unicode="&#xe6;" horiz-adv-x="1861" 
d="M1625 683q-4 157 -71 233.5t-202 76.5q-128 0 -214.5 -82t-98.5 -228h586zM856 558q0 217 -78.5 322.5t-223.5 105.5q-148 0 -225.5 -110.5t-77.5 -317.5q0 -210 78.5 -318.5t224.5 -108.5q144 0 223 107.5t79 319.5zM1403 138q62 0 121.5 14t107.5 36q51 23 86 44.5
t58 40.5h11v-205q-33 -13 -82 -32.5t-88 -30.5q-55 -15 -99.5 -23t-112.5 -8q-147 0 -264.5 52.5t-188.5 152.5q-67 -103 -164.5 -156.5t-233.5 -53.5q-231 0 -364 158t-133 431q0 278 135 434t362 156q131 0 234.5 -55t167.5 -156q67 101 172.5 156t234.5 55
q215 0 330 -133t115 -374v-102h-769q0 -193 97 -297t267 -104z" />
    <glyph glyph-name="endash" unicode="&#xe7;" horiz-adv-x="1118" 
d="M1122 572h-1126v160h1126v-160z" />
    <glyph glyph-name="emdash" unicode="&#xe8;" horiz-adv-x="1862" 
d="M1866 572h-1870v160h1870v-160z" />
    <glyph glyph-name="quotedblleft" unicode="&#xe9;" horiz-adv-x="822" 
d="M725 997h-134l-261 559h238zM331 997h-134l-261 559h238z" />
    <glyph glyph-name="quotedblright" unicode="&#xea;" horiz-adv-x="822" 
d="M896 1556l-261 -559h-134l157 559h238zM502 1556l-261 -559h-134l157 559h238z" />
    <glyph glyph-name="quoteleft" unicode="&#xeb;" horiz-adv-x="432" 
d="M335 997h-138l-261 559h242z" />
    <glyph glyph-name="quoteright" unicode="&#xec;" horiz-adv-x="432" 
d="M496 1556l-261 -559h-138l157 559h242z" />
    <glyph glyph-name="divide" unicode="&#xed;" horiz-adv-x="1490" 
d="M864 1012h-238v275h238v-275zM1333 572h-1176v160h1176v-160zM864 17h-238v275h238v-275z" />
    <glyph glyph-name="lozenge" unicode="&#xee;" horiz-adv-x="1490" 
d="M1371 654l-626 -710l-626 710l626 710zM1153 654l-408 476l-408 -476l408 -474z" />
    <glyph glyph-name="ydieresis" unicode="&#xef;" horiz-adv-x="1020" 
d="M1014 1117l-601 -1529h-201l200 466l-406 1063h203l305 -827l304 827h196zM834 1304h-201v195h201v-195zM421 1304h-201v195h201v-195z" />
    <glyph glyph-name="Ydieresis" unicode="&#xf1;" horiz-adv-x="1180" 
d="M1193 1489l-503 -830v-659h-198v638l-503 851h220l384 -657l390 657h210zM900 1677h-201v195h201v-195zM487 1677h-201v195h201v-195z" />
    <glyph glyph-name="fraction" unicode="&#xf2;" horiz-adv-x="886" 
d="M916 1489l-780 -1489h-165l780 1489h165z" />
    <glyph glyph-name="Euro" unicode="&#xf3;" horiz-adv-x="1118" 
d="M945 662l-27 -138h-620q44 -170 146 -268q116 -112 290 -112q187 0 324 92h14v-193q-170 -70 -339 -70q-274 0 -444 158q-154 143 -203 393h-114l28 138h69q-3 40 -3 81q0 29 1 57h-95l28 138h83q46 262 207 414q174 164 446 164q178 0 336 -71v-195h-16q-141 97 -322 97
q-184 0 -302 -123q-101 -106 -140 -286h709l-27 -138h-700q-2 -28 -2 -57q0 -41 3 -81h670z" />
    <glyph glyph-name="guilsinglleft" unicode="&#xf4;" horiz-adv-x="784" 
d="M633 172l-510 436v89l510 435v-199l-331 -281l331 -281v-199z" />
    <glyph glyph-name="guilsinglright" unicode="&#xf5;" horiz-adv-x="784" 
d="M661 608l-510 -436v199l331 281l-331 281v199l510 -435v-89z" />
    <glyph glyph-name="fi" unicode="&#xf6;" horiz-adv-x="1092" 
d="M954 0h-188v964h-422v-964h-188v961h-127v156h127v57q0 182 97 287t250 105q52 0 94.5 -5.5t70.5 -9.5v-172h-10q-16 6 -53 14.5t-79 8.5q-105 0 -146.5 -54.5t-41.5 -172.5v-58h616v-1117zM954 1304h-202v195h202v-195z" />
    <glyph glyph-name="fl" unicode="&#xf7;" horiz-adv-x="1086" 
d="M948 0h-188v1404q-27 3 -66.5 5t-63.5 2q-162 0 -227 -53.5t-65 -193.5v-47h243v-156h-237v-961h-188v961h-127v156h127v49q0 103 32 177t90 125q55 48 142.5 73t187.5 25q60 0 131 -7t111 -11l98 8v-1556z" />
    <glyph glyph-name="daggerdbl" unicode="&#xf8;" horiz-adv-x="1118" 
d="M983 507l-363 5l5 -388h-132l5 388l-363 -5v129l363 -5v418l-363 -5v129l363 -5l-5 388h132l-5 -388l363 5v-129l-363 5v-418l363 5v-129z" />
    <glyph glyph-name="glyph194" unicode="&#xf9;" horiz-adv-x="620" 
d="M429 516h-239v273h239v-273z" />
    <glyph glyph-name="quotesinglbase" unicode="&#xfa;" horiz-adv-x="432" 
d="M386 283l-261 -559h-138l157 559h242z" />
    <glyph glyph-name="quotedblbase" unicode="&#xfb;" horiz-adv-x="814" 
d="M781 283l-261 -559h-134l157 559h238zM387 283l-261 -559h-134l157 559h238z" />
    <glyph glyph-name="perthousand" unicode="&#xfc;" horiz-adv-x="2848" 
d="M807 1076q0 -225 -90.5 -333.5t-261.5 -108.5q-174 0 -263.5 110t-89.5 331q0 224 91 333t262 109q174 0 263 -110t89 -331zM1473 1489l-780 -1489h-165l780 1489h165zM1897 413q0 -225 -90.5 -333.5t-261.5 -108.5q-174 0 -263.5 110t-89.5 331q0 224 91 333t262 109
q174 0 263 -110t89 -331zM629 1076q0 152 -35.5 230t-138.5 78t-139 -79t-36 -230q0 -150 34 -229t141 -79q103 0 138.5 79t35.5 230zM1719 413q0 152 -35.5 230t-138.5 78t-139 -79t-36 -230q0 -150 34 -229t141 -79q103 0 138.5 79t35.5 230zM2741 413
q0 -225 -90.5 -333.5t-261.5 -108.5q-174 0 -263.5 110t-89.5 331q0 224 91 333t262 109q174 0 263 -110t89 -331zM2563 413q0 152 -35.5 230t-138.5 78t-139 -79t-36 -230q0 -150 34 -229t141 -79q103 0 138.5 79t35.5 230z" />
    <glyph glyph-name="Acircumflex" unicode="&#xff;" horiz-adv-x="1228" 
d="M-10 0l502 1489h244l502 -1489h-209l-135 416h-569l-135 -416h-200zM839 585l-230 702l-229 -702h459zM940 1650h-159l-185 256l-184 -256h-155l228 379h227z" />
    <glyph glyph-name="Ecircumflex" unicode="&#x2260;" horiz-adv-x="1149" 
d="M151 0v1489h931v-176h-733v-408h683v-176h-683v-553h733v-176h-931zM961 1670h-159l-185 256l-184 -256h-155l228 379h227z" />
    <glyph glyph-name="Aacute" unicode="&#x20a0;" horiz-adv-x="1228" 
d="M-10 0l502 1489h244l502 -1489h-209l-135 416h-569l-135 -416h-200zM839 585l-230 702l-229 -702h459zM867 2049l-273 -374h-149l179 374h243z" />
    <glyph glyph-name="Edieresis" unicode="&#x160;" horiz-adv-x="1149" 
d="M151 0v1489h931v-176h-733v-408h683v-176h-683v-553h733v-176h-931zM966 1677h-201v195h201v-195zM553 1677h-201v195h201v-195z" />
    <glyph glyph-name="Egrave" unicode="&#x161;" horiz-adv-x="1149" 
d="M151 0v1489h931v-176h-733v-408h683v-176h-683v-553h733v-176h-931zM754 1675h-149l-273 374h243z" />
    <glyph glyph-name="Iacute" unicode="&#xa6;" horiz-adv-x="764" 
d="M671 0h-578v152h190v1185h-190v152h578v-152h-190v-1185h190v-152zM662 2049l-273 -374h-149l179 374h243z" />
    <glyph glyph-name="Icircumflex" unicode="&#xb2;" horiz-adv-x="764" 
d="M671 0h-578v152h190v1185h-190v152h578v-152h-190v-1185h190v-152zM730 1670h-159l-185 256l-184 -256h-155l228 379h227z" />
    <glyph glyph-name="Idieresis" unicode="&#xb3;" horiz-adv-x="764" 
d="M671 0h-578v152h190v1185h-190v152h578v-152h-190v-1185h190v-152zM695 1677h-201v195h201v-195zM282 1677h-201v195h201v-195z" />
    <glyph glyph-name="Igrave" unicode="&#xb9;" horiz-adv-x="764" 
d="M671 0h-578v152h190v1185h-190v152h578v-152h-190v-1185h190v-152zM534 1675h-149l-273 374h243z" />
    <glyph glyph-name="Oacute" unicode="&#xbc;" horiz-adv-x="1449" 
d="M1204 1318q85 -98 132 -243t47 -331q0 -181 -46 -327t-133 -245q-91 -104 -212.5 -153.5t-267.5 -49.5q-151 0 -272 51t-208 152q-86 99 -132 244t-46 328q0 188 46.5 330t132.5 244q86 99 207.5 150.5t271.5 51.5q152 0 274 -53t206 -149zM1177 744q0 148 -32 262
t-90 189q-59 77 -142.5 115.5t-187.5 38.5q-108 0 -188.5 -37.5t-142.5 -116.5q-59 -76 -90.5 -191t-31.5 -260q0 -293 123 -448.5t330 -155.5t329.5 155.5t122.5 448.5zM1002 2049l-273 -374h-149l179 374h243z" />
    <glyph glyph-name="Ocircumflex" unicode="&#xbd;" horiz-adv-x="1449" 
d="M1204 1318q85 -98 132 -243t47 -331q0 -181 -46 -327t-133 -245q-91 -104 -212.5 -153.5t-267.5 -49.5q-151 0 -272 51t-208 152q-86 99 -132 244t-46 328q0 188 46.5 330t132.5 244q86 99 207.5 150.5t271.5 51.5q152 0 274 -53t206 -149zM1177 744q0 148 -32 262
t-90 189q-59 77 -142.5 115.5t-187.5 38.5q-108 0 -188.5 -37.5t-142.5 -116.5q-59 -76 -90.5 -191t-31.5 -260q0 -293 123 -448.5t330 -155.5t329.5 155.5t122.5 448.5zM1055 1670h-159l-185 256l-184 -256h-155l228 379h227z" />
    <glyph glyph-name="Ograve" unicode="&#xbe;" horiz-adv-x="1449" 
d="M1204 1318q85 -98 132 -243t47 -331q0 -181 -46 -327t-133 -245q-91 -104 -212.5 -153.5t-267.5 -49.5q-151 0 -272 51t-208 152q-86 99 -132 244t-46 328q0 188 46.5 330t132.5 244q86 99 207.5 150.5t271.5 51.5q152 0 274 -53t206 -149zM1177 744q0 148 -32 262
t-90 189q-59 77 -142.5 115.5t-187.5 38.5q-108 0 -188.5 -37.5t-142.5 -116.5q-59 -76 -90.5 -191t-31.5 -260q0 -293 123 -448.5t330 -155.5t329.5 155.5t122.5 448.5zM851 1675h-149l-273 374h243z" />
    <glyph glyph-name="Uacute" unicode="&#xd0;" horiz-adv-x="1343" 
d="M671 -31q-131 0 -229 34.5t-167 102.5q-78 78 -110 186.5t-32 267.5v929h198v-929q0 -103 13 -173.5t51 -126.5q40 -60 108.5 -91t167.5 -31q93 0 165 31t112 91q37 57 50.5 126t13.5 169v934h198v-929q0 -155 -31.5 -266t-110.5 -188q-71 -69 -165.5 -103t-231.5 -34z
M995 2049l-273 -374h-149l179 374h243z" />
    <glyph glyph-name="Ucircumflex" unicode="&#xd7;" horiz-adv-x="1343" 
d="M671 -31q-131 0 -229 34.5t-167 102.5q-78 78 -110 186.5t-32 267.5v929h198v-929q0 -103 13 -173.5t51 -126.5q40 -60 108.5 -91t167.5 -31q93 0 165 31t112 91q37 57 50.5 126t13.5 169v934h198v-929q0 -155 -31.5 -266t-110.5 -188q-71 -69 -165.5 -103t-231.5 -34z
M1006 1670h-159l-185 256l-184 -256h-155l228 379h227z" />
    <glyph glyph-name="Ugrave" unicode="&#xdd;" horiz-adv-x="1343" 
d="M671 -31q-131 0 -229 34.5t-167 102.5q-78 78 -110 186.5t-32 267.5v929h198v-929q0 -103 13 -173.5t51 -126.5q40 -60 108.5 -91t167.5 -31q93 0 165 31t112 91q37 57 50.5 126t13.5 169v934h198v-929q0 -155 -31.5 -266t-110.5 -188q-71 -69 -165.5 -103t-231.5 -34z
M854 1675h-149l-273 374h243z" />
    <glyph glyph-name="dotlessi" unicode="&#xde;" horiz-adv-x="468" 
d="M328 0h-188v1117h188v-1117z" />
    <glyph glyph-name="circumflex" unicode="&#xf0;" horiz-adv-x="1118" 
d="M901 1297h-159l-185 256l-184 -256h-155l228 379h227z" />
    <glyph glyph-name="tilde" unicode="&#xfd;" horiz-adv-x="1118" 
d="M960 1632q-10 -156 -74.5 -234t-171.5 -78q-52 0 -96 19t-86 59q-44 41 -76 62.5t-63 21.5q-49 0 -68.5 -45t-23.5 -121h-140q7 154 76 232.5t169 78.5q51 0 94 -19.5t86 -57.5q43 -39 77.5 -59.5t63.5 -20.5q47 0 68.5 45t24.5 117h140z" />
    <glyph glyph-name="glyph216" unicode="&#xfe;" horiz-adv-x="1118" 
d="M936 1335h-754v154h754v-154z" />
    <glyph glyph-name="breve" unicode="&#x25cc;" horiz-adv-x="1079" 
d="M643 43q0 20 13.5 35.5t33.5 15.5q21 0 35 -15.5t14 -35.5t-14 -33.5t-35 -13.5q-20 0 -33.5 13.5t-13.5 33.5zM645 944q0 21 14.5 36t34.5 15q21 0 35 -15t14 -36q0 -20 -14 -33.5t-35 -13.5q-20 0 -34.5 13.5t-14.5 33.5zM618 76q0 -21 -14 -34t-35 -13q-20 0 -34.5 13
t-14.5 34q0 20 14.5 34.5t34.5 14.5q21 0 35 -14.5t14 -34.5zM516 150q0 -21 -14.5 -35.5t-34.5 -14.5q-21 0 -35 14.5t-14 35.5q0 20 14 34.5t35 14.5q20 0 34.5 -14.5t14.5 -34.5zM446 258q0 -20 -14 -34.5t-35 -14.5q-20 0 -34.5 14.5t-14.5 34.5q0 21 14.5 35t34.5 14
q21 0 35 -14t14 -35zM408 375q0 -21 -14.5 -35t-35.5 -14q-20 0 -34.5 14t-14.5 35q0 20 14.5 34.5t34.5 14.5q21 0 35.5 -14.5t14.5 -34.5zM399 494q0 -21 -14 -34.5t-35 -13.5q-20 0 -34.5 13.5t-14.5 34.5q0 20 14.5 35.5t34.5 15.5q21 0 35 -15.5t14 -35.5zM408 612
q0 -20 -14.5 -34.5t-35.5 -14.5q-20 0 -34.5 14.5t-14.5 34.5q0 21 14.5 35.5t34.5 14.5q21 0 35.5 -14.5t14.5 -35.5zM449 729q0 -20 -14.5 -34.5t-35.5 -14.5q-20 0 -34.5 14.5t-14.5 34.5q0 21 14.5 35t34.5 14q21 0 35.5 -14t14.5 -35zM514 838q0 -21 -14.5 -35.5
t-34.5 -14.5q-21 0 -34 14.5t-13 35.5q0 20 13 34.5t34 14.5q20 0 34.5 -14.5t14.5 -34.5zM616 913q0 -20 -14 -33.5t-35 -13.5q-20 0 -34.5 13.5t-14.5 33.5q0 21 14.5 36.5t34.5 15.5q21 0 35 -15.5t14 -36.5zM762 76q0 20 14.5 34.5t34.5 14.5t34.5 -14.5t14.5 -34.5
q0 -21 -14.5 -34t-34.5 -13t-34.5 13t-14.5 34zM864 150q0 20 14.5 34.5t34.5 14.5q21 0 35.5 -14.5t14.5 -34.5q0 -21 -14.5 -35.5t-35.5 -14.5q-20 0 -34.5 14.5t-14.5 35.5zM934 258q0 21 14.5 35t34.5 14q21 0 35 -14t14 -35q0 -20 -14 -34.5t-35 -14.5
q-20 0 -34.5 14.5t-14.5 34.5zM973 375q0 20 14 34.5t35 14.5q20 0 34.5 -14.5t14.5 -34.5q0 -21 -14.5 -35t-34.5 -14q-21 0 -35 14t-14 35zM981 494q0 20 14.5 35.5t34.5 15.5q21 0 35 -15.5t14 -35.5q0 -21 -14 -34.5t-35 -13.5q-20 0 -34.5 13.5t-14.5 34.5zM973 612
q0 21 14 35.5t35 14.5q20 0 34.5 -14.5t14.5 -35.5q0 -20 -14.5 -34.5t-34.5 -14.5q-21 0 -35 14.5t-14 34.5zM932 729q0 21 14.5 35t34.5 14t34.5 -14t14.5 -35q0 -20 -14.5 -34.5t-34.5 -14.5t-34.5 14.5t-14.5 34.5zM866 838q0 20 13.5 33.5t33.5 13.5q21 0 36.5 -13.5
t15.5 -33.5q0 -21 -15.5 -35.5t-36.5 -14.5q-20 0 -33.5 14.5t-13.5 35.5zM766 913q0 21 13.5 36.5t33.5 15.5q21 0 35 -15.5t14 -36.5q0 -20 -14 -33.5t-35 -13.5q-20 0 -33.5 13.5t-13.5 33.5z" />
    <glyph glyph-name="dotaccent" unicode="&#x200b;" 
 />
    <glyph glyph-name="ring" unicode="&#x200c;" horiz-adv-x="63" 
d="M0 0v1610h63v-1610h-63z" />
    <glyph glyph-name="cedilla" unicode="&#x200d;" horiz-adv-x="61" 
d="M184 1499l-123 123v-1622h-61v1620l-118 -121l-41 45l151 152l-151 151l41 45l151 -153l151 153l43 -45l-153 -151l153 -152z" />
    <glyph glyph-name="hungarumlaut" unicode="&#x1780;" horiz-adv-x="1502" 
d="M375 1290q57 29 115 60.5t119 64.5q167 -101 293 -147q126 64 285 147q22 -17 50.5 -36t65.5 -41q64 -52 150 -55q55 -4 118 18q-20 -266 -304 -293q-20 7 -53 20t-79 32q-94 34 -149 39q-11 0 -52 -11q-18 -9 -37.5 -18.5t-39.5 -20.5q-87 -55 -146 -59
q-45 20 -78.5 42.5t-59.5 45.5q-57 48 -158 62q-29 5 -73 -21q99 -13 139 -56q37 -49 37 -55q-69 -55 -80 -46q60 0 98 -20q36 -16 59 -39q39 -56 50 -59q16 3 125 84q112 73 233 80q109 0 245 -59q64 -29 124 -63t118 -74v-703q-130 -109 -176 -112q-10 0 -18 14
q-13 41 -66 76q-26 17 -54 34.5t-58 35.5q-32 19 -60 42t-51 49q-50 53 -59 121q0 62 48 88q41 21 105 25q68 10 143 30q71 18 136 77q-51 28 -106.5 51t-116.5 40q-118 25 -212 25q-204 -8 -259 -123q0 -107 3 -206q0 -142 -25 -258q-10 -23 -24 -43t-31 -39
q-41 -32 -118 -39q-131 3 -196 62q-62 59 -84 127q-5 26 -7.5 53t-2.5 54q0 81 25 149q32 -14 58 -44q21 -36 50 -50q44 -16 81 -16q96 3 139 66q41 56 41 94q0 17 -1 35.5t-3 38.5q-3 37 -26 48q-19 10 -36 10q-32 -3 -59 -46q-26 -48 -66 -52q-92 0 -153 66
q-70 58 -70 136q12 130 80 175q33 22 73 35q19 5 36.5 10t33.5 10q-82 43 -196 43v80q0 29 -1 52t-3 39q27 26 69 56t102 62zM1383 485q-80 -29 -83 -80q0 -29 24 -57q24 -34 56 -34z" />
    <glyph glyph-name="ogonek" 
d="M-484 -174q196 -8 329 -48q132 -39 132 -91v-362q-17 -43 -66 -80q-56 -32 -157 -36q-100 4 -154 70q-55 58 -55 94q3 63 52 112q42 53 91 66q129 4 223 -58v44q-95 56 -238 77q-142 21 -244 18q-213 0 -268 -70v-280q-14 -66 -160 -66q-121 4 -179 109v157
q40 -28 73 -39q25 -7 54 -7q48 0 132 57q-4 48 -29 44q-15 -2 -42 -5.5t-65 -8.5q-69 7 -98 46q-34 40 -34 93q24 134 163 137q177 0 182 -119q94 94 171 125q57 22 157 22h15q13 0 15 -1z" />
    <glyph glyph-name="caron" 
d="M-484 -784q196 -8 329 -48q132 -39 132 -91v-362q-17 -43 -66 -80q-56 -32 -157 -36q-100 4 -154 70q-55 58 -55 94q3 63 52 112q42 53 91 66q129 4 223 -58v44q-95 56 -238 77q-142 21 -244 18q-213 0 -268 -70v-280q-14 -66 -160 -66q-121 4 -179 109v157
q40 -28 73 -39q25 -7 54 -7q48 0 132 57q-4 48 -29 44q-15 -2 -42 -5.5t-65 -8.5q-69 7 -98 46q-34 40 -34 93q24 134 163 137q177 0 182 -119q94 94 171 125q57 22 157 22h15q13 0 15 -1z" />
    <glyph glyph-name="Lslash" horiz-adv-x="2220" 
d="M418 959l20 6q31 0 55 -6.5t43 -16.5q36 -16 59 -39q39 -56 50 -59q16 3 125 84q112 73 233 80q109 0 245 -59q64 -29 124 -63t118 -74v-703q-130 -109 -176 -112q-10 0 -18 14q-13 41 -66 76q-26 17 -54 34.5t-58 35.5q-32 19 -60 42t-51 49q-50 53 -59 121q0 62 48 88
q41 21 105 25q68 10 143 30q71 18 136 77q-51 28 -106.5 51t-116.5 40q-118 25 -212 25q-204 -8 -259 -123q0 -107 3 -206q0 -142 -25 -258q-10 -23 -24 -43t-31 -39q-41 -32 -118 -39q-131 3 -196 62q-62 59 -84 127q-5 26 -7.5 53t-2.5 54q0 81 25 149q32 -14 58 -44
q21 -36 50 -50q44 -16 81 -16q96 3 139 66q41 56 41 94q0 17 -1 35.5t-3 38.5q-3 37 -26 48q-19 10 -36 10q-32 -3 -59 -46q-26 -48 -66 -52q-92 0 -153 66q-70 58 -70 136q12 130 80 175q16 11 32 18.5t35 14.5zM327 936q-32 12 -48 15.5t-31 5.5q-15 3 -29 3q-22 0 -31 -4
v254q40 11 68.5 20t45.5 17q29 16 86 36q52 21 282 126q103 -43 183 -79t143 -65q124 -57 209 -48q17 5 33.5 10.5t33.5 10.5t59 25t111 54t118 57t80 34q205 -85 346 -145t229 -95v-1046q-16 -35 -40 -57.5t-49 -36t-47.5 -19.5t-35.5 -8h-28q-33 67 -92 117q-28 23 -57 46
t-58 45q-28 21 -52.5 37t-45.5 37q-41 44 -41 95q0 40 28.5 67t68.5 45.5t83 31t73 24.5q52 21 97 40.5t73 52.5v100q0 107 -39 151q-19 23 -44.5 44.5t-57.5 41.5q-63 42 -143.5 73.5t-168.5 52.5q-62 17 -113 23.5t-90.5 6.5t-68 -4t-46.5 -8q-21 -5 -63 -21t-106 -36
q-34 -10 -74.5 -18t-89.5 -14q-96 -12 -193 23q-93 34 -144 54q-25 10 -50 19t-50 17q-56 17 -93 17q-9 0 -25 -3t-32.5 -8t-31 -11t-21.5 -11l31 -9q49 -19 112 -18h25l7 -104q-29 -13 -52 -21t-34 -10l1 -1zM1383 485q-80 -29 -83 -80q0 -29 24 -57q24 -34 59 -34v171z
M2113 485q-80 -29 -83 -80q0 -29 24 -57q24 -34 59 -34v171z" />
    <glyph glyph-name="lslash" horiz-adv-x="2220" 
d="M404 958q-16 -5 -33.5 -10t-36.5 -10q-40 -13 -73 -35q-68 -45 -80 -175q0 -78 70 -136q61 -66 153 -66q40 4 66 52q27 43 59 46q17 0 36 -10q23 -11 26 -48q2 -20 3 -38.5t1 -35.5q0 -38 -41 -94q-43 -63 -139 -66q-37 0 -81 16q-29 14 -50 50q-26 30 -58 44
q-25 -68 -25 -149q0 -27 2.5 -54t7.5 -53q22 -68 84 -127q65 -59 196 -62q77 7 118 39q17 19 31 39t24 43q25 116 25 258q-3 99 -3 206q55 115 259 123q94 0 212 -25q61 -17 116.5 -40t106.5 -51q-65 -59 -136 -77q-75 -20 -143 -30q-64 -4 -105 -25q-48 -26 -48 -88
q9 -68 59 -121q23 -26 51 -49t60 -42q30 -18 58 -35.5t54 -34.5q53 -35 66 -76q8 -14 18 -14q46 3 176 112v703q-58 40 -118 74t-124 63q-136 59 -245 59q-121 -7 -233 -80q-109 -81 -125 -84q-11 3 -50 59q-23 23 -59 39q-38 20 -98 20q-51 -8 -81 -11t-46.5 -4t-23 0.5
t-9.5 2.5q-14 5 -29.5 7.5t-29.5 2.5q-22 0 -31 -4v254q40 11 68.5 20t45.5 17q29 16 86 36q52 21 282 126q103 -43 183 -79t143 -65q124 -57 209 -48q17 5 33.5 10.5t33.5 10.5t59 25t111 54t118 57t80 34q147 -61 259.5 -109t197.5 -83q33 48 44 129q0 27 -6 65
q-7 39 -40 65q-19 8 -42 15.5t-49 15.5q-20 10 -39.5 22t-37.5 27q-35 27 -35 68q0 37 18 90q40 96 134 96q97 -4 172 -76q77 -92 77 -225q0 -121 -52 -231q-32 -66 -60 -96q9 -4 17.5 -7t16.5 -6v-1046q-16 -35 -40 -57.5t-49 -36t-47.5 -19.5t-35.5 -8h-28q-33 67 -92 117
q-28 23 -57 46t-58 45q-28 21 -52.5 37t-45.5 37q-41 44 -41 95q0 40 28.5 67t68.5 45.5t83 31t73 24.5q52 21 97 40.5t73 52.5v100q0 107 -39 151q-38 45 -101.5 86.5t-145.5 72.5q-42 16 -83 29t-84 24q-85 21 -146 27q-60 6 -105.5 1t-66.5 -10t-63 -21t-105.5 -36
t-164.5 -32q-96 -12 -193 23q-93 34 -144 54q-51 19 -100.5 36t-92.5 17q-9 0 -25 -3t-32.5 -8t-31 -11t-21.5 -11l31 -9q49 -19 112 -18h25l7 -104q-29 -13 -49.5 -21t-31.5 -10zM2113 485q-80 -29 -83 -80q0 -29 24 -57q24 -34 59 -34v171zM1383 314q-35 0 -59 34
q-24 28 -24 57q3 51 83 80v-171z" />
    <glyph glyph-name="Scaron" unicode="&#x1781;" horiz-adv-x="1370" 
d="M694 1415q364 -6 665 -286q8 -3 8 -34v-17q0 -107 -34 -190q-106 -249 -304 -337q-100 -45 -216.5 -69.5t-257.5 -31.5q73 -63 143 -77q75 -18 174 -14q77 0 132 28q59 23 107 63q95 83 154 196q55 12 94 30q-66 -362 -219 -519q-153 -153 -332 -153h-9q-237 3 -401 153
q-161 143 -220 369q60 9 123.5 19.5t133.5 23.5q70 11 135 26t128 33q128 46 208 114q81 70 81 179q3 80 -88 149q-44 36 -121 59q-73 22 -200 22q-68 0 -114 -40q-52 -48 -52 -110q0 -36 23 -77q54 -48 84 -43q47 0 47 134q0 45 58 45q56 0 115 -41q57 -44 60 -189
q-21 -167 -269 -172q-61 0 -125 29q-29 14 -56 32.5t-53 40.5q-107 95 -110 202q-4 73 55 123q153 124 453 330z" />
    <glyph glyph-name="scaron" 
d="M-558 -98q228 0 369 -56q142 -61 142 -193q0 -68 -49 -107q-54 -43 -147 -72q-41 -12 -87 -20.5t-97 -16.5q-55 -8 -106.5 -15.5t-100.5 -16.5q41 -7 82 -10.5t82 -3.5q208 3 418 75q-35 -94 -169 -158q-138 -68 -337 -73q-277 8 -360 111q-46 45 -64 91q-10 21 -19 37
t-16 28q243 0 468 21q104 19 172 47q61 26 61 70q5 57 -61 114q-33 30 -102 45q-67 16 -187 16q-112 0 -177 -31q-33 -14 -52 -22.5t-23 -10.5q13 -7 38 -7l36 4t34 6q47 9 69 9q102 -19 107 -141q-5 -30 -54 -57q-53 -30 -137 -33q-72 7 -130 45q-56 32 -62 106
q12 128 164 177q139 43 272 43h11q10 0 12 -1z" />
    <glyph glyph-name="Zcaron" 
d="M-558 -797q228 0 369 -54q142 -56 142 -181q0 -64 -49 -100q-54 -41 -147 -69q-41 -10 -87 -18.5t-97 -15.5q-55 -7 -106.5 -14.5t-100.5 -15.5q41 -7 82 -10t82 -3q208 2 418 71q-35 -89 -169 -149q-138 -65 -337 -69q-277 7 -360 105q-46 42 -64 85q-10 20 -19 35
t-16 26q243 0 468 20q104 18 172 44q61 24 61 66q5 54 -61 107q-33 29 -102 42q-67 16 -187 16q-112 0 -177 -29q-33 -14 -52 -22t-23 -10q13 -6 38 -6q18 2 36 3.5t34 5.5q47 8 69 8q102 -17 107 -132q-5 -29 -54 -54q-53 -28 -137 -31q-72 7 -130 43q-56 30 -62 99
q12 121 164 167q139 40 272 40h23z" />
    <glyph glyph-name="zcaron" horiz-adv-x="2132" 
d="M1469 1281q45 20 105.5 54t141.5 83q66 -38 131 -74.5t132 -71.5q31 -17 57 -31.5t46 -27.5q39 -35 39 -55v-990q-3 -77 -69 -123q-61 -45 -98 -48q-7 52 -56 87q-25 20 -52.5 39t-59.5 38q-28 22 -53.5 45.5t-49.5 48.5q-50 56 -50 136q0 55 66 87q29 17 62.5 33
t70.5 30q82 28 140 76q58 45 58 118q0 76 -48 150q-46 64 -119 119q-131 91 -213 108q-42 8 -87 11.5t-96 1.5q-47 -2 -101 -12q1 -1 1 -18q3 -118 -34 -207q-106 -249 -304 -337q-100 -45 -216.5 -69.5t-257.5 -31.5q73 -63 143 -77q75 -18 174 -14q77 0 132 28
q59 23 107 63q95 83 154 196q55 12 94 30q-66 -362 -219 -519q-157 -157 -341 -153q-237 3 -401 153q-161 143 -220 369q60 9 123.5 19.5t133.5 23.5q70 11 135 26t128 33q128 46 208 114q81 70 81 179q3 80 -88 149q-44 36 -121 59q-73 22 -200 22q-68 0 -114 -40
q-52 -48 -52 -110q0 -36 23 -77q54 -48 84 -43q47 0 47 134q0 45 58 45q56 0 115 -41q57 -44 60 -189q-21 -167 -269 -172q-61 0 -125 29q-29 14 -56 32.5t-53 40.5q-107 95 -110 202q-4 73 55 123q153 124 453 330q326 -6 607 -236q52 52 168 102zM2040 505
q-14 -8 -27 -15.5t-25 -14.5q-28 -15 -28 -47q0 -31 28 -41q24 -14 52 -18v136z" />
    <glyph glyph-name="brokenbar" horiz-adv-x="2132" 
d="M1793 1623q0 37 18 90q40 96 134 96q97 -4 172 -76q77 -92 77 -225q0 -121 -52 -231q-13 -26 -24.5 -45.5t-21.5 -32.5q25 -25 25 -41v-990q-3 -77 -69 -123q-61 -45 -98 -48q-7 52 -56 87q-25 20 -52.5 39t-59.5 38q-28 22 -53.5 45.5t-49.5 48.5q-50 56 -50 136
q0 55 66 87q29 17 62.5 33t70.5 30q82 28 140 76q58 45 58 118q0 76 -48 150q-46 64 -119 119q-131 91 -213 108q-42 8 -87 11.5t-96 1.5q-47 -2 -101 -12q1 -1 1 -18q3 -118 -34 -207q-106 -249 -304 -337q-100 -45 -216.5 -69.5t-257.5 -31.5q73 -63 143 -77
q75 -18 174 -14q77 0 132 28q59 23 107 63q95 83 154 196q55 12 94 30q-66 -362 -219 -519q-157 -157 -341 -153q-237 3 -401 153q-161 143 -220 369q60 9 123.5 19.5t133.5 23.5q70 11 135 26t128 33q128 46 208 114q81 70 81 179q3 80 -88 149q-44 36 -121 59
q-73 22 -200 22q-68 0 -114 -40q-52 -48 -52 -110q0 -36 23 -77q54 -48 84 -43q47 0 47 134q0 45 58 45q56 0 115 -41q57 -44 60 -189q-21 -167 -269 -172q-61 0 -125 29q-29 14 -56 32.5t-53 40.5q-107 95 -110 202q-4 73 55 123q153 124 453 330q326 -6 607 -236
q52 52 168 102q45 20 105.5 54t141.5 83q66 -38 131 -74.5t132 -71.5q10 -5 19.5 -11t18.5 -11q8 20 14.5 43.5t10.5 51.5q0 27 -6 65q-7 39 -40 65q-19 8 -42 15.5t-49 15.5q-20 10 -39.5 22t-37.5 27q-35 27 -35 68zM2040 505q-14 -8 -27 -15.5t-25 -14.5q-28 -15 -28 -47
q0 -31 28 -41q24 -14 52 -18v136z" />
    <glyph glyph-name="Eth" unicode="&#x1782;" horiz-adv-x="1483" 
d="M1344 432q-22 -4 -58 -56q21 -62 58 -66v122zM522 965q117 32 248 32q193 0 396 -69q196 -70 269 -161v-649q-127 -118 -164 -118q-28 0 -41 7q-11 45 -57 91q-26 23 -52.5 44.5t-54.5 43.5q-26 26 -50 50.5t-44 48.5q-49 43 -49 95q0 46 70 62q30 8 65.5 14t77.5 8
q84 7 146 21q59 14 62 48q-21 41 -76 66q-29 14 -65 25t-78 18q-168 40 -339 45q-63 -2 -137 -21t-159 -56q-38 -16 -70.5 -34.5t-58.5 -38.5q-58 -36 -58 -77q0 -21 30 -39q25 -20 57 -30q38 -13 65 -22l42 -14q12 17 23.5 34.5t22.5 35.5q12 14 23 26.5t22 23.5
q38 44 136 44q62 0 94 -48q25 -46 25 -95q-8 -117 -87 -110q-83 9 -88 23q-39 -4 -62 -45q-9 -21 -18.5 -46.5t-20.5 -54.5q-17 -56 -56 -98q-39 -45 -121 -48q-87 3 -134 48q-52 39 -52 80v590q79 108 175 170q-76 25 -178 21v123q0 51 -1 84.5t-3 51.5q85 51 182.5 110
t212.5 131q91 -49 169.5 -85.5t147.5 -59.5q73 31 111 54q35 14 130 91q24 -14 52.5 -32.5t61.5 -40.5q17 -8 35 -16t38 -16q17 -8 37.5 -14.5t43.5 -10.5q49 3 115 32q0 -121 -83 -216q-84 -95 -220 -98q-7 4 -20 10.5t-33 17.5q-20 10 -41 20t-43 21q-104 56 -161 59
q-13 0 -41 -11q-11 -10 -23.5 -20t-27.5 -21q-54 -51 -106 -55q-45 19 -83.5 38t-73.5 39q-69 37 -187 41q-10 0 -36 -14q-27 -25 -48 -38q96 -31 143 -69q44 -47 73 -47z" />
    <glyph glyph-name="eth" 
d="M-662 -177q28 0 52 -1t44 -3q318 -27 548 -153v-216q-3 -125 -45 -191q-42 -64 -167 -70q-99 6 -157 73q-54 62 -59 100q0 47 41 88q39 43 109 43q30 0 77 -22q50 -25 94 -28q34 8 38 21q3 10 3 41q-115 2 -233 13.5t-241 32.5q-131 31 -243 31q-78 0 -130 -27
q-56 -25 -100 -102q-7 -7 -7 -14q3 -14 26 -34q22 -18 50 -18q34 0 52 25q25 81 77 107q46 25 94 22q70 0 74 -7q37 -18 73 -63q34 -46 34 -109q3 -25 -8 -51q-9 -15 -26 -15q-11 2 -25.5 6t-33.5 9q-42 14 -77 14q-46 3 -64 -46q-16 -81 -89 -84q-101 3 -157 35
q-59 29 -84 77q-36 94 -36 161v10q8 116 59 184q46 70 123 102q157 60 301 60q12 0 13 -1z" />
    <glyph glyph-name="Yacute" 
d="M-662 -797q28 0 52 -1t44 -3q318 -27 548 -153v-216q-3 -125 -45 -191q-42 -64 -167 -70q-99 6 -157 73q-54 62 -59 100q0 47 41 88q39 43 109 43q30 0 77 -22q50 -25 94 -28q34 8 38 21q3 10 3 41q-115 2 -233 13.5t-241 32.5q-131 31 -243 31q-78 0 -130 -27
q-56 -25 -100 -102q-7 -7 -7 -14q3 -14 26 -34q22 -18 50 -18q34 0 52 25q25 81 77 107q46 25 94 22q70 0 74 -7q37 -18 73 -63q34 -46 34 -109q3 -25 -8 -51q-9 -15 -26 -15q-11 2 -25.5 6t-33.5 9q-42 14 -77 14q-46 3 -64 -46q-16 -81 -89 -84q-101 3 -157 35
q-59 29 -84 77q-36 94 -36 161v10q8 116 59 184q46 70 123 102q157 60 301 60q12 0 13 -1z" />
    <glyph glyph-name="yacute" horiz-adv-x="2226" 
d="M1343 310q-37 4 -58 66q36 52 58 56v-122zM521 965q-27 0 -143 -80q-96 -62 -175 -170v-590q0 -41 52 -80q47 -45 134 -48q82 3 121 48q39 42 56 98q11 29 20.5 54.5t18.5 46.5q23 41 62 45q5 -14 88 -23q79 -7 87 110q0 49 -25 95q-32 48 -94 48q-98 0 -136 -44
q-11 -11 -22 -23.5t-23 -26.5q-11 -18 -22.5 -35.5t-23.5 -34.5l-42 14t-65 22q-32 10 -57 30q-30 18 -30 39q0 41 58 77q26 20 58.5 38.5t70.5 34.5q85 37 159 56t137 21q171 -5 339 -45q42 -7 78 -18t65 -25q55 -25 76 -66q-3 -34 -62 -48q-62 -14 -146 -21
q-42 -2 -77.5 -8t-65.5 -14q-70 -16 -70 -62q0 -52 49 -95q20 -24 44 -48.5t50 -50.5q28 -22 54.5 -43.5t52.5 -44.5q46 -46 57 -91q13 -7 41 -7q37 0 164 118v649q-73 91 -269 161q-203 69 -396 69q-131 0 -248 -32zM2093 739q0 107 -39 151q-38 45 -101.5 86.5
t-145.5 72.5q-42 16 -83 29t-84 24q-85 21 -146 27q-60 6 -105.5 1t-66.5 -10t-63 -21t-105.5 -36t-164.5 -32q-96 -12 -193 23q-93 34 -144 54q-51 19 -100.5 36t-92.5 17q-9 0 -25 -3t-32.5 -8t-31 -11t-21.5 -11l31 -9q49 -19 112 -18h25l7 -104q-29 -13 -49.5 -21
t-31.5 -10l-118 -31q-16 5 -27.5 9t-18.5 6q-14 5 -29.5 7.5t-29.5 2.5q-22 0 -31 -4v254q40 11 68.5 20t45.5 17q29 16 86 36q52 21 282 126q103 -43 183 -79t143 -65q124 -57 209 -48q17 5 33.5 10.5t33.5 10.5t59 25t111 54t118 57t80 34q205 -85 346 -145t229 -95v-1046
q-16 -35 -40 -57.5t-49 -36t-47.5 -19.5t-35.5 -8h-28q-33 67 -92 117q-28 23 -57 46t-58 45q-28 21 -52.5 37t-45.5 37q-41 44 -41 95q0 40 28.5 67t68.5 45.5t83 31t73 24.5q52 21 97 40.5t73 52.5v100zM2114 485q-80 -29 -83 -80q0 -29 24 -57q24 -34 59 -34v171z" />
    <glyph glyph-name="Thorn" horiz-adv-x="2226" 
d="M1912 1713q40 96 134 96q97 -4 172 -76q77 -92 77 -225q0 -121 -52 -231q-32 -66 -60 -96q9 -4 17.5 -7t16.5 -6v-1046q-16 -35 -40 -57.5t-49 -36t-47.5 -19.5t-35.5 -8h-28q-33 67 -92 117q-28 23 -57 46t-58 45q-28 21 -52.5 37t-45.5 37q-41 44 -41 95q0 40 28.5 67
t68.5 45.5t83 31t73 24.5q52 21 97 40.5t73 52.5v100q0 107 -39 151q-38 45 -101.5 86.5t-145.5 72.5q-42 16 -83 29t-84 24q-85 21 -146 27q-60 6 -105.5 1t-66.5 -10t-63 -21t-105.5 -36t-164.5 -32q-96 -12 -193 23q-93 34 -144 54q-51 19 -100.5 36t-92.5 17
q-9 0 -25 -3t-32.5 -8t-31 -11t-21.5 -11l31 -9q49 -19 112 -18h25l7 -104q-29 -13 -49.5 -21t-31.5 -10l-118 -31q-16 5 -27.5 9t-18.5 6q-14 5 -29.5 7.5t-29.5 2.5q-22 0 -31 -4v254q40 11 68.5 20t45.5 17q29 16 86 36q52 21 282 126q103 -43 183 -79t143 -65
q124 -57 209 -48q17 5 33.5 10.5t33.5 10.5t59 25t111 54t118 57t80 34q147 -61 259.5 -109t197.5 -83q33 48 44 129q0 27 -6 65q-7 39 -40 65q-19 8 -42 15.5t-49 15.5q-20 10 -39.5 22t-37.5 27q-35 27 -35 68q0 37 18 90zM522 965q-27 0 -143 -80q-96 -62 -175 -170v-590
q0 -41 52 -80q47 -45 134 -48q82 3 121 48q39 42 56 98q11 29 20.5 54.5t18.5 46.5q23 41 62 45q5 -14 88 -23q79 -7 87 110q0 49 -25 95q-32 48 -94 48q-98 0 -136 -44q-11 -11 -22 -23.5t-23 -26.5q-11 -18 -22.5 -35.5t-23.5 -34.5l-42 14t-65 22q-32 10 -57 30
q-30 18 -30 39q0 41 58 77q26 20 58.5 38.5t70.5 34.5q85 37 159 56t137 21q171 -5 339 -45q42 -7 78 -18t65 -25q55 -25 76 -66q-3 -34 -62 -48q-62 -14 -146 -21q-42 -2 -77.5 -8t-65.5 -14q-70 -16 -70 -62q0 -52 49 -95q20 -24 44 -48.5t50 -50.5q28 -22 54.5 -43.5
t52.5 -44.5q46 -46 57 -91q13 -7 41 -7q37 0 164 118v649q-73 91 -269 161q-203 69 -396 69q-131 0 -248 -32zM2115 485q-80 -29 -83 -80q0 -29 24 -57q24 -34 59 -34v171zM1344 310q-37 4 -58 66q36 52 58 56v-122z" />
    <glyph glyph-name="thorn" unicode="&#x1783;" horiz-adv-x="2322" 
d="M1910 997q198 -32 271 -146q68 -113 68 -252q-7 -220 -164 -401q-161 -194 -437 -198q-137 4 -243 59q-118 50 -153 53q-21 0 -47 -14q-17 -9 -35.5 -18.5t-40.5 -20.5t-48.5 -21.5t-58.5 -19.5q-62 -18 -161 -18q-242 0 -442 143q-196 139 -222 373q173 21 329 101
q150 82 157 245q-4 97 -77 191q-80 94 -198 98q-71 0 -120 -36q-55 -40 -73 -86q7 -21 32 -21q45 0 84 30q45 18 48 22q113 0 154 -59q36 -59 36 -154q0 -94 -58 -139q-58 -46 -132 -46q-146 3 -187 137q-39 114 -39 217q0 99 21 168.5t63 123.5q80 101 233 101
q102 -8 168 -57q63 -51 96 -125q59 -153 54 -299q0 -145 -46 -259q-45 -127 -170 -216q76 -69 150 -87q70 -18 177 -18q88 -5 255 43q79 25 132 69q50 47 55 114q-5 81 -93 102q-45 7 -81 10.5t-65 3.5q-39 0 -84 -3q-43 -7 -98 -41v505q2 2 28.5 23.5t80.5 63.5
q100 84 159 171q20 -14 49.5 -31.5t69.5 -39.5q76 -52 161 -52q54 0 98 29q-36 -136 -102 -220q-61 -91 -171 -91q-55 0 -91 38q-37 25 -97 28q-52 0 -87 -35q-32 -35 -46 -82q52 34 112 37q29 2 45 3t18 1q181 -29 262 -125q80 -100 76 -230q0 -115 -53 -207q0 -17 73 -48
q17 -7 42.5 -13.5t59.5 -11.5q55 -16 153 -16q128 0 237 55q118 52 122 164q-38 96 -125 114q-51 7 -77 10.5t-28 3.5q-113 0 -238 -55v519q2 2 30 24t83 64q51 42 89.5 83t67.5 84q41 -32 121 -67q76 -49 161 -49q51 0 94 25q-35 -135 -98 -207q-61 -82 -171 -82
q-56 0 -93 24q-36 16 -95 21q-56 0 -87 -36q-37 -34 -48 -80q34 43 205 39z" />
    <glyph glyph-name="minus" horiz-adv-x="676" 
d="M128 1151q2 2 28.5 23.5t80.5 63.5q95 79 154 168q41 -32 121 -68q79 -48 161 -48q55 0 98 25q-73 -277 -282 -280q-54 0 -88 21q-37 14 -94 14q-55 0 -88 -35q-33 -33 -44 -82q32 14 63.5 23t61.5 11q55 3 98 3q113 0 187 -44q70 -46 70 -182v-935q0 -15 28 -55
q28 -41 66 -84q42 -46 78 -86.5t65 -77.5q-173 -206 -285 -264q-115 -50 -208 -50h-15q-122 7 -168 39q-26 15 -52.5 30.5t-54.5 32.5q-18 -4 -64 -52q-25 -19 -80 -36q-59 -18 -154 -18q-110 4 -194 70q-40 26 -73 50t-59 44q111 63 202 136q42 76 42 87q-3 57 -39 61
q-7 0 -7 -7q0 -64 -38 -91q-39 -25 -94 -32q-59 3 -98 50q-41 44 -41 107q3 85 76 119q67 34 157 34q81 -3 136 -48q55 -46 55 -103t-30 -109q-32 -50 -71 -95q32 -29 80 -39q22 -8 46 -13.5t52 -9.5q139 7 139 69q-20 24 -48 27q-14 2 -37.5 3t-56.5 1q17 63 41 115.5
t53 98.5q55 96 142 96q41 0 70 -20q14 -14 25 -24t21 -18q28 -11 86 -11q-14 -46 -45 -104q-38 -60 -87 -64q-45 7 -77 25q-35 15 -52 15q-26 0 -39 -4q-23 -11 -48 -36q103 0 164 -37q59 -36 59 -63q0 -35 36 -50q28 -16 69 -16q31 2 54 5.5t39 7.5q22 0 77 28
q16 11 35 25.5t41 33.5q20 18 43.5 43.5t51.5 58.5q-14 16 -33 39t-44 52q-51 57 -55 91l4 768q-5 81 -63 102q-66 18 -130 18q-87 0 -146 -25l-74 -30v512z" />
    <glyph glyph-name="multiply" horiz-adv-x="676" 
d="M128 1151q2 2 28.5 23.5t80.5 63.5q95 79 154 168q41 -32 121 -68q79 -48 161 -48q55 0 98 25q-73 -277 -282 -280q-54 0 -88 21q-37 14 -94 14q-55 0 -88 -35q-33 -33 -44 -82q32 14 63.5 23t61.5 11q55 3 98 3q113 0 187 -44q70 -46 70 -182v-1565q0 -15 28 -55
q28 -41 66 -84q42 -46 78 -86.5t65 -77.5q-173 -206 -285 -264q-115 -50 -208 -50h-15q-122 7 -168 39q-26 15 -52.5 30.5t-54.5 32.5q-18 -4 -64 -52q-25 -19 -80 -36q-59 -18 -154 -18q-110 4 -194 70q-40 26 -73 50t-59 44q111 63 202 136q42 76 42 87q-3 57 -39 61
q-7 0 -7 -7q0 -64 -38 -91q-39 -25 -94 -32q-59 3 -98 50q-41 44 -41 107q3 85 76 119q67 34 157 34q81 -3 136 -48q55 -46 55 -103t-30 -109q-32 -50 -71 -95q32 -29 80 -39q22 -8 46 -13.5t52 -9.5q139 7 139 69q-20 24 -48 27q-14 2 -37.5 3t-56.5 1q17 63 41 115.5
t53 98.5q55 96 142 96q41 0 70 -20q14 -14 25 -24t21 -18q28 -11 86 -11q-14 -46 -45 -104q-38 -60 -87 -64q-45 7 -77 25q-35 15 -52 15q-26 0 -39 -4q-23 -11 -48 -36q103 0 164 -37q59 -36 59 -63q0 -35 36 -50q28 -16 69 -16q31 2 54 5.5t39 7.5q22 0 77 28
q16 11 35 25.5t41 33.5q20 18 43.5 43.5t51.5 58.5q-14 16 -33 39t-44 52q-51 57 -55 91l4 1398q-5 81 -63 102q-66 18 -130 18q-87 0 -146 -25l-74 -30v512z" />
    <glyph glyph-name="onesuperior" horiz-adv-x="2935" 
d="M1698 958q34 43 205 39q198 -32 271 -146q68 -113 68 -252q-7 -220 -164 -401q-161 -194 -437 -198q-137 4 -243 59q-118 50 -153 53q-21 0 -47 -14q-17 -9 -35.5 -18.5t-40.5 -20.5t-48.5 -21.5t-58.5 -19.5q-62 -18 -161 -18q-242 0 -442 143q-196 139 -222 373
q173 21 329 101q150 82 157 245q-4 97 -77 191q-80 94 -198 98q-71 0 -120 -36q-55 -40 -73 -86q7 -21 32 -21q45 0 84 30q45 18 48 22q113 0 154 -59q36 -59 36 -154q0 -94 -58 -139q-58 -46 -132 -46q-146 3 -187 137q-39 114 -39 217q0 99 21 168.5t63 123.5
q80 101 233 101q102 -8 168 -57q63 -51 96 -125q59 -153 54 -299q0 -145 -46 -259q-45 -127 -170 -216q76 -69 150 -87q70 -18 177 -18q88 -5 255 43q79 25 132 69q50 47 55 114q-5 81 -93 102q-45 7 -81 10.5t-65 3.5q-39 0 -84 -3q-43 -7 -98 -41v505q2 2 28.5 23.5
t80.5 63.5q100 84 159 171q20 -14 49.5 -31.5t69.5 -39.5q76 -52 161 -52q54 0 98 29q-36 -136 -102 -220q-61 -91 -171 -91q-55 0 -91 38q-37 25 -97 28q-52 0 -87 -35q-32 -35 -46 -82q52 34 112 37q29 2 45 3t18 1q181 -29 262 -125q80 -100 76 -230q0 -115 -53 -207
q0 -17 73 -48q17 -7 42.5 -13.5t59.5 -11.5q55 -16 153 -16q128 0 237 55q118 52 122 164q-38 96 -125 114q-51 7 -77 10.5t-28 3.5q-113 0 -238 -55v519q4 4 133 55q66 32 130 65t128 68q128 71 248 73l-1 -2l3 2q174 -33 252 -70q42 -18 84 -38t87 -42t82.5 -38t70.5 -27
q66 -21 66 -42v-990q-3 -77 -69 -123q-61 -45 -98 -48q-7 52 -56 87q-25 20 -52.5 39t-59.5 38q-28 22 -53.5 45.5t-49.5 48.5q-50 56 -50 136q0 55 66 87q29 17 62.5 33t70.5 30q82 28 140 76q58 45 58 118q0 76 -48 150q-46 64 -119 119q-75 34 -133 54.5t-101 27.5
q-42 7 -75 11t-58 6q-44 5 -424 -21q-14 -2 -25.5 -4t-19.5 -4q-56 0 -87 -36q-37 -34 -48 -80zM2846 505q-14 -8 -27 -15.5t-25 -14.5q-28 -15 -28 -47q0 -31 28 -41q24 -14 52 -18v136z" />
    <glyph glyph-name="twosuperior" horiz-adv-x="1419" 
d="M180 958q34 43 205 39q10 -2 19 -4t17 -4q98 -4 164 -43q70 -46 70 -182v-935q0 -15 28 -55q28 -41 66 -84q42 -46 78 -86.5t65 -77.5q-173 -206 -285 -264q-115 -50 -208 -50h-15q-122 7 -168 39q-26 15 -52.5 30.5t-54.5 32.5q-18 -4 -64 -52q-25 -19 -80 -36
q-59 -18 -154 -18q-110 4 -194 70q-40 26 -73 50t-59 44q111 63 202 136q42 76 42 87q-3 57 -39 61q-7 0 -7 -7q0 -64 -38 -91q-39 -25 -94 -32q-59 3 -98 50q-41 44 -41 107q3 85 76 119q67 34 157 34q81 -3 136 -48q55 -46 55 -103t-30 -109q-32 -50 -71 -95
q32 -29 80 -39q22 -8 46 -13.5t52 -9.5q139 7 139 69q-20 24 -48 27q-14 2 -37.5 3t-56.5 1q17 63 41 115.5t53 98.5q55 96 142 96q41 0 70 -20q14 -14 25 -24t21 -18q28 -11 86 -11q-14 -46 -45 -104q-38 -60 -87 -64q-45 7 -77 25q-35 15 -52 15q-26 0 -39 -4
q-23 -11 -48 -36q103 0 164 -37q59 -36 59 -63q0 -35 36 -50q28 -16 69 -16q31 2 54 5.5t39 7.5q22 0 77 28q16 11 35 25.5t41 33.5q20 18 43.5 43.5t51.5 58.5q-14 16 -33 39t-44 52q-51 57 -55 91l4 768q-5 81 -63 102q-66 18 -130 18q-87 0 -146 -25l-74 -30l-2 515
q4 4 133 55q66 32 130 65t128 68q128 71 248 73l-1 -2l3 2q174 -33 252 -70q42 -18 84 -38t87 -42t82.5 -38t70.5 -27q66 -21 66 -42v-990q-3 -77 -69 -123q-61 -45 -98 -48q-7 52 -56 87q-25 20 -52.5 39t-59.5 38q-28 22 -53.5 45.5t-49.5 48.5q-50 56 -50 136q0 55 66 87
q29 17 62.5 33t70.5 30q82 28 140 76q58 45 58 118q0 76 -48 150q-46 64 -119 119q-75 34 -133 54.5t-101 27.5q-42 7 -75 11t-58 6q-44 5 -424 -21q-14 -2 -25.5 -4t-19.5 -4q-56 0 -87 -36q-37 -34 -48 -80zM1328 505q-14 -8 -27 -15.5t-25 -14.5q-28 -15 -28 -47
q0 -31 28 -41q24 -14 52 -18v136z" />
    <glyph glyph-name="threesuperior" horiz-adv-x="1419" 
d="M180 958q34 43 205 39q10 -2 19 -4t17 -4q98 -4 164 -43q70 -46 70 -182v-1555q0 -15 28 -55q28 -41 66 -84q42 -46 78 -86.5t65 -77.5q-173 -206 -285 -264q-115 -50 -208 -50h-15q-122 7 -168 39q-26 15 -52.5 30.5t-54.5 32.5q-18 -4 -64 -52q-25 -19 -80 -36
q-59 -18 -154 -18q-110 4 -194 70q-40 26 -73 50t-59 44q111 63 202 136q42 76 42 87q-3 57 -39 61q-7 0 -7 -7q0 -64 -38 -91q-39 -25 -94 -32q-59 3 -98 50q-41 44 -41 107q3 85 76 119q67 34 157 34q81 -3 136 -48q55 -46 55 -103t-30 -109q-32 -50 -71 -95
q32 -29 80 -39q22 -8 46 -13.5t52 -9.5q139 7 139 69q-20 24 -48 27q-14 2 -37.5 3t-56.5 1q17 63 41 115.5t53 98.5q55 96 142 96q41 0 70 -20q14 -14 25 -24t21 -18q28 -11 86 -11q-14 -46 -45 -104q-38 -60 -87 -64q-45 7 -77 25q-35 15 -52 15q-26 0 -39 -4
q-23 -11 -48 -36q103 0 164 -37q59 -36 59 -63q0 -35 36 -50q28 -16 69 -16q31 2 54 5.5t39 7.5q22 0 77 28q16 11 35 25.5t41 33.5q20 18 43.5 43.5t51.5 58.5q-14 16 -33 39t-44 52q-51 57 -55 91l4 1388q-5 81 -63 102q-66 18 -130 18q-87 0 -146 -25l-74 -30l-2 515
q4 4 133 55q66 32 130 65t128 68q128 71 248 73l-1 -2l3 2q174 -33 252 -70q42 -18 84 -38t87 -42t82.5 -38t70.5 -27q66 -21 66 -42v-990q-3 -77 -69 -123q-61 -45 -98 -48q-7 52 -56 87q-25 20 -52.5 39t-59.5 38q-28 22 -53.5 45.5t-49.5 48.5q-50 56 -50 136q0 55 66 87
q29 17 62.5 33t70.5 30q82 28 140 76q58 45 58 118q0 76 -48 150q-46 64 -119 119q-75 34 -133 54.5t-101 27.5q-42 7 -75 11t-58 6q-44 5 -424 -21q-14 -2 -25.5 -4t-19.5 -4q-56 0 -87 -36q-37 -34 -48 -80zM1328 505q-14 -8 -27 -15.5t-25 -14.5q-28 -15 -28 -47
q0 -31 28 -41q24 -14 52 -18v136z" />
    <glyph glyph-name="onehalf" horiz-adv-x="2935" 
d="M2609 1623q0 37 18 90q40 96 134 96q97 -4 172 -76q77 -92 77 -225q0 -121 -52 -231q-13 -26 -25 -47t-25 -37q19 -19 19 -35v-990q-3 -77 -69 -123q-61 -45 -98 -48q-7 52 -56 87q-25 20 -52.5 39t-59.5 38q-28 22 -53.5 45.5t-49.5 48.5q-50 56 -50 136q0 55 66 87
q29 17 62.5 33t70.5 30q82 28 140 76q58 45 58 118q0 76 -48 150q-46 64 -119 119q-75 34 -133 54.5t-101 27.5q-42 7 -75 11t-58 6q-44 5 -424 -21q-14 -2 -25.5 -4t-19.5 -4q-56 0 -87 -36q-37 -34 -48 -80q34 43 205 39q198 -32 271 -146q68 -113 68 -252
q-7 -220 -164 -401q-161 -194 -437 -198q-137 4 -243 59q-118 50 -153 53q-21 0 -47 -14q-17 -9 -35.5 -18.5t-40.5 -20.5t-48.5 -21.5t-58.5 -19.5q-62 -18 -161 -18q-242 0 -442 143q-196 139 -222 373q173 21 329 101q150 82 157 245q-4 97 -77 191q-80 94 -198 98
q-71 0 -120 -36q-55 -40 -73 -86q7 -21 32 -21q45 0 84 30q45 18 48 22q113 0 154 -59q36 -59 36 -154q0 -94 -58 -139q-58 -46 -132 -46q-146 3 -187 137q-39 114 -39 217q0 99 21 168.5t63 123.5q80 101 233 101q102 -8 168 -57q63 -51 96 -125q59 -153 54 -299
q0 -145 -46 -259q-45 -127 -170 -216q76 -69 150 -87q70 -18 177 -18q88 -5 255 43q79 25 132 69q50 47 55 114q-5 81 -93 102q-45 7 -81 10.5t-65 3.5q-39 0 -84 -3q-43 -7 -98 -41v505q2 2 28.5 23.5t80.5 63.5q100 84 159 171q20 -14 49.5 -31.5t69.5 -39.5
q76 -52 161 -52q54 0 98 29q-36 -136 -102 -220q-61 -91 -171 -91q-55 0 -91 38q-37 25 -97 28q-52 0 -87 -35q-32 -35 -46 -82q52 34 112 37q29 2 45 3t18 1q181 -29 262 -125q80 -100 76 -230q0 -115 -53 -207q0 -17 73 -48q17 -7 42.5 -13.5t59.5 -11.5q55 -16 153 -16
q128 0 237 55q118 52 122 164q-38 96 -125 114q-51 7 -77 10.5t-28 3.5q-113 0 -238 -55v519q4 4 133 55q66 32 130 65t128 68q128 71 248 73l-1 -2l3 2q174 -33 252 -70q42 -18 84 -38t87 -42q81 -43 113 -35h2q25 45 35 115q0 27 -6 65q-7 39 -40 65q-19 8 -42 15.5
t-49 15.5q-20 10 -39.5 22t-37.5 27q-35 27 -35 68zM2846 505q-14 -8 -27 -15.5t-25 -14.5q-28 -15 -28 -47q0 -31 28 -41q24 -14 52 -18v136z" />
    <glyph glyph-name="onequarter" horiz-adv-x="1419" 
d="M180 958q34 43 205 39q10 -2 19 -4t17 -4q98 -4 164 -43q70 -46 70 -182v-935q0 -15 28 -55q28 -41 66 -84q42 -46 78 -86.5t65 -77.5q-173 -206 -285 -264q-115 -50 -208 -50h-15q-122 7 -168 39q-26 15 -52.5 30.5t-54.5 32.5q-18 -4 -64 -52q-25 -19 -80 -36
q-59 -18 -154 -18q-110 4 -194 70q-40 26 -73 50t-59 44q111 63 202 136q42 76 42 87q-3 57 -39 61q-7 0 -7 -7q0 -64 -38 -91q-39 -25 -94 -32q-59 3 -98 50q-41 44 -41 107q3 85 76 119q67 34 157 34q81 -3 136 -48q55 -46 55 -103t-30 -109q-32 -50 -71 -95
q32 -29 80 -39q22 -8 46 -13.5t52 -9.5q139 7 139 69q-20 24 -48 27q-14 2 -37.5 3t-56.5 1q17 63 41 115.5t53 98.5q55 96 142 96q41 0 70 -20q14 -14 25 -24t21 -18q28 -11 86 -11q-14 -46 -45 -104q-38 -60 -87 -64q-45 7 -77 25q-35 15 -52 15q-26 0 -39 -4
q-23 -11 -48 -36q103 0 164 -37q59 -36 59 -63q0 -35 36 -50q28 -16 69 -16q31 2 54 5.5t39 7.5q22 0 77 28q16 11 35 25.5t41 33.5q20 18 43.5 43.5t51.5 58.5q-14 16 -33 39t-44 52q-51 57 -55 91l4 768q-5 81 -63 102q-66 18 -130 18q-87 0 -146 -25l-74 -30v56h-2v459
q4 4 133 55q66 32 130 65t128 68q128 71 248 73l-1 -2l3 2q174 -33 252 -70q42 -18 84 -38t87 -42q81 -43 113 -35h2q25 45 35 115q0 27 -6 65q-7 39 -40 65q-19 8 -42 15.5t-49 15.5q-20 10 -39.5 22t-37.5 27q-35 27 -35 68q0 37 18 90q40 96 134 96q97 -4 172 -76
q77 -92 77 -225q0 -121 -52 -231q-13 -26 -25 -47t-25 -37q19 -19 19 -35v-990q-3 -77 -69 -123q-61 -45 -98 -48q-7 52 -56 87q-25 20 -52.5 39t-59.5 38q-28 22 -53.5 45.5t-49.5 48.5q-50 56 -50 136q0 55 66 87q29 17 62.5 33t70.5 30q82 28 140 76q58 45 58 118
q0 76 -48 150q-46 64 -119 119q-75 34 -133 54.5t-101 27.5q-42 7 -75 11t-58 6q-44 5 -424 -21q-14 -2 -25.5 -4t-19.5 -4q-56 0 -87 -36q-37 -34 -48 -80zM1328 505q-14 -8 -27 -15.5t-25 -14.5q-28 -15 -28 -47q0 -31 28 -41q24 -14 52 -18v136z" />
    <glyph glyph-name="threequarters" horiz-adv-x="1419" 
d="M180 958q34 43 205 39q10 -2 19 -4t17 -4q98 -4 164 -43q70 -46 70 -182v-1555q0 -15 28 -55q28 -41 66 -84q42 -46 78 -86.5t65 -77.5q-173 -206 -285 -264q-115 -50 -208 -50h-15q-122 7 -168 39q-26 15 -52.5 30.5t-54.5 32.5q-18 -4 -64 -52q-25 -19 -80 -36
q-59 -18 -154 -18q-110 4 -194 70q-40 26 -73 50t-59 44q111 63 202 136q42 76 42 87q-3 57 -39 61q-7 0 -7 -7q0 -64 -38 -91q-39 -25 -94 -32q-59 3 -98 50q-41 44 -41 107q3 85 76 119q67 34 157 34q81 -3 136 -48q55 -46 55 -103t-30 -109q-32 -50 -71 -95
q32 -29 80 -39q22 -8 46 -13.5t52 -9.5q139 7 139 69q-20 24 -48 27q-14 2 -37.5 3t-56.5 1q17 63 41 115.5t53 98.5q55 96 142 96q41 0 70 -20q14 -14 25 -24t21 -18q28 -11 86 -11q-14 -46 -45 -104q-38 -60 -87 -64q-45 7 -77 25q-35 15 -52 15q-26 0 -39 -4
q-23 -11 -48 -36q103 0 164 -37q59 -36 59 -63q0 -35 36 -50q28 -16 69 -16q31 2 54 5.5t39 7.5q22 0 77 28q16 11 35 25.5t41 33.5q20 18 43.5 43.5t51.5 58.5q-14 16 -33 39t-44 52q-51 57 -55 91l4 1388q-5 81 -63 102q-66 18 -130 18q-87 0 -146 -25l-74 -30l-2 515
q4 4 133 55q66 32 130 65t128 68q128 71 248 73l-1 -2l3 2q174 -33 252 -70q42 -18 84 -38t87 -42q81 -43 113 -35h2q25 45 35 115q0 27 -6 65q-7 39 -40 65q-19 8 -42 15.5t-49 15.5q-20 10 -39.5 22t-37.5 27q-35 27 -35 68q0 37 18 90q40 96 134 96q97 -4 172 -76
q77 -92 77 -225q0 -121 -52 -231q-13 -26 -25 -47t-25 -37q19 -19 19 -35v-990q-3 -77 -69 -123q-61 -45 -98 -48q-7 52 -56 87q-25 20 -52.5 39t-59.5 38q-28 22 -53.5 45.5t-49.5 48.5q-50 56 -50 136q0 55 66 87q29 17 62.5 33t70.5 30q82 28 140 76q58 45 58 118
q0 76 -48 150q-46 64 -119 119q-75 34 -133 54.5t-101 27.5q-42 7 -75 11t-58 6q-44 5 -424 -21q-14 -2 -25.5 -4t-19.5 -4q-56 0 -87 -36q-37 -34 -48 -80zM1328 505q-14 -8 -27 -15.5t-25 -14.5q-28 -15 -28 -47q0 -31 28 -41q24 -14 52 -18v136z" />
    <glyph glyph-name="franc" unicode="&#x1784;" horiz-adv-x="1439" 
d="M303 972q24 2 48 3t47 1q144 0 248 -80q100 -81 103 -209q0 -35 -26 -70q-14 -16 -41 -49.5t-65 -85.5q96 -83 172 -109q69 -25 157 -22q322 25 479 307q-3 -259 -190 -446q-187 -201 -443 -205q-453 7 -598 418q204 53 281 87q73 28 121 102q-134 80 -223 80
q-91 -4 -179 -55v428q91 60 162 105.5t122 79.5q100 66 314 157q216 -32 432 -144q101 -56 167 -132q63 -77 63 -175q0 -114 -84 -235q-84 -125 -244 -141q-83 -4 -168 25q-86 26 -89 124q0 66 55 124q52 57 139 62q63 0 81 -18q10 -13 10 -44q0 -32 3 -46.5t8 -27.5
q10 -24 45 -53q32 0 55 36q18 28 18 55q0 62 -41 109q-22 24 -50.5 44t-65.5 36q-150 73 -377 73q-289 0 -446 -109z" />
    <glyph glyph-name="Gbreve" 
d="M-145 -374q57 70 93.5 118t52.5 75q0 -99 -18 -196q-21 -108 -87 -206q-52 -73 -150 -139q-104 -66 -205 -69q-157 0 -289 66q-127 62 -182 219q-25 46 -25 125q0 50 11 50q3 58 66 114q55 55 144 55q124 -16 166 -55q32 -47 29 -114q0 -33 -15 -73q-18 -39 -73 -73
q75 -57 171 -61q32 0 70 11q64 3 125 46q60 45 116 107z" />
    <glyph glyph-name="gbreve" 
d="M-145 -1014q57 70 93.5 118t52.5 75q0 -99 -18 -196q-21 -108 -87 -206q-52 -73 -150 -139q-104 -66 -205 -69q-157 0 -289 66q-127 62 -182 219q-25 46 -25 125q0 50 11 50q3 58 66 114q55 55 144 55q124 -16 166 -55q32 -47 29 -114q0 -33 -15 -73q-18 -39 -73 -73
q75 -57 171 -61q32 0 70 11q64 3 125 46q60 45 116 107z" />
    <glyph glyph-name="Idotaccent" horiz-adv-x="2145" 
d="M1489 1281q45 20 105.5 54t141.5 83q66 -38 131 -74.5t132 -71.5q31 -17 57 -31.5t46 -27.5q39 -35 39 -55v-990q-3 -77 -69 -123q-61 -45 -98 -48q-7 52 -56 87q-25 20 -52.5 39t-59.5 38q-28 22 -53.5 45.5t-49.5 48.5q-50 56 -50 136q0 55 66 87q29 17 62.5 33
t70.5 30q82 28 140 76q58 45 58 118q0 76 -48 150q-46 64 -119 119q-131 91 -213 108q-82 16 -143 6q-32 -5 -111 -21q38 -65 38 -139q0 -114 -84 -235q-84 -125 -244 -141q-80 -4 -168 25q-86 26 -89 124q0 66 55 124q53 58 139 62q63 0 81 -18q10 -13 10 -44v-29
q0 -15 11 -45q11 -25 45 -53q32 0 55 36q18 28 18 55q0 62 -41 109q-22 24 -50.5 44t-65.5 36q-149 73 -377 73q-289 0 -446 -109q24 2 48 3t47 1q144 0 248 -80q100 -81 103 -209q0 -35 -26 -70q-14 -16 -41 -49.5t-65 -85.5q98 -84 172 -109q68 -25 157 -22
q322 25 479 307q-3 -259 -190 -446q-187 -201 -443 -205q-453 7 -598 418q205 53 281 87q73 28 121 102q-134 80 -223 80q-91 -4 -179 -55v428q91 60 162 105.5t122 79.5q100 66 314 157q216 -32 432 -144q29 -16 56.5 -34.5t52.5 -40.5q26 23 65 46t91 45zM2060 505
q-14 -8 -27 -15.5t-25 -14.5q-28 -15 -28 -47q0 -31 28 -41q24 -14 52 -18v136z" />
    <glyph glyph-name="Scedilla" horiz-adv-x="2145" 
d="M1823 1623q0 37 18 90q40 96 134 96q97 -4 172 -76q77 -92 77 -225q0 -121 -52 -231q-13 -26 -25 -47t-25 -37q19 -19 19 -35v-990q-3 -77 -69 -123q-61 -45 -98 -48q-7 52 -56 87q-25 20 -52.5 39t-59.5 38q-28 22 -53.5 45.5t-49.5 48.5q-50 56 -50 136q0 55 66 87
q29 17 62.5 33t70.5 30q82 28 140 76q58 45 58 118q0 76 -48 150q-46 64 -119 119q-131 91 -213 108q-82 16 -143 6q-32 -5 -111 -21q38 -65 38 -139q0 -114 -84 -235q-84 -125 -244 -141q-80 -4 -168 25q-86 26 -89 124q0 66 55 124q53 58 139 62q63 0 81 -18
q10 -13 10 -44v-29q0 -15 11 -45q11 -25 45 -53q32 0 55 36q18 28 18 55q0 62 -41 109q-22 24 -50.5 44t-65.5 36q-149 73 -377 73q-289 0 -446 -109q24 2 48 3t47 1q144 0 248 -80q100 -81 103 -209q0 -35 -26 -70q-14 -16 -41 -49.5t-65 -85.5q98 -84 172 -109
q68 -25 157 -22q322 25 479 307q-3 -259 -190 -446q-187 -201 -443 -205q-453 7 -598 418q205 53 281 87q73 28 121 102q-134 80 -223 80q-91 -4 -179 -55v428q91 60 162 105.5t122 79.5q100 66 314 157q216 -32 432 -144q29 -16 56.5 -34.5t52.5 -40.5q26 23 65 46t91 45
q45 20 105.5 54t141.5 83q66 -38 131 -74.5t132 -71.5q12 -7 23.5 -13.5t22.5 -12.5q19 40 27 99q0 27 -6 65q-7 39 -40 65q-19 8 -42 15.5t-49 15.5q-20 10 -39.5 22t-37.5 27q-35 27 -35 68zM2060 505q-14 -8 -27 -15.5t-25 -14.5q-28 -15 -28 -47q0 -31 28 -41
q24 -14 52 -18v136z" />
    <glyph glyph-name="scedilla" unicode="&#x1785;" horiz-adv-x="1491" 
d="M868 1252q28 16 58 32.5t63 33.5q33 19 70.5 43.5t79.5 53.5q28 -20 62.5 -41.5t76.5 -44.5q77 -50 161 -50q49 0 87 29q-20 -57 -50 -109.5t-68 -103.5q-80 -98 -196 -112q-35 0 -69 18q-21 9 -42 17.5t-42 16.5q-79 43 -150 46q-56 -32 -111 -69q-52 -43 -123 -43
q-15 0 -48 14q-14 5 -29.5 12t-32.5 17q-59 37 -161 55q-91 -4 -120 -59q-37 -55 -37 -59q58 20 87 20q23 0 47 -1.5t50 -5.5q287 -35 314 -268q-4 -94 -56 -132q-28 -20 -47.5 -34t-32.5 -23q91 -106 164 -129q65 -28 150 -25q187 11 282 91q95 77 119 165q0 21 -7 48
q-35 18 -57 18q-44 0 -59 -15q-14 -25 -17 -41q-6 -21 -27 -39q-23 -23 -80 -37q-89 25 -150 66q-66 34 -66 116q0 96 76 142q73 45 198 45q104 0 202 -80q95 -81 98 -245q-3 -226 -153 -403q-157 -178 -428 -182q-234 4 -416 150q-180 139 -253 335q92 4 205 27
q113 25 212 112q-85 52 -178 52q-158 4 -243 -55v530q24 19 60.5 47.5t85.5 66.5t98.5 74t103.5 70q81 -38 164.5 -76.5t174.5 -80.5z" />
    <glyph glyph-name="Cacute" 
d="M-742 -395q-54 29 -59 88q5 91 66 119q50 25 102 25q8 0 9 -1q153 -5 153 -174q-11 -57 -48 -108q-20 -25 -40 -46.5t-40 -41.5q42 -48 90 -62q51 -14 100 -14l18 9t22 12q11 5 22 12.5t22 17.5q25 20 41.5 32.5t24.5 17.5q-93 114 -93 171q0 49 42 97q32 50 83 50
q90 0 125 -47q32 -53 29 -114q0 -44 -14 -94q14 -32 66 -59q49 -25 104 -43q-74 -84 -138 -84q-33 0 -70 18q-18 9 -37.5 18t-39.5 18q-69 -128 -153 -168q-84 -45 -203 -45q-107 6 -184 66q-38 28 -67.5 53.5t-52.5 50.5q46 33 79.5 55.5t54.5 35.5q20 13 42.5 32.5
t46.5 47.5q-29 13 -54.5 27t-48.5 28z" />
    <glyph glyph-name="cacute" 
d="M-742 -1005q-54 29 -59 88q5 91 66 119q50 25 102 25q8 0 9 -1q153 -5 153 -174q-11 -57 -48 -108q-20 -25 -40 -46.5t-40 -41.5q42 -48 90 -62q51 -14 100 -14l18 9t22 12q11 5 22 12.5t22 17.5q25 20 41.5 32.5t24.5 17.5q-93 114 -93 171q0 49 42 97q32 50 83 50
q90 0 125 -47q32 -53 29 -114q0 -44 -14 -94q14 -32 66 -59q49 -25 104 -43q-74 -84 -138 -84q-33 0 -70 18q-18 9 -37.5 18t-39.5 18q-69 -128 -153 -168q-84 -45 -203 -45q-107 6 -184 66q-38 28 -67.5 53.5t-52.5 50.5q46 33 79.5 55.5t54.5 35.5q20 13 42.5 32.5
t46.5 47.5q-29 13 -54.5 27t-48.5 28z" />
    <glyph glyph-name="Ccaron" horiz-adv-x="2135" 
d="M2005 739q0 109 -16 128q-16 22 -127 82q-110 60 -186 96t-151.5 54.5t-127.5 24.5t-81.5 3.5t-49.5 -7.5t-60 -21q-21 -8 -40.5 -19t-37.5 -24q-38 -26 -136 -57q-97 -31 -190 2q-46 17 -81 32.5t-58 31.5q-24 16 -48 30.5t-48 28.5q-43 28 -126 37q-7 0 -17 -2t-22 -5
t-24 -7t-22 -8q-8 -4 -25.5 -14.5t-45.5 -27.5q-56 -36 -48 -69q7 -33 108 -51q29 -5 48.5 -8t27.5 -5l-4 -1q12 0 13 -1q287 -35 314 -268q-4 -94 -56 -132q-28 -20 -47.5 -34t-32.5 -23q91 -106 164 -129q65 -28 150 -25q187 11 282 91q95 77 119 165q0 21 -7 48
q-35 18 -57 18q-44 0 -59 -15q-14 -25 -17 -41q-6 -21 -27 -39q-23 -23 -80 -37q-89 25 -150 66q-66 34 -66 116q0 96 76 142q73 45 198 45q104 0 202 -80q95 -81 98 -245q-3 -226 -153 -403q-157 -178 -428 -182q-234 4 -416 150q-180 139 -253 335q92 4 205 27
q113 25 212 112q-85 52 -178 52q-158 4 -243 -55v530l2 -6v65q40 11 67.5 20t41.5 17q17 8 37.5 17t45.5 19q25 11 91 41.5t178 84.5q194 -86 298 -140q112 -53 214 -52q17 5 32.5 10.5t31.5 10.5t56.5 25t106.5 54t113.5 57t76.5 34q196 -85 331 -145t220 -95v-1046
q-16 -35 -39 -57.5t-46.5 -36t-45 -19.5t-34.5 -8h-27q-31 66 -88 117q-27 24 -54.5 46.5t-55.5 44.5q-27 21 -50.5 37t-43.5 37q-39 43 -39 95q0 40 27.5 67t65.5 45.5t79.5 31t69.5 24.5q51 21 93.5 40.5t69.5 52.5v100zM2030 485q-77 -29 -80 -80q0 -29 24 -57
q22 -34 55 -34zM246 949l6 2l6 2q-4 1 -7 2t-7 2q0 -2 0.5 -3.5t0.5 -2.5t1 -2zM426 966q6 -3 -5 -2z" />
    <glyph glyph-name="ccaron" horiz-adv-x="2135" 
d="M2005 739q0 109 -16 128q-16 22 -127 82q-110 60 -186 96t-151.5 54.5t-127.5 24.5t-81.5 3.5t-49.5 -7.5t-60 -21q-21 -8 -40.5 -19t-37.5 -24q-38 -26 -136 -57q-97 -31 -190 2q-46 17 -81 32.5t-58 31.5q-24 16 -48 30.5t-48 28.5q-43 28 -126 37q-7 0 -17 -2t-22 -5
t-24 -7t-22 -8q-8 -4 -25.5 -14.5t-45.5 -27.5q-56 -36 -48 -69q7 -33 108 -51q29 -5 48.5 -8t27.5 -5q145 -14 228 -81.5t95 -188.5q-4 -94 -56 -132q-28 -20 -47.5 -34t-32.5 -23q91 -106 164 -129q65 -28 150 -25q187 11 282 91q95 77 119 165q0 21 -7 48q-35 18 -57 18
q-44 0 -59 -15q-14 -25 -17 -41q-6 -21 -27 -39q-23 -23 -80 -37q-89 25 -150 66q-66 34 -66 116q0 96 76 142q73 45 198 45q104 0 202 -80q95 -81 98 -245q-3 -226 -153 -403q-157 -178 -428 -182q-234 4 -416 150q-180 139 -253 335q92 4 205 27q113 25 212 112
q-85 52 -178 52q-158 4 -243 -55v589q42 11 69.5 20.5t41.5 16.5q17 8 37.5 17t45.5 19q25 11 91 41.5t178 84.5q194 -86 298 -140q112 -53 214 -52q17 5 32.5 10.5t31.5 10.5t56.5 25t106.5 54t113.5 57t76.5 34q143 -63 251 -111t190 -83q32 55 44 131q0 15 -1.5 31.5
t-5.5 33.5q-6 39 -38 65q-18 8 -39.5 15.5t-46.5 15.5q-21 10 -39.5 22.5t-35.5 26.5q-32 27 -32 68q0 43 16 90q39 96 128 96q93 -4 165 -76q74 -92 74 -225q0 -110 -50 -231q-16 -34 -30.5 -58.5t-28.5 -38.5q16 -6 30 -12v-1046q-16 -35 -39 -57.5t-46.5 -36t-45 -19.5
t-34.5 -8h-27q-31 66 -88 117q-27 24 -54.5 46.5t-55.5 44.5q-27 21 -50.5 37t-43.5 37q-39 43 -39 95q0 40 27.5 67t65.5 45.5t79.5 31t69.5 24.5q51 21 93.5 40.5t69.5 52.5v100zM2030 485q-77 -29 -80 -80q0 -29 24 -57q22 -34 55 -34z" />
    <glyph glyph-name="dmacron" unicode="&#x1786;" horiz-adv-x="1471" 
d="M708 1318q42 -25 76.5 -44t62.5 -32q82 41 140 87q64 51 139 93q20 -14 48 -32.5t64 -40.5q73 -52 177 -56q50 4 112 18q-29 -98 -105 -200q-32 -45 -80 -82q-50 -35 -104 -35q-53 13 -109 48q-29 14 -57.5 30t-56.5 34q-9 5 -18.5 10t-20.5 10q-21 10 -55 10
q-17 0 -33 -10q-135 -139 -205 -139q-48 7 -105 42q-32 20 -67.5 39t-75.5 38q-45 0 -76 -21q-39 -23 -59 -59q-48 -80 -48 -84q110 62 194 62q109 -8 182 -51q70 -50 87 -120v-259q111 4 177 -33q36 -23 36 -63q3 -39 25 -73q124 -87 139 -87q112 0 191 76q79 70 84 161
q0 58 -45 114q-35 11 -50 11q-62 -5 -93 -63q-35 -62 -87 -66q-171 -3 -193 147q0 91 66 153q64 61 186 66q164 -21 248 -139q80 -116 80 -248q0 -39 -7 -63q-36 -196 -120 -317t-260 -150q-98 5 -179 66q-80 61 -105 120q-16 38 -16 76q0 46 20 81q14 39 14 62q0 30 -18 62
q-28 11 -41 11q-24 0 -44 -11v-281q0 -42 -47 -113q-53 -76 -114 -80q-36 0 -61 36q-30 67 -80 117q-26 22 -51.5 42t-51.5 39q-54 35 -84 80q-40 43 -40 94v66q137 15 413 115q-15 53 -88 80q-63 25 -121 25q-120 -5 -204 -48v515q29 26 64.5 56.5t80.5 65.5q43 35 91.5 68
t102.5 65q46 -17 89.5 -40t85.5 -51zM558 369q34 -18 38 -18q3 4 3 58q0 48 4 51q-10 0 -37 -10q-33 -11 -43 -38q0 -25 35 -43z" />
    <glyph glyph-name="macron" 
d="M-752 -262h187q10 -122 57 -196q47 -72 161 -80q162 0 212 143q-6 0 -50 -38q-47 -32 -114 -35q-18 3 -48 17q-84 36 -84 179q17 48 55 80q47 38 139 38q63 0 98 -27q40 -23 66 -57q11 -38 17 -77t8 -77q6 -199 -80.5 -303t-265.5 -103q-200 22 -271 208q-28 62 -28 198
h-56v-307q0 -50 -62 -73q-66 -23 -130 -26q-114 3 -188 80t-87 184q0 112 44 192q41 80 106 80h157v84h157v-84zM-990 -436q0 -10 8 -36q25 -52 76 -52v132q-87 -3 -84 -44z" />
    <glyph glyph-name="periodcentered" 
d="M-752 -872h187q11 -123 57 -196q47 -72 161 -80q162 0 212 143q-6 0 -50 -38q-47 -32 -114 -35q-16 3 -48 17q-84 36 -84 179q16 48 55 80q47 38 139 38q63 0 98 -27q40 -23 66 -57q11 -38 17 -77t8 -77q1 -1 1 -15q0 -388 -347 -391q-201 23 -271 208q-28 60 -28 198
h-56v-307q0 -50 -62 -73q-68 -23 -130 -26q-114 3 -188 80q-73 76 -87 184q0 112 44 192q41 80 106 80h157v84h157v-84zM-990 -1046q0 -9 8 -36q25 -52 76 -52v132q-87 -3 -84 -44z" />
    <glyph glyph-name="Abreve" horiz-adv-x="2179" 
d="M2050 739q0 107 -38 151q-37 45 -98 86.5t-142 72.5q-40 16 -80.5 29t-82.5 24q-83 21 -142 27q-60 6 -104.5 1t-64.5 -10q-17 -3 -42.5 -14t-64 -24.5t-92 -27.5t-125.5 -23q-93 -12 -188 23q-46 17 -80.5 30.5t-59.5 23.5q-49 19 -97.5 36t-90.5 17q-9 0 -24.5 -3
t-32.5 -8q-7 -2 -14.5 -4.5t-15.5 -6.5q-14 -6 -72 -42q-57 -36 -49 -69q5 -23 132 -29q14 2 30.5 3.5t33.5 1.5q16 -1 30.5 -3t28.5 -4q15 -4 32 -8.5t34 -10t32 -12t25 -13.5q70 -50 87 -120v-259q111 4 177 -33q36 -23 36 -63q3 -39 25 -73q124 -87 139 -87q112 0 191 76
q79 70 84 161q0 58 -45 114q-35 11 -50 11q-62 -5 -93 -63q-35 -62 -87 -66q-171 -3 -193 147q0 91 66 153q64 61 186 66q164 -21 248 -139q80 -116 80 -248q0 -39 -7 -63q-36 -196 -120 -317t-260 -150q-98 5 -179 66q-80 61 -105 120q-16 38 -16 76q0 46 20 81
q14 39 14 62q0 30 -18 62q-28 11 -41 11q-24 0 -44 -11v-281q0 -42 -47 -113q-53 -76 -114 -80q-36 0 -61 36q-30 67 -80 117q-26 22 -51.5 42t-51.5 39q-54 35 -84 80q-40 43 -40 94v66q137 15 413 115q-15 53 -88 80q-63 25 -121 25q-120 -5 -204 -48v571q38 11 66 20
t45 17t38.5 17t46.5 19q25 11 93.5 41.5t180.5 84.5q196 -86 318 -144q121 -57 203 -48q34 10 66 21q16 5 57 25t108 54t115.5 57t77.5 34q393 -170 561 -240v-1046q-15 -35 -38.5 -57.5t-48 -36t-46.5 -19.5t-34 -8h-28q-32 69 -89 117q-28 24 -56 46.5t-56 44.5
q-28 21 -51.5 37t-44.5 37q-40 43 -40 95q0 27 13 47.5t34 36.5t48 28t54.5 22t53 18t44.5 16q51 21 94.5 40.5t70.5 52.5v100zM2076 485q-78 -28 -82 -80q0 -29 24 -57q22 -34 57 -34zM558 369q34 -18 38 -18q3 4 3 58q0 48 4 51q-10 0 -37 -10q-33 -11 -43 -38
q0 -25 35 -43z" />
    <glyph glyph-name="abreve" horiz-adv-x="2179" 
d="M2050 739q0 107 -38 151q-37 45 -98 86.5t-142 72.5q-40 16 -80.5 29t-82.5 24q-83 21 -142 27q-60 6 -104.5 1t-64.5 -10q-17 -3 -42.5 -14t-64 -24.5t-92 -27.5t-125.5 -23q-93 -12 -188 23q-46 17 -80.5 30.5t-59.5 23.5q-49 19 -97.5 36t-90.5 17q-9 0 -24.5 -3
t-32.5 -8q-7 -2 -14.5 -4.5t-15.5 -6.5q-14 -6 -72 -42q-57 -36 -49 -69q5 -23 132 -29q14 2 30.5 3.5t33.5 1.5q16 -1 30.5 -3t28.5 -4q15 -4 32 -8.5t34 -10t32 -12t25 -13.5q70 -50 87 -120v-259q111 4 177 -33q36 -23 36 -63q3 -39 25 -73q124 -87 139 -87q112 0 191 76
q79 70 84 161q0 58 -45 114q-35 11 -50 11q-62 -5 -93 -63q-35 -62 -87 -66q-171 -3 -193 147q0 91 66 153q64 61 186 66q164 -21 248 -139q80 -116 80 -248q0 -39 -7 -63q-36 -196 -120 -317t-260 -150q-98 5 -179 66q-80 61 -105 120q-16 38 -16 76q0 46 20 81
q14 39 14 62q0 30 -18 62q-28 11 -41 11q-24 0 -44 -11v-281q0 -42 -47 -113q-53 -76 -114 -80q-36 0 -61 36q-30 67 -80 117q-26 22 -51.5 42t-51.5 39q-54 35 -84 80q-40 43 -40 94v66q137 15 413 115q-15 53 -88 80q-63 25 -121 25q-120 -5 -204 -48v571q38 11 66 20
t45 17t38.5 17t46.5 19q25 11 93.5 41.5t180.5 84.5q196 -86 318 -144q121 -57 203 -48q34 10 66 21q16 5 57 25t108 54t115.5 57t77.5 34q145 -63 255 -111t195 -83q32 55 44 131q0 27 -6 65q-7 39 -39 65q-17 7 -39.5 15t-49.5 16q-21 10 -39.5 22.5t-35.5 26.5
q-33 27 -33 68q0 43 16 90q40 96 131 96q96 -4 168 -76q75 -92 75 -225q0 -116 -51 -231q-31 -68 -60 -97q16 -6 30 -12v-1046q-15 -35 -38.5 -57.5t-48 -36t-46.5 -19.5t-34 -8h-28q-32 69 -89 117q-28 24 -56 46.5t-56 44.5q-28 21 -51.5 37t-44.5 37q-40 43 -40 95
q0 27 13 47.5t34 36.5t48 28t54.5 22t53 18t44.5 16q51 21 94.5 40.5t70.5 52.5v100zM2076 485q-78 -28 -82 -80q0 -29 24 -57q22 -34 57 -34zM558 369q34 -18 38 -18q3 4 3 58q0 48 4 51q-10 0 -37 -10q-33 -11 -43 -38q0 -25 35 -43z" />
    <glyph glyph-name="Aogonek" unicode="&#x1787;" horiz-adv-x="1383" 
d="M956 1575q44 58 123 77q151 -5 220 -62q62 -65 62 -150q0 -113 -52 -198q-50 -95 -126 -161q-169 -139 -304 -139q-42 0 -85 27q-43 18 -95 46q-100 70 -244 73q-136 0 -175 -46q-41 -50 -38 -96q25 15 48.5 26t46.5 18q50 14 107 14q146 0 230 -69q83 -73 88 -186
q-4 -109 -70 -167q-14 -17 -29 -31t-30 -25q-17 -14 -30 -27.5t-23 -27.5q0 -5 91 -66q38 -25 108 -43q66 -27 150 -27q133 24 257 136q123 114 189 257q-3 -293 -164 -505q-163 -218 -421 -223q-63 4 -119.5 18.5t-110.5 40.5q-106 50 -182 123q-157 160 -198 296
q45 5 94.5 15t107.5 26q57 14 108 36.5t97 51.5q-4 50 -63 73q-62 21 -128 21q-137 -8 -216 -66v512q37 23 76 50.5t81 58.5q43 31 105.5 69t144.5 84q55 -26 114 -56t123 -63q121 -70 241 -73q37 0 59 7q17 5 34.5 11.5t34.5 13.5q29 17 32 37q-3 66 -42 84q-54 14 -111 14
q-58 -3 -109 11q-52 10 -52 63q0 58 45 117z" />
    <glyph glyph-name="aogonek" 
d="M-752 -214q59 -47 55 -84q0 -53 -45 -93q-23 -21 -45 -39t-42 -32q10 0 102 -37q100 -33 260 -36q130 14 252 91q121 76 180 216q-13 -571 -553 -575q-262 4 -419 118q-157 105 -198 230q79 7 183 18q102 7 189 66q-42 57 -124 53q-32 0 -65.5 -3.5t-68.5 -10.5
q-71 -14 -111 -21q-14 3 -14 14q3 44 80 118q75 69 198 73q1 1 10 1q85 0 176 -67z" />
    <glyph glyph-name="Dcaron" 
d="M-752 -834q59 -47 55 -84q0 -53 -45 -93q-23 -21 -45 -39t-42 -32q7 0 102 -37q100 -33 260 -36q131 14 252 91q121 76 180 216q-13 -571 -553 -575q-262 4 -419 118q-157 105 -198 230q79 7 183 18q102 7 189 66q-42 57 -124 53q-32 0 -65.5 -3.5t-68.5 -10.5
q-71 -14 -111 -21q-14 3 -14 14q3 44 80 118q75 69 198 73q2 1 10 1q85 0 176 -67z" />
    <glyph glyph-name="dcaron" horiz-adv-x="2055" 
d="M1397 1281q45 20 105.5 54t141.5 83q66 -38 131 -74.5t132 -71.5q31 -17 57 -31.5t46 -27.5q39 -35 39 -55v-990q-3 -77 -69 -123q-61 -45 -98 -48q-7 52 -56 87q-25 20 -52.5 39t-59.5 38q-28 22 -53.5 45.5t-49.5 48.5q-50 56 -50 136q0 55 66 87q29 17 62.5 33
t70.5 30q82 28 140 76q58 45 58 118q0 76 -48 150q-46 64 -119 119q-131 91 -213 108q-82 16 -143 6q-29 -5 -97 -18t-174 -34q-157 -124 -285 -124q-42 0 -85 27q-43 18 -95 46q-100 70 -244 73q-136 0 -175 -46q-41 -50 -38 -96q25 15 48.5 26t46.5 18q51 14 107 14
q146 0 230 -69q84 -74 88 -186q-4 -109 -70 -167q-14 -17 -29 -31t-30 -25q-17 -14 -30 -27.5t-23 -27.5q0 -5 91 -66q36 -25 108 -43q66 -27 150 -27q133 24 257 136q123 114 189 257q-3 -293 -164 -505q-164 -219 -421 -223q-124 7 -230 59q-105 49 -182 123
q-158 161 -198 296q45 5 94.5 15t107.5 26q57 14 108 36.5t97 51.5q-5 51 -63 73q-62 21 -128 21q-137 -8 -216 -66v512q37 23 76 50.5t81 58.5q43 31 105.5 69t144.5 84q55 -26 114 -56t123 -63q121 -70 241 -73q38 0 59 7q17 5 34.5 11.5t34.5 13.5q29 17 32 37
q-3 66 -42 84q-56 14 -111 14q-56 -3 -109 11q-52 10 -52 63q0 58 45 117q43 57 123 77q150 -4 220 -62q62 -65 62 -150q0 -113 -52 -198l-3 -6q19 11 42 22.5t49 22.5zM1968 505q-14 -8 -27 -15.5t-25 -14.5q-28 -15 -28 -47q0 -31 28 -41q24 -14 52 -18v136z" />
    <glyph glyph-name="Dslash" horiz-adv-x="2059" 
d="M1731 1623q0 37 18 90q40 96 134 96q98 -5 172 -76q77 -92 77 -225q0 -120 -52 -231q-13 -26 -25 -47t-25 -37q19 -19 19 -35v-990q-3 -77 -69 -123q-62 -45 -98 -48q-8 53 -56 87q-25 20 -52.5 39t-59.5 38q-28 22 -53.5 45.5t-49.5 48.5q-50 56 -50 136q0 55 66 87
q29 17 62.5 33t70.5 30q82 28 140 76q58 45 58 118q0 76 -48 150q-46 64 -119 119q-131 91 -213 108q-82 16 -143 6q-29 -5 -97 -18t-174 -34q-157 -124 -285 -124q-42 0 -85 27q-43 18 -95 46q-100 70 -244 73q-136 0 -175 -46q-41 -50 -38 -96q25 15 48.5 26t46.5 18
q50 14 107 14q146 0 230 -69q83 -73 88 -186q-4 -109 -70 -167q-14 -17 -29 -31t-30 -25q-17 -14 -30 -27.5t-23 -27.5q0 -5 91 -66q38 -25 108 -43q66 -27 150 -27q133 24 257 136q123 114 189 257q-3 -293 -164 -505q-163 -218 -421 -223q-63 4 -119.5 18.5t-110.5 40.5
q-106 50 -182 123q-157 160 -198 296q45 5 94.5 15t107.5 26q57 14 108 36.5t97 51.5q-4 50 -63 73q-62 21 -128 21q-137 -8 -216 -66v512q37 23 76 50.5t81 58.5q43 31 105.5 69t144.5 84q55 -26 114 -56t123 -63q121 -70 241 -73q37 0 59 7q17 5 34.5 11.5t34.5 13.5
q29 17 32 37q-3 66 -42 84q-54 14 -111 14q-58 -3 -109 11q-52 10 -52 63q0 58 45 117q44 58 123 77q151 -5 220 -62q62 -65 62 -150q0 -113 -52 -198l-3 -6q19 11 42 22.5t49 22.5q45 20 105.5 54t141.5 83q66 -38 131 -74.5t132 -71.5q12 -7 23.5 -13.5t22.5 -12.5
q19 40 27 99q0 27 -6 65q-8 39 -40 65q-19 8 -42 15.5t-49 15.5q-20 10 -39.5 22t-37.5 27q-35 27 -35 68zM1968 505q-14 -8 -27 -15.5t-25 -14.5q-28 -15 -28 -47q0 -31 28 -41q24 -14 52 -18v136z" />
    <glyph glyph-name="Eogonek" unicode="&#x1788;" horiz-adv-x="2882" 
d="M913 366q20 54 48 120.5t65 148.5t55.5 129t20.5 58q0 34 -46 77q-23 20 -51 40t-63 40q-78 43 -141 71t-114 42q-80 23 -150 23q-147 0 -271 -93q20 4 42.5 5.5t46.5 1.5q152 0 262 -80q111 -80 114 -193q0 -73 -48 -128q-48 -54 -109 -91q-30 -17 -57 -35.5t-50 -37.5
q-46 -36 -55 -84q22 -37 45 -32q18 0 32 14q17 11 27 29q26 41 62 44q189 0 186 -194q-4 -113 -88 -175q-87 -66 -212 -69q-143 3 -216 105q-73 103 -73 249q11 59 62 102q25 23 52.5 42t58.5 35t57 30.5t48 28.5q39 21 45 39q-9 40 -56 66q-51 21 -117 21q-42 2 -79.5 -5
t-74.5 -23v464q229 135 480 264q90 0 179 -27q39 -11 80.5 -25.5t86.5 -33.5q118 -39 223 -123q105 -86 109 -198l-185 -457q79 -92 171 -153q85 -73 257 -73q135 0 226 76q91 71 95 168q0 52 -31 77q-30 27 -73 37q-95 15 -126 15q-41 0 -104 -18q-68 -15 -130 -45v516
q2 2 30 23.5t82 63.5q49 42 88.5 84t68.5 87q20 -16 50 -35t72 -41q76 -49 160 -54q55 0 102 36q-76 -277 -284 -280q-55 0 -89 21q-37 14 -91 14q-113 -14 -132 -108q23 17 209 46q193 -4 267 -127q63 -122 63 -267q-6 -67 -34 -161q23 -11 43 -22t37 -22
q17 -13 34.5 -24.5t35.5 -22.5q19 -11 41.5 -20t49.5 -14q48 -18 135 -18q135 0 227 77q87 71 91 168q0 51 -29 77q-32 26 -69 37q-48 7 -80 10.5t-49 3.5q-98 -3 -233 -66v537q1 1 28 23t82 65q51 42 89.5 83t67.5 84q23 -16 54 -33t69 -34q76 -49 161 -49q54 0 100 25
q-74 -276 -282 -280q-57 0 -91 22q-40 14 -91 14q-55 -5 -89 -45q-34 -45 -47 -91q23 20 213 56q196 -4 287 -122q89 -116 89 -258q0 -31 -6 -70.5t-17 -90.5q-13 -51 -36.5 -103t-58.5 -106q-34 -52 -81 -96.5t-110 -81.5q-121 -73 -317 -76q-62 0 -171 51
q-114 47 -227 123q-74 -66 -189 -112q-60 -23 -123.5 -37t-133.5 -18q-78 0 -157 39q-84 34 -150 89q-146 116 -175 241z" />
    <glyph glyph-name="eogonek" horiz-adv-x="676" 
d="M125 1158q2 2 29.5 23.5t82.5 63.5q98 80 161 170q20 -17 50.5 -34.5t70.5 -35.5q79 -48 161 -48q55 0 98 25q-73 -277 -280 -280q-56 0 -89 21q-33 15 -95 15q-53 0 -84 -36q-31 -34 -48 -80q121 46 216 42q113 0 187 -42q70 -49 70 -184v-959q0 -37 28 -77
q16 -22 32.5 -42t33.5 -38q84 -77 143 -146q-173 -206 -285 -264q-115 -50 -208 -50h-15q-122 7 -168 39q-26 15 -52.5 30.5t-54.5 32.5q-18 -4 -64 -52q-25 -19 -80 -36q-59 -18 -154 -18q-110 4 -180 57q-35 26 -62.5 48.5t-49.5 41.5q26 29 66 71.5t94 99.5
q-59 59 -124 77q-35 7 -75 9.5t-86 0.5q-238 0 -266 -135q5 -33 29 -47q25 -19 35 -19q11 13 23 29.5t26 36.5q14 17 41 30q35 11 76 11q64 -8 81 -63q7 -28 9.5 -52t0.5 -46q-18 -93 -73 -121q-67 -29 -139 -29q-118 7 -150 106q-28 85 -28 157q13 157 123 258
q116 107 296 107q212 0 293 -95q80 -96 44 -153q-20 -29 -40 -55.5t-40 -51.5q23 -14 67.5 -29.5t110.5 -32.5q139 7 139 69q-20 24 -48 27q-14 2 -37.5 3t-56.5 1q23 51 48 95.5t53 82.5q26 35 48.5 66t42.5 59q169 -71 246 -66q-14 -46 -45 -104q-38 -60 -87 -64
q-45 7 -77 25q-35 15 -52 15q-26 0 -39 -4q-23 -11 -48 -36q103 0 164 -37q59 -36 59 -63q0 -35 36 -50q28 -16 69 -16q31 2 54 5.5t39 7.5q22 0 77 28q16 11 35 25.5t41 33.5q20 18 43.5 43.5t51.5 58.5q-14 13 -33 30t-44 40q-55 44 -59 112v778q-3 81 -62 102
q-59 18 -123 18q-82 -4 -146 -43q-74 -44 -77 -48v555z" />
    <glyph glyph-name="Ecaron" horiz-adv-x="676" 
d="M125 1158q2 2 29.5 23.5t82.5 63.5q98 80 161 170q20 -17 50.5 -34.5t70.5 -35.5q79 -48 161 -48q55 0 98 25q-73 -277 -280 -280q-56 0 -89 21q-33 15 -95 15q-53 0 -84 -36q-31 -34 -48 -80q121 46 216 42q113 0 187 -42q70 -49 70 -184v-1589q0 -37 28 -77
q16 -22 32.5 -42t33.5 -38q84 -77 143 -146q-173 -206 -285 -264q-115 -50 -208 -50h-15q-122 7 -168 39q-26 15 -52.5 30.5t-54.5 32.5q-18 -4 -64 -52q-25 -19 -80 -36q-59 -18 -154 -18q-110 4 -180 57q-35 26 -62.5 48.5t-49.5 41.5q26 29 66 71.5t94 99.5
q-59 59 -124 77q-35 7 -75 9.5t-86 0.5q-238 0 -266 -135q5 -33 29 -47q25 -19 35 -19q11 13 23 29.5t26 36.5q14 17 41 30q35 11 76 11q64 -8 81 -63q7 -28 9.5 -52t0.5 -46q-18 -93 -73 -121q-67 -29 -139 -29q-118 7 -150 106q-28 85 -28 157q13 157 123 258
q116 107 296 107q212 0 293 -95q80 -96 44 -153q-20 -29 -40 -55.5t-40 -51.5q23 -14 67.5 -29.5t110.5 -32.5q139 7 139 69q-20 24 -48 27q-14 2 -37.5 3t-56.5 1q23 51 48 95.5t53 82.5q26 35 48.5 66t42.5 59q169 -71 246 -66q-14 -46 -45 -104q-38 -60 -87 -64
q-45 7 -77 25q-35 15 -52 15q-26 0 -39 -4q-23 -11 -48 -36q103 0 164 -37q59 -36 59 -63q0 -35 36 -50q28 -16 69 -16q31 2 54 5.5t39 7.5q22 0 77 28q16 11 35 25.5t41 33.5q20 18 43.5 43.5t51.5 58.5q-14 13 -33 30t-44 40q-55 44 -59 112v1408q-3 81 -62 102
q-59 18 -123 18q-82 -4 -146 -43q-74 -44 -77 -48v555z" />
    <glyph glyph-name="ecaron" horiz-adv-x="3536" 
d="M2282 958q34 43 205 39q96 -5 168.5 -34.5t120.5 -90.5q89 -116 89 -258q0 -31 -6 -70.5t-17 -90.5q-25 -101 -95 -209q-67 -104 -191 -178q-121 -73 -317 -76q-62 0 -171 51q-113 46 -227 123q-72 -65 -189 -112q-60 -23 -123.5 -37t-133.5 -18q-78 0 -157 39
q-86 35 -150 89q-146 116 -175 241q40 106 113 269q37 82 55.5 129t20.5 58q0 34 -46 77q-23 20 -51 40t-63 40q-155 85 -255 113q-78 23 -150 23q-147 0 -271 -93q20 4 42.5 5.5t46.5 1.5q152 0 262 -80q111 -79 114 -193q0 -73 -48 -128q-48 -54 -109 -91
q-30 -17 -57 -35.5t-50 -37.5q-46 -36 -55 -84q22 -37 45 -32q18 0 32 14q16 10 27 29q26 41 62 44q189 0 186 -194q-5 -114 -88 -175q-87 -66 -212 -69q-143 3 -216 105q-73 103 -73 249q10 58 62 102q25 23 52.5 42t58.5 35t57 30.5t48 28.5q39 21 45 39q-9 40 -56 66
q-51 21 -117 21q-42 2 -79.5 -5t-74.5 -23v464q229 135 480 264q90 0 179 -27q39 -11 80.5 -25.5t86.5 -33.5q118 -39 223 -123q104 -85 109 -198l-185 -457q79 -92 171 -153q85 -73 257 -73q135 0 226 76q90 70 95 168q0 52 -31 77q-29 26 -73 37q-95 15 -126 15
q-41 0 -104 -18q-69 -15 -130 -45v516q2 2 30 23.5t82 63.5q49 42 88.5 84t68.5 87q20 -16 50 -35t72 -41q77 -50 160 -54q55 0 102 36q-76 -277 -284 -280q-55 0 -89 21q-36 14 -91 14q-113 -14 -132 -108q24 18 209 46q194 -5 267 -127q63 -122 63 -267q-3 -33 -11.5 -73
t-22.5 -88q23 -11 43 -22t37 -22q17 -13 34.5 -24.5t35.5 -22.5q19 -11 41.5 -20t49.5 -14q48 -18 135 -18q135 0 227 77q86 70 91 168q0 51 -29 77q-33 27 -69 37q-48 7 -80 10.5t-49 3.5q-98 -3 -233 -66l3 18v519q4 4 133 55q66 32 130 65t128 68q129 72 248 73l-1 -2
l3 2q173 -33 252 -70q42 -18 84 -38t87 -42t82.5 -38t70.5 -27q66 -21 66 -42v-990q-3 -77 -69 -123q-62 -45 -98 -48q-8 53 -56 87q-25 20 -52.5 39t-59.5 38q-28 22 -53.5 45.5t-49.5 48.5q-50 56 -50 136q0 55 66 87q29 17 62.5 33t70.5 30q82 28 140 76q58 45 58 118
q0 76 -48 150q-46 64 -119 119q-75 34 -133 54.5t-101 27.5q-42 7 -75 11t-58 6q-44 5 -424 -21q-14 -2 -25.5 -4t-19.5 -4q-56 0 -87 -36q-38 -35 -48 -80zM3430 505q-14 -8 -27 -15.5t-25 -14.5q-28 -15 -28 -47q0 -31 28 -41q24 -14 52 -18v136z" />
    <glyph glyph-name="Lacute" horiz-adv-x="1421" 
d="M125 1158l3 -3q7 4 39 17.5t92 36.5q66 32 130 65t128 68q128 71 248 73l-1 -2l3 2q174 -33 252 -70q42 -18 84 -38t87 -42t82.5 -38t70.5 -27q66 -21 66 -42v-990q-3 -77 -69 -123q-61 -45 -98 -48q-7 52 -56 87q-25 20 -52.5 39t-59.5 38q-28 22 -53.5 45.5t-49.5 48.5
q-50 56 -50 136q0 55 66 87q29 17 62.5 33t70.5 30q82 28 140 76q58 45 58 118q0 76 -48 150q-46 64 -119 119q-75 34 -133 54.5t-101 27.5q-42 7 -75 11t-58 6q-44 5 -424 -21q-14 -2 -25.5 -4t-19.5 -4q-56 0 -87 -36q-30 -27 -43 -62q-1 -8 8 -5.5t24 8.5t35 12t41 4
q55 10 105 9q113 0 187 -42q70 -49 70 -184v-959q0 -37 28 -77q16 -22 32.5 -42t33.5 -38q84 -77 143 -146q-173 -206 -285 -264q-115 -50 -208 -50h-15q-122 7 -168 39q-26 15 -52.5 30.5t-54.5 32.5q-18 -4 -64 -52q-25 -19 -80 -36q-59 -18 -154 -18q-110 4 -180 57
q-35 26 -62.5 48.5t-49.5 41.5q26 29 66 71.5t94 99.5q-59 59 -124 77q-35 7 -75 9.5t-86 0.5q-238 0 -266 -135q5 -33 29 -47q25 -19 35 -19q11 13 23 29.5t26 36.5q14 17 41 30q35 11 76 11q64 -8 81 -63q7 -28 9.5 -52t0.5 -46q-18 -93 -73 -121q-67 -29 -139 -29
q-118 7 -150 106q-28 85 -28 157q13 157 123 258q116 107 296 107q212 0 293 -95q80 -96 44 -153q-20 -29 -40 -55.5t-40 -51.5q23 -14 67.5 -29.5t110.5 -32.5q139 7 139 69q-20 24 -48 27q-14 2 -37.5 3t-56.5 1q23 51 48 95.5t53 82.5q26 35 48.5 66t42.5 59
q169 -71 246 -66q-14 -46 -45 -104q-38 -60 -87 -64q-45 7 -77 25q-35 15 -52 15q-26 0 -39 -4q-23 -11 -48 -36q103 0 164 -37q59 -36 59 -63q0 -35 36 -50q28 -16 69 -16q31 2 54 5.5t39 7.5q22 0 77 28q16 11 35 25.5t41 33.5q20 18 43.5 43.5t51.5 58.5q-14 13 -33 30
t-44 40q-55 44 -59 112v778q-3 81 -62 102q-59 18 -123 18q-82 -4 -146 -43q-74 -44 -77 -48v555zM1328 505q-14 -8 -27 -15.5t-25 -14.5q-28 -15 -28 -47q0 -31 28 -41q24 -14 52 -18v136z" />
    <glyph glyph-name="lacute" horiz-adv-x="1421" 
d="M125 1158l3 -3q7 4 39 17.5t92 36.5q66 32 130 65t128 68q129 72 248 73l-1 -2l3 2q173 -33 252 -70q42 -18 84 -38t87 -42t82.5 -38t70.5 -27q66 -21 66 -42v-990q-3 -77 -69 -123q-62 -45 -98 -48q-8 53 -56 87q-25 20 -52.5 39t-59.5 38q-28 22 -53.5 45.5t-49.5 48.5
q-50 56 -50 136q0 55 66 87q29 17 62.5 33t70.5 30q82 28 140 76q58 45 58 118q0 76 -48 150q-46 64 -119 119q-75 34 -133 54.5t-101 27.5q-42 7 -75 11t-58 6q-44 5 -424 -21q-14 -2 -25.5 -4t-19.5 -4q-56 0 -87 -36q-29 -26 -43 -62q-1 -8 8 -5.5t24 8.5t35 12t41 4
q55 10 105 9q113 0 187 -42q70 -49 70 -184v-1569q0 -37 28 -77q16 -22 32.5 -42t33.5 -38q84 -77 143 -146q-173 -206 -285 -264q-114 -50 -208 -50h-15q-122 7 -168 39q-26 15 -52.5 30.5t-54.5 32.5q-18 -4 -64 -52q-26 -19 -80 -36q-59 -18 -154 -18q-110 4 -180 57
q-35 26 -62.5 48.5t-49.5 41.5q26 29 66 71.5t94 99.5q-59 59 -124 77q-35 7 -75 9.5t-86 0.5q-238 0 -266 -135q5 -33 29 -47q25 -19 35 -19q22 25 49 66q13 16 41 30q33 11 76 11q64 -8 81 -63q7 -28 9.5 -52t0.5 -46q-18 -93 -73 -121q-66 -29 -139 -29q-119 8 -150 106
q-28 87 -28 157q13 157 123 258q116 107 296 107q212 0 293 -95q80 -96 44 -153q-20 -29 -40 -55.5t-40 -51.5q23 -14 67.5 -29.5t110.5 -32.5q139 7 139 69q-20 24 -48 27q-14 2 -37.5 3t-56.5 1q23 51 48 95.5t53 82.5q26 35 48.5 66t42.5 59q169 -71 246 -66
q-14 -45 -45 -104q-37 -59 -87 -64q-47 8 -77 25q-35 15 -52 15q-24 0 -39 -4q-23 -11 -48 -36q103 0 164 -37q59 -36 59 -63q0 -35 36 -50q28 -16 69 -16q31 2 54 5.5t39 7.5q22 0 77 28q16 11 35 25.5t41 33.5q20 18 43.5 43.5t51.5 58.5q-14 13 -33 30t-44 40
q-54 43 -59 112v1388q-3 81 -62 102q-59 18 -123 18q-82 -4 -146 -43q-74 -44 -77 -48v555zM1328 505q-14 -8 -27 -15.5t-25 -14.5q-28 -15 -28 -47q0 -31 28 -41q24 -14 52 -18v136z" />
    <glyph glyph-name="Lcaron" horiz-adv-x="3536" 
d="M2282 958q34 43 205 39q5 -1 9 -2t9 -2q183 -7 271 -121q89 -116 89 -258q0 -31 -6 -70.5t-17 -90.5q-13 -51 -36.5 -103t-58.5 -106q-34 -52 -81 -96.5t-110 -81.5q-121 -73 -317 -76q-62 0 -171 51q-114 47 -227 123q-74 -66 -189 -112q-60 -23 -123.5 -37t-133.5 -18
q-78 0 -157 39q-84 34 -150 89q-146 116 -175 241q20 54 48 120.5t65 148.5t55.5 129t20.5 58q0 34 -46 77q-23 20 -51 40t-63 40q-78 43 -141 71t-114 42q-80 23 -150 23q-147 0 -271 -93q20 4 42.5 5.5t46.5 1.5q152 0 262 -80q111 -80 114 -193q0 -73 -48 -128
q-48 -54 -109 -91q-30 -17 -57 -35.5t-50 -37.5q-46 -36 -55 -84q22 -37 45 -32q18 0 32 14q17 11 27 29q26 41 62 44q189 0 186 -194q-4 -113 -88 -175q-87 -66 -212 -69q-143 3 -216 105q-73 103 -73 249q11 59 62 102q25 23 52.5 42t58.5 35t57 30.5t48 28.5q39 21 45 39
q-9 40 -56 66q-51 21 -117 21q-42 2 -79.5 -5t-74.5 -23v464q229 135 480 264q90 0 179 -27q39 -11 80.5 -25.5t86.5 -33.5q118 -39 223 -123q105 -86 109 -198l-185 -457q79 -92 171 -153q85 -73 257 -73q135 0 226 76q91 71 95 168q0 52 -31 77q-30 27 -73 37
q-95 15 -126 15q-41 0 -104 -18q-68 -15 -130 -45v516q2 2 30 23.5t82 63.5q49 42 88.5 84t68.5 87q20 -16 50 -35t72 -41q76 -49 160 -54q55 0 102 36q-76 -277 -284 -280q-55 0 -89 21q-37 14 -91 14q-113 -14 -132 -108q23 17 209 46q193 -4 267 -127q63 -122 63 -267
q-6 -67 -34 -161q23 -11 43 -22t37 -22q17 -13 34.5 -24.5t35.5 -22.5q19 -11 41.5 -20t49.5 -14q48 -18 135 -18q135 0 227 77q87 71 91 168q0 51 -29 77q-32 26 -69 37q-48 7 -80 10.5t-49 3.5q-98 -3 -233 -66l3 18v519q4 4 133 55q66 32 130 65t128 68q128 71 248 73
l-1 -2l3 2q174 -33 252 -70q42 -18 84 -38t87 -42q81 -43 113 -35h2q25 45 35 115q0 27 -6 65q-7 39 -40 65q-19 8 -42 15.5t-49 15.5q-20 10 -39.5 22t-37.5 27q-35 27 -35 68q0 37 18 90q40 96 134 96q97 -4 172 -76q77 -92 77 -225q0 -121 -52 -231q-13 -26 -25 -47
t-25 -37q19 -19 19 -35v-990q-3 -77 -69 -123q-61 -45 -98 -48q-7 52 -56 87q-25 20 -52.5 39t-59.5 38q-28 22 -53.5 45.5t-49.5 48.5q-50 56 -50 136q0 55 66 87q29 17 62.5 33t70.5 30q82 28 140 76q58 45 58 118q0 76 -48 150q-46 64 -119 119q-75 34 -133 54.5
t-101 27.5q-42 7 -75 11t-58 6q-44 5 -424 -21q-14 -2 -25.5 -4t-19.5 -4q-56 0 -87 -36q-37 -34 -48 -80zM3430 505q-14 -8 -27 -15.5t-25 -14.5q-28 -15 -28 -47q0 -31 28 -41q24 -14 52 -18v136z" />
    <glyph glyph-name="lcaron" horiz-adv-x="1421" 
d="M1091 1623q0 37 18 90q40 96 134 96q98 -5 172 -76q77 -92 77 -225q0 -120 -52 -231q-13 -26 -25 -47t-25 -37q19 -19 19 -35v-990q-3 -77 -69 -123q-62 -45 -98 -48q-8 53 -56 87q-25 20 -52.5 39t-59.5 38q-28 22 -53.5 45.5t-49.5 48.5q-50 56 -50 136q0 55 66 87
q29 17 62.5 33t70.5 30q82 28 140 76q58 45 58 118q0 76 -48 150q-46 64 -119 119q-75 34 -133 54.5t-101 27.5q-42 7 -75 11t-58 6q-44 5 -424 -21q-14 -2 -25.5 -4t-19.5 -4q-56 0 -87 -36q-29 -26 -43 -62q-1 -8 8 -5.5t24 8.5t35 12t41 4q55 10 105 9q113 0 187 -42
q70 -49 70 -184v-959q0 -37 28 -77q16 -22 32.5 -42t33.5 -38q84 -77 143 -146q-173 -206 -285 -264q-114 -50 -208 -50h-15q-122 7 -168 39q-26 15 -52.5 30.5t-54.5 32.5q-18 -4 -64 -52q-26 -19 -80 -36q-59 -18 -154 -18q-110 4 -180 57q-35 26 -62.5 48.5t-49.5 41.5
q26 29 66 71.5t94 99.5q-59 59 -124 77q-35 7 -75 9.5t-86 0.5q-238 0 -266 -135q5 -33 29 -47q25 -19 35 -19q22 25 49 66q13 16 41 30q33 11 76 11q64 -8 81 -63q7 -28 9.5 -52t0.5 -46q-18 -93 -73 -121q-66 -29 -139 -29q-119 8 -150 106q-28 87 -28 157q13 157 123 258
q116 107 296 107q212 0 293 -95q80 -96 44 -153q-20 -29 -40 -55.5t-40 -51.5q23 -14 67.5 -29.5t110.5 -32.5q139 7 139 69q-20 24 -48 27q-14 2 -37.5 3t-56.5 1q23 51 48 95.5t53 82.5q26 35 48.5 66t42.5 59q169 -71 246 -66q-14 -45 -45 -104q-37 -59 -87 -64
q-47 8 -77 25q-35 15 -52 15q-24 0 -39 -4q-23 -11 -48 -36q103 0 164 -37q59 -36 59 -63q0 -35 36 -50q28 -16 69 -16q31 2 54 5.5t39 7.5q22 0 77 28q16 11 35 25.5t41 33.5q20 18 43.5 43.5t51.5 58.5q-14 13 -33 30t-44 40q-54 43 -59 112v778q-3 81 -62 102
q-59 18 -123 18q-82 -4 -146 -43q-74 -44 -77 -48v555l3 -3q7 4 39 17.5t92 36.5q66 32 130 65t128 68q129 72 248 73l-1 -2l3 2q173 -33 252 -70q42 -18 84 -38t87 -42q83 -43 113 -35h2q24 43 35 115q0 27 -6 65q-8 39 -40 65q-19 8 -42 15.5t-49 15.5q-20 10 -39.5 22
t-37.5 27q-35 27 -35 68zM1328 505q-14 -8 -27 -15.5t-25 -14.5q-28 -15 -28 -47q0 -31 28 -41q24 -14 52 -18v136z" />
    <glyph glyph-name="Ldot" horiz-adv-x="1421" 
d="M1091 1623q0 37 18 90q40 96 134 96q97 -4 172 -76q77 -92 77 -225q0 -121 -52 -231q-13 -26 -25 -47t-25 -37q19 -19 19 -35v-990q-3 -77 -69 -123q-61 -45 -98 -48q-7 52 -56 87q-25 20 -52.5 39t-59.5 38q-28 22 -53.5 45.5t-49.5 48.5q-50 56 -50 136q0 55 66 87
q29 17 62.5 33t70.5 30q82 28 140 76q58 45 58 118q0 76 -48 150q-46 64 -119 119q-75 34 -133 54.5t-101 27.5q-42 7 -75 11t-58 6q-44 5 -424 -21q-14 -2 -25.5 -4t-19.5 -4q-56 0 -87 -36q-30 -27 -43 -62q-1 -8 8 -5.5t24 8.5t35 12t41 4q55 10 105 9q113 0 187 -42
q70 -49 70 -184v-1579q0 -37 28 -77q16 -22 32.5 -42t33.5 -38q84 -77 143 -146q-173 -206 -285 -264q-115 -50 -208 -50h-15q-122 7 -168 39q-26 15 -52.5 30.5t-54.5 32.5q-18 -4 -64 -52q-25 -19 -80 -36q-59 -18 -154 -18q-110 4 -180 57q-35 26 -62.5 48.5t-49.5 41.5
q26 29 66 71.5t94 99.5q-59 59 -124 77q-35 7 -75 9.5t-86 0.5q-238 0 -266 -135q5 -33 29 -47q25 -19 35 -19q11 13 23 29.5t26 36.5q14 17 41 30q35 11 76 11q64 -8 81 -63q7 -28 9.5 -52t0.5 -46q-18 -93 -73 -121q-67 -29 -139 -29q-118 7 -150 106q-28 85 -28 157
q13 157 123 258q116 107 296 107q212 0 293 -95q80 -96 44 -153q-20 -29 -40 -55.5t-40 -51.5q23 -14 67.5 -29.5t110.5 -32.5q139 7 139 69q-20 24 -48 27q-14 2 -37.5 3t-56.5 1q23 51 48 95.5t53 82.5q26 35 48.5 66t42.5 59q169 -71 246 -66q-14 -46 -45 -104
q-38 -60 -87 -64q-45 7 -77 25q-35 15 -52 15q-26 0 -39 -4q-23 -11 -48 -36q103 0 164 -37q59 -36 59 -63q0 -35 36 -50q28 -16 69 -16q31 2 54 5.5t39 7.5q22 0 77 28q16 11 35 25.5t41 33.5q20 18 43.5 43.5t51.5 58.5q-14 13 -33 30t-44 40q-55 44 -59 112v1398
q-3 81 -62 102q-59 18 -123 18q-82 -4 -146 -43q-74 -44 -77 -48v555l3 -3q7 4 39 17.5t92 36.5q66 32 130 65t128 68q128 71 248 73l-1 -2l3 2q174 -33 252 -70q42 -18 84 -38t87 -42q81 -43 113 -35h2q25 45 35 115q0 27 -6 65q-7 39 -40 65q-19 8 -42 15.5t-49 15.5
q-20 10 -39.5 22t-37.5 27q-35 27 -35 68zM1328 505q-14 -8 -27 -15.5t-25 -14.5q-28 -15 -28 -47q0 -31 28 -41q24 -14 52 -18v136z" />
    <glyph glyph-name="ldot" unicode="&#x1789;" horiz-adv-x="2215" 
d="M521 1409q75 -32 152 -67.5t158 -73.5q102 64 255 141q63 -38 119.5 -73.5t110.5 -67.5q66 -40 96 -76q41 40 149 98q51 31 110 62t129 63q163 -55 283 -136q117 -79 122 -132v-997q-4 -76 -70 -125q-65 -41 -101 -46q-7 49 -56 87q-24 18 -51 38t-58 42
q-29 22 -54.5 46.5t-48.5 51.5q-52 55 -52 136q0 56 70 87q59 35 139 63q79 28 143 77q57 43 62 116q-5 130 -143 271q-65 68 -153 112q-87 45 -186 45q-131 3 -215 -28v-945q-5 -81 -63 -130q-60 -57 -105 -62q-15 0 -23 11q-23 61 -70 108q-23 23 -47.5 45t-50.5 44
t-48 45t-39 46q-45 46 -45 102q0 59 66 91q29 17 62 31.5t70 27.5q42 13 76 30.5t63 39.5q59 39 59 121q0 84 -37 148q-39 60 -99 103q-130 88 -267 88q-50 -5 -98 -41q-28 -20 -48 -38.5t-33 -34.5q-115 100 -205 103q-11 0 -29.5 -1t-30.5 -5q-31 -10 -50.5 -20.5
t-42.5 -21.5q-49 -26 -80 -70q-59 -83 -59 -265q0 -304 226 -300q76 0 114 36q34 34 47 114q-43 -46 -84 -56q-40 -14 -70 -14q-182 5 -182 205q5 98 77 141q68 41 139 41q109 -7 157 -112q48 -107 48 -227q0 -154 -55 -319q-58 -177 -212 -185q-91 3 -154 69
q-67 67 -101 171q-35 106 -52.5 228t-17.5 270q5 451 384 674zM1866 -173q103 3 202 -40q106 -45 122 -160q-12 -383 -465 -390q-24 0 -49.5 1.5t-51.5 5.5q-179 27 -322 134q-73 54 -135 111t-115 119q-104 110 -251 134q64 45 196 45q115 0 231 -42q52 -19 104 -62
q27 -22 52.5 -44t50.5 -44q52 -46 118 -77q67 -35 136 -41q46 0 100.5 6.5t120.5 19.5q125 30 133 143q-57 0 -82 -16q-26 -12 -42 -40q-8 -10 -17 -20t-19 -21q-19 -19 -63 -31q-229 7 -229 138q0 77 86 124q80 47 189 47zM1306 442q25 -21 30 -21q4 9 4 64q0 56 3 59
q2 0 -37 -11q-36 -14 -36 -44q0 -29 36 -47zM2100 432q31 -27 35 -27q12 4 7 59q0 48 4 52q-14 0 -88 -41q4 -25 42 -43z" />
    <glyph glyph-name="Nacute" horiz-adv-x="2215" 
d="M521 1409q75 -32 152 -67.5t158 -73.5q102 64 255 141q63 -38 119.5 -73.5t110.5 -67.5q67 -41 96 -76q20 20 57.5 44.5t91.5 53.5q51 31 110 62t129 63q164 -56 283 -136q118 -80 122 -132v-997q-4 -76 -70 -125q-66 -42 -101 -46q-8 50 -56 87q-24 18 -51 38t-58 42
q-29 22 -54.5 46.5t-48.5 51.5q-52 55 -52 136q0 56 70 87q57 34 139 63q80 29 143 77q58 44 62 116q-4 129 -143 271q-66 69 -153 112q-87 45 -186 45q-132 3 -215 -28v-945q-4 -80 -63 -130q-61 -58 -105 -62q-15 0 -23 11q-22 60 -70 108q-46 45 -98 89q-26 22 -48 45
t-39 46q-45 46 -45 102q0 59 66 91q29 17 62 31.5t70 27.5q42 13 76 30.5t63 39.5q59 39 59 121q0 84 -37 148q-38 59 -99 103q-130 88 -267 88q-49 -4 -98 -41q-28 -20 -48 -38.5t-33 -34.5q-115 100 -205 103q-26 0 -46 -7q-31 -10 -57.5 -20t-49.5 -21
q-25 -13 -44.5 -30.5t-35.5 -39.5q-59 -83 -59 -265q0 -304 226 -300q76 0 114 36q33 33 47 114q-42 -45 -84 -56q-42 -14 -70 -14q-182 5 -182 205q4 97 77 141q68 41 139 41q109 -7 157 -112q48 -107 48 -227q0 -155 -55 -319q-59 -178 -212 -185q-91 3 -154 69
q-66 66 -101 171q-70 209 -70 498q4 450 384 674zM1306 442q25 -21 30 -21q4 8 4 64t3 59q4 0 -37 -11q-36 -14 -36 -44q0 -29 36 -47zM2100 432q31 -27 35 -27q11 4 7 59q0 48 4 52q-14 0 -88 -41q4 -25 42 -43z" />
    <glyph glyph-name="nacute" 
d="M-466 -170q64 52 160 52q2 1 13 1q79 0 158 -46q89 -48 108 -178q-7 -427 -395 -435q-20 0 -41.5 1.5t-43.5 5.5q-157 28 -277 150q-61 60 -113.5 123t-98.5 132q-84 124 -209 150q55 55 164 55q100 0 195 -48q45 -23 87 -68q44 -47 88 -100q52 -52 103 -87
q45 -39 112 -47q72 0 188 29q109 31 112 160q-46 0 -69 -17q-23 -15 -36 -45q-8 -10 -15.5 -21.5t-15.5 -24.5q-18 -24 -49 -34q-195 7 -198 153q3 87 73 139z" />
    <glyph glyph-name="Ncaron" 
d="M-466 -790q64 52 160 52q1 1 13 1q79 0 158 -46q89 -48 108 -178q-8 -428 -395 -435q-20 0 -41.5 1.5t-43.5 5.5q-157 28 -277 150q-61 60 -113.5 123t-98.5 132q-84 124 -209 150q55 55 164 55q100 0 195 -48q44 -22 87 -68q45 -48 88 -100q54 -54 103 -87
q46 -40 112 -47q70 0 188 29q109 31 112 160q-46 0 -69 -17q-23 -15 -36 -45q-8 -10 -15.5 -21.5t-15.5 -24.5q-18 -24 -49 -34q-195 7 -198 153q3 87 73 139z" />
    <glyph glyph-name="ncaron" 
d="M-1425 -191q111 0 162 -23q23 -8 46 -26q7 -8 16 -18t22 -21q44 45 94 68q49 20 206 20q38 0 69 -2t54 -6q44 -12 73 -29q52 -40 73 -43q11 9 25.5 21t33.5 27q21 15 73 24q23 4 58.5 6t84.5 2q126 0 203 -65q77 -66 77 -210q1 -1 1 -12q0 -74 -33 -135q-40 -74 -195 -79
q-94 5 -137 60q-48 57 -48 94q0 41 28 66q27 30 104 30q66 0 105 -24q43 -23 80 -26q4 10 7 22.5t7 27.5q-37 29 -71.5 50t-67.5 32q-64 13 -157 12q-120 0 -157 -40q-35 -41 -35 -99q3 -51 3 -99q4 -41 -18 -69q-26 -30 -99 -37q-61 4 -127 51q-73 50 -77 103q4 27 25 46
q13 5 28.5 10t34.5 10q38 8 83 15t99 15q-112 94 -270 88q-139 -4 -184 -43q-11 -8 -19.5 -15.5t-15.5 -14.5q-23 -15 -48 -15q-23 4 -66 42q-22 18 -65 31q-44 9 -114 9q-94 0 -128 -43q-32 -44 -32 -95q3 -53 7 -60q48 71 80 95q28 21 105 21q103 0 132 -45q23 -39 18 -71
q-10 -77 -57 -103q-55 -31 -153 -31q-148 13 -195 94q-43 76 -43 180q10 102 102 165q89 62 193 62zM-862 -726q91 0 166 -24q35 -14 69.5 -30.5t66.5 -33.5q34 -18 68.5 -35t71.5 -34q73 -36 160 -51q-51 87 -54 109q0 11 6 32q59 78 106 75q49 0 78 -32q26 -32 26 -43
q0 -129 -85 -180q-82 -55 -192 -55q-42 2 -80.5 11.5t-76.5 25.5q-78 31 -159 72q-40 22 -80 40.5t-80 34.5q-78 30 -168 30h-81q-104 4 -198 -24q102 76 211 97q105 16 225 15z" />
    <glyph glyph-name="Odblacute" 
d="M-1425 -711q113 0 162 -20q27 -8 46 -23q8 -8 17.5 -16.5t20.5 -17.5q44 38 94 60q48 17 206 17q38 0 69 -1.5t54 -5.5q22 -5 40.5 -11t32.5 -14q57 -35 73 -38q11 8 25.5 18.5t33.5 24.5q21 13 73 20q23 4 58.5 5.5t84.5 1.5q126 0 203 -57t77 -183q1 -1 1 -10
q0 -65 -33 -117q-40 -65 -195 -70q-94 4 -137 52q-48 51 -48 83q0 35 28 57q29 26 104 26q66 0 105 -21q42 -20 80 -23q4 9 7 20t7 24q-74 53 -139 72q-59 12 -157 10q-119 0 -157 -35q-35 -35 -35 -86q3 -44 3 -86q4 -36 -18 -61q-24 -24 -99 -32q-61 4 -127 45
q-72 43 -77 90q5 22 25 39q22 10 63 18q40 7 85.5 13t96.5 13q-108 82 -270 77q-141 -3 -184 -37q-23 -14 -35 -26q-23 -14 -48 -14q-22 5 -66 37q-23 15 -65 27q-23 4 -51.5 6t-62.5 2q-94 0 -128 -37q-32 -38 -32 -84q3 -45 7 -52q48 62 80 83q28 18 105 18q103 0 132 -39
q22 -34 18 -62q-11 -68 -57 -90q-56 -27 -153 -27q-150 12 -195 83q-43 67 -43 157q10 87 102 143q87 54 193 54zM-872 -1170q93 0 168 -21q35 -12 69.5 -25.5t68.5 -29.5t69.5 -31t72.5 -29q73 -32 162 -45q-51 77 -54 95q0 3 1.5 10t3.5 18q60 68 108 65q51 0 79 -28
q26 -26 26 -37q0 -113 -86 -157q-84 -48 -195 -48q-42 2 -81 10t-78 22q-75 25 -160 63q-42 19 -81.5 35t-81.5 30q-80 27 -170 27h-82q-110 3 -200 -22q109 67 214 85q54 8 110 11t117 2z" />
    <glyph glyph-name="odblacute" horiz-adv-x="2996" 
d="M524 1409q75 -32 152 -67.5t158 -73.5q102 64 255 141q63 -38 119.5 -73.5t110.5 -67.5q67 -41 96 -76q20 20 57.5 44.5t91.5 53.5q51 31 110 62t129 63q164 -56 283 -136q108 -74 120 -123q40 36 129 105q46 36 98.5 75t113.5 82q66 -38 131 -74.5t132 -71.5
q31 -17 57 -31.5t46 -27.5q39 -35 39 -55v-990q-3 -77 -69 -123q-61 -45 -98 -48q-7 52 -56 87q-25 20 -52.5 39t-59.5 38q-28 22 -53.5 45.5t-49.5 48.5q-50 56 -50 136q0 55 66 87q29 17 62.5 33t70.5 30q82 28 140 76q58 45 58 118q0 76 -48 150q-46 64 -119 119
q-131 91 -213 108q-82 16 -143 6q-58 -10 -130 -58v-910q-4 -76 -70 -125q-66 -42 -101 -46q-8 50 -56 87q-24 18 -51 38t-58 42q-29 22 -54.5 46.5t-48.5 51.5q-52 55 -52 136q0 56 70 87q57 34 139 63q80 29 143 77q58 44 62 116q-4 129 -143 271q-66 69 -153 112
q-87 45 -186 45q-132 3 -215 -28v-945q-4 -80 -63 -130q-61 -58 -105 -62q-15 0 -23 11q-22 60 -70 108q-46 45 -98 89q-26 22 -48 45t-39 46q-45 46 -45 102q0 59 66 91q29 17 62 31.5t70 27.5q42 13 76 30.5t63 39.5q59 39 59 121q0 84 -37 148q-38 59 -99 103
q-130 88 -267 88q-49 -4 -98 -41q-28 -20 -48 -38.5t-33 -34.5q-115 100 -205 103q-26 0 -46 -7q-31 -10 -57.5 -20t-49.5 -21q-25 -13 -44.5 -30.5t-35.5 -39.5q-59 -83 -59 -265q0 -304 226 -300q76 0 114 36q33 33 47 114q-42 -45 -84 -56q-42 -14 -70 -14
q-182 5 -182 205q4 97 77 141q68 41 139 41q109 -7 157 -112q48 -107 48 -227q0 -155 -55 -319q-59 -178 -212 -185q-91 3 -154 69q-66 66 -101 171q-35 106 -52.5 228t-17.5 270q4 450 384 674zM1869 -173q104 3 202 -40q106 -45 122 -160q-12 -383 -465 -390
q-24 0 -49.5 1.5t-51.5 5.5q-179 27 -322 134q-73 54 -134.5 110.5t-115.5 119.5q-104 110 -251 134q64 45 196 45q115 0 231 -42q53 -20 104 -62q27 -22 52.5 -44t50.5 -44q51 -45 118 -77q69 -35 136 -41q46 0 100.5 6.5t120.5 19.5q125 30 133 143q-57 0 -82 -16
q-26 -12 -42 -40q-8 -10 -17 -20t-19 -21q-19 -19 -63 -31q-229 7 -229 138q0 77 86 124q80 47 189 47zM2871 505q-14 -8 -27 -15.5t-25 -14.5q-28 -15 -28 -47q0 -31 28 -41q24 -14 52 -18v136zM1309 442q25 -21 30 -21q4 8 4 64t3 59q4 0 -37 -11q-36 -14 -36 -44
q0 -29 36 -47zM2103 432q31 -27 35 -27q11 4 7 59q0 48 4 52q-14 0 -88 -41q4 -25 42 -43z" />
    <glyph glyph-name="Racute" horiz-adv-x="2993" 
d="M521 1409q75 -32 152 -67.5t158 -73.5q102 64 255 141q63 -38 119.5 -73.5t110.5 -67.5q66 -40 96 -76q41 40 149 98q51 31 110 62t129 63q163 -55 283 -136q108 -74 120 -123q40 36 129 105q46 36 98.5 75t113.5 82q66 -38 131 -74.5t132 -71.5q31 -17 57 -31.5
t46 -27.5q39 -35 39 -55v-990q-3 -77 -69 -123q-62 -45 -98 -48q-8 53 -56 87q-25 20 -52.5 39t-59.5 38q-28 22 -53.5 45.5t-49.5 48.5q-50 56 -50 136q0 55 66 87q29 17 62.5 33t70.5 30q82 28 140 76q58 45 58 118q0 76 -48 150q-46 64 -119 119q-131 91 -213 108
q-82 16 -143 6q-59 -11 -130 -58v-910q-4 -76 -70 -125q-65 -41 -101 -46q-7 49 -56 87q-24 18 -51 38t-58 42q-29 22 -54.5 46.5t-48.5 51.5q-52 55 -52 136q0 56 70 87q59 35 139 63q79 28 143 77q57 43 62 116q-5 130 -143 271q-65 68 -153 112q-87 45 -186 45
q-131 3 -215 -28v-945q-5 -81 -63 -130q-60 -57 -105 -62q-15 0 -23 11q-23 61 -70 108q-23 23 -47.5 45t-50.5 44t-48 45t-39 46q-45 46 -45 102q0 59 66 91q29 17 62 31.5t70 27.5q42 13 76 30.5t63 39.5q59 39 59 121q0 84 -37 148q-39 60 -99 103q-130 88 -267 88
q-50 -5 -98 -41q-28 -20 -48 -38.5t-33 -34.5q-115 100 -205 103q-25 0 -46 -7q-31 -10 -57.5 -20t-49.5 -21q-49 -26 -80 -70q-59 -83 -59 -265q0 -304 226 -300q76 0 114 36q34 34 47 114q-43 -46 -84 -56q-40 -14 -70 -14q-182 5 -182 205q5 98 77 141q68 41 139 41
q109 -7 157 -112q48 -107 48 -227q0 -154 -55 -319q-58 -177 -212 -185q-91 3 -154 69q-67 67 -101 171q-35 106 -52.5 228t-17.5 270q5 451 384 674zM2868 505q-14 -8 -27 -15.5t-25 -14.5q-28 -15 -28 -47q0 -31 28 -41q24 -14 52 -18v136zM1306 442q25 -21 30 -21
q4 9 4 64q0 56 3 59q2 0 -37 -11q-36 -14 -36 -44q0 -29 36 -47zM2100 432q31 -27 35 -27q12 4 7 59q0 48 4 52q-14 0 -88 -41q4 -25 42 -43z" />
    <glyph glyph-name="racute" horiz-adv-x="2993" 
d="M521 1409q75 -32 152 -67.5t158 -73.5q102 64 255 141q63 -38 119.5 -73.5t110.5 -67.5q67 -41 96 -76q20 20 57.5 44.5t91.5 53.5q51 31 110 62t129 63q164 -56 283 -136q108 -74 120 -123q40 36 129 105q46 36 98.5 75t113.5 82q66 -38 131 -74.5t132 -71.5
q12 -7 23.5 -13.5t22.5 -12.5q19 40 27 99q0 27 -6 65q-7 39 -40 65q-19 8 -42 15.5t-49 15.5q-20 10 -39.5 22t-37.5 27q-35 27 -35 68q0 37 18 90q40 96 134 96q97 -4 172 -76q77 -92 77 -225q0 -121 -52 -231q-13 -26 -25 -47t-25 -37q19 -19 19 -35v-990
q-3 -77 -69 -123q-61 -45 -98 -48q-7 52 -56 87q-25 20 -52.5 39t-59.5 38q-28 22 -53.5 45.5t-49.5 48.5q-50 56 -50 136q0 55 66 87q29 17 62.5 33t70.5 30q82 28 140 76q58 45 58 118q0 76 -48 150q-46 64 -119 119q-131 91 -213 108q-82 16 -143 6q-58 -10 -130 -58
v-910q-4 -76 -70 -125q-66 -42 -101 -46q-8 50 -56 87q-24 18 -51 38t-58 42q-29 22 -54.5 46.5t-48.5 51.5q-52 55 -52 136q0 56 70 87q57 34 139 63q80 29 143 77q58 44 62 116q-4 129 -143 271q-66 69 -153 112q-87 45 -186 45q-132 3 -215 -28v-945q-4 -80 -63 -130
q-61 -58 -105 -62q-15 0 -23 11q-22 60 -70 108q-46 45 -98 89q-26 22 -48 45t-39 46q-45 46 -45 102q0 59 66 91q29 17 62 31.5t70 27.5q42 13 76 30.5t63 39.5q59 39 59 121q0 84 -37 148q-38 59 -99 103q-130 88 -267 88q-49 -4 -98 -41q-28 -20 -48 -38.5t-33 -34.5
q-115 100 -205 103q-26 0 -46 -7q-31 -10 -57.5 -20t-49.5 -21q-25 -13 -44.5 -30.5t-35.5 -39.5q-59 -83 -59 -265q0 -304 226 -300q76 0 114 36q33 33 47 114q-42 -45 -84 -56q-42 -14 -70 -14q-182 5 -182 205q4 97 77 141q68 41 139 41q109 -7 157 -112q48 -107 48 -227
q0 -155 -55 -319q-59 -178 -212 -185q-91 3 -154 69q-66 66 -101 171q-70 209 -70 498q4 450 384 674zM1866 -173q104 3 202 -40q106 -45 122 -160q-12 -383 -465 -390q-24 0 -49.5 1.5t-51.5 5.5q-179 27 -322 134q-73 54 -134.5 110.5t-115.5 119.5q-104 110 -251 134
q64 45 196 45q115 0 231 -42q53 -20 104 -62q27 -22 52.5 -44t50.5 -44q51 -45 118 -77q69 -35 136 -41q46 0 100.5 6.5t120.5 19.5q125 30 133 143q-57 0 -82 -16q-26 -12 -42 -40q-8 -10 -17 -20t-19 -21q-19 -19 -63 -31q-229 7 -229 138q0 77 86 124q80 47 189 47z
M2868 505q-14 -8 -27 -15.5t-25 -14.5q-28 -15 -28 -47q0 -31 28 -41q24 -14 52 -18v136zM1306 442q25 -21 30 -21q4 8 4 64t3 59q4 0 -37 -11q-36 -14 -36 -44q0 -29 36 -47zM2100 432q31 -27 35 -27q11 4 7 59q0 48 4 52q-14 0 -88 -41q4 -25 42 -43z" />
    <glyph glyph-name="Rcaron" horiz-adv-x="2969" 
d="M521 1409q75 -32 152 -67.5t158 -73.5q102 64 255 141q63 -38 119.5 -73.5t110.5 -67.5q66 -40 96 -76q41 40 149 98q51 31 110 62t129 63q163 -55 283 -136q108 -74 120 -123q40 36 129 105q46 36 98.5 75t113.5 82q66 -38 131 -74.5t132 -71.5q12 -7 23.5 -13.5
t22.5 -12.5q19 40 27 99q0 27 -6 65q-8 39 -40 65q-19 8 -42 15.5t-49 15.5q-20 10 -39.5 22t-37.5 27q-35 27 -35 68q0 37 18 90q40 96 134 96q98 -5 172 -76q77 -92 77 -225q0 -120 -52 -231q-13 -26 -25 -47t-25 -37q19 -19 19 -35v-990q-3 -77 -69 -123q-62 -45 -98 -48
q-8 53 -56 87q-25 20 -52.5 39t-59.5 38q-28 22 -53.5 45.5t-49.5 48.5q-50 56 -50 136q0 55 66 87q29 17 62.5 33t70.5 30q82 28 140 76q58 45 58 118q0 76 -48 150q-46 64 -119 119q-131 91 -213 108q-82 16 -143 6q-59 -11 -130 -58v-910q-4 -76 -70 -125
q-65 -41 -101 -46q-7 49 -56 87q-24 18 -51 38t-58 42q-29 22 -54.5 46.5t-48.5 51.5q-52 55 -52 136q0 56 70 87q59 35 139 63q79 28 143 77q57 43 62 116q-5 130 -143 271q-65 68 -153 112q-87 45 -186 45q-131 3 -215 -28v-945q-5 -81 -63 -130q-60 -57 -105 -62
q-15 0 -23 11q-23 61 -70 108q-23 23 -47.5 45t-50.5 44t-48 45t-39 46q-45 46 -45 102q0 59 66 91q29 17 62 31.5t70 27.5q42 13 76 30.5t63 39.5q59 39 59 121q0 84 -37 148q-39 60 -99 103q-130 88 -267 88q-50 -5 -98 -41q-28 -20 -48 -38.5t-33 -34.5
q-115 100 -205 103q-25 0 -46 -7q-31 -10 -57.5 -20t-49.5 -21q-49 -26 -80 -70q-59 -83 -59 -265q0 -304 226 -300q76 0 114 36q34 34 47 114q-43 -46 -84 -56q-40 -14 -70 -14q-182 5 -182 205q5 98 77 141q68 41 139 41q109 -7 157 -112q48 -107 48 -227q0 -154 -55 -319
q-58 -177 -212 -185q-91 3 -154 69q-67 67 -101 171q-35 106 -52.5 228t-17.5 270q5 451 384 674zM2868 505q-14 -8 -27 -15.5t-25 -14.5q-28 -15 -28 -47q0 -31 28 -41q24 -14 52 -18v136zM1306 442q25 -21 30 -21q4 9 4 64q0 56 3 59q2 0 -37 -11q-36 -14 -36 -44
q0 -29 36 -47zM2100 432q31 -27 35 -27q12 4 7 59q0 48 4 52q-14 0 -88 -41q4 -25 42 -43z" />
    <glyph glyph-name="rcaron" unicode="&#x178a;" horiz-adv-x="1405" 
d="M1172 1698q22 0 48 -10q14 -5 30.5 -16t35.5 -27q81 -59 109 -205q0 -116 -50 -205q-56 -89 -135 -150q-176 -123 -307 -123q-52 0 -107 28q-27 13 -56 26.5t-60 28.5q-56 36 -111 57q-57 24 -109 24q-105 0 -139 -34q-21 -18 -36 -39q-7 -14 -16.5 -28.5t-20.5 -30.5
q61 16 110.5 23t91.5 5q139 -3 219 -87q80 -89 80 -212q-14 -125 -98 -197q-19 -19 -38 -35.5t-39 -30.5q-22 -16 -37 -28.5t-25 -22.5q-4 -22 161 -54q28 0 55 21q21 18 43 40q22 28 43 52.5t41 47.5q51 -52 98 -95q48 -52 114 -52q117 0 182 95q34 48 66 102q30 55 66 117
q21 -62 21 -139q0 -63 -14 -119q-5 -26 -13 -55.5t-19 -62.5q-25 -71 -66 -143q-19 -33 -42 -61t-49 -51q-55 -52 -132 -52q-89 4 -150 62q-33 28 -60 50t-49 38q-64 -52 -107 -84t-66 -45q-44 -24 -116 -24q-53 3 -103 35q-50 30 -95 77q-87 107 -119 184q-24 55 -24 116
q0 41 16 66q237 14 395 142q-118 88 -220 88q-87 0 -183 -63v505q80 80 205 157q123 73 241 111q69 -35 133.5 -69t130.5 -67q126 -69 223 -69q61 0 98 46q18 27 18 52q-4 37 -56 37q-39 -3 -91 -3q-37 0 -91 17q-44 15 -84 63q-28 37 -25 94q0 73 54 132q53 57 150 61
q19 0 38.5 -3t41.5 -8z" />
    <glyph glyph-name="Sacute" 
d="M-690 -163q28 0 49.5 -1t37.5 -3q323 -40 548 -149v-223q1 -2 1 -11v-12q0 -101 -26 -167q-37 -66 -182 -69q-100 3 -154 73q-62 62 -62 102q0 43 39 84q41 44 111 44q20 0 80 -23q26 -13 49 -20t42 -9q39 7 39 40q0 10 -7 23q-112 4 -228 19t-243 43q-73 14 -135 21.5
t-116 7.5q-172 3 -256 -129q-8 -14 -8 -21q3 -25 37 -25q16 0 43 11q82 123 96 123q25 0 130 -32q97 -31 100 -182q-8 -94 -76 -125q-75 -32 -150 -32q-176 3 -220 101q-41 93 -41 185v12q8 117 59 183q52 70 129 102q157 60 301 60q11 0 13 -1z" />
    <glyph glyph-name="sacute" 
d="M-696 -783q28 0 49.5 -1t37.5 -3q162 -20 298.5 -57t249.5 -92v-223q1 -1 1 -11v-12q0 -100 -26 -167q-38 -66 -182 -69q-100 3 -154 73q-62 62 -62 102q0 43 39 84q41 44 111 44q19 0 80 -23q26 -13 49 -20t42 -9q39 7 39 40q0 10 -7 23q-112 4 -227.5 19t-243.5 43
q-73 14 -135 21.5t-116 7.5q-172 3 -256 -129q-8 -14 -8 -21q3 -25 37 -25q15 0 43 11q82 123 96 123q23 0 130 -32q97 -31 100 -182q-7 -93 -76 -125q-76 -32 -150 -32q-176 3 -220 101q-41 94 -41 185v12q7 116 59 183q52 70 129 102q157 60 301 60q12 0 13 -1z" />
    <glyph glyph-name="Tcedilla" horiz-adv-x="2111" 
d="M1449 1281q45 20 105.5 54t141.5 83q66 -38 131 -74.5t132 -71.5q31 -17 57 -31.5t46 -27.5q39 -35 39 -55v-990q-3 -77 -69 -123q-62 -45 -98 -48q-8 53 -56 87q-25 20 -52.5 39t-59.5 38q-28 22 -53.5 45.5t-49.5 48.5q-50 56 -50 136q0 55 66 87q29 17 62.5 33
t70.5 30q82 28 140 76q58 45 58 118q0 76 -48 150q-46 64 -119 119q-131 91 -213 108t-183 13t-234 -43l8 11l-6 -4t-5 -4q-176 -123 -307 -123q-52 0 -107 28q-27 13 -56 26.5t-60 28.5q-56 36 -111 57q-57 24 -109 24q-105 0 -139 -34q-21 -18 -36 -39q-7 -14 -16.5 -28.5
t-20.5 -30.5q61 16 110.5 23t91.5 5q139 -3 219 -87q80 -89 80 -212q-14 -125 -98 -197q-19 -19 -38 -35.5t-39 -30.5q-22 -16 -37 -28.5t-25 -22.5q-4 -22 161 -54q28 0 55 21q21 18 43 40q22 28 43 52.5t41 47.5q26 -26 50.5 -49.5t47.5 -45.5q48 -52 114 -52
q117 0 182 95q34 48 66 102q30 55 66 117q21 -62 21 -139q0 -65 -14 -119q-5 -26 -13 -55.5t-19 -62.5q-26 -73 -66 -143q-19 -33 -42 -61t-49 -51q-55 -52 -132 -52q-90 5 -150 62q-33 28 -60 50t-49 38q-64 -52 -107 -84t-66 -45q-44 -24 -116 -24q-53 3 -103 35
q-50 30 -95 77q-87 107 -119 184q-24 55 -24 116q0 41 16 66q236 13 395 142q-118 88 -220 88q-87 0 -183 -63v505q80 80 205 157q125 74 241 111q69 -35 133.5 -69t130.5 -67q126 -69 223 -69q61 0 98 46q18 27 18 52q-4 37 -56 37q-39 -3 -91 -3q-38 0 -91 17
q-44 15 -84 63q-28 37 -25 94q0 73 54 132q52 56 150 61q19 0 38.5 -3t41.5 -8q21 0 48 -10q14 -5 30.5 -16t35.5 -27q80 -58 109 -205q0 -116 -50 -205l-6 -10q23 14 50.5 28t59.5 28zM2020 505q-14 -8 -27 -15.5t-25 -14.5q-28 -15 -28 -47q0 -31 28 -41q24 -14 52 -18
v136z" />
    <glyph glyph-name="tcedilla" horiz-adv-x="2111" 
d="M1773 1623q0 37 18 90q40 96 134 96q97 -4 172 -76q77 -92 77 -225q0 -121 -52 -231q-13 -26 -24.5 -45.5t-21.5 -32.5q25 -25 25 -41v-990q-3 -77 -69 -123q-61 -45 -98 -48q-7 52 -56 87q-25 20 -52.5 39t-59.5 38q-28 22 -53.5 45.5t-49.5 48.5q-50 56 -50 136
q0 55 66 87q29 17 62.5 33t70.5 30q82 28 140 76q58 45 58 118q0 76 -48 150q-46 64 -119 119q-131 91 -213 108t-183 13t-234 -43l8 11l-6 -4t-5 -4q-176 -123 -307 -123q-52 0 -107 28q-27 13 -56 26.5t-60 28.5q-56 36 -111 57q-57 24 -109 24q-105 0 -139 -34
q-21 -18 -36 -39q-7 -14 -16.5 -28.5t-20.5 -30.5q61 16 110.5 23t91.5 5q139 -3 219 -87q80 -89 80 -212q-14 -125 -98 -197q-19 -19 -38 -35.5t-39 -30.5q-22 -16 -37 -28.5t-25 -22.5q-4 -22 161 -54q28 0 55 21q21 18 43 40q22 28 43 52.5t41 47.5q51 -52 98 -95
q48 -52 114 -52q117 0 182 95q34 48 66 102q30 55 66 117q21 -62 21 -139q0 -63 -14 -119q-5 -26 -13 -55.5t-19 -62.5q-25 -71 -66 -143q-19 -33 -42 -61t-49 -51q-55 -52 -132 -52q-89 4 -150 62q-33 28 -60 50t-49 38q-64 -52 -107 -84t-66 -45q-44 -24 -116 -24
q-53 3 -103 35q-50 30 -95 77q-87 107 -119 184q-24 55 -24 116q0 41 16 66q237 14 395 142q-118 88 -220 88q-87 0 -183 -63v505q80 80 205 157q123 73 241 111q69 -35 133.5 -69t130.5 -67q126 -69 223 -69q61 0 98 46q18 27 18 52q-4 37 -56 37q-39 -3 -91 -3
q-37 0 -91 17q-44 15 -84 63q-28 37 -25 94q0 73 54 132q53 57 150 61q19 0 38.5 -3t41.5 -8q22 0 48 -10q14 -5 30.5 -16t35.5 -27q81 -59 109 -205q0 -116 -50 -205l-6 -10q23 14 50.5 28t59.5 28q45 20 105.5 54t141.5 83q66 -38 131 -74.5t132 -71.5q10 -5 19.5 -11
t18.5 -11q8 20 14.5 43.5t10.5 51.5q0 27 -6 65q-7 39 -40 65q-19 8 -42 15.5t-49 15.5q-20 10 -39.5 22t-37.5 27q-35 27 -35 68zM2020 505q-14 -8 -27 -15.5t-25 -14.5q-28 -15 -28 -47q0 -31 28 -41q24 -14 52 -18v136z" />
    <glyph glyph-name="Tcaron" unicode="&#x178b;" horiz-adv-x="1491" 
d="M851 366q167 -5 299 39q133 41 161 180q-5 77 -91 102q-89 21 -179 21q-80 0 -198 -39v482q32 31 63 64t62 68q29 33 65.5 68.5t81.5 73.5q42 -17 105 -51q66 -41 150 -59q7 14 7 41q-8 135 -143 171q-50 -3 -62 -32q-4 -13 -22 -23q-14 -14 -52 -14q-28 0 -57 7
q-2 0 -58 44q-63 39 -66 127q0 28 7 52q13 68 66 121q47 45 160 50q112 0 179 -46q66 -49 100 -122q49 -138 49 -237v-14q-3 -138 -53 -261q-58 -118 -205 -123q-14 11 -65.5 25.5t-139.5 33.5q-56 0 -73 -41q-10 -20 -17 -43t-12 -48q23 17 48.5 30.5t53.5 21.5
q26 4 50.5 5.5t49.5 1.5q202 -30 276 -143q70 -118 70 -271v-59q0 -16 -1.5 -32t-5.5 -32q-28 -196 -206 -348q-178 -157 -426 -160q-224 0 -417 121q-95 60 -150 160q-65 98 -65 238q171 21 304 101q126 81 153 245q-5 103 -66 183q-66 74 -180 77q-62 0 -116 -23
q-52 -25 -70 -70q11 -17 56 -14q42 19 67.5 30t33.5 15q113 0 154 -59q36 -59 36 -154q0 -94 -58 -139q-58 -46 -132 -46q-46 -3 -81 13t-60 44t-41.5 65.5t-26 78t-13.5 80.5t-4 73q2 199 80 294t237 99q184 -3 264 -119q81 -122 81 -282q0 -22 -1 -41.5t-3 -38.5
q-12 -133 -55 -220q-45 -95 -184 -189q77 -98 166 -128q91 -29 120 -25z" />
    <glyph glyph-name="tcaron" 
d="M-775 -754q-47 -26 -123 -30h-3q-79 0 -132 41q-48 37 -81 87q-25 58 -37 92.5t-13 47.5q0 72 40 177q11 26 21 48t20 39q20 31 43 32q-17 -15 526 -20l399 20q50 17 75 38q24 19 48 21q1 1 3 1q26 0 57 -16q1 -2 1 -15v-14q0 -57 -13 -82q-19 -37 -50 -46
q-68 -12 -85 -24q-10 -23 -10 -92q-4 -32 -12 -64.5t-19 -65.5q-18 -65 -63 -116q-51 -51 -142 -59q-103 -5 -164 29q-71 29 -146 98q-48 -51 -82.5 -82t-57.5 -45zM-946 -479q8 -70 33 -86q138 11 178 65q39 54 46 122l-201 -11q-33 -2 -45 -27q-13 -22 -11 -63zM-477 -367
q13 -54 68 -106q50 -56 108 -56q29 12 63 58q31 36 26 118z" />
    <glyph glyph-name="Uring" 
d="M-775 -1364q-47 -26 -123 -30h-3q-79 0 -132 41q-48 37 -81 87q-25 58 -37 92.5t-13 47.5q0 72 40 177q11 26 21 48t20 39q20 31 43 32q-17 -15 526 -20l399 20q50 17 75 38q24 19 48 21q1 1 3 1q26 0 57 -16q1 -2 1 -15v-14q0 -57 -13 -82q-19 -37 -50 -46
q-68 -12 -85 -24q-10 -23 -10 -92q-4 -32 -12 -64.5t-19 -65.5q-18 -65 -63 -116q-51 -51 -142 -59q-103 -5 -164 29q-71 29 -146 98q-48 -51 -82.5 -82t-57.5 -45zM-946 -1089q8 -70 33 -86q138 11 178 65q39 54 46 122l-201 -11q-33 -2 -45 -27q-13 -22 -11 -63z
M-477 -977q13 -54 68 -106q50 -56 108 -56q29 12 63 58q31 36 26 118z" />
    <glyph glyph-name="uring" horiz-adv-x="2232" 
d="M1561 1281q45 20 105.5 54t141.5 83q66 -38 131 -74.5t132 -71.5q31 -17 57 -31.5t46 -27.5q39 -35 39 -55v-990q-3 -77 -69 -123q-61 -45 -98 -48q-7 52 -56 87q-25 20 -52.5 39t-59.5 38q-28 22 -53.5 45.5t-49.5 48.5q-50 56 -50 136q0 55 66 87q29 17 62.5 33
t70.5 30q82 28 140 76q58 45 58 118q0 76 -48 150q-46 64 -119 119q-131 91 -213 108q-42 8 -87 11.5t-96 1.5q-92 -5 -207 -36q-53 -32 -126 -33q-14 11 -65.5 25.5t-139.5 33.5q-56 0 -73 -41q-10 -20 -17 -43t-12 -48q23 17 48.5 30.5t53.5 21.5q26 4 50.5 5.5t49.5 1.5
q202 -30 276 -143q70 -118 70 -271v-59q0 -16 -1.5 -32t-5.5 -32q-29 -197 -206 -348q-178 -157 -426 -160q-224 0 -417 121q-95 60 -150 160q-65 98 -65 238q169 21 304 101q126 81 153 245q-5 103 -66 183q-66 74 -180 77q-61 0 -116 -23q-52 -25 -70 -70q11 -17 56 -14
q42 19 67.5 30t33.5 15q113 0 154 -59q36 -59 36 -154q0 -94 -58 -139q-58 -46 -132 -46q-46 -3 -81 13t-60 44t-41.5 65.5t-26 78t-13.5 80.5t-4 73q2 199 80 294t237 99q184 -3 264 -119q81 -122 81 -282q0 -22 -1 -41.5t-3 -38.5q-12 -134 -55 -220q-45 -95 -184 -189
q77 -98 166 -128q94 -29 120 -25q167 -5 299 39q132 40 161 180q-4 76 -91 102q-89 21 -179 21q-80 0 -198 -39v482q32 31 63 64t62 68q29 33 65.5 68.5t81.5 73.5q42 -17 105 -51q67 -41 150 -59q7 13 7 41q-7 135 -143 171q-50 -3 -62 -32q-4 -13 -22 -23q-14 -14 -52 -14
q-30 0 -57 7q-2 0 -58 44q-63 39 -66 127q0 30 7 52q14 69 66 121q47 45 160 50q112 0 179 -46q66 -49 100 -122q49 -137 49 -237q-2 -70 -11 -125t-26 -106q23 14 51.5 29t62.5 29zM2132 505q-14 -8 -27 -15.5t-25 -14.5q-28 -15 -28 -47q0 -31 28 -41q24 -14 52 -18v136z
" />
    <glyph glyph-name="Udblacute" horiz-adv-x="2226" 
d="M1879 1623q0 37 18 90q40 96 134 96q97 -4 172 -76q77 -92 77 -225q0 -121 -52 -231q-13 -26 -24.5 -45.5t-21.5 -32.5q25 -25 25 -41v-990q-3 -77 -69 -123q-61 -45 -98 -48q-7 52 -56 87q-25 20 -52.5 39t-59.5 38q-28 22 -53.5 45.5t-49.5 48.5q-50 56 -50 136
q0 55 66 87q29 17 62.5 33t70.5 30q82 28 140 76q58 45 58 118q0 76 -48 150q-46 64 -119 119q-131 91 -213 108q-42 8 -87 11.5t-96 1.5q-92 -5 -207 -36q-53 -32 -126 -33q-14 11 -65.5 25.5t-139.5 33.5q-56 0 -73 -41q-10 -20 -17 -43t-12 -48q23 17 48.5 30.5
t53.5 21.5q26 4 50.5 5.5t49.5 1.5q202 -30 276 -143q70 -118 70 -271v-59q0 -16 -1.5 -32t-5.5 -32q-29 -197 -206 -348q-178 -157 -426 -160q-224 0 -417 121q-95 60 -150 160q-65 98 -65 238q169 21 304 101q126 81 153 245q-5 103 -66 183q-66 74 -180 77
q-61 0 -116 -23q-52 -25 -70 -70q11 -17 56 -14q42 19 67.5 30t33.5 15q113 0 154 -59q36 -59 36 -154q0 -94 -58 -139q-58 -46 -132 -46q-50 -1 -85.5 16t-60 46t-39.5 67t-23.5 80t-12 84.5t-5.5 79.5q3 366 317 374q184 -3 264 -119q81 -122 81 -282q0 -22 -1 -41.5
t-3 -38.5q-12 -134 -55 -220q-45 -95 -184 -189q77 -98 166 -128q94 -29 120 -25q167 -5 299 39q132 40 161 180q-4 76 -91 102q-89 21 -179 21q-80 0 -198 -39v482q32 31 63 64t62 68q29 33 65.5 68.5t81.5 73.5q42 -17 105 -51q67 -41 150 -59q7 13 7 41q-7 135 -143 171
q-50 -3 -62 -32q-4 -13 -22 -23q-14 -14 -52 -14q-30 0 -57 7q-2 0 -58 44q-63 39 -66 127q0 30 7 52q14 69 66 121q47 45 160 50q112 0 179 -46q66 -49 100 -122q49 -137 49 -237q-2 -70 -11 -125t-26 -106q23 14 51.5 29t62.5 29q45 20 105.5 54t141.5 83
q66 -38 131 -74.5t132 -71.5q10 -5 19.5 -11t18.5 -11q8 20 14.5 43.5t10.5 51.5q0 27 -6 65q-7 39 -40 65q-19 8 -42 15.5t-49 15.5q-20 10 -39.5 22t-37.5 27q-35 27 -35 68zM2126 505q-14 -8 -27 -15.5t-25 -14.5q-28 -15 -28 -47q0 -31 28 -41q24 -14 52 -18v136z" />
    <glyph glyph-name="udblacute" unicode="&#x178c;" horiz-adv-x="1428" 
d="M885 1293q28 0 94 36q32 19 67.5 39t75.5 41q51 -26 99 -57.5t94 -68.5q87 -75 118 -150q14 -44 14 -80q-2 -48 -15.5 -95t-36.5 -93q-47 -95 -102 -150q-61 -37 -132 -71t-153 -66q-85 -33 -193 -67t-249 -69q66 -117 149 -153q96 -41 213 -41q75 14 117 59q40 46 40 52
v87q3 73 51 98q21 8 36 14t23 8q98 51 161 55q36 0 46 -25v-325q5 -159 -21 -239q-48 -87 -98 -119q-55 -37 -107 -37q-134 23 -138 58q32 38 43 80q2 20 3 39.5t1 37.5v84q-59 -98 -154 -134q-100 -41 -200 -41q-101 0 -239 59q-134 52 -255 237q-39 84 -39 164
q0 23 3 46.5t8 48.5q189 24 322.5 51t224.5 56q173 56 307 137q48 58 48 125q0 80 -51 146q-51 63 -125 77q-71 -3 -105 -52q-41 -50 -84 -53q-18 0 -52 18q-18 9 -37.5 18t-39.5 17q-85 49 -150 52q-124 -7 -124 -121q0 -52 41 -105q53 0 73 17q18 20 21 41q5 23 20 40
q10 19 46 19q184 -3 187 -198q-12 -63 -73 -109q-64 -55 -169 -55q-186 4 -234 129q-25 57 -36.5 110t-9.5 104q7 61 39 117q34 52 87 99q29 23 60 45.5t65 44.5q66 45 129 84q49 -20 96.5 -38.5t95.5 -37.5q83 -40 104 -40z" />
    <glyph glyph-name="Zacute" 
d="M-554 -157q26 0 94 -38q32 -16 50 -24.5t23 -10.5q7 2 26 10.5t51 24.5q58 34 125 34q37 -11 64 -37q14 -13 26 -27.5t22 -31.5v-234q-30 -17 -73.5 -32.5t-100.5 -28.5q-58 -17 -118 -33t-123 -33q32 -48 60 -58q33 -11 59 -11q91 11 98 21v48q0 18 20 29q9 5 17 9.5
t15 8.5q35 16 48 16q19 5 37.5 10.5t35.5 10.5q22 0 25 -10v-143q1 -22 0.5 -45t-2.5 -41.5t-5 -30.5t-7 -12h-178v84q-52 -43 -147 -59q-96 -21 -149 -21q-54 0 -140 59q-83 56 -98 171v18q88 11 163 23t141 25q126 21 192 63q25 28 25 62q0 66 -60 84q-34 0 -74 -45
q-42 -39 -69 -43q-7 2 -24.5 14.5t-45.5 35.5q-51 45 -84 45q-30 0 -58 -18q-34 -23 -38 -59q0 -15 13 -34q0 66 73 66q43 0 64 -28q23 -29 20 -59q0 -29 -31 -50q-32 -30 -80 -30q-84 3 -105 59q-22 50 -22 98q2 22 8.5 44.5t16.5 46.5q23 48 66 73q114 35 148 35q5 0 6 -1
z" />
    <glyph glyph-name="zacute" 
d="M-554 -777q26 0 94 -38q32 -16 50 -24.5t23 -10.5q7 2 26 10.5t51 24.5q58 34 125 34q35 -10 64 -37q28 -25 48 -59v-234q-30 -17 -73.5 -32.5t-100.5 -28.5q-58 -17 -118 -33t-123 -33q31 -47 60 -58q31 -11 59 -11q90 10 98 21v48q0 18 20 29q9 5 17 9.5t15 8.5
q36 16 48 16q38 10 73 21q22 0 25 -10v-143q1 -5 1 -9.5v-9.5v-19q0 -78 -15 -91h-178v84q-51 -42 -147 -59q-96 -21 -149 -21q-54 0 -140 59q-83 56 -98 171v18q87 11 162.5 23t141.5 25q126 21 192 63q25 28 25 62q0 66 -60 84q-34 0 -74 -45q-41 -38 -69 -43
q-7 2 -24.5 14.5t-45.5 35.5q-51 45 -84 45q-30 0 -58 -18q-33 -22 -38 -59q0 -15 13 -34q0 66 73 66q43 0 64 -28q23 -29 20 -59q0 -29 -31 -50q-32 -30 -80 -30q-84 3 -105 59q-22 51 -22 98q2 22 8.5 44.5t16.5 46.5q22 47 66 73q113 35 148 35q5 0 6 -1z" />
    <glyph glyph-name="Zdot" horiz-adv-x="2190" 
d="M1529 1281q45 20 105.5 54t141.5 83q66 -38 131 -74.5t132 -71.5q31 -17 57 -31.5t46 -27.5q39 -35 39 -55v-990q-3 -77 -69 -123q-61 -45 -98 -48q-7 52 -56 87q-25 20 -52.5 39t-59.5 38q-28 22 -53.5 45.5t-49.5 48.5q-50 56 -50 136q0 55 66 87q29 17 62.5 33
t70.5 30q82 28 140 76q58 45 58 118q0 76 -48 150q-46 64 -119 119q-131 91 -213 108q-42 8 -87 11.5t-96 1.5q-21 -1 -43.5 -3.5t-45.5 -6.5q9 -30 9 -62q-2 -48 -15.5 -95t-36.5 -93q-47 -95 -102 -150q-61 -37 -132 -71t-153 -66q-85 -33 -193 -67t-249 -69
q66 -117 149 -153q96 -41 213 -41q75 14 117 59q40 46 40 52v87q3 73 51 98q21 8 36 14t23 8q98 51 161 55q36 0 46 -25v-325q5 -159 -21 -239q-48 -87 -98 -119q-55 -37 -107 -37q-134 23 -138 58q32 38 43 80q2 20 3 39.5t1 37.5v84q-59 -98 -154 -134q-100 -41 -200 -41
q-101 0 -239 59q-134 52 -255 237q-39 84 -39 164q0 23 3 46.5t8 48.5q189 24 322.5 51t224.5 56q173 56 307 137q48 58 48 125q0 80 -51 146q-51 63 -125 77q-71 -3 -105 -52q-41 -50 -84 -53q-18 0 -52 18q-18 9 -37.5 18t-39.5 17q-85 49 -150 52q-124 -7 -124 -121
q0 -52 41 -105q53 0 73 17q18 20 21 41q5 23 20 40q10 19 46 19q184 -3 187 -198q-12 -63 -73 -109q-64 -55 -169 -55q-186 4 -234 129q-25 57 -36.5 110t-9.5 104q7 61 39 117q34 52 87 99q29 23 60 45.5t65 44.5q66 45 129 84q49 -20 96.5 -38.5t95.5 -37.5
q83 -40 104 -40q28 0 94 36q32 19 67.5 39t75.5 41q51 -26 99 -57.5t94 -68.5q39 -33 76 -78q24 19 58.5 38t79.5 38zM2100 505q-14 -8 -27 -15.5t-25 -14.5q-28 -15 -28 -47q0 -31 28 -41q24 -14 52 -18v136z" />
    <glyph glyph-name="zdot" horiz-adv-x="2190" 
d="M1853 1623q0 37 18 90q40 96 134 96q98 -5 172 -76q77 -92 77 -225q0 -120 -52 -231q-13 -26 -24.5 -45.5t-21.5 -32.5q25 -25 25 -41v-990q-3 -77 -69 -123q-62 -45 -98 -48q-8 53 -56 87q-25 20 -52.5 39t-59.5 38q-28 22 -53.5 45.5t-49.5 48.5q-50 56 -50 136
q0 55 66 87q29 17 62.5 33t70.5 30q82 28 140 76q58 45 58 118q0 76 -48 150q-46 64 -119 119q-131 91 -213 108q-42 8 -87 11.5t-96 1.5q-21 -1 -43.5 -3.5t-45.5 -6.5q9 -30 9 -62q-2 -48 -15.5 -95t-36.5 -93q-47 -95 -102 -150q-61 -37 -132 -71t-153 -66
q-85 -33 -193.5 -67t-248.5 -69q66 -117 149 -153q94 -41 213 -41q74 13 117 59q40 46 40 52v87q3 72 51 98q21 8 36 14t23 8q96 50 161 55q36 0 46 -25v-325q5 -159 -21 -239q-48 -87 -98 -119q-55 -37 -107 -37q-133 22 -138 58q33 39 43 80q2 20 3 39.5t1 37.5v84
q-59 -98 -154 -134q-99 -41 -200 -41q-103 0 -239 59q-134 52 -255 237q-39 84 -39 164q0 23 3 46.5t8 48.5q188 24 322 51t225 56q173 56 307 137q48 58 48 125q0 80 -51 146q-51 63 -125 77q-71 -3 -105 -52q-41 -50 -84 -53q-18 0 -52 18q-18 9 -37.5 18t-39.5 17
q-85 49 -150 52q-124 -7 -124 -121q0 -52 41 -105q53 0 73 17q18 19 21 41q5 23 20 40q10 19 46 19q184 -3 187 -198q-12 -63 -73 -109q-64 -55 -169 -55q-186 4 -234 129q-25 57 -36.5 110t-9.5 104q7 61 39 117q34 52 87 99q29 23 60 45.5t65 44.5q66 45 129 84
q49 -20 96.5 -38.5t95.5 -37.5q84 -40 104 -40q28 0 94 36q32 19 67.5 39t75.5 41q101 -52 193 -126q40 -35 76 -78q24 19 58.5 38t79.5 38q45 20 105.5 54t141.5 83q66 -38 131 -74.5t132 -71.5q10 -5 19.5 -11t18.5 -11q8 20 14.5 43.5t10.5 51.5q0 27 -6 65q-8 39 -40 65
q-19 8 -42 15.5t-49 15.5q-20 10 -39.5 22t-37.5 27q-35 27 -35 68zM2100 505q-14 -8 -27 -15.5t-25 -14.5q-28 -15 -28 -47q0 -31 28 -41q24 -14 52 -18v136z" />
    <glyph glyph-name="Gamma" unicode="&#x178d;" horiz-adv-x="2322" 
d="M1764 1242q105 74 172 167q41 -32 121 -67q79 -49 164 -49q52 0 98 25q-77 -276 -283 -280q-57 0 -88 22q-40 14 -93 14t-87 -36q-36 -34 -46 -80q26 16 57.5 27t68.5 16q38 4 58 5.5t22 1.5q341 -59 341 -467q-3 -33 -3 -74q-16 -217 -104 -335q-84 -122 -196 -132
q-167 0 -250 59q-84 53 -119 127q-29 75 -45 146q-13 69 -39 107q-22 28 -73 28v-278q-4 -68 -66 -127q-68 -62 -113 -65q-23 0 -23 21q-3 35 -43 69q-22 19 -48 39t-55 42q-28 22 -52.5 45t-45.5 49q-48 45 -48 89q3 113 99 175q45 32 90 59t96 47q70 37 87 80q15 40 15 69
q-9 17 -21.5 38t-28.5 46q-17 25 -38 49.5t-46 47.5q-100 100 -253 108q-33 0 -77 -32q-25 -17 -50.5 -37t-51.5 -43q-141 103 -292 98q-127 -3 -175 -107q-52 -105 -56 -226q-3 -165 49 -256q49 -94 205 -94q87 0 123 48q37 37 37 87q0 32 -12 58q-2 1 -16 5t-41 11
q-14 0 -41 -8q-66 -73 -70 -89q-77 7 -127 59q-55 48 -55 161q0 108 70 160q61 52 132 52q76 0 123 -41q48 -39 73 -105q25 -60 37 -139q2 -37 3 -70.5t1 -63.5q0 -165 -55 -320q-59 -171 -216 -178q-78 0 -146 59q-32 25 -59.5 60t-49.5 83q-52 109 -74 245.5t-10 275.5
q14 469 394 692q78 -35 159 -70.5t169 -72.5l144 80t111 63q91 -57 173.5 -106.5t160.5 -95.5v-530q11 -41 70 -41q21 -3 53 -14q31 -10 52 -36q11 -11 21 -26.5t20 -35.5q11 -23 22 -44.5t24 -43.5q53 -107 188 -110q226 3 262 191q0 60 -55 112t-186 59q-23 0 -53 -3
t-68 -8q-42 -5 -79 -14.5t-71 -22.5v508q1 1 32.5 23t95.5 65zM1297 460q-41 -21 -45 -55q13 -32 49 -43q31 -19 37 -19v135q-5 0 -41 -18z" />
    <glyph glyph-name="Theta" horiz-adv-x="774" 
d="M102 1151l128 87q114 81 175 168q41 -32 121 -68q81 -48 161 -48q55 0 98 25q-73 -277 -280 -280q-55 0 -89 21q-36 14 -95 14q-49 0 -84 -35q-32 -35 -48 -82q76 37 125 48q48 3 84 3q123 0 187 -46q61 -52 61 -184v-928q0 -74 82 -135q38 -35 78 -75.5t82 -88.5
q-75 -94 -136.5 -159t-112.5 -100q-100 -70 -230 -70q-118 5 -175 50q-58 40 -84 100q-32 -96 -80 -128q-52 -34 -128 -34q-99 3 -157 48q-62 46 -70 132q7 73 34 98q20 24 53 29q55 0 93 -15q16 -5 31.5 -8.5t29.5 -5.5q55 -3 73 48q-79 67 -119 81q-25 7 -59.5 9.5
t-80.5 0.5q-70 0 -101 -18q-38 -20 -59 -41q-7 -11 -14 -20.5t-15 -18.5q-17 -20 -44 -23q-2 1 -20 15.5t-50 43.5q-64 55 -171 55q-91 0 -121 -34q-33 -32 -33 -80q8 -67 15 -80q46 3 69 23q7 8 13.5 18t11.5 21t12 21t15 20q10 18 46 18q56 0 88 -21q30 -24 44 -56
q23 -69 18 -110q-3 -90 -80 -116q-72 -25 -125 -25q-99 0 -157 43q-54 43 -102 124q-14 54 -14 120q2 48 7.5 89t14.5 75q40 94 121 132t157 34q138 0 185 -41q25 -20 46 -43t38 -48q23 26 46 49.5t47 44.5q25 18 71 31q23 4 54 5.5t71 1.5q152 0 223 -38q68 -34 76 -98
v-187q15 -21 56 -39q37 -22 87 -25q113 3 193 77q38 34 73 70t66 74q-5 4 -39 48q-46 40 -59 105v773q-14 47 -59 70q-39 18 -128 18q-124 -7 -241 -66v537z" />
    <glyph glyph-name="Phi" horiz-adv-x="774" 
d="M102 1151l128 87q113 80 175 168q41 -32 121 -68q81 -48 161 -48q55 0 98 25q-73 -277 -280 -280q-55 0 -89 21q-37 14 -95 14q-49 0 -84 -35q-31 -34 -48 -82q77 38 125 48q48 3 84 3q123 0 187 -46q61 -52 61 -184v-1558q0 -74 82 -135q38 -35 78 -75.5t82 -88.5
q-75 -94 -136.5 -159t-112.5 -100q-100 -70 -230 -70q-117 4 -175 50q-59 41 -84 100q-32 -96 -80 -128q-52 -34 -128 -34q-98 3 -157 48q-63 47 -70 132q7 73 34 98q20 24 53 29q55 0 93 -15q16 -5 31.5 -8.5t29.5 -5.5q55 -3 73 48q-80 68 -119 81q-25 7 -59.5 9.5
t-80.5 0.5q-70 0 -101 -18q-38 -20 -59 -41q-13 -21 -29 -39q-17 -20 -44 -23q-2 1 -20 15.5t-50 43.5q-64 55 -171 55q-91 0 -121 -34q-33 -32 -33 -80q7 -66 15 -80q46 3 69 23q7 8 13.5 18t11.5 21t12 21t15 20q10 18 46 18q56 0 88 -21q30 -24 44 -56q23 -69 18 -110
q-3 -90 -80 -116q-71 -25 -125 -25q-99 0 -157 43q-55 44 -102 124q-14 56 -14 120q2 48 7.5 89t14.5 75q41 95 121 132q83 38 157 34q138 0 185 -41q25 -20 46 -43t38 -48q23 26 46 49.5t47 44.5q25 18 71 31q23 4 54 5.5t71 1.5q152 0 223 -38q69 -35 76 -98v-187
q15 -21 56 -39q37 -22 87 -25q113 3 193 77q38 34 73 70t66 74q-5 4 -39 48q-45 39 -59 105v1403q-14 47 -59 70q-39 18 -128 18q-124 -7 -241 -66v537z" />
    <glyph glyph-name="alpha" horiz-adv-x="2936" 
d="M1692 958q26 32 129 38q10 3 29.5 5t37.5 3.5t30.5 2.5t9.5 1q341 -59 341 -467q-3 -33 -3 -74q-17 -218 -104 -335q-84 -122 -196 -132q-167 0 -250 59q-84 53 -119 127q-28 73 -45 146q-14 70 -39 107q-22 28 -73 28v-278q-5 -69 -66 -127q-68 -62 -113 -65
q-23 0 -23 21q-3 35 -43 69q-22 19 -48 39t-55 42q-28 22 -52.5 45t-45.5 49q-48 45 -48 89q3 114 99 175q45 32 90 59t96 47q71 38 87 80q15 40 15 69q-9 17 -21.5 38t-28.5 46q-17 25 -38 49.5t-46 47.5q-101 101 -253 108q-33 0 -77 -32q-25 -17 -50.5 -37t-51.5 -43
q-143 103 -292 98q-127 -3 -175 -107q-51 -103 -56 -226q-3 -165 49 -256q49 -94 205 -94q87 0 123 48q37 37 37 87q0 32 -12 58q-2 1 -16 5t-41 11q-15 0 -41 -8q-66 -73 -70 -89q-78 8 -127 59q-55 48 -55 161q0 108 70 160q61 52 132 52q76 0 123 -41q47 -38 73 -105
q25 -61 37 -139q2 -37 3 -70.5t1 -63.5q0 -164 -55 -320q-58 -170 -216 -178q-78 0 -146 59q-32 25 -59.5 60t-49.5 83q-26 54 -44.5 116.5t-29 129t-13.5 136.5t3 139q13 468 394 692q78 -35 159 -70.5t169 -72.5l144 80t111 63q91 -57 173.5 -106.5t160.5 -95.5v-530
q11 -41 70 -41q23 -3 53 -14q31 -10 52 -36q21 -22 41 -62q11 -23 22 -44.5t24 -43.5q53 -107 188 -110q226 3 262 191q0 60 -55 112q-54 51 -186 59h-13.5t-13.5 -1q-5 -3 -58 -3q-58 0 -184 -55v12l-2 -1l2 8v500q4 4 133 55q66 32 130 65t128 68q129 72 248 73l-1 -2l3 2
q173 -33 252 -70q42 -18 84 -38t87 -42t82.5 -38t70.5 -27q66 -21 66 -42v-990q-3 -77 -69 -123q-62 -45 -98 -48q-8 53 -56 87q-25 20 -52.5 39t-59.5 38q-28 22 -53.5 45.5t-49.5 48.5q-50 56 -50 136q0 55 66 87q29 17 62.5 33t70.5 30q82 28 140 76q58 45 58 118
q0 76 -48 150q-46 64 -119 119q-75 34 -133 54.5t-101 27.5q-42 7 -75 11t-58 6q-44 5 -424 -21q-18 -4 -36.5 -5.5t-36 -5t-33 -11t-26.5 -22.5q-38 -35 -48 -80zM2840 505q-14 -8 -27 -15.5t-25 -14.5q-28 -15 -28 -47q0 -31 28 -41q24 -14 52 -18v136zM1338 478
q-5 0 -41 -18q-41 -21 -45 -55q14 -33 49 -43q31 -19 37 -19v135z" />
    <glyph glyph-name="delta" horiz-adv-x="1400" 
d="M102 1151l2 -3v6q4 4 133 55q66 32 130 65t128 68q128 71 248 73l-1 -2l3 2q174 -33 252 -70q42 -18 84 -38t87 -42t82.5 -38t70.5 -27q66 -21 66 -42v-990q-3 -77 -69 -123q-61 -45 -98 -48q-7 52 -56 87q-25 20 -52.5 39t-59.5 38q-28 22 -53.5 45.5t-49.5 48.5
q-50 56 -50 136q0 55 66 87q29 17 62.5 33t70.5 30q82 28 140 76q58 45 58 118q0 76 -48 150q-46 64 -119 119q-75 34 -133 54.5t-101 27.5q-42 7 -75 11t-58 6q-44 5 -424 -21q-18 -4 -36.5 -5.5t-36 -5t-33 -11t-26.5 -22.5q-6 -7 -14 -14.5t-13.5 -15t-6 -16t7.5 -17.5
q36 18 117 21q5 2 9 3l8 2q48 3 84 3q123 0 187 -46q61 -52 61 -184v-928q0 -74 82 -135q38 -35 78 -75.5t82 -88.5q-75 -94 -136.5 -159t-112.5 -100q-100 -70 -230 -70q-117 4 -175 50q-59 41 -84 100q-32 -96 -80 -128q-52 -34 -128 -34q-98 3 -157 48q-63 47 -70 132
q7 73 34 98q20 24 53 29q55 0 93 -15q16 -5 31.5 -8.5t29.5 -5.5q55 -3 73 48q-80 68 -119 81q-25 7 -59.5 9.5t-80.5 0.5q-70 0 -101 -18q-38 -20 -59 -41q-13 -21 -29 -39q-17 -20 -44 -23q-2 1 -20 15.5t-50 43.5q-64 55 -171 55q-91 0 -121 -34q-33 -32 -33 -80
q7 -66 15 -80q46 3 69 23q7 8 13.5 18t11.5 21t12 21t15 20q10 18 46 18q56 0 88 -21q30 -24 44 -56q23 -69 18 -110q-3 -90 -80 -116q-71 -25 -125 -25q-99 0 -157 43q-55 44 -102 124q-14 56 -14 120q2 48 7.5 89t14.5 75q41 95 121 132q83 38 157 34q138 0 185 -41
q25 -20 46 -43t38 -48q23 26 46 49.5t47 44.5q25 18 71 31q23 4 54 5.5t71 1.5q152 0 223 -38q69 -35 76 -98v-187q15 -21 56 -39q37 -22 87 -25q113 3 193 77q38 34 73 70t66 74q-5 4 -39 48q-45 39 -59 105v773q-14 47 -59 70q-39 18 -128 18q-124 -7 -241 -66v537z
M1306 505q-14 -8 -27 -15.5t-25 -14.5q-28 -15 -28 -47q0 -31 28 -41q24 -14 52 -18v136z" />
    <glyph glyph-name="epsilon" horiz-adv-x="1400" 
d="M102 1151l2 -3v6q4 4 133 55q66 32 130 65t128 68q129 72 248 73l-1 -2l3 2q173 -33 252 -70q42 -18 84 -38t87 -42t82.5 -38t70.5 -27q66 -21 66 -42v-990q-3 -77 -69 -123q-62 -45 -98 -48q-8 53 -56 87q-25 20 -52.5 39t-59.5 38q-28 22 -53.5 45.5t-49.5 48.5
q-50 56 -50 136q0 55 66 87q29 17 62.5 33t70.5 30q82 28 140 76q58 45 58 118q0 76 -48 150q-46 64 -119 119q-75 34 -133 54.5t-101 27.5q-42 7 -75 11t-58 6q-44 5 -424 -21q-14 -2 -25.5 -4t-19.5 -4q-56 0 -87 -36q-11 -10 -19.5 -21t-15.5 -23q7 -14 18.5 -13.5t28 5
t36.5 9.5t43 1q5 2 9 3l8 2q48 3 84 3q123 0 187 -46q61 -52 61 -184v-1558q0 -74 82 -135q38 -35 78 -75.5t82 -88.5q-75 -94 -136.5 -159t-112.5 -100q-100 -70 -230 -70q-118 5 -175 50q-58 40 -84 100q-32 -96 -80 -128q-52 -34 -128 -34q-99 3 -157 48q-62 46 -70 132
q7 73 34 98q20 24 53 29q55 0 93 -15q16 -5 31.5 -8.5t29.5 -5.5q55 -3 73 48q-79 67 -119 81q-25 7 -59.5 9.5t-80.5 0.5q-70 0 -101 -18q-38 -20 -59 -41q-7 -11 -14 -20.5t-15 -18.5q-17 -20 -44 -23q-2 1 -20 15.5t-50 43.5q-64 55 -171 55q-91 0 -121 -34
q-33 -32 -33 -80q8 -67 15 -80q46 3 69 23q7 8 13.5 18t11.5 21t12 21t15 20q10 18 46 18q56 0 88 -21q30 -24 44 -56q23 -69 18 -110q-3 -90 -80 -116q-72 -25 -125 -25q-99 0 -157 43q-54 43 -102 124q-14 54 -14 120q2 48 7.5 89t14.5 75q40 94 121 132t157 34
q138 0 185 -41q25 -20 46 -43t38 -48q23 26 46 49.5t47 44.5q25 18 71 31q23 4 54 5.5t71 1.5q152 0 223 -38q68 -34 76 -98v-187q15 -21 56 -39q37 -22 87 -25q113 3 193 77q38 34 73 70t66 74q-5 4 -39 48q-46 40 -59 105v1403q-14 47 -59 70q-39 18 -128 18
q-124 -7 -241 -66v537zM1306 505q-14 -8 -27 -15.5t-25 -14.5q-28 -15 -28 -47q0 -31 28 -41q24 -14 52 -18v136z" />
    <glyph glyph-name="sigma" horiz-adv-x="2936" 
d="M1692 958q26 32 129 38q10 3 29.5 5t37.5 3.5t30.5 2.5t9.5 1q341 -59 341 -467q-3 -33 -3 -74q-16 -217 -104 -335q-84 -122 -196 -132q-167 0 -250 59q-84 53 -119 127q-29 75 -45 146q-13 69 -39 107q-22 28 -73 28v-278q-4 -68 -66 -127q-68 -62 -113 -65
q-23 0 -23 21q-3 35 -43 69q-22 19 -48 39t-55 42q-28 22 -52.5 45t-45.5 49q-48 45 -48 89q3 113 99 175q45 32 90 59t96 47q70 37 87 80q15 40 15 69q-9 17 -21.5 38t-28.5 46q-17 25 -38 49.5t-46 47.5q-100 100 -253 108q-33 0 -77 -32q-25 -17 -50.5 -37t-51.5 -43
q-141 103 -292 98q-127 -3 -175 -107q-52 -105 -56 -226q-3 -165 49 -256q49 -94 205 -94q87 0 123 48q37 37 37 87q0 32 -12 58q-2 1 -16 5t-41 11q-14 0 -41 -8q-66 -73 -70 -89q-77 7 -127 59q-55 48 -55 161q0 108 70 160q61 52 132 52q76 0 123 -41q48 -39 73 -105
q25 -60 37 -139q2 -37 3 -70.5t1 -63.5q0 -165 -55 -320q-59 -171 -216 -178q-78 0 -146 59q-32 25 -59.5 60t-49.5 83q-52 109 -74 245.5t-10 275.5q14 469 394 692q78 -35 159 -70.5t169 -72.5l144 80t111 63q91 -57 173.5 -106.5t160.5 -95.5v-530q11 -41 70 -41
q21 -3 53 -14q31 -10 52 -36q11 -11 21 -26.5t20 -35.5q11 -23 22 -44.5t24 -43.5q53 -107 188 -110q226 3 262 191q0 60 -55 112t-186 59h-13.5t-13.5 -1q-5 -3 -58 -3q-59 0 -184 -55v12l-2 -1l2 8v500q4 4 133 55q66 32 130 65t128 68q128 71 248 73l-1 -2l3 2
q174 -33 252 -70q42 -18 84 -38t87 -42q81 -43 113 -35h2q25 45 35 115q0 27 -6 65q-7 39 -40 65q-19 8 -42 15.5t-49 15.5q-20 10 -39.5 22t-37.5 27q-35 27 -35 68q0 37 18 90q40 96 134 96q97 -4 172 -76q77 -92 77 -225q0 -121 -52 -231q-13 -26 -25 -47t-25 -37
q19 -19 19 -35v-990q-3 -77 -69 -123q-61 -45 -98 -48q-7 52 -56 87q-25 20 -52.5 39t-59.5 38q-28 22 -53.5 45.5t-49.5 48.5q-50 56 -50 136q0 55 66 87q29 17 62.5 33t70.5 30q82 28 140 76q58 45 58 118q0 76 -48 150q-46 64 -119 119q-75 34 -133 54.5t-101 27.5
q-42 7 -75 11t-58 6q-44 5 -424 -21q-14 -2 -25.5 -4t-19.5 -4q-56 0 -87 -36q-37 -34 -48 -80zM2840 505q-14 -8 -27 -15.5t-25 -14.5q-28 -15 -28 -47q0 -31 28 -41q24 -14 52 -18v136zM1338 478q-5 0 -41 -18q-41 -21 -45 -55q13 -32 49 -43q31 -19 37 -19v135z" />
    <glyph glyph-name="tau" horiz-adv-x="1400" 
d="M1069 1623q0 37 18 90q40 96 134 96q98 -5 172 -76q77 -92 77 -225q0 -120 -52 -231q-13 -26 -25 -47t-25 -37q19 -19 19 -35v-990q-3 -77 -69 -123q-62 -45 -98 -48q-8 53 -56 87q-25 20 -52.5 39t-59.5 38q-28 22 -53.5 45.5t-49.5 48.5q-50 56 -50 136q0 55 66 87
q29 17 62.5 33t70.5 30q82 28 140 76q58 45 58 118q0 76 -48 150q-46 64 -119 119q-75 34 -133 54.5t-101 27.5q-42 7 -75 11t-58 6q-44 5 -424 -21q-18 -4 -36.5 -5.5t-36 -5t-33 -11t-26.5 -22.5q-11 -10 -19.5 -21t-15.5 -23q6 -14 18 -13.5t28 5t36 9.5t43 1
q25 7 53.5 7.5t48.5 0.5q123 0 187 -46q61 -52 61 -184v-928q0 -74 82 -135q38 -35 78 -75.5t82 -88.5q-75 -94 -136.5 -159t-112.5 -100q-100 -70 -230 -70q-118 5 -175 50q-58 40 -84 100q-32 -96 -80 -128q-52 -34 -128 -34q-99 3 -157 48q-62 46 -70 132q7 73 34 98
q20 24 53 29q55 0 93 -15q16 -5 31.5 -8.5t29.5 -5.5q55 -3 73 48q-79 67 -119 81q-25 7 -59.5 9.5t-80.5 0.5q-70 0 -101 -18q-38 -20 -59 -41q-7 -11 -14 -20.5t-15 -18.5q-17 -20 -44 -23q-2 1 -20 15.5t-50 43.5q-64 55 -171 55q-91 0 -121 -34q-33 -32 -33 -80
q8 -67 15 -80q46 3 69 23q7 8 13.5 18t11.5 21t12 21t15 20q10 18 46 18q56 0 88 -21q30 -24 44 -56q23 -69 18 -110q-3 -90 -80 -116q-72 -25 -125 -25q-99 0 -157 43q-54 43 -102 124q-14 54 -14 120q2 48 7.5 89t14.5 75q40 94 121 132t157 34q138 0 185 -41
q25 -20 46 -43t38 -48q23 26 46 49.5t47 44.5q25 18 71 31q23 4 54 5.5t71 1.5q152 0 223 -38q68 -34 76 -98v-187q15 -21 56 -39q37 -22 87 -25q113 3 193 77q38 34 73 70t66 74q-5 4 -39 48q-46 40 -59 105v773q-14 47 -59 70q-39 18 -128 18q-124 -7 -241 -66v537l2 -3v6
q4 4 133 55q66 32 130 65t128 68q129 72 248 73l-1 -2l3 2q173 -33 252 -70q42 -18 84 -38t87 -42q83 -43 113 -35h2q24 43 35 115q0 27 -6 65q-8 39 -40 65q-19 8 -42 15.5t-49 15.5q-20 10 -39.5 22t-37.5 27q-35 27 -35 68zM1306 505q-14 -8 -27 -15.5t-25 -14.5
q-28 -15 -28 -47q0 -31 28 -41q24 -14 52 -18v136z" />
    <glyph glyph-name="phi" horiz-adv-x="1400" 
d="M1069 1623q0 37 18 90q40 96 134 96q97 -4 172 -76q77 -92 77 -225q0 -121 -52 -231q-13 -26 -25 -47t-25 -37q19 -19 19 -35v-990q-3 -77 -69 -123q-61 -45 -98 -48q-7 52 -56 87q-25 20 -52.5 39t-59.5 38q-28 22 -53.5 45.5t-49.5 48.5q-50 56 -50 136q0 55 66 87
q29 17 62.5 33t70.5 30q82 28 140 76q58 45 58 118q0 76 -48 150q-46 64 -119 119q-75 34 -133 54.5t-101 27.5q-42 7 -75 11t-58 6q-44 5 -424 -21q-18 -4 -36.5 -5.5t-36 -5t-33 -11t-26.5 -22.5q-11 -10 -19.5 -21t-15.5 -23q6 -14 18 -13.5t28 5t36 9.5t43 1q4 2 8.5 3
t9.5 2q48 3 84 3q123 0 187 -46q61 -52 61 -184v-1548q0 -74 82 -135q38 -35 78 -75.5t82 -88.5q-75 -94 -136.5 -159t-112.5 -100q-100 -70 -230 -70q-117 4 -175 50q-59 41 -84 100q-32 -96 -80 -128q-52 -34 -128 -34q-98 3 -157 48q-63 47 -70 132q7 73 34 98
q20 24 53 29q55 0 93 -15q16 -5 31.5 -8.5t29.5 -5.5q55 -3 73 48q-80 68 -119 81q-25 7 -59.5 9.5t-80.5 0.5q-70 0 -101 -18q-38 -20 -59 -41q-13 -21 -29 -39q-17 -20 -44 -23q-2 1 -20 15.5t-50 43.5q-64 55 -171 55q-91 0 -121 -34q-33 -32 -33 -80q7 -66 15 -80
q46 3 69 23q7 8 13.5 18t11.5 21t12 21t15 20q10 18 46 18q56 0 88 -21q30 -24 44 -56q23 -69 18 -110q-3 -90 -80 -116q-71 -25 -125 -25q-99 0 -157 43q-55 44 -102 124q-14 56 -14 120q2 48 7.5 89t14.5 75q41 95 121 132q83 38 157 34q138 0 185 -41q25 -20 46 -43
t38 -48q23 26 46 49.5t47 44.5q25 18 71 31q23 4 54 5.5t71 1.5q152 0 223 -38q69 -35 76 -98v-187q15 -21 56 -39q37 -22 87 -25q113 3 193 77q38 34 73 70t66 74q-5 4 -39 48q-45 39 -59 105v1393q-14 47 -59 70q-39 18 -128 18q-124 -7 -241 -66v537l2 -3q2 7 34.5 21
t98.5 40q66 32 130 65t128 68q128 71 248 73l-1 -2l3 2q174 -33 252 -70q42 -18 84 -38t87 -42q81 -43 113 -35h2q25 45 35 115q0 27 -6 65q-7 39 -40 65q-19 8 -42 15.5t-49 15.5q-20 10 -39.5 22t-37.5 27q-35 27 -35 68zM1306 505q-14 -8 -27 -15.5t-25 -14.5
q-28 -15 -28 -47q0 -31 28 -41q24 -14 52 -18v136z" />
    <glyph glyph-name="underscoredbl" unicode="&#x178e;" horiz-adv-x="2715" 
d="M808 1418q412 -139 524 -278q73 -85 73 -205q0 -100 -64 -182q-15 -5 -30.5 -11t-31.5 -11q-17 -8 -33.5 -18t-32.5 -23q-71 -44 -99 -167q29 -48 99 -88q61 -48 123 -48q54 0 128 59q35 28 67.5 51.5t61.5 43.5q184 -157 258 -154q46 0 107 34q54 31 57 105q0 4 -84 84
q-82 73 -233 80q-48 0 -96 -4.5t-97 -12.5v474q43 48 91 91q51 50 112 80q66 41 157 66q48 11 102.5 18.5t120.5 12.5q93 -6 198 -45q101 -48 197 -109q96 -62 158 -125q58 -61 58 -98v-888q-25 -67 -77 -105q-57 -45 -98 -45q-11 0 -15 -7q-17 52 -62 98q-26 26 -53 49.5
t-56 45.5q-56 51 -96 99q-43 43 -43 91q0 55 66 84q63 34 134 59q42 13 76 30.5t63 39.5q59 44 59 116q0 24 -38 80q-17 26 -45.5 54.5t-66.5 59.5q-72 61 -178 105q-111 40 -254 45h-91q-142 4 -212 -66q144 0 243 -41q85 -43 126 -112q66 -150 63 -304q0 -173 -95 -340
q-95 -179 -264 -182q-23 0 -66 25q-22 11 -45 25t-49 30q-55 33 -102 63t-87 58q-206 -198 -286 -201q-41 0 -91 41q-55 40 -107 101q-116 134 -119 282q0 88 35 150q37 61 81 105q51 48 99 81q23 16 42.5 30.5t34.5 27.5q-80 231 -449 248q-82 0 -150 -17q-68 -18 -102 -49
q-82 -62 -86 -76q70 18 129 18q139 -4 212 -70q73 -67 73 -161q0 -47 -37 -87q-20 -19 -44 -37t-51 -36q-35 -20 -68.5 -38t-66.5 -35q-66 -34 -77 -84q50 -47 73 -47q19 0 30 18q5 9 11 19t11 21q21 48 52 51q98 0 153 -28q50 -35 50 -136q0 -123 -77 -209
q-80 -87 -244 -90q-157 3 -223 121q-70 103 -73 221q0 62 18 100q20 33 55 50q20 11 47 24.5t60 27.5q32 17 70.5 37.5t86.5 45.5q0 26 -38 49q-35 21 -101 21q-78 0 -184 -55v515q341 216 623 264zM2618 523q-12 0 -62 -38q23 -84 62 -76v114z" />
    <glyph glyph-name="exclamdbl" 
d="M-1201 -247q138 -59 140 -175q0 -22 -29 -69q-26 -58 -29 -97q3 -25 37 -35q44 35 77 80q16 20 26.5 34t15.5 21l110 -150l70 54q-61 82 -63 139q2 146 127 205q66 30 152.5 43.5t173.5 9.5q117 0 195 -31q91 -36 132 -113v-348q-4 -52 -43 -80q-38 -32 -120 -32
q-25 0 -89 43q-14 11 -27 25t-25 30q-23 29 -25 73q2 50 34 91q29 38 60 38q16 0 27 -11q67 -70 101 -70q47 15 47 33q-81 82 -150 108q-37 10 -83 14t-103 2q-83 4 -147 -16q-54 -20 -124 -87q61 -87 64 -80q0 -55 -56 -123q-53 -74 -103 -77q-80 3 -108 57q-32 54 -58 59
q-18 -5 -38 -50q-6 -10 -38 -34q-29 -18 -87 -18q-61 4 -81 59q-12 23 -21.5 43t-16.5 37l81 98q-96 102 -159 125q-64 18 -140 15q-146 3 -213 -27q-66 -34 -74 -186q13 -7 28 -7q25 0 33 29q4 14 6.5 27t4.5 24q6 29 27 52q19 22 67 22q47 -8 78 -49q25 -46 25 -98
q-3 -35 -17 -73q-17 -33 -44 -55q-49 -43 -109 -43q-103 4 -150 53q-44 56 -54 118q-9 73 -12 129q3 85 41 150q91 154 351 154z" />
    <glyph glyph-name="nsuperior" 
d="M-1494 -808q151 0 293 -59q138 -59 140 -175q0 -22 -29 -69q-26 -58 -29 -97q3 -25 37 -35q44 35 77 80q16 20 26.5 34t15.5 21l110 -150l70 54q-61 82 -63 139q2 146 127 205q120 53 276 53h12q10 0 11 -1q2 1 14 1h13q117 0 195 -31q91 -36 132 -113v-348
q-4 -52 -43 -80q-38 -32 -120 -32q-25 0 -89 43q-14 11 -27 25t-25 30q-23 29 -25 73q2 50 34 91q29 38 60 38q16 0 27 -11q67 -70 101 -70q47 15 47 33q-81 82 -150 108q-37 10 -83 14t-103 2q-83 4 -147 -16q-54 -20 -124 -87q61 -87 64 -80q0 -55 -56 -123
q-53 -74 -103 -77q-80 3 -108 57q-32 54 -58 59q-18 -5 -38 -50q-6 -10 -38 -34q-29 -18 -87 -18q-61 4 -81 59q-12 23 -21.5 43t-16.5 37l81 98q-96 102 -159 125q-64 18 -140 15q-146 3 -213 -27q-66 -34 -74 -186q13 -7 28 -7q25 0 33 29q4 14 6.5 27t4.5 24q6 29 27 52
q19 22 67 22q47 -8 78 -49q25 -46 25 -98q-3 -35 -17 -73q-17 -33 -44 -55q-49 -43 -109 -43q-103 4 -150 53q-44 56 -54 118q-9 73 -12 129q3 85 41 150q91 154 351 154q11 0 12 -1z" />
    <glyph glyph-name="peseta" horiz-adv-x="3412" 
d="M2776 1261q46 36 98.5 75t113.5 82q66 -38 131 -74.5t132 -71.5q31 -17 57 -31.5t46 -27.5q39 -35 39 -55v-990q-3 -77 -69 -123q-62 -45 -98 -48q-8 53 -56 87q-25 20 -52.5 39t-59.5 38q-28 22 -53.5 45.5t-49.5 48.5q-50 56 -50 136q0 55 66 87q29 17 62.5 33t70.5 30
q82 28 140 76q58 45 58 118q0 76 -48 150q-46 64 -119 119q-131 91 -213 108q-82 16 -143 6q-23 -4 -46.5 -13.5t-49.5 -23.5q15 -26 15 -43v-888q-26 -68 -77 -105q-57 -45 -98 -45q-11 0 -15 -7q-16 50 -62 98q-26 26 -53 49.5t-56 45.5q-56 51 -96 99q-43 43 -43 91
q0 55 66 84q62 33 134 59q42 13 76 30.5t63 39.5q59 44 59 116q0 24 -38 80q-17 26 -45.5 54.5t-66.5 59.5q-74 62 -178 105q-111 40 -254 45q-70 1 -119.5 -2.5t-84.5 -12t-58 -21t-41 -30.5q146 0 243 -41q86 -44 126 -112q66 -150 63 -304q0 -173 -95 -340
q-95 -179 -264 -182q-23 0 -66 25q-22 11 -45 25t-49 30q-55 33 -102 63t-87 58q-205 -198 -286 -201q-41 0 -91 41q-55 40 -107 101q-116 134 -119 282q0 88 35 150q37 61 81 105q51 48 99 81q23 16 42.5 30.5t34.5 27.5q-80 231 -449 248q-84 0 -150 -17q-68 -18 -102 -49
q-81 -61 -86 -76q70 18 129 18q139 -4 212 -70q73 -67 73 -161q0 -47 -37 -87q-20 -19 -44 -37t-51 -36q-35 -20 -68.5 -38t-66.5 -35q-67 -35 -77 -84q50 -47 73 -47q19 0 30 18q5 9 11 19t11 21q21 48 52 51q98 0 153 -28q50 -35 50 -136q0 -123 -77 -209
q-79 -87 -244 -90q-157 3 -223 121q-70 103 -73 221q0 62 18 100q20 33 55 50q20 11 47 24.5t60 27.5q32 17 70.5 37.5t86.5 45.5q0 26 -38 49q-35 21 -101 21q-78 0 -184 -55v515q340 216 623 264q412 -139 524 -278q73 -85 73 -205q0 -100 -64 -182q-15 -5 -30.5 -11
t-31.5 -11q-17 -8 -33.5 -18t-32.5 -23q-70 -43 -99 -167q28 -47 99 -88q61 -48 123 -48q54 0 128 59q35 28 67.5 51.5t61.5 43.5q184 -157 258 -154q46 0 107 34q54 31 57 105q0 4 -84 84q-81 72 -233 80q-48 0 -96 -4.5t-97 -12.5v474q43 48 91 91q49 48 112 80
q66 41 157 66q48 11 102.5 18.5t120.5 12.5q93 -6 198 -45q51 -24 100 -51t97 -58q43 -28 79 -56t65 -56q36 26 73.5 54t76.5 58zM3312 505q-14 -8 -27 -15.5t-25 -14.5q-28 -15 -28 -47q0 -31 28 -41q24 -14 52 -18v136zM2617 523q-12 0 -62 -38q23 -83 62 -76v114z" />
    <glyph glyph-name="IJ" horiz-adv-x="3412" 
d="M3075 1623q0 37 18 90q40 96 134 96q97 -4 172 -76q77 -92 77 -225q0 -121 -52 -231q-13 -26 -25 -47t-25 -37q19 -19 19 -35v-990q-3 -77 -69 -123q-61 -45 -98 -48q-7 52 -56 87q-25 20 -52.5 39t-59.5 38q-28 22 -53.5 45.5t-49.5 48.5q-50 56 -50 136q0 55 66 87
q29 17 62.5 33t70.5 30q82 28 140 76q58 45 58 118q0 76 -48 150q-46 64 -119 119q-131 91 -213 108q-82 16 -143 6q-50 -8 -95 -39q14 -26 14 -41v-888q-25 -67 -77 -105q-57 -45 -98 -45q-11 0 -15 -7q-17 52 -62 98q-26 26 -53 49.5t-56 45.5q-56 51 -96 99
q-43 43 -43 91q0 55 66 84q63 34 134 59q42 13 76 30.5t63 39.5q59 44 59 116q0 24 -38 80q-17 26 -45.5 54.5t-66.5 59.5q-72 61 -178 105q-28 10 -59 18t-71.5 13.5t-92.5 9t-122 4.5q-142 4 -212 -66q144 0 243 -41q85 -43 126 -112q66 -150 63 -304q0 -173 -95 -340
q-95 -179 -264 -182q-23 0 -66 25q-22 11 -45 25t-49 30q-55 33 -102 63t-87 58q-206 -198 -286 -201q-41 0 -91 41q-55 40 -107 101q-116 134 -119 282q0 88 35 150q37 61 81 105q51 48 99 81q23 16 42.5 30.5t34.5 27.5q-80 231 -449 248q-82 0 -150 -17q-68 -18 -102 -49
q-82 -62 -86 -76q70 18 129 18q139 -4 212 -70q73 -67 73 -161q0 -47 -37 -87q-20 -19 -44 -37t-51 -36q-35 -20 -68.5 -38t-66.5 -35q-66 -34 -77 -84q50 -47 73 -47q19 0 30 18q5 9 11 19t11 21q21 48 52 51q98 0 153 -28q50 -35 50 -136q0 -123 -77 -209
q-80 -87 -244 -90q-157 3 -223 121q-70 103 -73 221q0 62 18 100q20 33 55 50q20 11 47 24.5t60 27.5q32 17 70.5 37.5t86.5 45.5q0 26 -38 49q-35 21 -101 21q-78 0 -184 -55v515q341 216 623 264q412 -139 524 -278q73 -85 73 -205q0 -100 -64 -182q-15 -5 -30.5 -11
t-31.5 -11q-17 -8 -33.5 -18t-32.5 -23q-71 -44 -99 -167q29 -48 99 -88q61 -48 123 -48q54 0 128 59q35 28 67.5 51.5t61.5 43.5q184 -157 258 -154q46 0 107 34q54 31 57 105q0 4 -84 84q-82 73 -233 80q-48 0 -96 -4.5t-97 -12.5v474q43 48 91 91q51 50 112 80
q66 41 157 66q48 11 102.5 18.5t120.5 12.5q93 -6 198 -45q101 -48 197 -109q43 -28 79 -56t65 -56q35 25 72.5 53t77.5 59q46 36 98.5 75t113.5 82q66 -38 131 -74.5t132 -71.5q12 -7 23.5 -13.5t22.5 -12.5q19 40 27 99q0 27 -6 65q-7 39 -40 65q-19 8 -42 15.5t-49 15.5
q-20 10 -39.5 22t-37.5 27q-35 27 -35 68zM3312 505q-14 -8 -27 -15.5t-25 -14.5q-28 -15 -28 -47q0 -31 28 -41q24 -14 52 -18v136zM2617 523q-12 0 -62 -38q23 -84 62 -76v114z" />
    <glyph glyph-name="ij" unicode="&#x178f;" horiz-adv-x="1512" 
d="M1467 139q0 -27 -21 -48q-21 -24 -59 -46q-74 -45 -123 -45q-34 0 -34 32q0 38 -32 70q-35 34 -84 66q-45 37 -93 84q-22 22 -40 48t-33 55q-7 13 -7 32q0 45 45 66q21 10 48 18q11 4 23.5 6.5t26.5 4.5q31 5 63 13.5t65 20.5q66 14 116 58q-69 20 -131.5 37t-119.5 31
q-59 16 -120 27q-33 4 -67 5.5t-69 1.5q-187 4 -314 -21q-124 -31 -187 -147q-10 -23 -16.5 -45t-8.5 -42q4 -166 109 -180q23 -5 40.5 -8t29.5 -3q23 0 41 22l9 18t8 15q-3 40 -32 40q-13 -2 -27 -3t-28 -1q-22 -3 -41 22q-21 25 -21 103q0 77 73 120q67 37 160 37
q106 -4 168 -77q62 -80 62 -191q0 -125 -73 -207q-78 -93 -208 -121q-25 -7 -58 -7q-78 0 -139 52q-66 45 -110 123q-91 163 -91 344q13 211 180 339q161 125 364 136q216 0 407 -36q191 -45 349 -194v-625zM383 885q-90 57 -202 64q0 57 -1 112.5t-3 110.5q31 30 81 63
q26 15 54 28.5t60 26.5q69 29 132 60.5t123 64.5q167 -100 293 -147q73 33 108 54q37 16 132 93q23 -17 52 -36t66 -41q64 -52 150 -55q47 0 116 32q0 -123 -84 -216q-84 -95 -219 -98q-16 7 -47 25q-17 10 -35 19t-38 18q-43 23 -78.5 36.5t-64.5 15.5q-19 0 -44 -13
q-32 -17 -66 -39q-70 -55 -123 -59q-42 20 -82.5 42.5t-78.5 45.5q-77 44 -194 48q-37 -2 -51 -7.5t-22 -13.5q53 0 91 -20q31 -21 51 -50q32 -66 29 -70q-94 -117 -105 -94zM1278 373q0 -54 59 -77v146q-52 -14 -59 -69z" />
    <glyph glyph-name="napostrophe" 
d="M-603 -167q162 -20 298.5 -57t249.5 -92v-131.5t0.5 -69t0.5 -27.5v-6q0 -61 -6.5 -104t-19.5 -75q-38 -66 -182 -69q-100 3 -154 73q-62 62 -62 102q0 43 39 84q41 44 111 44q19 0 80 -23q26 -13 49 -20t42 -9q27 4 35.5 23t-3.5 40q-112 4 -227.5 19t-243.5 43
q-73 14 -135 21.5t-116 7.5q-32 1 -77 -8t-86.5 -27.5t-71 -47t-29.5 -67.5q3 -25 37 -25q15 0 43 11q82 123 96 123q23 0 130 -32q97 -31 100 -182q-7 -93 -76 -125q-76 -32 -150 -32q-176 3 -220 101q-41 94 -41 185q4 67 18.5 114t40.5 81q52 70 129 102q157 60 301 60z
" />
    <glyph glyph-name="minute" 
d="M-625 -785q343 -42 564 -151v-223q1 -62 -5.5 -109t-19.5 -81q-38 -66 -182 -69q-100 3 -154 73q-62 62 -62 102q0 43 39 84q41 44 111 44q19 0 80 -23q26 -13 49 -20t42 -9q39 8 32 63q-112 4 -227.5 19t-243.5 43q-73 14 -135 21.5t-116 7.5q-172 3 -256 -129
q-4 -46 29 -46l43 11q82 123 103 123q16 0 123 -32q97 -31 100 -182q-7 -93 -76 -125q-76 -32 -150 -32q-176 3 -220 101q-41 97 -37 201q5 111 55 179q52 70 129 102q157 60 385 57z" />
    <glyph glyph-name="second" horiz-adv-x="2208" 
d="M1468 764q-158 149 -349 194q-191 36 -407 36q-202 -10 -364 -136q-167 -128 -180 -339q0 -181 91 -344q43 -77 110 -123q61 -52 139 -52q31 0 58 7q130 28 208 121q73 82 73 207q0 111 -62 191q-61 72 -168 77q-93 0 -160 -37q-73 -43 -73 -120q0 -78 21 -103
q19 -25 41 -22q14 0 28 1t27 3q29 0 32 -40q-4 -7 -8 -15l-9 -18q-18 -22 -41 -22q-24 0 -70 11q-104 13 -109 180q2 20 8.5 42t16.5 45q63 116 187 147q127 25 314 21q35 0 69 -1.5t67 -5.5q61 -11 120 -27q57 -14 119.5 -31t131.5 -37q-51 -45 -116 -58q-33 -12 -65 -20.5
t-63 -13.5q-14 -2 -26.5 -4.5t-23.5 -6.5q-27 -8 -48 -18q-45 -21 -45 -66q0 -18 7 -32q15 -29 33 -55t40 -48q48 -47 93 -84q49 -32 84 -66q32 -32 32 -70q0 -32 34 -32q49 0 123 45q36 21 59 46q21 21 21 48v625zM1338 296q-59 23 -59 77q8 56 59 69v-146zM2073 739
q0 107 -39 151q-38 45 -101.5 86.5t-145.5 72.5q-42 16 -83 29t-84 24q-86 21 -146 27t-105.5 1t-66.5 -10t-63 -21t-105.5 -36t-164.5 -32q-97 -12 -193 23q-93 34 -144 54q-51 19 -100.5 36t-92.5 17q-9 0 -25 -3t-32.5 -8t-31 -11t-21.5 -11q24 -8 44 -13.5t39 -8.5
t39 -4t46 -1l7 -104q-29 -13 -49.5 -21t-31.5 -10l-118 -31q-16 5 -27.5 9t-18.5 6q-14 5 -29.5 7.5t-29.5 2.5q-20 0 -31 -4v254q40 11 68.5 20t45.5 17q30 16 86 36q52 21 282 126q103 -43 183 -79t143 -65q124 -57 209 -48q17 5 33.5 10.5t33.5 10.5t59 25t111 54t118 57
t80 34q204 -85 345.5 -145t229.5 -95v-1046q-16 -35 -40 -57.5t-49 -36t-47.5 -19.5t-35.5 -8h-28q-33 67 -92 117q-28 23 -57 46t-58 45q-28 21 -52.5 37t-45.5 37q-41 44 -41 95q0 40 28.5 67t68.5 45.5t83 31t73 24.5q52 21 97 40.5t73 52.5v100zM2094 485
q-80 -29 -83 -80q0 -29 24 -57q24 -34 59 -34v171z" />
    <glyph glyph-name="afii61248" horiz-adv-x="2208" 
d="M1890 1713q40 96 134 96q97 -4 172 -76q77 -92 77 -225q0 -121 -52 -231q-32 -66 -60 -96q9 -4 17.5 -7t16.5 -6v-1046q-16 -35 -40 -57.5t-49 -36t-47.5 -19.5t-35.5 -8h-28q-33 67 -92 117q-28 23 -57 46t-58 45q-28 21 -52.5 37t-45.5 37q-41 44 -41 95q0 40 28.5 67
t68.5 45.5t83 31t73 24.5q52 21 97 40.5t73 52.5v100q0 107 -39 151q-38 45 -101.5 86.5t-145.5 72.5q-42 16 -83 29t-84 24q-85 21 -146 27q-60 6 -105.5 1t-66.5 -10t-63 -21t-105.5 -36t-164.5 -32q-96 -12 -193 23q-93 34 -144 54q-51 19 -100.5 36t-92.5 17
q-9 0 -25 -3t-32.5 -8t-31 -11t-21.5 -11q24 -8 44 -13.5t38.5 -8.5t39 -4t46.5 -1l7 -104q-29 -13 -49.5 -21t-31.5 -10l-118 -31q-16 5 -27.5 9t-18.5 6q-14 5 -29.5 7.5t-29.5 2.5q-22 0 -31 -4v254q40 11 68.5 20t45.5 17q29 16 86 36q52 21 282 126q103 -43 183 -79
t143 -65q124 -57 209 -48q17 5 33.5 10.5t33.5 10.5t59 25t111 54t118 57t80 34q147 -61 259.5 -109t197.5 -83q33 48 44 129q0 27 -6 65q-7 39 -40 65q-19 8 -42 15.5t-49 15.5q-20 10 -39.5 22t-37.5 27q-35 27 -35 68q0 37 18 90zM1467 764q-158 149 -349 194
q-191 36 -407 36q-203 -11 -364 -136q-167 -128 -180 -339q0 -181 91 -344q44 -78 110 -123q61 -52 139 -52q33 0 58 7q130 28 208 121q73 82 73 207q0 111 -62 191q-62 73 -168 77q-93 0 -160 -37q-73 -43 -73 -120q0 -78 21 -103q19 -25 41 -22q14 0 28 1t27 3
q29 0 32 -40q-4 -7 -8 -15l-9 -18q-18 -22 -41 -22q-12 0 -29.5 3t-40.5 8q-105 14 -109 180q2 20 8.5 42t16.5 45q63 116 187 147q127 25 314 21q35 0 69 -1.5t67 -5.5q61 -11 120 -27q57 -14 119.5 -31t131.5 -37q-50 -44 -116 -58q-33 -12 -65 -20.5t-63 -13.5
q-14 -2 -26.5 -4.5t-23.5 -6.5q-27 -8 -48 -18q-45 -21 -45 -66q0 -19 7 -32q15 -29 33 -55t40 -48q48 -47 93 -84q49 -32 84 -66q32 -32 32 -70q0 -32 34 -32q49 0 123 45q38 22 59 46q21 21 21 48v625zM2093 485q-80 -29 -83 -80q0 -29 24 -57q24 -34 59 -34v171z
M1337 442v-146q-59 23 -59 77q7 55 59 69z" />
    <glyph glyph-name="afii61289" unicode="&#x1790;" horiz-adv-x="1450" 
d="M1160 1695q125 -25 172 -95q37 -73 37 -164q0 -103 -48 -191q-23 -43 -53 -82.5t-67 -74.5q-160 -139 -310 -142q-34 8 -77 33q-26 11 -52.5 23.5t-54.5 26.5q-111 66 -244 70q-125 -7 -157 -46q-16 -20 -30.5 -42.5t-28.5 -48.5q29 8 53.5 16t46.5 16q33 10 98 10
q112 0 200 -55q84 -56 89 -200q0 -98 -41 -157q-33 -49 -98 -114q66 -77 132 -102q64 -28 196 -33q217 0 293 85q69 76 66 171q-22 47 -41 43q-11 -4 -21 -7t-19 -7q-17 0 -30 -18q-4 -9 -8.5 -19.5t-9.5 -21.5t-11.5 -21t-13.5 -18q-18 -22 -62 -22q-45 0 -95.5 12
t-86.5 42q-63 48 -63 150q0 93 77 146q73 55 193 55q118 0 209 -91q90 -87 94 -256q0 -78 -18 -172q-25 -97 -91 -189q-68 -87 -175 -146q-120 -59 -289 -62q-240 3 -410 156q-168 144 -226 311q70 14 128.5 28.5t106.5 30.5q97 29 175 101q-98 74 -191 74q-74 0 -123 -25
q-28 -11 -52 -20.5t-44 -17.5v519q172 136 417 255q132 -57 252 -108q123 -59 208 -59q35 0 52 7q46 7 57 27q13 26 13 53q0 48 -31 55q-14 5 -32 7t-41 0q-39 -3 -77 24q-39 25 -58 109q0 66 55 115q47 51 160 56z" />
    <glyph glyph-name="H22073" 
d="M-1053 -778q-80 36 -105 189q7 223 175 321q154 97 337 97q13 0 14 -1q244 -3 420 -183q171 -174 205 -402q-18 0 -33 1t-26 3q-98 176 -286 255q-190 80 -394 80q-25 2 -66 -5t-98 -23q-52 -15 -87 -56q-41 -42 -45 -108q36 -11 45 -11q25 3 35 25q13 16 16 48
q11 29 29 46q18 20 66 20q175 0 171 -136q0 -83 -59 -139q-55 -55 -153 -59h-11q-76 0 -150 38z" />
    <glyph glyph-name="H18543" 
d="M-1053 -1388q-80 36 -105 189q7 223 175 321q154 97 337 97q13 0 14 -1q244 -3 420 -183q171 -174 205 -402q-18 0 -33 1t-26 3q-98 176 -286 255q-190 80 -394 80q-25 2 -66 -5t-98 -23q-52 -15 -87 -56q-41 -42 -45 -108q36 -11 45 -11q25 3 35 25q13 16 16 48
q11 29 29 46q18 20 66 20q175 0 171 -136q0 -83 -59 -139q-55 -55 -153 -59h-11q-76 0 -150 38z" />
    <glyph glyph-name="H18551" horiz-adv-x="2055" 
d="M1397 1281q45 20 105.5 54t141.5 83q66 -38 131 -74.5t132 -71.5q31 -17 57 -31.5t46 -27.5q39 -35 39 -55v-990q-3 -77 -69 -123q-62 -45 -98 -48q-8 53 -56 87q-25 20 -52.5 39t-59.5 38q-28 22 -53.5 45.5t-49.5 48.5q-50 56 -50 136q0 55 66 87q29 17 62.5 33
t70.5 30q82 28 140 76q58 45 58 118q0 76 -48 150q-46 64 -119 119q-131 91 -213 108q-82 16 -143 6q-29 -5 -92.5 -17.5t-166.5 -32.5q-149 -119 -286 -122q-33 7 -77 33q-26 11 -52.5 23.5t-54.5 26.5q-110 65 -244 70q-126 -8 -157 -46q-16 -20 -30.5 -42.5t-28.5 -48.5
q29 8 53.5 16t46.5 16q34 10 98 10q112 0 200 -55q84 -56 89 -200q0 -98 -41 -157q-35 -51 -98 -114q66 -77 132 -102q65 -29 196 -33q217 0 293 85q69 76 66 171q-22 48 -41 43q-11 -4 -21 -7t-19 -7q-17 0 -30 -18q-4 -9 -8.5 -19.5t-9.5 -21.5t-11.5 -21t-13.5 -18
q-18 -22 -62 -22q-45 0 -95.5 12t-86.5 42q-63 48 -63 150q0 93 77 146q73 55 193 55q118 0 209 -91q90 -87 94 -256q0 -78 -18 -172q-26 -99 -91 -189q-69 -88 -175 -146q-118 -59 -289 -62q-241 3 -410 156q-167 143 -226 311q70 14 128.5 28.5t106.5 30.5q96 28 175 101
q-98 74 -191 74q-74 0 -123 -25q-28 -11 -52 -20.5t-44 -17.5v519q172 136 417 255q132 -57 252 -108q121 -59 208 -59q34 0 52 7q46 7 57 27q13 27 13 53q0 48 -31 55q-14 5 -32 7t-41 0q-39 -3 -77 24q-39 25 -58 109q0 66 55 115q47 51 160 56q126 -26 172 -95
q37 -73 37 -164q0 -103 -48 -191l-1 -1q17 10 36.5 19t41.5 18zM1968 505q-14 -8 -27 -15.5t-25 -14.5q-28 -15 -28 -47q0 -31 28 -41q24 -14 52 -18v136z" />
    <glyph glyph-name="H18533" horiz-adv-x="2058" 
d="M1734 1623q0 37 18 90q40 96 134 96q97 -4 172 -76q77 -92 77 -225q0 -121 -52 -231q-13 -26 -25 -47t-25 -37q19 -19 19 -35v-990q-3 -77 -69 -123q-61 -45 -98 -48q-7 52 -56 87q-25 20 -52.5 39t-59.5 38q-28 22 -53.5 45.5t-49.5 48.5q-50 56 -50 136q0 55 66 87
q29 17 62.5 33t70.5 30q82 28 140 76q58 45 58 118q0 76 -48 150q-46 64 -119 119q-131 91 -213 108q-82 16 -143 6q-29 -5 -92.5 -17.5t-166.5 -32.5q-149 -119 -286 -122q-34 8 -77 33q-26 11 -52.5 23.5t-54.5 26.5q-111 66 -244 70q-125 -7 -157 -46
q-16 -20 -30.5 -42.5t-28.5 -48.5q29 8 53.5 16t46.5 16q33 10 98 10q112 0 200 -55q84 -56 89 -200q0 -98 -41 -157q-33 -49 -98 -114q66 -77 132 -102q64 -28 196 -33q217 0 293 85q69 76 66 171q-22 47 -41 43q-11 -4 -21 -7t-19 -7q-17 0 -30 -18q-4 -9 -8.5 -19.5
t-9.5 -21.5t-11.5 -21t-13.5 -18q-18 -22 -62 -22q-45 0 -95.5 12t-86.5 42q-63 48 -63 150q0 93 77 146q73 55 193 55q118 0 209 -91q90 -87 94 -256q0 -78 -18 -172q-25 -97 -91 -189q-68 -87 -175 -146q-120 -59 -289 -62q-240 3 -410 156q-168 144 -226 311
q70 14 128.5 28.5t106.5 30.5q97 29 175 101q-98 74 -191 74q-74 0 -123 -25q-28 -11 -52 -20.5t-44 -17.5v519q172 136 417 255q132 -57 252 -108q123 -59 208 -59q35 0 52 7q46 7 57 27q13 26 13 53q0 48 -31 55q-14 5 -32 7t-41 0q-39 -3 -77 24q-39 25 -58 109
q0 66 55 115q47 51 160 56q125 -25 172 -95q37 -73 37 -164q0 -103 -48 -191l-1 -1q17 10 36.5 19t41.5 18q45 20 105.5 54t141.5 83q66 -38 131 -74.5t132 -71.5q12 -7 23.5 -13.5t22.5 -12.5q19 40 27 99q0 27 -6 65q-7 39 -40 65q-19 8 -42 15.5t-49 15.5
q-20 10 -39.5 22t-37.5 27q-35 27 -35 68zM1971 505q-14 -8 -27 -15.5t-25 -14.5q-28 -15 -28 -47q0 -31 28 -41q24 -14 52 -18v136z" />
    <glyph glyph-name="openbullet" unicode="&#x1791;" horiz-adv-x="1468" 
d="M1453 972q0 -110 -84 -198q-84 -95 -244 -105q-180 -4 -205 136q-4 144 157 148q66 0 83 -11q15 -11 15 -32q0 -23 9 -48q3 -29 46 -63q70 0 73 56q0 69 -48 117q-46 43 -130 70q-171 46 -398 46q-275 4 -414 -87q146 0 230 -22q88 -26 143 -66q102 -85 98 -185
q0 -49 -18 -89q-44 -116 -91 -141q-26 -16 -59.5 -34t-75.5 -39q14 -45 44 -59q29 -23 57 -23q46 0 93 44q22 17 45.5 38t49.5 46q28 26 61 50.5t71 47.5q38 20 83 33.5t99 18.5q166 -4 240 -91q66 -92 66 -227q-35 -292 -274 -296q-134 0 -182 70q-53 59 -48 139
q0 94 69 112q63 15 132 15q10 -25 98 -61q10 -2 18 -3t13 -1q-32 77 -81 95q-28 7 -58 10.5t-63 3.5q-61 -3 -102 -62q-41 -63 -84 -147q-41 -81 -110 -142q-70 -64 -189 -68q-175 10 -268 109q-85 94 -123 205q-23 63 -23 123q0 36 14 70q51 4 108.5 10t123.5 16
q127 15 221 84q-121 88 -248 88q-95 0 -212 -56v471q138 90 288 167.5t322 146.5q216 -31 432 -134q103 -49 167 -121q63 -77 63 -175z" />
    <glyph glyph-name="Amacron" 
d="M-97 -126q0 -70 -70 -131q-72 -64 -139 -95q-171 -84 -401 -84q-24 0 -49 1t-51 3q37 -39 125 -70q40 -14 79.5 -22t77.5 -10q77 0 118 29q18 13 34.5 27.5t31.5 31.5q13 16 27 31.5t30 30.5q28 22 87 22q66 0 86 -59q4 -12 7.5 -34t5.5 -47.5t2.5 -51.5t-1.5 -46
q-8 -198 -153 -198q-43 0 -77 27q3 36 28 70q22 31 22 53q3 22 -36 45q-35 -26 -75 -48.5t-85 -42.5q-88 -40 -202 -45q-67 0 -209 63q-30 16 -57 35t-52 41q-48 36 -51 91q16 97 80 161q58 66 169 100q63 0 137.5 6t162.5 19q90 13 189 37.5t209 59.5z" />
    <glyph glyph-name="amacron" 
d="M-97 -746q0 -70 -70 -131q-72 -64 -139 -95q-171 -84 -401 -84q-24 0 -49 1t-51 3q37 -39 125 -70q40 -14 79.5 -22t77.5 -10q77 0 118 29q18 13 34.5 27.5t31.5 31.5q13 16 27 31.5t30 30.5q28 22 87 22q66 0 86 -59q15 -54 14 -179q-8 -198 -153 -198q-43 0 -77 27
q3 36 28 70q22 31 22 53q3 22 -36 45q-35 -26 -75 -48.5t-85 -42.5q-88 -40 -202 -45q-67 0 -209 63q-30 16 -57 35t-52 41q-48 36 -51 91q16 97 80 161q58 66 169 100q63 0 137.5 6t162.5 19q90 13 189 37.5t209 59.5z" />
    <glyph glyph-name="Ccircumflex" horiz-adv-x="2160" 
d="M1536 1261q46 36 98.5 75t113.5 82q66 -38 131 -74.5t132 -71.5q31 -17 57 -31.5t46 -27.5q39 -35 39 -55v-990q-3 -77 -69 -123q-62 -45 -98 -48q-8 53 -56 87q-25 20 -52.5 39t-59.5 38q-28 22 -53.5 45.5t-49.5 48.5q-50 56 -50 136q0 55 66 87q29 17 62.5 33t70.5 30
q82 28 140 76q58 45 58 118q0 76 -48 150q-46 64 -119 119q-131 91 -213 108q-82 16 -143 6q-46 -8 -103 -43q20 -54 20 -103q0 -110 -84 -198q-84 -95 -244 -105q-180 -5 -205 136q-5 144 157 148q66 0 83 -11q15 -11 15 -32q0 -23 9 -48q3 -29 46 -63q70 0 73 56
q0 69 -48 117q-46 43 -130 70q-172 46 -398 46q-275 4 -414 -87q145 0 230 -22q87 -25 143 -66q103 -85 98 -185q0 -49 -18 -89q-43 -115 -91 -141q-26 -16 -59.5 -34t-75.5 -39q14 -45 44 -59q29 -23 57 -23q46 0 93 44q22 17 45.5 38t49.5 46q28 26 61 50.5t71 47.5
q38 20 83 33.5t99 18.5q167 -5 240 -91q66 -92 66 -227q-34 -291 -274 -296q-134 0 -182 70q-53 59 -48 139q0 94 69 112q63 15 132 15q10 -25 98 -61q10 -2 18 -3t13 -1q-32 77 -81 95q-28 7 -58 10.5t-63 3.5q-61 -3 -102 -62q-41 -63 -84 -147q-41 -80 -110 -142
q-69 -63 -189 -68q-175 10 -268 109q-86 95 -123 205q-23 61 -23 123q0 37 14 70q51 4 108.5 10t123.5 16q126 15 221 84q-121 88 -248 88q-97 0 -212 -56v471q138 90 288 167.5t322 146.5q109 -16 216 -49t216 -85q99 -47 163 -117q35 25 71.5 52t75.5 58zM2072 505
q-14 -8 -27 -15.5t-25 -14.5q-28 -15 -28 -47q0 -31 28 -41q24 -14 52 -18v136z" />
    <glyph glyph-name="ccircumflex" horiz-adv-x="2160" 
d="M1835 1623q0 37 18 90q40 96 134 96q97 -4 172 -76q77 -92 77 -225q0 -121 -52 -231q-13 -26 -25 -47t-25 -37q19 -19 19 -35v-990q-3 -77 -69 -123q-61 -45 -98 -48q-7 52 -56 87q-25 20 -52.5 39t-59.5 38q-28 22 -53.5 45.5t-49.5 48.5q-50 56 -50 136q0 55 66 87
q29 17 62.5 33t70.5 30q82 28 140 76q58 45 58 118q0 76 -48 150q-46 64 -119 119q-131 91 -213 108q-82 16 -143 6q-44 -7 -103 -43q20 -55 20 -103q0 -110 -84 -198q-84 -95 -244 -105q-180 -4 -205 136q-4 144 157 148q66 0 83 -11q15 -11 15 -32q0 -23 9 -48
q3 -29 46 -63q70 0 73 56q0 69 -48 117q-46 43 -130 70q-171 46 -398 46q-275 4 -414 -87q146 0 230 -22q88 -26 143 -66q102 -85 98 -185q0 -49 -18 -89q-44 -116 -91 -141q-26 -16 -59.5 -34t-75.5 -39q14 -45 44 -59q29 -23 57 -23q46 0 93 44q22 17 45.5 38t49.5 46
q28 26 61 50.5t71 47.5q38 20 83 33.5t99 18.5q166 -4 240 -91q66 -92 66 -227q-35 -292 -274 -296q-134 0 -182 70q-53 59 -48 139q0 94 69 112q63 15 132 15q10 -25 98 -61q10 -2 18 -3t13 -1q-32 77 -81 95q-28 7 -58 10.5t-63 3.5q-61 -3 -102 -62q-41 -63 -84 -147
q-41 -81 -110 -142q-70 -64 -189 -68q-175 10 -268 109q-85 94 -123 205q-23 63 -23 123q0 36 14 70q51 4 108.5 10t123.5 16q127 15 221 84q-121 88 -248 88q-95 0 -212 -56v471q138 90 288 167.5t322 146.5q216 -31 432 -134q98 -46 163 -117q35 25 71.5 52t75.5 58
q46 36 98.5 75t113.5 82q66 -38 131 -74.5t132 -71.5q12 -7 23.5 -13.5t22.5 -12.5q19 40 27 99q0 27 -6 65q-7 39 -40 65q-19 8 -42 15.5t-49 15.5q-20 10 -39.5 22t-37.5 27q-35 27 -35 68zM2072 505q-14 -8 -27 -15.5t-25 -14.5q-28 -15 -28 -47q0 -31 28 -41
q24 -14 52 -18v136z" />
    </font>
</defs>
</svg>
